<?xml version="1.0" encoding="utf-8" standalone="no"?>
<!DOCTYPE svg PUBLIC "-//W3C//DTD SVG 1.1//EN"
  "http://www.w3.org/Graphics/SVG/1.1/DTD/svg11.dtd">
<svg xmlns:xlink="http://www.w3.org/1999/xlink" width="936.328828pt" height="366.336pt" viewBox="0 0 936.328828 366.336" xmlns="http://www.w3.org/2000/svg" version="1.1">
 <metadata>
  <rdf:RDF xmlns:dc="http://purl.org/dc/elements/1.1/" xmlns:cc="http://creativecommons.org/ns#" xmlns:rdf="http://www.w3.org/1999/02/22-rdf-syntax-ns#">
   <cc:Work>
    <dc:type rdf:resource="http://purl.org/dc/dcmitype/StillImage"/>
    <dc:date>2026-07-13T00:00:00Z</dc:date>
    <dc:format>image/svg+xml</dc:format>
    <dc:creator>
     <cc:Agent>
      <dc:title>AniBench v2 deterministic method-figure builder</dc:title>
     </cc:Agent>
    </dc:creator>
   </cc:Work>
  </rdf:RDF>
 </metadata>
 <defs>
  <style type="text/css">*{stroke-linejoin: round; stroke-linecap: butt}</style>
 </defs>
 <g id="figure_1">
  <g id="patch_1">
   <path d="M 0 366.336 
L 936.328828 366.336 
L 936.328828 -0 
L 0 -0 
z
" style="fill: #ffffff"/>
  </g>
  <g id="axes_1">
   <g id="patch_2">
    <path d="M 189.499214 151.944192 
L 292.617614 151.944192 
Q 303.666014 151.944192 303.666014 145.557504 
L 303.666014 93.044736 
Q 303.666014 86.658048 292.617614 86.658048 
L 189.499214 86.658048 
Q 178.450814 86.658048 178.450814 93.044736 
L 178.450814 145.557504 
Q 178.450814 151.944192 189.499214 151.944192 
z
" clip-path="url(#p15132c06f3)" style="fill: #eaf3f6; stroke: #17232c; stroke-width: 1.25; stroke-linejoin: miter"/>
   </g>
   <g id="patch_3">
    <path d="M 189.499214 258.388992 
L 292.617614 258.388992 
Q 303.666014 258.388992 303.666014 252.002304 
L 303.666014 199.489536 
Q 303.666014 193.102848 292.617614 193.102848 
L 189.499214 193.102848 
Q 178.450814 193.102848 178.450814 199.489536 
L 178.450814 252.002304 
Q 178.450814 258.388992 189.499214 258.388992 
z
" clip-path="url(#p15132c06f3)" style="fill: #eaf3f6; stroke: #17232c; stroke-width: 1.25; stroke-linejoin: miter"/>
   </g>
   <g id="patch_4">
    <path d="M 298.034969 120.303804 
Q 326.99308 137.043461 354.596066 152.999768 
" clip-path="url(#p15132c06f3)" style="fill: none; stroke: #3e748d; stroke-width: 1.4; stroke-linecap: round"/>
    <path d="M 351.641543 148.519724 
L 354.596066 152.999768 
L 349.239317 152.67536 
z
" clip-path="url(#p15132c06f3)" style="fill: #3e748d; stroke: #3e748d; stroke-width: 1.4; stroke-linecap: round"/>
   </g>
   <g id="patch_5">
    <path d="M 297.855144 224.487692 
Q 326.991847 200.90764 354.91183 178.312268 
" clip-path="url(#p15132c06f3)" style="fill: none; stroke: #3e748d; stroke-width: 1.4; stroke-linecap: round"/>
    <path d="M 349.670817 179.466292 
L 354.91183 178.312268 
L 352.690442 183.197494 
z
" clip-path="url(#p15132c06f3)" style="fill: #3e748d; stroke: #3e748d; stroke-width: 1.4; stroke-linecap: round"/>
   </g>
   <g id="patch_6">
    <path d="M 361.363214 212.262912 
L 501.309614 212.262912 
Q 512.358014 212.262912 512.358014 205.876224 
L 512.358014 124.978176 
Q 512.358014 118.591488 501.309614 118.591488 
L 361.363214 118.591488 
Q 350.314814 118.591488 350.314814 124.978176 
L 350.314814 205.876224 
Q 350.314814 212.262912 361.363214 212.262912 
z
" clip-path="url(#p15132c06f3)" style="fill: #fff2de; stroke: #17232c; stroke-width: 1.25; stroke-linejoin: miter"/>
   </g>
   <g id="patch_7">
    <path d="M 506.992958 165.4272 
Q 541.821341 165.4272 575.084476 165.4272 
" clip-path="url(#p15132c06f3)" style="fill: none; stroke: #ff9500; stroke-width: 1.4; stroke-linecap: round"/>
    <path d="M 570.284476 163.0272 
L 575.084476 165.4272 
L 570.284476 167.8272 
z
" clip-path="url(#p15132c06f3)" style="fill: #ff9500; stroke: #ff9500; stroke-width: 1.4; stroke-linecap: round"/>
   </g>
   <g id="patch_8">
    <path d="M 582.331214 162.588672 
L 746.829614 162.588672 
Q 757.878014 162.588672 757.878014 156.201984 
L 757.878014 100.141056 
Q 757.878014 93.754368 746.829614 93.754368 
L 582.331214 93.754368 
Q 571.282814 93.754368 571.282814 100.141056 
L 571.282814 156.201984 
Q 571.282814 162.588672 582.331214 162.588672 
z
" clip-path="url(#p15132c06f3)" style="fill: #eaf7ed; stroke: #17232c; stroke-width: 1.25; stroke-linejoin: miter"/>
   </g>
   <g id="patch_9">
    <path d="M 582.331214 265.485312 
L 746.829614 265.485312 
Q 757.878014 265.485312 757.878014 259.098624 
L 757.878014 203.037696 
Q 757.878014 196.651008 746.829614 196.651008 
L 582.331214 196.651008 
Q 571.282814 196.651008 571.282814 203.037696 
L 571.282814 259.098624 
Q 571.282814 265.485312 582.331214 265.485312 
z
" clip-path="url(#p15132c06f3)" style="fill: #fbedee; stroke: #17232c; stroke-width: 1.25; stroke-linejoin: miter"/>
   </g>
   <g id="patch_10">
    <path d="M 506.761435 191.201711 
Q 541.820816 209.779413 575.497126 227.624236 
" clip-path="url(#p15132c06f3)" style="fill: none; stroke: #9a3d45; stroke-width: 1.4; stroke-linecap: round"/>
    <path d="M 572.379514 223.256114 
L 575.497126 227.624236 
L 570.132061 227.497452 
z
" clip-path="url(#p15132c06f3)" style="fill: #9a3d45; stroke: #9a3d45; stroke-width: 1.4; stroke-linecap: round"/>
   </g>
   <g id="text_1">
    <!-- Same-event identity and redundancy control -->
    <g style="fill: #17232c" transform="translate(179.678414 33.629828) scale(0.18 -0.18)">
     <defs>
      <path id="DejaVuSans-Bold-36" d="M 3834 4519 
L 3834 3531 
Q 3450 3703 3084 3790 
Q 2719 3878 2394 3878 
Q 1963 3878 1756 3759 
Q 1550 3641 1550 3391 
Q 1550 3203 1689 3098 
Q 1828 2994 2194 2919 
L 2706 2816 
Q 3484 2659 3812 2340 
Q 4141 2022 4141 1434 
Q 4141 663 3683 286 
Q 3225 -91 2284 -91 
Q 1841 -91 1394 -6 
Q 947 78 500 244 
L 500 1259 
Q 947 1022 1364 901 
Q 1781 781 2169 781 
Q 2563 781 2772 912 
Q 2981 1044 2981 1288 
Q 2981 1506 2839 1625 
Q 2697 1744 2272 1838 
L 1806 1941 
Q 1106 2091 782 2419 
Q 459 2747 459 3303 
Q 459 4000 909 4375 
Q 1359 4750 2203 4750 
Q 2588 4750 2994 4692 
Q 3400 4634 3834 4519 
z
" transform="scale(0.015625)"/>
      <path id="DejaVuSans-Bold-44" d="M 2106 1575 
Q 1756 1575 1579 1456 
Q 1403 1338 1403 1106 
Q 1403 894 1545 773 
Q 1688 653 1941 653 
Q 2256 653 2472 879 
Q 2688 1106 2688 1447 
L 2688 1575 
L 2106 1575 
z
M 3816 1997 
L 3816 0 
L 2688 0 
L 2688 519 
Q 2463 200 2181 54 
Q 1900 -91 1497 -91 
Q 953 -91 614 226 
Q 275 544 275 1050 
Q 275 1666 698 1953 
Q 1122 2241 2028 2241 
L 2688 2241 
L 2688 2328 
Q 2688 2594 2478 2717 
Q 2269 2841 1825 2841 
Q 1466 2841 1156 2769 
Q 847 2697 581 2553 
L 581 3406 
Q 941 3494 1303 3539 
Q 1666 3584 2028 3584 
Q 2975 3584 3395 3211 
Q 3816 2838 3816 1997 
z
" transform="scale(0.015625)"/>
      <path id="DejaVuSans-Bold-50" d="M 3781 2919 
Q 3994 3244 4286 3414 
Q 4578 3584 4928 3584 
Q 5531 3584 5847 3212 
Q 6163 2841 6163 2131 
L 6163 0 
L 5038 0 
L 5038 1825 
Q 5041 1866 5042 1909 
Q 5044 1953 5044 2034 
Q 5044 2406 4934 2573 
Q 4825 2741 4581 2741 
Q 4263 2741 4089 2478 
Q 3916 2216 3909 1719 
L 3909 0 
L 2784 0 
L 2784 1825 
Q 2784 2406 2684 2573 
Q 2584 2741 2328 2741 
Q 2006 2741 1831 2477 
Q 1656 2213 1656 1722 
L 1656 0 
L 531 0 
L 531 3500 
L 1656 3500 
L 1656 2988 
Q 1863 3284 2130 3434 
Q 2397 3584 2719 3584 
Q 3081 3584 3359 3409 
Q 3638 3234 3781 2919 
z
" transform="scale(0.015625)"/>
      <path id="DejaVuSans-Bold-48" d="M 4031 1759 
L 4031 1441 
L 1416 1441 
Q 1456 1047 1700 850 
Q 1944 653 2381 653 
Q 2734 653 3104 758 
Q 3475 863 3866 1075 
L 3866 213 
Q 3469 63 3072 -14 
Q 2675 -91 2278 -91 
Q 1328 -91 801 392 
Q 275 875 275 1747 
Q 275 2603 792 3093 
Q 1309 3584 2216 3584 
Q 3041 3584 3536 3087 
Q 4031 2591 4031 1759 
z
M 2881 2131 
Q 2881 2450 2695 2645 
Q 2509 2841 2209 2841 
Q 1884 2841 1681 2658 
Q 1478 2475 1428 2131 
L 2881 2131 
z
" transform="scale(0.015625)"/>
      <path id="DejaVuSans-Bold-10" d="M 347 2297 
L 2309 2297 
L 2309 1388 
L 347 1388 
L 347 2297 
z
" transform="scale(0.015625)"/>
      <path id="DejaVuSans-Bold-59" d="M 97 3500 
L 1216 3500 
L 2088 1081 
L 2956 3500 
L 4078 3500 
L 2700 0 
L 1472 0 
L 97 3500 
z
" transform="scale(0.015625)"/>
      <path id="DejaVuSans-Bold-51" d="M 4056 2131 
L 4056 0 
L 2931 0 
L 2931 347 
L 2931 1631 
Q 2931 2084 2911 2256 
Q 2891 2428 2841 2509 
Q 2775 2619 2662 2680 
Q 2550 2741 2406 2741 
Q 2056 2741 1856 2470 
Q 1656 2200 1656 1722 
L 1656 0 
L 538 0 
L 538 3500 
L 1656 3500 
L 1656 2988 
Q 1909 3294 2193 3439 
Q 2478 3584 2822 3584 
Q 3428 3584 3742 3212 
Q 4056 2841 4056 2131 
z
" transform="scale(0.015625)"/>
      <path id="DejaVuSans-Bold-57" d="M 1759 4494 
L 1759 3500 
L 2913 3500 
L 2913 2700 
L 1759 2700 
L 1759 1216 
Q 1759 972 1856 886 
Q 1953 800 2241 800 
L 2816 800 
L 2816 0 
L 1856 0 
Q 1194 0 917 276 
Q 641 553 641 1216 
L 641 2700 
L 84 2700 
L 84 3500 
L 641 3500 
L 641 4494 
L 1759 4494 
z
" transform="scale(0.015625)"/>
      <path id="DejaVuSans-Bold-3" transform="scale(0.015625)"/>
      <path id="DejaVuSans-Bold-4c" d="M 538 3500 
L 1656 3500 
L 1656 0 
L 538 0 
L 538 3500 
z
M 538 4863 
L 1656 4863 
L 1656 3950 
L 538 3950 
L 538 4863 
z
" transform="scale(0.015625)"/>
      <path id="DejaVuSans-Bold-47" d="M 2919 2988 
L 2919 4863 
L 4044 4863 
L 4044 0 
L 2919 0 
L 2919 506 
Q 2688 197 2409 53 
Q 2131 -91 1766 -91 
Q 1119 -91 703 423 
Q 288 938 288 1747 
Q 288 2556 703 3070 
Q 1119 3584 1766 3584 
Q 2128 3584 2408 3439 
Q 2688 3294 2919 2988 
z
M 2181 722 
Q 2541 722 2730 984 
Q 2919 1247 2919 1747 
Q 2919 2247 2730 2509 
Q 2541 2772 2181 2772 
Q 1825 2772 1636 2509 
Q 1447 2247 1447 1747 
Q 1447 1247 1636 984 
Q 1825 722 2181 722 
z
" transform="scale(0.015625)"/>
      <path id="DejaVuSans-Bold-5c" d="M 78 3500 
L 1197 3500 
L 2138 1125 
L 2938 3500 
L 4056 3500 
L 2584 -331 
Q 2363 -916 2067 -1148 
Q 1772 -1381 1288 -1381 
L 641 -1381 
L 641 -647 
L 991 -647 
Q 1275 -647 1404 -556 
Q 1534 -466 1606 -231 
L 1638 -134 
L 78 3500 
z
" transform="scale(0.015625)"/>
      <path id="DejaVuSans-Bold-55" d="M 3138 2547 
Q 2991 2616 2845 2648 
Q 2700 2681 2553 2681 
Q 2122 2681 1889 2404 
Q 1656 2128 1656 1613 
L 1656 0 
L 538 0 
L 538 3500 
L 1656 3500 
L 1656 2925 
Q 1872 3269 2151 3426 
Q 2431 3584 2822 3584 
Q 2878 3584 2943 3579 
Q 3009 3575 3134 3559 
L 3138 2547 
z
" transform="scale(0.015625)"/>
      <path id="DejaVuSans-Bold-58" d="M 500 1363 
L 500 3500 
L 1625 3500 
L 1625 3150 
Q 1625 2866 1622 2436 
Q 1619 2006 1619 1863 
Q 1619 1441 1641 1255 
Q 1663 1069 1716 984 
Q 1784 875 1895 815 
Q 2006 756 2150 756 
Q 2500 756 2700 1025 
Q 2900 1294 2900 1772 
L 2900 3500 
L 4019 3500 
L 4019 0 
L 2900 0 
L 2900 506 
Q 2647 200 2364 54 
Q 2081 -91 1741 -91 
Q 1134 -91 817 281 
Q 500 653 500 1363 
z
" transform="scale(0.015625)"/>
      <path id="DejaVuSans-Bold-46" d="M 3366 3391 
L 3366 2478 
Q 3138 2634 2908 2709 
Q 2678 2784 2431 2784 
Q 1963 2784 1702 2511 
Q 1441 2238 1441 1747 
Q 1441 1256 1702 982 
Q 1963 709 2431 709 
Q 2694 709 2930 787 
Q 3166 866 3366 1019 
L 3366 103 
Q 3103 6 2833 -42 
Q 2563 -91 2291 -91 
Q 1344 -91 809 395 
Q 275 881 275 1747 
Q 275 2613 809 3098 
Q 1344 3584 2291 3584 
Q 2566 3584 2833 3536 
Q 3100 3488 3366 3391 
z
" transform="scale(0.015625)"/>
      <path id="DejaVuSans-Bold-52" d="M 2203 2784 
Q 1831 2784 1636 2517 
Q 1441 2250 1441 1747 
Q 1441 1244 1636 976 
Q 1831 709 2203 709 
Q 2569 709 2762 976 
Q 2956 1244 2956 1747 
Q 2956 2250 2762 2517 
Q 2569 2784 2203 2784 
z
M 2203 3584 
Q 3106 3584 3614 3096 
Q 4122 2609 4122 1747 
Q 4122 884 3614 396 
Q 3106 -91 2203 -91 
Q 1297 -91 786 396 
Q 275 884 275 1747 
Q 275 2609 786 3096 
Q 1297 3584 2203 3584 
z
" transform="scale(0.015625)"/>
      <path id="DejaVuSans-Bold-4f" d="M 538 4863 
L 1656 4863 
L 1656 0 
L 538 0 
L 538 4863 
z
" transform="scale(0.015625)"/>
     </defs>
     <use xlink:href="#DejaVuSans-Bold-36"/>
     <use xlink:href="#DejaVuSans-Bold-44" transform="translate(72.015625 0)"/>
     <use xlink:href="#DejaVuSans-Bold-50" transform="translate(139.5 0)"/>
     <use xlink:href="#DejaVuSans-Bold-48" transform="translate(243.703125 0)"/>
     <use xlink:href="#DejaVuSans-Bold-10" transform="translate(311.53125 0)"/>
     <use xlink:href="#DejaVuSans-Bold-48" transform="translate(353.03125 0)"/>
     <use xlink:href="#DejaVuSans-Bold-59" transform="translate(420.859375 0)"/>
     <use xlink:href="#DejaVuSans-Bold-48" transform="translate(486.046875 0)"/>
     <use xlink:href="#DejaVuSans-Bold-51" transform="translate(553.875 0)"/>
     <use xlink:href="#DejaVuSans-Bold-57" transform="translate(625.0625 0)"/>
     <use xlink:href="#DejaVuSans-Bold-3" transform="translate(672.859375 0)"/>
     <use xlink:href="#DejaVuSans-Bold-4c" transform="translate(707.671875 0)"/>
     <use xlink:href="#DejaVuSans-Bold-47" transform="translate(741.953125 0)"/>
     <use xlink:href="#DejaVuSans-Bold-48" transform="translate(813.53125 0)"/>
     <use xlink:href="#DejaVuSans-Bold-51" transform="translate(881.359375 0)"/>
     <use xlink:href="#DejaVuSans-Bold-57" transform="translate(952.546875 0)"/>
     <use xlink:href="#DejaVuSans-Bold-4c" transform="translate(1000.34375 0)"/>
     <use xlink:href="#DejaVuSans-Bold-57" transform="translate(1034.625 0)"/>
     <use xlink:href="#DejaVuSans-Bold-5c" transform="translate(1082.421875 0)"/>
     <use xlink:href="#DejaVuSans-Bold-3" transform="translate(1147.609375 0)"/>
     <use xlink:href="#DejaVuSans-Bold-44" transform="translate(1182.421875 0)"/>
     <use xlink:href="#DejaVuSans-Bold-51" transform="translate(1249.90625 0)"/>
     <use xlink:href="#DejaVuSans-Bold-47" transform="translate(1321.09375 0)"/>
     <use xlink:href="#DejaVuSans-Bold-3" transform="translate(1392.671875 0)"/>
     <use xlink:href="#DejaVuSans-Bold-55" transform="translate(1427.484375 0)"/>
     <use xlink:href="#DejaVuSans-Bold-48" transform="translate(1476.796875 0)"/>
     <use xlink:href="#DejaVuSans-Bold-47" transform="translate(1544.625 0)"/>
     <use xlink:href="#DejaVuSans-Bold-58" transform="translate(1616.203125 0)"/>
     <use xlink:href="#DejaVuSans-Bold-51" transform="translate(1687.390625 0)"/>
     <use xlink:href="#DejaVuSans-Bold-47" transform="translate(1758.578125 0)"/>
     <use xlink:href="#DejaVuSans-Bold-44" transform="translate(1830.15625 0)"/>
     <use xlink:href="#DejaVuSans-Bold-51" transform="translate(1897.640625 0)"/>
     <use xlink:href="#DejaVuSans-Bold-46" transform="translate(1968.828125 0)"/>
     <use xlink:href="#DejaVuSans-Bold-5c" transform="translate(2028.109375 0)"/>
     <use xlink:href="#DejaVuSans-Bold-3" transform="translate(2093.296875 0)"/>
     <use xlink:href="#DejaVuSans-Bold-46" transform="translate(2128.109375 0)"/>
     <use xlink:href="#DejaVuSans-Bold-52" transform="translate(2187.390625 0)"/>
     <use xlink:href="#DejaVuSans-Bold-51" transform="translate(2256.09375 0)"/>
     <use xlink:href="#DejaVuSans-Bold-57" transform="translate(2327.28125 0)"/>
     <use xlink:href="#DejaVuSans-Bold-55" transform="translate(2375.078125 0)"/>
     <use xlink:href="#DejaVuSans-Bold-52" transform="translate(2424.390625 0)"/>
     <use xlink:href="#DejaVuSans-Bold-4f" transform="translate(2493.09375 0)"/>
    </g>
   </g>
   <g id="text_2">
    <!-- Independent biological directions can combine only inside one declared participant-event bundle with joint covariance. -->
    <g style="fill: #5e6a72" transform="translate(179.678414 47.445879) scale(0.105 -0.105)">
     <defs>
      <path id="DejaVuSans-2c" d="M 628 4666 
L 1259 4666 
L 1259 0 
L 628 0 
L 628 4666 
z
" transform="scale(0.015625)"/>
      <path id="DejaVuSans-51" d="M 3513 2113 
L 3513 0 
L 2938 0 
L 2938 2094 
Q 2938 2591 2744 2837 
Q 2550 3084 2163 3084 
Q 1697 3084 1428 2787 
Q 1159 2491 1159 1978 
L 1159 0 
L 581 0 
L 581 3500 
L 1159 3500 
L 1159 2956 
Q 1366 3272 1645 3428 
Q 1925 3584 2291 3584 
Q 2894 3584 3203 3211 
Q 3513 2838 3513 2113 
z
" transform="scale(0.015625)"/>
      <path id="DejaVuSans-47" d="M 2906 2969 
L 2906 4863 
L 3481 4863 
L 3481 0 
L 2906 0 
L 2906 525 
Q 2725 213 2448 61 
Q 2172 -91 1784 -91 
Q 1150 -91 751 415 
Q 353 922 353 1747 
Q 353 2572 751 3078 
Q 1150 3584 1784 3584 
Q 2172 3584 2448 3432 
Q 2725 3281 2906 2969 
z
M 947 1747 
Q 947 1113 1208 752 
Q 1469 391 1925 391 
Q 2381 391 2643 752 
Q 2906 1113 2906 1747 
Q 2906 2381 2643 2742 
Q 2381 3103 1925 3103 
Q 1469 3103 1208 2742 
Q 947 2381 947 1747 
z
" transform="scale(0.015625)"/>
      <path id="DejaVuSans-48" d="M 3597 1894 
L 3597 1613 
L 953 1613 
Q 991 1019 1311 708 
Q 1631 397 2203 397 
Q 2534 397 2845 478 
Q 3156 559 3463 722 
L 3463 178 
Q 3153 47 2828 -22 
Q 2503 -91 2169 -91 
Q 1331 -91 842 396 
Q 353 884 353 1716 
Q 353 2575 817 3079 
Q 1281 3584 2069 3584 
Q 2775 3584 3186 3129 
Q 3597 2675 3597 1894 
z
M 3022 2063 
Q 3016 2534 2758 2815 
Q 2500 3097 2075 3097 
Q 1594 3097 1305 2825 
Q 1016 2553 972 2059 
L 3022 2063 
z
" transform="scale(0.015625)"/>
      <path id="DejaVuSans-53" d="M 1159 525 
L 1159 -1331 
L 581 -1331 
L 581 3500 
L 1159 3500 
L 1159 2969 
Q 1341 3281 1617 3432 
Q 1894 3584 2278 3584 
Q 2916 3584 3314 3078 
Q 3713 2572 3713 1747 
Q 3713 922 3314 415 
Q 2916 -91 2278 -91 
Q 1894 -91 1617 61 
Q 1341 213 1159 525 
z
M 3116 1747 
Q 3116 2381 2855 2742 
Q 2594 3103 2138 3103 
Q 1681 3103 1420 2742 
Q 1159 2381 1159 1747 
Q 1159 1113 1420 752 
Q 1681 391 2138 391 
Q 2594 391 2855 752 
Q 3116 1113 3116 1747 
z
" transform="scale(0.015625)"/>
      <path id="DejaVuSans-57" d="M 1172 4494 
L 1172 3500 
L 2356 3500 
L 2356 3053 
L 1172 3053 
L 1172 1153 
Q 1172 725 1289 603 
Q 1406 481 1766 481 
L 2356 481 
L 2356 0 
L 1766 0 
Q 1100 0 847 248 
Q 594 497 594 1153 
L 594 3053 
L 172 3053 
L 172 3500 
L 594 3500 
L 594 4494 
L 1172 4494 
z
" transform="scale(0.015625)"/>
      <path id="DejaVuSans-3" transform="scale(0.015625)"/>
      <path id="DejaVuSans-45" d="M 3116 1747 
Q 3116 2381 2855 2742 
Q 2594 3103 2138 3103 
Q 1681 3103 1420 2742 
Q 1159 2381 1159 1747 
Q 1159 1113 1420 752 
Q 1681 391 2138 391 
Q 2594 391 2855 752 
Q 3116 1113 3116 1747 
z
M 1159 2969 
Q 1341 3281 1617 3432 
Q 1894 3584 2278 3584 
Q 2916 3584 3314 3078 
Q 3713 2572 3713 1747 
Q 3713 922 3314 415 
Q 2916 -91 2278 -91 
Q 1894 -91 1617 61 
Q 1341 213 1159 525 
L 1159 0 
L 581 0 
L 581 4863 
L 1159 4863 
L 1159 2969 
z
" transform="scale(0.015625)"/>
      <path id="DejaVuSans-4c" d="M 603 3500 
L 1178 3500 
L 1178 0 
L 603 0 
L 603 3500 
z
M 603 4863 
L 1178 4863 
L 1178 4134 
L 603 4134 
L 603 4863 
z
" transform="scale(0.015625)"/>
      <path id="DejaVuSans-52" d="M 1959 3097 
Q 1497 3097 1228 2736 
Q 959 2375 959 1747 
Q 959 1119 1226 758 
Q 1494 397 1959 397 
Q 2419 397 2687 759 
Q 2956 1122 2956 1747 
Q 2956 2369 2687 2733 
Q 2419 3097 1959 3097 
z
M 1959 3584 
Q 2709 3584 3137 3096 
Q 3566 2609 3566 1747 
Q 3566 888 3137 398 
Q 2709 -91 1959 -91 
Q 1206 -91 779 398 
Q 353 888 353 1747 
Q 353 2609 779 3096 
Q 1206 3584 1959 3584 
z
" transform="scale(0.015625)"/>
      <path id="DejaVuSans-4f" d="M 603 4863 
L 1178 4863 
L 1178 0 
L 603 0 
L 603 4863 
z
" transform="scale(0.015625)"/>
      <path id="DejaVuSans-4a" d="M 2906 1791 
Q 2906 2416 2648 2759 
Q 2391 3103 1925 3103 
Q 1463 3103 1205 2759 
Q 947 2416 947 1791 
Q 947 1169 1205 825 
Q 1463 481 1925 481 
Q 2391 481 2648 825 
Q 2906 1169 2906 1791 
z
M 3481 434 
Q 3481 -459 3084 -895 
Q 2688 -1331 1869 -1331 
Q 1566 -1331 1297 -1286 
Q 1028 -1241 775 -1147 
L 775 -588 
Q 1028 -725 1275 -790 
Q 1522 -856 1778 -856 
Q 2344 -856 2625 -561 
Q 2906 -266 2906 331 
L 2906 616 
Q 2728 306 2450 153 
Q 2172 0 1784 0 
Q 1141 0 747 490 
Q 353 981 353 1791 
Q 353 2603 747 3093 
Q 1141 3584 1784 3584 
Q 2172 3584 2450 3431 
Q 2728 3278 2906 2969 
L 2906 3500 
L 3481 3500 
L 3481 434 
z
" transform="scale(0.015625)"/>
      <path id="DejaVuSans-46" d="M 3122 3366 
L 3122 2828 
Q 2878 2963 2633 3030 
Q 2388 3097 2138 3097 
Q 1578 3097 1268 2742 
Q 959 2388 959 1747 
Q 959 1106 1268 751 
Q 1578 397 2138 397 
Q 2388 397 2633 464 
Q 2878 531 3122 666 
L 3122 134 
Q 2881 22 2623 -34 
Q 2366 -91 2075 -91 
Q 1284 -91 818 406 
Q 353 903 353 1747 
Q 353 2603 823 3093 
Q 1294 3584 2113 3584 
Q 2378 3584 2631 3529 
Q 2884 3475 3122 3366 
z
" transform="scale(0.015625)"/>
      <path id="DejaVuSans-44" d="M 2194 1759 
Q 1497 1759 1228 1600 
Q 959 1441 959 1056 
Q 959 750 1161 570 
Q 1363 391 1709 391 
Q 2188 391 2477 730 
Q 2766 1069 2766 1631 
L 2766 1759 
L 2194 1759 
z
M 3341 1997 
L 3341 0 
L 2766 0 
L 2766 531 
Q 2569 213 2275 61 
Q 1981 -91 1556 -91 
Q 1019 -91 701 211 
Q 384 513 384 1019 
Q 384 1609 779 1909 
Q 1175 2209 1959 2209 
L 2766 2209 
L 2766 2266 
Q 2766 2663 2505 2880 
Q 2244 3097 1772 3097 
Q 1472 3097 1187 3025 
Q 903 2953 641 2809 
L 641 3341 
Q 956 3463 1253 3523 
Q 1550 3584 1831 3584 
Q 2591 3584 2966 3190 
Q 3341 2797 3341 1997 
z
" transform="scale(0.015625)"/>
      <path id="DejaVuSans-55" d="M 2631 2963 
Q 2534 3019 2420 3045 
Q 2306 3072 2169 3072 
Q 1681 3072 1420 2755 
Q 1159 2438 1159 1844 
L 1159 0 
L 581 0 
L 581 3500 
L 1159 3500 
L 1159 2956 
Q 1341 3275 1631 3429 
Q 1922 3584 2338 3584 
Q 2397 3584 2469 3576 
Q 2541 3569 2628 3553 
L 2631 2963 
z
" transform="scale(0.015625)"/>
      <path id="DejaVuSans-56" d="M 2834 3397 
L 2834 2853 
Q 2591 2978 2328 3040 
Q 2066 3103 1784 3103 
Q 1356 3103 1142 2972 
Q 928 2841 928 2578 
Q 928 2378 1081 2264 
Q 1234 2150 1697 2047 
L 1894 2003 
Q 2506 1872 2764 1633 
Q 3022 1394 3022 966 
Q 3022 478 2636 193 
Q 2250 -91 1575 -91 
Q 1294 -91 989 -36 
Q 684 19 347 128 
L 347 722 
Q 666 556 975 473 
Q 1284 391 1588 391 
Q 1994 391 2212 530 
Q 2431 669 2431 922 
Q 2431 1156 2273 1281 
Q 2116 1406 1581 1522 
L 1381 1569 
Q 847 1681 609 1914 
Q 372 2147 372 2553 
Q 372 3047 722 3315 
Q 1072 3584 1716 3584 
Q 2034 3584 2315 3537 
Q 2597 3491 2834 3397 
z
" transform="scale(0.015625)"/>
      <path id="DejaVuSans-50" d="M 3328 2828 
Q 3544 3216 3844 3400 
Q 4144 3584 4550 3584 
Q 5097 3584 5394 3201 
Q 5691 2819 5691 2113 
L 5691 0 
L 5113 0 
L 5113 2094 
Q 5113 2597 4934 2840 
Q 4756 3084 4391 3084 
Q 3944 3084 3684 2787 
Q 3425 2491 3425 1978 
L 3425 0 
L 2847 0 
L 2847 2094 
Q 2847 2600 2669 2842 
Q 2491 3084 2119 3084 
Q 1678 3084 1418 2786 
Q 1159 2488 1159 1978 
L 1159 0 
L 581 0 
L 581 3500 
L 1159 3500 
L 1159 2956 
Q 1356 3278 1631 3431 
Q 1906 3584 2284 3584 
Q 2666 3584 2933 3390 
Q 3200 3197 3328 2828 
z
" transform="scale(0.015625)"/>
      <path id="DejaVuSans-5c" d="M 2059 -325 
Q 1816 -950 1584 -1140 
Q 1353 -1331 966 -1331 
L 506 -1331 
L 506 -850 
L 844 -850 
Q 1081 -850 1212 -737 
Q 1344 -625 1503 -206 
L 1606 56 
L 191 3500 
L 800 3500 
L 1894 763 
L 2988 3500 
L 3597 3500 
L 2059 -325 
z
" transform="scale(0.015625)"/>
      <path id="DejaVuSans-10" d="M 313 2009 
L 1997 2009 
L 1997 1497 
L 313 1497 
L 313 2009 
z
" transform="scale(0.015625)"/>
      <path id="DejaVuSans-59" d="M 191 3500 
L 800 3500 
L 1894 563 
L 2988 3500 
L 3597 3500 
L 2284 0 
L 1503 0 
L 191 3500 
z
" transform="scale(0.015625)"/>
      <path id="DejaVuSans-58" d="M 544 1381 
L 544 3500 
L 1119 3500 
L 1119 1403 
Q 1119 906 1312 657 
Q 1506 409 1894 409 
Q 2359 409 2629 706 
Q 2900 1003 2900 1516 
L 2900 3500 
L 3475 3500 
L 3475 0 
L 2900 0 
L 2900 538 
Q 2691 219 2414 64 
Q 2138 -91 1772 -91 
Q 1169 -91 856 284 
Q 544 659 544 1381 
z
M 1991 3584 
L 1991 3584 
z
" transform="scale(0.015625)"/>
      <path id="DejaVuSans-5a" d="M 269 3500 
L 844 3500 
L 1563 769 
L 2278 3500 
L 2956 3500 
L 3675 769 
L 4391 3500 
L 4966 3500 
L 4050 0 
L 3372 0 
L 2619 2869 
L 1863 0 
L 1184 0 
L 269 3500 
z
" transform="scale(0.015625)"/>
      <path id="DejaVuSans-4b" d="M 3513 2113 
L 3513 0 
L 2938 0 
L 2938 2094 
Q 2938 2591 2744 2837 
Q 2550 3084 2163 3084 
Q 1697 3084 1428 2787 
Q 1159 2491 1159 1978 
L 1159 0 
L 581 0 
L 581 4863 
L 1159 4863 
L 1159 2956 
Q 1366 3272 1645 3428 
Q 1925 3584 2291 3584 
Q 2894 3584 3203 3211 
Q 3513 2838 3513 2113 
z
" transform="scale(0.015625)"/>
      <path id="DejaVuSans-4d" d="M 603 3500 
L 1178 3500 
L 1178 -63 
Q 1178 -731 923 -1031 
Q 669 -1331 103 -1331 
L -116 -1331 
L -116 -844 
L 38 -844 
Q 366 -844 484 -692 
Q 603 -541 603 -63 
L 603 3500 
z
M 603 4863 
L 1178 4863 
L 1178 4134 
L 603 4134 
L 603 4863 
z
" transform="scale(0.015625)"/>
      <path id="DejaVuSans-11" d="M 684 794 
L 1344 794 
L 1344 0 
L 684 0 
L 684 794 
z
" transform="scale(0.015625)"/>
     </defs>
     <use xlink:href="#DejaVuSans-2c"/>
     <use xlink:href="#DejaVuSans-51" transform="translate(29.5 0)"/>
     <use xlink:href="#DejaVuSans-47" transform="translate(92.875 0)"/>
     <use xlink:href="#DejaVuSans-48" transform="translate(156.359375 0)"/>
     <use xlink:href="#DejaVuSans-53" transform="translate(217.890625 0)"/>
     <use xlink:href="#DejaVuSans-48" transform="translate(281.375 0)"/>
     <use xlink:href="#DejaVuSans-51" transform="translate(342.90625 0)"/>
     <use xlink:href="#DejaVuSans-47" transform="translate(406.28125 0)"/>
     <use xlink:href="#DejaVuSans-48" transform="translate(469.765625 0)"/>
     <use xlink:href="#DejaVuSans-51" transform="translate(531.296875 0)"/>
     <use xlink:href="#DejaVuSans-57" transform="translate(594.671875 0)"/>
     <use xlink:href="#DejaVuSans-3" transform="translate(633.875 0)"/>
     <use xlink:href="#DejaVuSans-45" transform="translate(665.65625 0)"/>
     <use xlink:href="#DejaVuSans-4c" transform="translate(729.140625 0)"/>
     <use xlink:href="#DejaVuSans-52" transform="translate(756.921875 0)"/>
     <use xlink:href="#DejaVuSans-4f" transform="translate(818.109375 0)"/>
     <use xlink:href="#DejaVuSans-52" transform="translate(845.890625 0)"/>
     <use xlink:href="#DejaVuSans-4a" transform="translate(907.078125 0)"/>
     <use xlink:href="#DejaVuSans-4c" transform="translate(970.5625 0)"/>
     <use xlink:href="#DejaVuSans-46" transform="translate(998.34375 0)"/>
     <use xlink:href="#DejaVuSans-44" transform="translate(1053.328125 0)"/>
     <use xlink:href="#DejaVuSans-4f" transform="translate(1114.609375 0)"/>
     <use xlink:href="#DejaVuSans-3" transform="translate(1142.390625 0)"/>
     <use xlink:href="#DejaVuSans-47" transform="translate(1174.171875 0)"/>
     <use xlink:href="#DejaVuSans-4c" transform="translate(1237.65625 0)"/>
     <use xlink:href="#DejaVuSans-55" transform="translate(1265.4375 0)"/>
     <use xlink:href="#DejaVuSans-48" transform="translate(1304.34375 0)"/>
     <use xlink:href="#DejaVuSans-46" transform="translate(1365.875 0)"/>
     <use xlink:href="#DejaVuSans-57" transform="translate(1420.859375 0)"/>
     <use xlink:href="#DejaVuSans-4c" transform="translate(1460.0625 0)"/>
     <use xlink:href="#DejaVuSans-52" transform="translate(1487.84375 0)"/>
     <use xlink:href="#DejaVuSans-51" transform="translate(1549.03125 0)"/>
     <use xlink:href="#DejaVuSans-56" transform="translate(1612.40625 0)"/>
     <use xlink:href="#DejaVuSans-3" transform="translate(1664.5 0)"/>
     <use xlink:href="#DejaVuSans-46" transform="translate(1696.28125 0)"/>
     <use xlink:href="#DejaVuSans-44" transform="translate(1751.265625 0)"/>
     <use xlink:href="#DejaVuSans-51" transform="translate(1812.546875 0)"/>
     <use xlink:href="#DejaVuSans-3" transform="translate(1875.921875 0)"/>
     <use xlink:href="#DejaVuSans-46" transform="translate(1907.703125 0)"/>
     <use xlink:href="#DejaVuSans-52" transform="translate(1962.6875 0)"/>
     <use xlink:href="#DejaVuSans-50" transform="translate(2023.875 0)"/>
     <use xlink:href="#DejaVuSans-45" transform="translate(2121.28125 0)"/>
     <use xlink:href="#DejaVuSans-4c" transform="translate(2184.765625 0)"/>
     <use xlink:href="#DejaVuSans-51" transform="translate(2212.546875 0)"/>
     <use xlink:href="#DejaVuSans-48" transform="translate(2275.921875 0)"/>
     <use xlink:href="#DejaVuSans-3" transform="translate(2337.453125 0)"/>
     <use xlink:href="#DejaVuSans-52" transform="translate(2369.234375 0)"/>
     <use xlink:href="#DejaVuSans-51" transform="translate(2430.421875 0)"/>
     <use xlink:href="#DejaVuSans-4f" transform="translate(2493.796875 0)"/>
     <use xlink:href="#DejaVuSans-5c" transform="translate(2521.578125 0)"/>
     <use xlink:href="#DejaVuSans-3" transform="translate(2580.765625 0)"/>
     <use xlink:href="#DejaVuSans-4c" transform="translate(2612.546875 0)"/>
     <use xlink:href="#DejaVuSans-51" transform="translate(2640.328125 0)"/>
     <use xlink:href="#DejaVuSans-56" transform="translate(2703.703125 0)"/>
     <use xlink:href="#DejaVuSans-4c" transform="translate(2755.796875 0)"/>
     <use xlink:href="#DejaVuSans-47" transform="translate(2783.578125 0)"/>
     <use xlink:href="#DejaVuSans-48" transform="translate(2847.0625 0)"/>
     <use xlink:href="#DejaVuSans-3" transform="translate(2908.59375 0)"/>
     <use xlink:href="#DejaVuSans-52" transform="translate(2940.375 0)"/>
     <use xlink:href="#DejaVuSans-51" transform="translate(3001.5625 0)"/>
     <use xlink:href="#DejaVuSans-48" transform="translate(3064.9375 0)"/>
     <use xlink:href="#DejaVuSans-3" transform="translate(3126.46875 0)"/>
     <use xlink:href="#DejaVuSans-47" transform="translate(3158.25 0)"/>
     <use xlink:href="#DejaVuSans-48" transform="translate(3221.734375 0)"/>
     <use xlink:href="#DejaVuSans-46" transform="translate(3283.265625 0)"/>
     <use xlink:href="#DejaVuSans-4f" transform="translate(3338.25 0)"/>
     <use xlink:href="#DejaVuSans-44" transform="translate(3366.03125 0)"/>
     <use xlink:href="#DejaVuSans-55" transform="translate(3427.3125 0)"/>
     <use xlink:href="#DejaVuSans-48" transform="translate(3466.21875 0)"/>
     <use xlink:href="#DejaVuSans-47" transform="translate(3527.75 0)"/>
     <use xlink:href="#DejaVuSans-3" transform="translate(3591.234375 0)"/>
     <use xlink:href="#DejaVuSans-53" transform="translate(3623.015625 0)"/>
     <use xlink:href="#DejaVuSans-44" transform="translate(3686.5 0)"/>
     <use xlink:href="#DejaVuSans-55" transform="translate(3747.78125 0)"/>
     <use xlink:href="#DejaVuSans-57" transform="translate(3788.890625 0)"/>
     <use xlink:href="#DejaVuSans-4c" transform="translate(3828.09375 0)"/>
     <use xlink:href="#DejaVuSans-46" transform="translate(3855.875 0)"/>
     <use xlink:href="#DejaVuSans-4c" transform="translate(3910.859375 0)"/>
     <use xlink:href="#DejaVuSans-53" transform="translate(3938.640625 0)"/>
     <use xlink:href="#DejaVuSans-44" transform="translate(4002.125 0)"/>
     <use xlink:href="#DejaVuSans-51" transform="translate(4063.40625 0)"/>
     <use xlink:href="#DejaVuSans-57" transform="translate(4126.78125 0)"/>
     <use xlink:href="#DejaVuSans-10" transform="translate(4165.984375 0)"/>
     <use xlink:href="#DejaVuSans-48" transform="translate(4202.0625 0)"/>
     <use xlink:href="#DejaVuSans-59" transform="translate(4263.59375 0)"/>
     <use xlink:href="#DejaVuSans-48" transform="translate(4322.78125 0)"/>
     <use xlink:href="#DejaVuSans-51" transform="translate(4384.3125 0)"/>
     <use xlink:href="#DejaVuSans-57" transform="translate(4447.6875 0)"/>
     <use xlink:href="#DejaVuSans-3" transform="translate(4486.890625 0)"/>
     <use xlink:href="#DejaVuSans-45" transform="translate(4518.671875 0)"/>
     <use xlink:href="#DejaVuSans-58" transform="translate(4582.15625 0)"/>
     <use xlink:href="#DejaVuSans-51" transform="translate(4645.53125 0)"/>
     <use xlink:href="#DejaVuSans-47" transform="translate(4708.90625 0)"/>
     <use xlink:href="#DejaVuSans-4f" transform="translate(4772.390625 0)"/>
     <use xlink:href="#DejaVuSans-48" transform="translate(4800.171875 0)"/>
     <use xlink:href="#DejaVuSans-3" transform="translate(4861.703125 0)"/>
     <use xlink:href="#DejaVuSans-5a" transform="translate(4893.484375 0)"/>
     <use xlink:href="#DejaVuSans-4c" transform="translate(4975.265625 0)"/>
     <use xlink:href="#DejaVuSans-57" transform="translate(5003.046875 0)"/>
     <use xlink:href="#DejaVuSans-4b" transform="translate(5042.25 0)"/>
     <use xlink:href="#DejaVuSans-3" transform="translate(5105.625 0)"/>
     <use xlink:href="#DejaVuSans-4d" transform="translate(5137.40625 0)"/>
     <use xlink:href="#DejaVuSans-52" transform="translate(5165.1875 0)"/>
     <use xlink:href="#DejaVuSans-4c" transform="translate(5226.375 0)"/>
     <use xlink:href="#DejaVuSans-51" transform="translate(5254.15625 0)"/>
     <use xlink:href="#DejaVuSans-57" transform="translate(5317.53125 0)"/>
     <use xlink:href="#DejaVuSans-3" transform="translate(5356.734375 0)"/>
     <use xlink:href="#DejaVuSans-46" transform="translate(5388.515625 0)"/>
     <use xlink:href="#DejaVuSans-52" transform="translate(5443.5 0)"/>
     <use xlink:href="#DejaVuSans-59" transform="translate(5504.6875 0)"/>
     <use xlink:href="#DejaVuSans-44" transform="translate(5563.875 0)"/>
     <use xlink:href="#DejaVuSans-55" transform="translate(5625.15625 0)"/>
     <use xlink:href="#DejaVuSans-4c" transform="translate(5666.265625 0)"/>
     <use xlink:href="#DejaVuSans-44" transform="translate(5694.046875 0)"/>
     <use xlink:href="#DejaVuSans-51" transform="translate(5755.328125 0)"/>
     <use xlink:href="#DejaVuSans-46" transform="translate(5818.703125 0)"/>
     <use xlink:href="#DejaVuSans-48" transform="translate(5873.6875 0)"/>
     <use xlink:href="#DejaVuSans-11" transform="translate(5935.21875 0)"/>
    </g>
   </g>
   <g id="text_3">
    <!-- Layer A -->
    <g style="fill: #17232c" transform="translate(219.925602 104.617526) scale(0.1 -0.1)">
     <defs>
      <path id="DejaVuSans-Bold-2f" d="M 588 4666 
L 1791 4666 
L 1791 909 
L 3903 909 
L 3903 0 
L 588 0 
L 588 4666 
z
" transform="scale(0.015625)"/>
      <path id="DejaVuSans-Bold-24" d="M 3419 850 
L 1538 850 
L 1241 0 
L 31 0 
L 1759 4666 
L 3194 4666 
L 4922 0 
L 3713 0 
L 3419 850 
z
M 1838 1716 
L 3116 1716 
L 2478 3572 
L 1838 1716 
z
" transform="scale(0.015625)"/>
     </defs>
     <use xlink:href="#DejaVuSans-Bold-2f"/>
     <use xlink:href="#DejaVuSans-Bold-44" transform="translate(63.71875 0)"/>
     <use xlink:href="#DejaVuSans-Bold-5c" transform="translate(128.125 0)"/>
     <use xlink:href="#DejaVuSans-Bold-48" transform="translate(193.3125 0)"/>
     <use xlink:href="#DejaVuSans-Bold-55" transform="translate(261.140625 0)"/>
     <use xlink:href="#DejaVuSans-Bold-3" transform="translate(310.453125 0)"/>
     <use xlink:href="#DejaVuSans-Bold-24" transform="translate(345.265625 0)"/>
    </g>
    <!-- participant set P -->
    <g style="fill: #17232c" transform="translate(194.052164 116.310495) scale(0.1 -0.1)">
     <defs>
      <path id="DejaVuSans-Bold-53" d="M 1656 506 
L 1656 -1331 
L 538 -1331 
L 538 3500 
L 1656 3500 
L 1656 2988 
Q 1888 3294 2169 3439 
Q 2450 3584 2816 3584 
Q 3463 3584 3878 3070 
Q 4294 2556 4294 1747 
Q 4294 938 3878 423 
Q 3463 -91 2816 -91 
Q 2450 -91 2169 54 
Q 1888 200 1656 506 
z
M 2400 2772 
Q 2041 2772 1848 2508 
Q 1656 2244 1656 1747 
Q 1656 1250 1848 986 
Q 2041 722 2400 722 
Q 2759 722 2948 984 
Q 3138 1247 3138 1747 
Q 3138 2247 2948 2509 
Q 2759 2772 2400 2772 
z
" transform="scale(0.015625)"/>
      <path id="DejaVuSans-Bold-56" d="M 3272 3391 
L 3272 2541 
Q 2913 2691 2578 2766 
Q 2244 2841 1947 2841 
Q 1628 2841 1473 2761 
Q 1319 2681 1319 2516 
Q 1319 2381 1436 2309 
Q 1553 2238 1856 2203 
L 2053 2175 
Q 2913 2066 3209 1816 
Q 3506 1566 3506 1031 
Q 3506 472 3093 190 
Q 2681 -91 1863 -91 
Q 1516 -91 1145 -36 
Q 775 19 384 128 
L 384 978 
Q 719 816 1070 734 
Q 1422 653 1784 653 
Q 2113 653 2278 743 
Q 2444 834 2444 1013 
Q 2444 1163 2330 1236 
Q 2216 1309 1875 1350 
L 1678 1375 
Q 931 1469 631 1722 
Q 331 1975 331 2491 
Q 331 3047 712 3315 
Q 1094 3584 1881 3584 
Q 2191 3584 2531 3537 
Q 2872 3491 3272 3391 
z
" transform="scale(0.015625)"/>
      <path id="DejaVuSans-Bold-33" d="M 588 4666 
L 2584 4666 
Q 3475 4666 3951 4270 
Q 4428 3875 4428 3144 
Q 4428 2409 3951 2014 
Q 3475 1619 2584 1619 
L 1791 1619 
L 1791 0 
L 588 0 
L 588 4666 
z
M 1791 3794 
L 1791 2491 
L 2456 2491 
Q 2806 2491 2997 2661 
Q 3188 2831 3188 3144 
Q 3188 3456 2997 3625 
Q 2806 3794 2456 3794 
L 1791 3794 
z
" transform="scale(0.015625)"/>
     </defs>
     <use xlink:href="#DejaVuSans-Bold-53"/>
     <use xlink:href="#DejaVuSans-Bold-44" transform="translate(71.578125 0)"/>
     <use xlink:href="#DejaVuSans-Bold-55" transform="translate(139.0625 0)"/>
     <use xlink:href="#DejaVuSans-Bold-57" transform="translate(188.375 0)"/>
     <use xlink:href="#DejaVuSans-Bold-4c" transform="translate(236.171875 0)"/>
     <use xlink:href="#DejaVuSans-Bold-46" transform="translate(270.453125 0)"/>
     <use xlink:href="#DejaVuSans-Bold-4c" transform="translate(329.734375 0)"/>
     <use xlink:href="#DejaVuSans-Bold-53" transform="translate(364.015625 0)"/>
     <use xlink:href="#DejaVuSans-Bold-44" transform="translate(435.59375 0)"/>
     <use xlink:href="#DejaVuSans-Bold-51" transform="translate(503.078125 0)"/>
     <use xlink:href="#DejaVuSans-Bold-57" transform="translate(574.265625 0)"/>
     <use xlink:href="#DejaVuSans-Bold-3" transform="translate(622.0625 0)"/>
     <use xlink:href="#DejaVuSans-Bold-56" transform="translate(656.875 0)"/>
     <use xlink:href="#DejaVuSans-Bold-48" transform="translate(716.390625 0)"/>
     <use xlink:href="#DejaVuSans-Bold-57" transform="translate(784.21875 0)"/>
     <use xlink:href="#DejaVuSans-Bold-3" transform="translate(832.015625 0)"/>
     <use xlink:href="#DejaVuSans-Bold-33" transform="translate(866.828125 0)"/>
    </g>
    <!-- offset t -->
    <g style="fill: #17232c" transform="translate(220.685758 128.779245) scale(0.1 -0.1)">
     <defs>
      <path id="DejaVuSans-Bold-13aa" d="M 2841 4863 
L 2841 4128 
L 2222 4128 
Q 1984 4128 1891 4044 
Q 1797 3956 1797 3744 
L 1797 3500 
L 3078 3500 
L 3078 3744 
Q 3078 4316 3397 4588 
Q 3716 4863 4384 4863 
L 5241 4863 
L 5241 4128 
L 4622 4128 
Q 4384 4128 4291 4044 
Q 4197 3956 4197 3744 
L 4197 3500 
L 5153 3500 
L 5153 2700 
L 4197 2700 
L 4197 0 
L 3078 0 
L 3078 2700 
L 1797 2700 
L 1797 0 
L 678 0 
L 678 2700 
L 122 2700 
L 122 3500 
L 678 3500 
L 678 3744 
Q 678 4316 997 4588 
Q 1316 4863 1984 4863 
L 2841 4863 
z
" transform="scale(0.015625)"/>
     </defs>
     <use xlink:href="#DejaVuSans-Bold-52"/>
     <use xlink:href="#DejaVuSans-Bold-13aa" transform="translate(68.703125 0)"/>
     <use xlink:href="#DejaVuSans-Bold-56" transform="translate(149.703125 0)"/>
     <use xlink:href="#DejaVuSans-Bold-48" transform="translate(209.21875 0)"/>
     <use xlink:href="#DejaVuSans-Bold-57" transform="translate(277.046875 0)"/>
     <use xlink:href="#DejaVuSans-Bold-3" transform="translate(324.84375 0)"/>
     <use xlink:href="#DejaVuSans-Bold-57" transform="translate(359.65625 0)"/>
    </g>
    <!-- lineage L1 -->
    <g style="fill: #17232c" transform="translate(211.929508 139.271433) scale(0.1 -0.1)">
     <defs>
      <path id="DejaVuSans-Bold-4a" d="M 2919 594 
Q 2688 288 2409 144 
Q 2131 0 1766 0 
Q 1125 0 706 504 
Q 288 1009 288 1791 
Q 288 2575 706 3076 
Q 1125 3578 1766 3578 
Q 2131 3578 2409 3434 
Q 2688 3291 2919 2981 
L 2919 3500 
L 4044 3500 
L 4044 353 
Q 4044 -491 3511 -936 
Q 2978 -1381 1966 -1381 
Q 1638 -1381 1331 -1331 
Q 1025 -1281 716 -1178 
L 716 -306 
Q 1009 -475 1290 -558 
Q 1572 -641 1856 -641 
Q 2406 -641 2662 -400 
Q 2919 -159 2919 353 
L 2919 594 
z
M 2181 2772 
Q 1834 2772 1640 2515 
Q 1447 2259 1447 1791 
Q 1447 1309 1634 1061 
Q 1822 813 2181 813 
Q 2531 813 2725 1069 
Q 2919 1325 2919 1791 
Q 2919 2259 2725 2515 
Q 2531 2772 2181 2772 
z
" transform="scale(0.015625)"/>
      <path id="DejaVuSans-Bold-14" d="M 750 831 
L 1813 831 
L 1813 3847 
L 722 3622 
L 722 4441 
L 1806 4666 
L 2950 4666 
L 2950 831 
L 4013 831 
L 4013 0 
L 750 0 
L 750 831 
z
" transform="scale(0.015625)"/>
     </defs>
     <use xlink:href="#DejaVuSans-Bold-4f"/>
     <use xlink:href="#DejaVuSans-Bold-4c" transform="translate(34.28125 0)"/>
     <use xlink:href="#DejaVuSans-Bold-51" transform="translate(68.5625 0)"/>
     <use xlink:href="#DejaVuSans-Bold-48" transform="translate(139.75 0)"/>
     <use xlink:href="#DejaVuSans-Bold-44" transform="translate(207.578125 0)"/>
     <use xlink:href="#DejaVuSans-Bold-4a" transform="translate(275.0625 0)"/>
     <use xlink:href="#DejaVuSans-Bold-48" transform="translate(346.640625 0)"/>
     <use xlink:href="#DejaVuSans-Bold-3" transform="translate(414.46875 0)"/>
     <use xlink:href="#DejaVuSans-Bold-2f" transform="translate(449.28125 0)"/>
     <use xlink:href="#DejaVuSans-Bold-14" transform="translate(513 0)"/>
    </g>
   </g>
   <g id="text_4">
    <!-- Layer B -->
    <g style="fill: #17232c" transform="translate(219.984195 211.062326) scale(0.1 -0.1)">
     <defs>
      <path id="DejaVuSans-Bold-25" d="M 2456 2859 
Q 2741 2859 2887 2984 
Q 3034 3109 3034 3353 
Q 3034 3594 2887 3720 
Q 2741 3847 2456 3847 
L 1791 3847 
L 1791 2859 
L 2456 2859 
z
M 2497 819 
Q 2859 819 3042 972 
Q 3225 1125 3225 1434 
Q 3225 1738 3044 1889 
Q 2863 2041 2497 2041 
L 1791 2041 
L 1791 819 
L 2497 819 
z
M 3616 2497 
Q 4003 2384 4215 2081 
Q 4428 1778 4428 1338 
Q 4428 663 3972 331 
Q 3516 0 2584 0 
L 588 0 
L 588 4666 
L 2394 4666 
Q 3366 4666 3802 4372 
Q 4238 4078 4238 3431 
Q 4238 3091 4078 2852 
Q 3919 2613 3616 2497 
z
" transform="scale(0.015625)"/>
     </defs>
     <use xlink:href="#DejaVuSans-Bold-2f"/>
     <use xlink:href="#DejaVuSans-Bold-44" transform="translate(63.71875 0)"/>
     <use xlink:href="#DejaVuSans-Bold-5c" transform="translate(128.125 0)"/>
     <use xlink:href="#DejaVuSans-Bold-48" transform="translate(193.3125 0)"/>
     <use xlink:href="#DejaVuSans-Bold-55" transform="translate(261.140625 0)"/>
     <use xlink:href="#DejaVuSans-Bold-3" transform="translate(310.453125 0)"/>
     <use xlink:href="#DejaVuSans-Bold-25" transform="translate(345.265625 0)"/>
    </g>
    <!-- participant set P -->
    <g style="fill: #17232c" transform="translate(194.052164 222.755295) scale(0.1 -0.1)">
     <use xlink:href="#DejaVuSans-Bold-53"/>
     <use xlink:href="#DejaVuSans-Bold-44" transform="translate(71.578125 0)"/>
     <use xlink:href="#DejaVuSans-Bold-55" transform="translate(139.0625 0)"/>
     <use xlink:href="#DejaVuSans-Bold-57" transform="translate(188.375 0)"/>
     <use xlink:href="#DejaVuSans-Bold-4c" transform="translate(236.171875 0)"/>
     <use xlink:href="#DejaVuSans-Bold-46" transform="translate(270.453125 0)"/>
     <use xlink:href="#DejaVuSans-Bold-4c" transform="translate(329.734375 0)"/>
     <use xlink:href="#DejaVuSans-Bold-53" transform="translate(364.015625 0)"/>
     <use xlink:href="#DejaVuSans-Bold-44" transform="translate(435.59375 0)"/>
     <use xlink:href="#DejaVuSans-Bold-51" transform="translate(503.078125 0)"/>
     <use xlink:href="#DejaVuSans-Bold-57" transform="translate(574.265625 0)"/>
     <use xlink:href="#DejaVuSans-Bold-3" transform="translate(622.0625 0)"/>
     <use xlink:href="#DejaVuSans-Bold-56" transform="translate(656.875 0)"/>
     <use xlink:href="#DejaVuSans-Bold-48" transform="translate(716.390625 0)"/>
     <use xlink:href="#DejaVuSans-Bold-57" transform="translate(784.21875 0)"/>
     <use xlink:href="#DejaVuSans-Bold-3" transform="translate(832.015625 0)"/>
     <use xlink:href="#DejaVuSans-Bold-33" transform="translate(866.828125 0)"/>
    </g>
    <!-- offset t -->
    <g style="fill: #17232c" transform="translate(220.685758 235.224045) scale(0.1 -0.1)">
     <use xlink:href="#DejaVuSans-Bold-52"/>
     <use xlink:href="#DejaVuSans-Bold-13aa" transform="translate(68.703125 0)"/>
     <use xlink:href="#DejaVuSans-Bold-56" transform="translate(149.703125 0)"/>
     <use xlink:href="#DejaVuSans-Bold-48" transform="translate(209.21875 0)"/>
     <use xlink:href="#DejaVuSans-Bold-57" transform="translate(277.046875 0)"/>
     <use xlink:href="#DejaVuSans-Bold-3" transform="translate(324.84375 0)"/>
     <use xlink:href="#DejaVuSans-Bold-57" transform="translate(359.65625 0)"/>
    </g>
    <!-- lineage L2 -->
    <g style="fill: #17232c" transform="translate(211.929508 245.716233) scale(0.1 -0.1)">
     <defs>
      <path id="DejaVuSans-Bold-15" d="M 1844 884 
L 3897 884 
L 3897 0 
L 506 0 
L 506 884 
L 2209 2388 
Q 2438 2594 2547 2791 
Q 2656 2988 2656 3200 
Q 2656 3528 2436 3728 
Q 2216 3928 1850 3928 
Q 1569 3928 1234 3808 
Q 900 3688 519 3450 
L 519 4475 
Q 925 4609 1322 4679 
Q 1719 4750 2100 4750 
Q 2938 4750 3402 4381 
Q 3866 4013 3866 3353 
Q 3866 2972 3669 2642 
Q 3472 2313 2841 1759 
L 1844 884 
z
" transform="scale(0.015625)"/>
     </defs>
     <use xlink:href="#DejaVuSans-Bold-4f"/>
     <use xlink:href="#DejaVuSans-Bold-4c" transform="translate(34.28125 0)"/>
     <use xlink:href="#DejaVuSans-Bold-51" transform="translate(68.5625 0)"/>
     <use xlink:href="#DejaVuSans-Bold-48" transform="translate(139.75 0)"/>
     <use xlink:href="#DejaVuSans-Bold-44" transform="translate(207.578125 0)"/>
     <use xlink:href="#DejaVuSans-Bold-4a" transform="translate(275.0625 0)"/>
     <use xlink:href="#DejaVuSans-Bold-48" transform="translate(346.640625 0)"/>
     <use xlink:href="#DejaVuSans-Bold-3" transform="translate(414.46875 0)"/>
     <use xlink:href="#DejaVuSans-Bold-2f" transform="translate(449.28125 0)"/>
     <use xlink:href="#DejaVuSans-Bold-15" transform="translate(513 0)"/>
    </g>
   </g>
   <g id="text_5">
    <!-- Canonical event ID -->
    <g style="fill: #17232c" transform="translate(378.488758 151.905325) scale(0.1 -0.1)">
     <defs>
      <path id="DejaVuSans-Bold-26" d="M 4288 256 
Q 3956 84 3597 -3 
Q 3238 -91 2847 -91 
Q 1681 -91 1000 561 
Q 319 1213 319 2328 
Q 319 3447 1000 4098 
Q 1681 4750 2847 4750 
Q 3238 4750 3597 4662 
Q 3956 4575 4288 4403 
L 4288 3438 
Q 3953 3666 3628 3772 
Q 3303 3878 2944 3878 
Q 2300 3878 1931 3465 
Q 1563 3053 1563 2328 
Q 1563 1606 1931 1193 
Q 2300 781 2944 781 
Q 3303 781 3628 887 
Q 3953 994 4288 1222 
L 4288 256 
z
" transform="scale(0.015625)"/>
      <path id="DejaVuSans-Bold-2c" d="M 588 4666 
L 1791 4666 
L 1791 0 
L 588 0 
L 588 4666 
z
" transform="scale(0.015625)"/>
      <path id="DejaVuSans-Bold-27" d="M 1791 3756 
L 1791 909 
L 2222 909 
Q 2959 909 3348 1275 
Q 3738 1641 3738 2338 
Q 3738 3031 3350 3393 
Q 2963 3756 2222 3756 
L 1791 3756 
z
M 588 4666 
L 1856 4666 
Q 2919 4666 3439 4514 
Q 3959 4363 4331 4000 
Q 4659 3684 4818 3271 
Q 4978 2859 4978 2338 
Q 4978 1809 4818 1395 
Q 4659 981 4331 666 
Q 3956 303 3431 151 
Q 2906 0 1856 0 
L 588 0 
L 588 4666 
z
" transform="scale(0.015625)"/>
     </defs>
     <use xlink:href="#DejaVuSans-Bold-26"/>
     <use xlink:href="#DejaVuSans-Bold-44" transform="translate(73.390625 0)"/>
     <use xlink:href="#DejaVuSans-Bold-51" transform="translate(140.875 0)"/>
     <use xlink:href="#DejaVuSans-Bold-52" transform="translate(212.0625 0)"/>
     <use xlink:href="#DejaVuSans-Bold-51" transform="translate(280.765625 0)"/>
     <use xlink:href="#DejaVuSans-Bold-4c" transform="translate(351.953125 0)"/>
     <use xlink:href="#DejaVuSans-Bold-46" transform="translate(386.234375 0)"/>
     <use xlink:href="#DejaVuSans-Bold-44" transform="translate(445.515625 0)"/>
     <use xlink:href="#DejaVuSans-Bold-4f" transform="translate(513 0)"/>
     <use xlink:href="#DejaVuSans-Bold-3" transform="translate(547.28125 0)"/>
     <use xlink:href="#DejaVuSans-Bold-48" transform="translate(582.09375 0)"/>
     <use xlink:href="#DejaVuSans-Bold-59" transform="translate(649.921875 0)"/>
     <use xlink:href="#DejaVuSans-Bold-48" transform="translate(715.109375 0)"/>
     <use xlink:href="#DejaVuSans-Bold-51" transform="translate(782.9375 0)"/>
     <use xlink:href="#DejaVuSans-Bold-57" transform="translate(854.125 0)"/>
     <use xlink:href="#DejaVuSans-Bold-3" transform="translate(901.921875 0)"/>
     <use xlink:href="#DejaVuSans-Bold-2c" transform="translate(936.734375 0)"/>
     <use xlink:href="#DejaVuSans-Bold-27" transform="translate(973.9375 0)"/>
    </g>
    <!-- (P, t, event unit) -->
    <g style="fill: #17232c" transform="translate(385.395008 162.766262) scale(0.1 -0.1)">
     <defs>
      <path id="DejaVuSans-Bold-b" d="M 2413 -844 
L 1484 -844 
Q 1006 -72 778 623 
Q 550 1319 550 2003 
Q 550 2688 779 3389 
Q 1009 4091 1484 4856 
L 2413 4856 
Q 2013 4116 1813 3408 
Q 1613 2700 1613 2009 
Q 1613 1319 1811 609 
Q 2009 -100 2413 -844 
z
" transform="scale(0.015625)"/>
      <path id="DejaVuSans-Bold-f" d="M 653 1209 
L 1778 1209 
L 1778 256 
L 1006 -909 
L 341 -909 
L 653 256 
L 653 1209 
z
" transform="scale(0.015625)"/>
      <path id="DejaVuSans-Bold-c" d="M 513 -844 
Q 913 -100 1113 609 
Q 1313 1319 1313 2009 
Q 1313 2700 1113 3408 
Q 913 4116 513 4856 
L 1441 4856 
Q 1916 4091 2145 3389 
Q 2375 2688 2375 2003 
Q 2375 1319 2147 623 
Q 1919 -72 1441 -844 
L 513 -844 
z
" transform="scale(0.015625)"/>
     </defs>
     <use xlink:href="#DejaVuSans-Bold-b"/>
     <use xlink:href="#DejaVuSans-Bold-33" transform="translate(45.703125 0)"/>
     <use xlink:href="#DejaVuSans-Bold-f" transform="translate(100.640625 0)"/>
     <use xlink:href="#DejaVuSans-Bold-3" transform="translate(138.625 0)"/>
     <use xlink:href="#DejaVuSans-Bold-57" transform="translate(173.4375 0)"/>
     <use xlink:href="#DejaVuSans-Bold-f" transform="translate(221.234375 0)"/>
     <use xlink:href="#DejaVuSans-Bold-3" transform="translate(259.21875 0)"/>
     <use xlink:href="#DejaVuSans-Bold-48" transform="translate(294.03125 0)"/>
     <use xlink:href="#DejaVuSans-Bold-59" transform="translate(361.859375 0)"/>
     <use xlink:href="#DejaVuSans-Bold-48" transform="translate(427.046875 0)"/>
     <use xlink:href="#DejaVuSans-Bold-51" transform="translate(494.875 0)"/>
     <use xlink:href="#DejaVuSans-Bold-57" transform="translate(566.0625 0)"/>
     <use xlink:href="#DejaVuSans-Bold-3" transform="translate(613.859375 0)"/>
     <use xlink:href="#DejaVuSans-Bold-58" transform="translate(648.671875 0)"/>
     <use xlink:href="#DejaVuSans-Bold-51" transform="translate(719.859375 0)"/>
     <use xlink:href="#DejaVuSans-Bold-4c" transform="translate(791.046875 0)"/>
     <use xlink:href="#DejaVuSans-Bold-57" transform="translate(825.328125 0)"/>
     <use xlink:href="#DejaVuSans-Bold-c" transform="translate(873.125 0)"/>
    </g>
    <!-- + one joint covariance -->
    <g style="fill: #17232c" transform="translate(368.224695 173.897512) scale(0.1 -0.1)">
     <defs>
      <path id="DejaVuSans-Bold-e" d="M 3053 4013 
L 3053 2375 
L 4684 2375 
L 4684 1638 
L 3053 1638 
L 3053 0 
L 2309 0 
L 2309 1638 
L 678 1638 
L 678 2375 
L 2309 2375 
L 2309 4013 
L 3053 4013 
z
" transform="scale(0.015625)"/>
      <path id="DejaVuSans-Bold-4d" d="M 538 3500 
L 1656 3500 
L 1656 63 
Q 1656 -641 1318 -1011 
Q 981 -1381 341 -1381 
L -213 -1381 
L -213 -647 
L -19 -647 
Q 300 -647 419 -503 
Q 538 -359 538 63 
L 538 3500 
z
M 538 4863 
L 1656 4863 
L 1656 3950 
L 538 3950 
L 538 4863 
z
" transform="scale(0.015625)"/>
     </defs>
     <use xlink:href="#DejaVuSans-Bold-e"/>
     <use xlink:href="#DejaVuSans-Bold-3" transform="translate(83.796875 0)"/>
     <use xlink:href="#DejaVuSans-Bold-52" transform="translate(118.609375 0)"/>
     <use xlink:href="#DejaVuSans-Bold-51" transform="translate(187.3125 0)"/>
     <use xlink:href="#DejaVuSans-Bold-48" transform="translate(258.5 0)"/>
     <use xlink:href="#DejaVuSans-Bold-3" transform="translate(326.328125 0)"/>
     <use xlink:href="#DejaVuSans-Bold-4d" transform="translate(361.140625 0)"/>
     <use xlink:href="#DejaVuSans-Bold-52" transform="translate(395.421875 0)"/>
     <use xlink:href="#DejaVuSans-Bold-4c" transform="translate(464.125 0)"/>
     <use xlink:href="#DejaVuSans-Bold-51" transform="translate(498.40625 0)"/>
     <use xlink:href="#DejaVuSans-Bold-57" transform="translate(569.59375 0)"/>
     <use xlink:href="#DejaVuSans-Bold-3" transform="translate(617.390625 0)"/>
     <use xlink:href="#DejaVuSans-Bold-46" transform="translate(652.203125 0)"/>
     <use xlink:href="#DejaVuSans-Bold-52" transform="translate(711.484375 0)"/>
     <use xlink:href="#DejaVuSans-Bold-59" transform="translate(780.1875 0)"/>
     <use xlink:href="#DejaVuSans-Bold-44" transform="translate(845.375 0)"/>
     <use xlink:href="#DejaVuSans-Bold-55" transform="translate(912.859375 0)"/>
     <use xlink:href="#DejaVuSans-Bold-4c" transform="translate(962.171875 0)"/>
     <use xlink:href="#DejaVuSans-Bold-44" transform="translate(996.453125 0)"/>
     <use xlink:href="#DejaVuSans-Bold-51" transform="translate(1063.9375 0)"/>
     <use xlink:href="#DejaVuSans-Bold-46" transform="translate(1135.125 0)"/>
     <use xlink:href="#DejaVuSans-Bold-48" transform="translate(1194.40625 0)"/>
    </g>
    <!-- + lineage partition -->
    <g style="fill: #17232c" transform="translate(378.320789 185.397512) scale(0.1 -0.1)">
     <use xlink:href="#DejaVuSans-Bold-e"/>
     <use xlink:href="#DejaVuSans-Bold-3" transform="translate(83.796875 0)"/>
     <use xlink:href="#DejaVuSans-Bold-4f" transform="translate(118.609375 0)"/>
     <use xlink:href="#DejaVuSans-Bold-4c" transform="translate(152.890625 0)"/>
     <use xlink:href="#DejaVuSans-Bold-51" transform="translate(187.171875 0)"/>
     <use xlink:href="#DejaVuSans-Bold-48" transform="translate(258.359375 0)"/>
     <use xlink:href="#DejaVuSans-Bold-44" transform="translate(326.1875 0)"/>
     <use xlink:href="#DejaVuSans-Bold-4a" transform="translate(393.671875 0)"/>
     <use xlink:href="#DejaVuSans-Bold-48" transform="translate(465.25 0)"/>
     <use xlink:href="#DejaVuSans-Bold-3" transform="translate(533.078125 0)"/>
     <use xlink:href="#DejaVuSans-Bold-53" transform="translate(567.890625 0)"/>
     <use xlink:href="#DejaVuSans-Bold-44" transform="translate(639.46875 0)"/>
     <use xlink:href="#DejaVuSans-Bold-55" transform="translate(706.953125 0)"/>
     <use xlink:href="#DejaVuSans-Bold-57" transform="translate(756.265625 0)"/>
     <use xlink:href="#DejaVuSans-Bold-4c" transform="translate(804.0625 0)"/>
     <use xlink:href="#DejaVuSans-Bold-57" transform="translate(838.34375 0)"/>
     <use xlink:href="#DejaVuSans-Bold-4c" transform="translate(886.140625 0)"/>
     <use xlink:href="#DejaVuSans-Bold-52" transform="translate(920.421875 0)"/>
     <use xlink:href="#DejaVuSans-Bold-51" transform="translate(989.125 0)"/>
    </g>
   </g>
   <g id="text_6">
    <!-- Accepted -->
    <g style="fill: #17232c" transform="translate(638.452289 119.430895) scale(0.1 -0.1)">
     <use xlink:href="#DejaVuSans-Bold-24"/>
     <use xlink:href="#DejaVuSans-Bold-46" transform="translate(77.390625 0)"/>
     <use xlink:href="#DejaVuSans-Bold-46" transform="translate(136.671875 0)"/>
     <use xlink:href="#DejaVuSans-Bold-48" transform="translate(195.953125 0)"/>
     <use xlink:href="#DejaVuSans-Bold-53" transform="translate(263.78125 0)"/>
     <use xlink:href="#DejaVuSans-Bold-57" transform="translate(335.359375 0)"/>
     <use xlink:href="#DejaVuSans-Bold-48" transform="translate(383.15625 0)"/>
     <use xlink:href="#DejaVuSans-Bold-47" transform="translate(450.984375 0)"/>
    </g>
    <!-- one participant-event -->
    <g style="fill: #17232c" transform="translate(603.28432 130.930895) scale(0.1 -0.1)">
     <use xlink:href="#DejaVuSans-Bold-52"/>
     <use xlink:href="#DejaVuSans-Bold-51" transform="translate(68.703125 0)"/>
     <use xlink:href="#DejaVuSans-Bold-48" transform="translate(139.890625 0)"/>
     <use xlink:href="#DejaVuSans-Bold-3" transform="translate(207.71875 0)"/>
     <use xlink:href="#DejaVuSans-Bold-53" transform="translate(242.53125 0)"/>
     <use xlink:href="#DejaVuSans-Bold-44" transform="translate(314.109375 0)"/>
     <use xlink:href="#DejaVuSans-Bold-55" transform="translate(381.59375 0)"/>
     <use xlink:href="#DejaVuSans-Bold-57" transform="translate(430.90625 0)"/>
     <use xlink:href="#DejaVuSans-Bold-4c" transform="translate(478.703125 0)"/>
     <use xlink:href="#DejaVuSans-Bold-46" transform="translate(512.984375 0)"/>
     <use xlink:href="#DejaVuSans-Bold-4c" transform="translate(572.265625 0)"/>
     <use xlink:href="#DejaVuSans-Bold-53" transform="translate(606.546875 0)"/>
     <use xlink:href="#DejaVuSans-Bold-44" transform="translate(678.125 0)"/>
     <use xlink:href="#DejaVuSans-Bold-51" transform="translate(745.609375 0)"/>
     <use xlink:href="#DejaVuSans-Bold-57" transform="translate(816.796875 0)"/>
     <use xlink:href="#DejaVuSans-Bold-10" transform="translate(864.59375 0)"/>
     <use xlink:href="#DejaVuSans-Bold-48" transform="translate(906.09375 0)"/>
     <use xlink:href="#DejaVuSans-Bold-59" transform="translate(973.921875 0)"/>
     <use xlink:href="#DejaVuSans-Bold-48" transform="translate(1039.109375 0)"/>
     <use xlink:href="#DejaVuSans-Bold-51" transform="translate(1106.9375 0)"/>
     <use xlink:href="#DejaVuSans-Bold-57" transform="translate(1178.125 0)"/>
    </g>
    <!-- combined conditional information -->
    <g style="fill: #17232c" transform="translate(569.19682 143.399645) scale(0.1 -0.1)">
     <defs>
      <path id="DejaVuSans-Bold-45" d="M 2400 722 
Q 2759 722 2948 984 
Q 3138 1247 3138 1747 
Q 3138 2247 2948 2509 
Q 2759 2772 2400 2772 
Q 2041 2772 1848 2508 
Q 1656 2244 1656 1747 
Q 1656 1250 1848 986 
Q 2041 722 2400 722 
z
M 1656 2988 
Q 1888 3294 2169 3439 
Q 2450 3584 2816 3584 
Q 3463 3584 3878 3070 
Q 4294 2556 4294 1747 
Q 4294 938 3878 423 
Q 3463 -91 2816 -91 
Q 2450 -91 2169 54 
Q 1888 200 1656 506 
L 1656 0 
L 538 0 
L 538 4863 
L 1656 4863 
L 1656 2988 
z
" transform="scale(0.015625)"/>
      <path id="DejaVuSans-Bold-49" d="M 2841 4863 
L 2841 4128 
L 2222 4128 
Q 1984 4128 1890 4042 
Q 1797 3956 1797 3744 
L 1797 3500 
L 2753 3500 
L 2753 2700 
L 1797 2700 
L 1797 0 
L 678 0 
L 678 2700 
L 122 2700 
L 122 3500 
L 678 3500 
L 678 3744 
Q 678 4316 997 4589 
Q 1316 4863 1984 4863 
L 2841 4863 
z
" transform="scale(0.015625)"/>
     </defs>
     <use xlink:href="#DejaVuSans-Bold-46"/>
     <use xlink:href="#DejaVuSans-Bold-52" transform="translate(59.28125 0)"/>
     <use xlink:href="#DejaVuSans-Bold-50" transform="translate(127.984375 0)"/>
     <use xlink:href="#DejaVuSans-Bold-45" transform="translate(232.1875 0)"/>
     <use xlink:href="#DejaVuSans-Bold-4c" transform="translate(303.765625 0)"/>
     <use xlink:href="#DejaVuSans-Bold-51" transform="translate(338.046875 0)"/>
     <use xlink:href="#DejaVuSans-Bold-48" transform="translate(409.234375 0)"/>
     <use xlink:href="#DejaVuSans-Bold-47" transform="translate(477.0625 0)"/>
     <use xlink:href="#DejaVuSans-Bold-3" transform="translate(548.640625 0)"/>
     <use xlink:href="#DejaVuSans-Bold-46" transform="translate(583.453125 0)"/>
     <use xlink:href="#DejaVuSans-Bold-52" transform="translate(642.734375 0)"/>
     <use xlink:href="#DejaVuSans-Bold-51" transform="translate(711.4375 0)"/>
     <use xlink:href="#DejaVuSans-Bold-47" transform="translate(782.625 0)"/>
     <use xlink:href="#DejaVuSans-Bold-4c" transform="translate(854.203125 0)"/>
     <use xlink:href="#DejaVuSans-Bold-57" transform="translate(888.484375 0)"/>
     <use xlink:href="#DejaVuSans-Bold-4c" transform="translate(936.28125 0)"/>
     <use xlink:href="#DejaVuSans-Bold-52" transform="translate(970.5625 0)"/>
     <use xlink:href="#DejaVuSans-Bold-51" transform="translate(1039.265625 0)"/>
     <use xlink:href="#DejaVuSans-Bold-44" transform="translate(1110.453125 0)"/>
     <use xlink:href="#DejaVuSans-Bold-4f" transform="translate(1177.9375 0)"/>
     <use xlink:href="#DejaVuSans-Bold-3" transform="translate(1212.21875 0)"/>
     <use xlink:href="#DejaVuSans-Bold-4c" transform="translate(1247.03125 0)"/>
     <use xlink:href="#DejaVuSans-Bold-51" transform="translate(1281.3125 0)"/>
     <use xlink:href="#DejaVuSans-Bold-49" transform="translate(1352.5 0)"/>
     <use xlink:href="#DejaVuSans-Bold-52" transform="translate(1396 0)"/>
     <use xlink:href="#DejaVuSans-Bold-55" transform="translate(1464.703125 0)"/>
     <use xlink:href="#DejaVuSans-Bold-50" transform="translate(1514.015625 0)"/>
     <use xlink:href="#DejaVuSans-Bold-44" transform="translate(1618.21875 0)"/>
     <use xlink:href="#DejaVuSans-Bold-57" transform="translate(1685.703125 0)"/>
     <use xlink:href="#DejaVuSans-Bold-4c" transform="translate(1733.5 0)"/>
     <use xlink:href="#DejaVuSans-Bold-52" transform="translate(1767.78125 0)"/>
     <use xlink:href="#DejaVuSans-Bold-51" transform="translate(1836.484375 0)"/>
    </g>
   </g>
   <g id="text_7">
    <!-- Rejected -->
    <g style="fill: #17232c" transform="translate(639.90932 222.288472) scale(0.1 -0.1)">
     <defs>
      <path id="DejaVuSans-Bold-35" d="M 2297 2597 
Q 2675 2597 2839 2737 
Q 3003 2878 3003 3200 
Q 3003 3519 2839 3656 
Q 2675 3794 2297 3794 
L 1791 3794 
L 1791 2597 
L 2297 2597 
z
M 1791 1766 
L 1791 0 
L 588 0 
L 588 4666 
L 2425 4666 
Q 3347 4666 3776 4356 
Q 4206 4047 4206 3378 
Q 4206 2916 3982 2619 
Q 3759 2322 3309 2181 
Q 3556 2125 3751 1926 
Q 3947 1728 4147 1325 
L 4800 0 
L 3519 0 
L 2950 1159 
Q 2778 1509 2601 1637 
Q 2425 1766 2131 1766 
L 1791 1766 
z
" transform="scale(0.015625)"/>
     </defs>
     <use xlink:href="#DejaVuSans-Bold-35"/>
     <use xlink:href="#DejaVuSans-Bold-48" transform="translate(77 0)"/>
     <use xlink:href="#DejaVuSans-Bold-4d" transform="translate(144.828125 0)"/>
     <use xlink:href="#DejaVuSans-Bold-48" transform="translate(179.109375 0)"/>
     <use xlink:href="#DejaVuSans-Bold-46" transform="translate(246.9375 0)"/>
     <use xlink:href="#DejaVuSans-Bold-57" transform="translate(306.21875 0)"/>
     <use xlink:href="#DejaVuSans-Bold-48" transform="translate(354.015625 0)"/>
     <use xlink:href="#DejaVuSans-Bold-47" transform="translate(421.84375 0)"/>
    </g>
    <!-- split bundle, conflicting lineage, -->
    <g style="fill: #17232c" transform="translate(573.49682 233.788472) scale(0.1 -0.1)">
     <defs>
      <path id="DejaVuSans-Bold-13ac" d="M 1984 4863 
L 4206 4863 
L 4206 0 
L 3078 0 
L 3078 4128 
L 2222 4128 
Q 1984 4128 1890 4042 
Q 1797 3956 1797 3744 
L 1797 3500 
L 2675 3500 
L 2675 2700 
L 1797 2700 
L 1797 0 
L 678 0 
L 678 2700 
L 122 2700 
L 122 3500 
L 678 3500 
L 678 3744 
Q 678 4316 997 4589 
Q 1316 4863 1984 4863 
z
" transform="scale(0.015625)"/>
     </defs>
     <use xlink:href="#DejaVuSans-Bold-56"/>
     <use xlink:href="#DejaVuSans-Bold-53" transform="translate(59.515625 0)"/>
     <use xlink:href="#DejaVuSans-Bold-4f" transform="translate(131.09375 0)"/>
     <use xlink:href="#DejaVuSans-Bold-4c" transform="translate(165.375 0)"/>
     <use xlink:href="#DejaVuSans-Bold-57" transform="translate(199.65625 0)"/>
     <use xlink:href="#DejaVuSans-Bold-3" transform="translate(247.453125 0)"/>
     <use xlink:href="#DejaVuSans-Bold-45" transform="translate(282.265625 0)"/>
     <use xlink:href="#DejaVuSans-Bold-58" transform="translate(353.84375 0)"/>
     <use xlink:href="#DejaVuSans-Bold-51" transform="translate(425.03125 0)"/>
     <use xlink:href="#DejaVuSans-Bold-47" transform="translate(496.21875 0)"/>
     <use xlink:href="#DejaVuSans-Bold-4f" transform="translate(567.796875 0)"/>
     <use xlink:href="#DejaVuSans-Bold-48" transform="translate(602.078125 0)"/>
     <use xlink:href="#DejaVuSans-Bold-f" transform="translate(669.90625 0)"/>
     <use xlink:href="#DejaVuSans-Bold-3" transform="translate(707.890625 0)"/>
     <use xlink:href="#DejaVuSans-Bold-46" transform="translate(742.703125 0)"/>
     <use xlink:href="#DejaVuSans-Bold-52" transform="translate(801.984375 0)"/>
     <use xlink:href="#DejaVuSans-Bold-51" transform="translate(870.6875 0)"/>
     <use xlink:href="#DejaVuSans-Bold-13ac" transform="translate(941.875 0)"/>
     <use xlink:href="#DejaVuSans-Bold-4c" transform="translate(1016 0)"/>
     <use xlink:href="#DejaVuSans-Bold-46" transform="translate(1050.28125 0)"/>
     <use xlink:href="#DejaVuSans-Bold-57" transform="translate(1109.5625 0)"/>
     <use xlink:href="#DejaVuSans-Bold-4c" transform="translate(1157.359375 0)"/>
     <use xlink:href="#DejaVuSans-Bold-51" transform="translate(1191.640625 0)"/>
     <use xlink:href="#DejaVuSans-Bold-4a" transform="translate(1262.828125 0)"/>
     <use xlink:href="#DejaVuSans-Bold-3" transform="translate(1334.40625 0)"/>
     <use xlink:href="#DejaVuSans-Bold-4f" transform="translate(1369.21875 0)"/>
     <use xlink:href="#DejaVuSans-Bold-4c" transform="translate(1403.5 0)"/>
     <use xlink:href="#DejaVuSans-Bold-51" transform="translate(1437.78125 0)"/>
     <use xlink:href="#DejaVuSans-Bold-48" transform="translate(1508.96875 0)"/>
     <use xlink:href="#DejaVuSans-Bold-44" transform="translate(1576.796875 0)"/>
     <use xlink:href="#DejaVuSans-Bold-4a" transform="translate(1644.28125 0)"/>
     <use xlink:href="#DejaVuSans-Bold-48" transform="translate(1715.859375 0)"/>
     <use xlink:href="#DejaVuSans-Bold-f" transform="translate(1783.6875 0)"/>
    </g>
    <!-- or duplicate physical ancestry -->
    <g style="fill: #17232c" transform="translate(579.673383 245.288472) scale(0.1 -0.1)">
     <defs>
      <path id="DejaVuSans-Bold-4b" d="M 4056 2131 
L 4056 0 
L 2931 0 
L 2931 347 
L 2931 1625 
Q 2931 2084 2911 2256 
Q 2891 2428 2841 2509 
Q 2775 2619 2662 2680 
Q 2550 2741 2406 2741 
Q 2056 2741 1856 2470 
Q 1656 2200 1656 1722 
L 1656 0 
L 538 0 
L 538 4863 
L 1656 4863 
L 1656 2988 
Q 1909 3294 2193 3439 
Q 2478 3584 2822 3584 
Q 3428 3584 3742 3212 
Q 4056 2841 4056 2131 
z
" transform="scale(0.015625)"/>
     </defs>
     <use xlink:href="#DejaVuSans-Bold-52"/>
     <use xlink:href="#DejaVuSans-Bold-55" transform="translate(68.703125 0)"/>
     <use xlink:href="#DejaVuSans-Bold-3" transform="translate(118.015625 0)"/>
     <use xlink:href="#DejaVuSans-Bold-47" transform="translate(152.828125 0)"/>
     <use xlink:href="#DejaVuSans-Bold-58" transform="translate(224.40625 0)"/>
     <use xlink:href="#DejaVuSans-Bold-53" transform="translate(295.59375 0)"/>
     <use xlink:href="#DejaVuSans-Bold-4f" transform="translate(367.171875 0)"/>
     <use xlink:href="#DejaVuSans-Bold-4c" transform="translate(401.453125 0)"/>
     <use xlink:href="#DejaVuSans-Bold-46" transform="translate(435.734375 0)"/>
     <use xlink:href="#DejaVuSans-Bold-44" transform="translate(495.015625 0)"/>
     <use xlink:href="#DejaVuSans-Bold-57" transform="translate(562.5 0)"/>
     <use xlink:href="#DejaVuSans-Bold-48" transform="translate(610.296875 0)"/>
     <use xlink:href="#DejaVuSans-Bold-3" transform="translate(678.125 0)"/>
     <use xlink:href="#DejaVuSans-Bold-53" transform="translate(712.9375 0)"/>
     <use xlink:href="#DejaVuSans-Bold-4b" transform="translate(784.515625 0)"/>
     <use xlink:href="#DejaVuSans-Bold-5c" transform="translate(855.703125 0)"/>
     <use xlink:href="#DejaVuSans-Bold-56" transform="translate(920.890625 0)"/>
     <use xlink:href="#DejaVuSans-Bold-4c" transform="translate(980.40625 0)"/>
     <use xlink:href="#DejaVuSans-Bold-46" transform="translate(1014.6875 0)"/>
     <use xlink:href="#DejaVuSans-Bold-44" transform="translate(1073.96875 0)"/>
     <use xlink:href="#DejaVuSans-Bold-4f" transform="translate(1141.453125 0)"/>
     <use xlink:href="#DejaVuSans-Bold-3" transform="translate(1175.734375 0)"/>
     <use xlink:href="#DejaVuSans-Bold-44" transform="translate(1210.546875 0)"/>
     <use xlink:href="#DejaVuSans-Bold-51" transform="translate(1278.03125 0)"/>
     <use xlink:href="#DejaVuSans-Bold-46" transform="translate(1349.21875 0)"/>
     <use xlink:href="#DejaVuSans-Bold-48" transform="translate(1408.5 0)"/>
     <use xlink:href="#DejaVuSans-Bold-56" transform="translate(1476.328125 0)"/>
     <use xlink:href="#DejaVuSans-Bold-57" transform="translate(1535.84375 0)"/>
     <use xlink:href="#DejaVuSans-Bold-55" transform="translate(1583.640625 0)"/>
     <use xlink:href="#DejaVuSans-Bold-5c" transform="translate(1632.953125 0)"/>
    </g>
   </g>
   <g id="text_8">
    <!-- A source-bound observer that opens a new biological direction multiplies remaining-volume reduction; renaming, splitting, or repeating a direction cannot. -->
    <g style="fill: #17232c" transform="translate(5.76 310.90176) scale(0.105 -0.105)">
     <defs>
      <path id="DejaVuSans-Bold-5a" d="M 225 3500 
L 1313 3500 
L 1900 1088 
L 2491 3500 
L 3425 3500 
L 4013 1113 
L 4603 3500 
L 5691 3500 
L 4769 0 
L 3547 0 
L 2956 2406 
L 2369 0 
L 1147 0 
L 225 3500 
z
" transform="scale(0.015625)"/>
      <path id="DejaVuSans-Bold-1e" d="M 716 1209 
L 1844 1209 
L 1844 256 
L 1069 -909 
L 403 -909 
L 716 256 
L 716 1209 
z
M 716 3500 
L 1844 3500 
L 1844 2291 
L 716 2291 
L 716 3500 
z
" transform="scale(0.015625)"/>
      <path id="DejaVuSans-Bold-11" d="M 653 1209 
L 1778 1209 
L 1778 0 
L 653 0 
L 653 1209 
z
" transform="scale(0.015625)"/>
     </defs>
     <use xlink:href="#DejaVuSans-Bold-24"/>
     <use xlink:href="#DejaVuSans-Bold-3" transform="translate(77.390625 0)"/>
     <use xlink:href="#DejaVuSans-Bold-56" transform="translate(112.203125 0)"/>
     <use xlink:href="#DejaVuSans-Bold-52" transform="translate(171.71875 0)"/>
     <use xlink:href="#DejaVuSans-Bold-58" transform="translate(240.421875 0)"/>
     <use xlink:href="#DejaVuSans-Bold-55" transform="translate(311.609375 0)"/>
     <use xlink:href="#DejaVuSans-Bold-46" transform="translate(360.921875 0)"/>
     <use xlink:href="#DejaVuSans-Bold-48" transform="translate(420.203125 0)"/>
     <use xlink:href="#DejaVuSans-Bold-10" transform="translate(488.03125 0)"/>
     <use xlink:href="#DejaVuSans-Bold-45" transform="translate(529.53125 0)"/>
     <use xlink:href="#DejaVuSans-Bold-52" transform="translate(601.109375 0)"/>
     <use xlink:href="#DejaVuSans-Bold-58" transform="translate(669.8125 0)"/>
     <use xlink:href="#DejaVuSans-Bold-51" transform="translate(741 0)"/>
     <use xlink:href="#DejaVuSans-Bold-47" transform="translate(812.1875 0)"/>
     <use xlink:href="#DejaVuSans-Bold-3" transform="translate(883.765625 0)"/>
     <use xlink:href="#DejaVuSans-Bold-52" transform="translate(918.578125 0)"/>
     <use xlink:href="#DejaVuSans-Bold-45" transform="translate(987.28125 0)"/>
     <use xlink:href="#DejaVuSans-Bold-56" transform="translate(1058.859375 0)"/>
     <use xlink:href="#DejaVuSans-Bold-48" transform="translate(1118.375 0)"/>
     <use xlink:href="#DejaVuSans-Bold-55" transform="translate(1186.203125 0)"/>
     <use xlink:href="#DejaVuSans-Bold-59" transform="translate(1235.515625 0)"/>
     <use xlink:href="#DejaVuSans-Bold-48" transform="translate(1300.703125 0)"/>
     <use xlink:href="#DejaVuSans-Bold-55" transform="translate(1368.53125 0)"/>
     <use xlink:href="#DejaVuSans-Bold-3" transform="translate(1417.84375 0)"/>
     <use xlink:href="#DejaVuSans-Bold-57" transform="translate(1452.65625 0)"/>
     <use xlink:href="#DejaVuSans-Bold-4b" transform="translate(1500.453125 0)"/>
     <use xlink:href="#DejaVuSans-Bold-44" transform="translate(1571.640625 0)"/>
     <use xlink:href="#DejaVuSans-Bold-57" transform="translate(1639.125 0)"/>
     <use xlink:href="#DejaVuSans-Bold-3" transform="translate(1686.921875 0)"/>
     <use xlink:href="#DejaVuSans-Bold-52" transform="translate(1721.734375 0)"/>
     <use xlink:href="#DejaVuSans-Bold-53" transform="translate(1790.4375 0)"/>
     <use xlink:href="#DejaVuSans-Bold-48" transform="translate(1862.015625 0)"/>
     <use xlink:href="#DejaVuSans-Bold-51" transform="translate(1929.84375 0)"/>
     <use xlink:href="#DejaVuSans-Bold-56" transform="translate(2001.03125 0)"/>
     <use xlink:href="#DejaVuSans-Bold-3" transform="translate(2060.546875 0)"/>
     <use xlink:href="#DejaVuSans-Bold-44" transform="translate(2095.359375 0)"/>
     <use xlink:href="#DejaVuSans-Bold-3" transform="translate(2162.84375 0)"/>
     <use xlink:href="#DejaVuSans-Bold-51" transform="translate(2197.65625 0)"/>
     <use xlink:href="#DejaVuSans-Bold-48" transform="translate(2268.84375 0)"/>
     <use xlink:href="#DejaVuSans-Bold-5a" transform="translate(2336.671875 0)"/>
     <use xlink:href="#DejaVuSans-Bold-3" transform="translate(2429.0625 0)"/>
     <use xlink:href="#DejaVuSans-Bold-45" transform="translate(2463.875 0)"/>
     <use xlink:href="#DejaVuSans-Bold-4c" transform="translate(2535.453125 0)"/>
     <use xlink:href="#DejaVuSans-Bold-52" transform="translate(2569.734375 0)"/>
     <use xlink:href="#DejaVuSans-Bold-4f" transform="translate(2638.4375 0)"/>
     <use xlink:href="#DejaVuSans-Bold-52" transform="translate(2672.71875 0)"/>
     <use xlink:href="#DejaVuSans-Bold-4a" transform="translate(2741.421875 0)"/>
     <use xlink:href="#DejaVuSans-Bold-4c" transform="translate(2813 0)"/>
     <use xlink:href="#DejaVuSans-Bold-46" transform="translate(2847.28125 0)"/>
     <use xlink:href="#DejaVuSans-Bold-44" transform="translate(2906.5625 0)"/>
     <use xlink:href="#DejaVuSans-Bold-4f" transform="translate(2974.046875 0)"/>
     <use xlink:href="#DejaVuSans-Bold-3" transform="translate(3008.328125 0)"/>
     <use xlink:href="#DejaVuSans-Bold-47" transform="translate(3043.140625 0)"/>
     <use xlink:href="#DejaVuSans-Bold-4c" transform="translate(3114.71875 0)"/>
     <use xlink:href="#DejaVuSans-Bold-55" transform="translate(3149 0)"/>
     <use xlink:href="#DejaVuSans-Bold-48" transform="translate(3198.3125 0)"/>
     <use xlink:href="#DejaVuSans-Bold-46" transform="translate(3266.140625 0)"/>
     <use xlink:href="#DejaVuSans-Bold-57" transform="translate(3325.421875 0)"/>
     <use xlink:href="#DejaVuSans-Bold-4c" transform="translate(3373.21875 0)"/>
     <use xlink:href="#DejaVuSans-Bold-52" transform="translate(3407.5 0)"/>
     <use xlink:href="#DejaVuSans-Bold-51" transform="translate(3476.203125 0)"/>
     <use xlink:href="#DejaVuSans-Bold-3" transform="translate(3547.390625 0)"/>
     <use xlink:href="#DejaVuSans-Bold-50" transform="translate(3582.203125 0)"/>
     <use xlink:href="#DejaVuSans-Bold-58" transform="translate(3686.40625 0)"/>
     <use xlink:href="#DejaVuSans-Bold-4f" transform="translate(3757.59375 0)"/>
     <use xlink:href="#DejaVuSans-Bold-57" transform="translate(3791.875 0)"/>
     <use xlink:href="#DejaVuSans-Bold-4c" transform="translate(3839.671875 0)"/>
     <use xlink:href="#DejaVuSans-Bold-53" transform="translate(3873.953125 0)"/>
     <use xlink:href="#DejaVuSans-Bold-4f" transform="translate(3945.53125 0)"/>
     <use xlink:href="#DejaVuSans-Bold-4c" transform="translate(3979.8125 0)"/>
     <use xlink:href="#DejaVuSans-Bold-48" transform="translate(4014.09375 0)"/>
     <use xlink:href="#DejaVuSans-Bold-56" transform="translate(4081.921875 0)"/>
     <use xlink:href="#DejaVuSans-Bold-3" transform="translate(4141.4375 0)"/>
     <use xlink:href="#DejaVuSans-Bold-55" transform="translate(4176.25 0)"/>
     <use xlink:href="#DejaVuSans-Bold-48" transform="translate(4225.5625 0)"/>
     <use xlink:href="#DejaVuSans-Bold-50" transform="translate(4293.390625 0)"/>
     <use xlink:href="#DejaVuSans-Bold-44" transform="translate(4397.59375 0)"/>
     <use xlink:href="#DejaVuSans-Bold-4c" transform="translate(4465.078125 0)"/>
     <use xlink:href="#DejaVuSans-Bold-51" transform="translate(4499.359375 0)"/>
     <use xlink:href="#DejaVuSans-Bold-4c" transform="translate(4570.546875 0)"/>
     <use xlink:href="#DejaVuSans-Bold-51" transform="translate(4604.828125 0)"/>
     <use xlink:href="#DejaVuSans-Bold-4a" transform="translate(4676.015625 0)"/>
     <use xlink:href="#DejaVuSans-Bold-10" transform="translate(4747.59375 0)"/>
     <use xlink:href="#DejaVuSans-Bold-59" transform="translate(4789.09375 0)"/>
     <use xlink:href="#DejaVuSans-Bold-52" transform="translate(4854.28125 0)"/>
     <use xlink:href="#DejaVuSans-Bold-4f" transform="translate(4922.984375 0)"/>
     <use xlink:href="#DejaVuSans-Bold-58" transform="translate(4957.265625 0)"/>
     <use xlink:href="#DejaVuSans-Bold-50" transform="translate(5028.453125 0)"/>
     <use xlink:href="#DejaVuSans-Bold-48" transform="translate(5132.65625 0)"/>
     <use xlink:href="#DejaVuSans-Bold-3" transform="translate(5200.484375 0)"/>
     <use xlink:href="#DejaVuSans-Bold-55" transform="translate(5235.296875 0)"/>
     <use xlink:href="#DejaVuSans-Bold-48" transform="translate(5284.609375 0)"/>
     <use xlink:href="#DejaVuSans-Bold-47" transform="translate(5352.4375 0)"/>
     <use xlink:href="#DejaVuSans-Bold-58" transform="translate(5424.015625 0)"/>
     <use xlink:href="#DejaVuSans-Bold-46" transform="translate(5495.203125 0)"/>
     <use xlink:href="#DejaVuSans-Bold-57" transform="translate(5554.484375 0)"/>
     <use xlink:href="#DejaVuSans-Bold-4c" transform="translate(5602.28125 0)"/>
     <use xlink:href="#DejaVuSans-Bold-52" transform="translate(5636.5625 0)"/>
     <use xlink:href="#DejaVuSans-Bold-51" transform="translate(5705.265625 0)"/>
     <use xlink:href="#DejaVuSans-Bold-1e" transform="translate(5776.453125 0)"/>
     <use xlink:href="#DejaVuSans-Bold-3" transform="translate(5816.4375 0)"/>
     <use xlink:href="#DejaVuSans-Bold-55" transform="translate(5851.25 0)"/>
     <use xlink:href="#DejaVuSans-Bold-48" transform="translate(5900.5625 0)"/>
     <use xlink:href="#DejaVuSans-Bold-51" transform="translate(5968.390625 0)"/>
     <use xlink:href="#DejaVuSans-Bold-44" transform="translate(6039.578125 0)"/>
     <use xlink:href="#DejaVuSans-Bold-50" transform="translate(6107.0625 0)"/>
     <use xlink:href="#DejaVuSans-Bold-4c" transform="translate(6211.265625 0)"/>
     <use xlink:href="#DejaVuSans-Bold-51" transform="translate(6245.546875 0)"/>
     <use xlink:href="#DejaVuSans-Bold-4a" transform="translate(6316.734375 0)"/>
     <use xlink:href="#DejaVuSans-Bold-f" transform="translate(6388.3125 0)"/>
     <use xlink:href="#DejaVuSans-Bold-3" transform="translate(6426.296875 0)"/>
     <use xlink:href="#DejaVuSans-Bold-56" transform="translate(6461.109375 0)"/>
     <use xlink:href="#DejaVuSans-Bold-53" transform="translate(6520.625 0)"/>
     <use xlink:href="#DejaVuSans-Bold-4f" transform="translate(6592.203125 0)"/>
     <use xlink:href="#DejaVuSans-Bold-4c" transform="translate(6626.484375 0)"/>
     <use xlink:href="#DejaVuSans-Bold-57" transform="translate(6660.765625 0)"/>
     <use xlink:href="#DejaVuSans-Bold-57" transform="translate(6708.5625 0)"/>
     <use xlink:href="#DejaVuSans-Bold-4c" transform="translate(6756.359375 0)"/>
     <use xlink:href="#DejaVuSans-Bold-51" transform="translate(6790.640625 0)"/>
     <use xlink:href="#DejaVuSans-Bold-4a" transform="translate(6861.828125 0)"/>
     <use xlink:href="#DejaVuSans-Bold-f" transform="translate(6933.40625 0)"/>
     <use xlink:href="#DejaVuSans-Bold-3" transform="translate(6971.390625 0)"/>
     <use xlink:href="#DejaVuSans-Bold-52" transform="translate(7006.203125 0)"/>
     <use xlink:href="#DejaVuSans-Bold-55" transform="translate(7074.90625 0)"/>
     <use xlink:href="#DejaVuSans-Bold-3" transform="translate(7124.21875 0)"/>
     <use xlink:href="#DejaVuSans-Bold-55" transform="translate(7159.03125 0)"/>
     <use xlink:href="#DejaVuSans-Bold-48" transform="translate(7208.34375 0)"/>
     <use xlink:href="#DejaVuSans-Bold-53" transform="translate(7276.171875 0)"/>
     <use xlink:href="#DejaVuSans-Bold-48" transform="translate(7347.75 0)"/>
     <use xlink:href="#DejaVuSans-Bold-44" transform="translate(7415.578125 0)"/>
     <use xlink:href="#DejaVuSans-Bold-57" transform="translate(7483.0625 0)"/>
     <use xlink:href="#DejaVuSans-Bold-4c" transform="translate(7530.859375 0)"/>
     <use xlink:href="#DejaVuSans-Bold-51" transform="translate(7565.140625 0)"/>
     <use xlink:href="#DejaVuSans-Bold-4a" transform="translate(7636.328125 0)"/>
     <use xlink:href="#DejaVuSans-Bold-3" transform="translate(7707.90625 0)"/>
     <use xlink:href="#DejaVuSans-Bold-44" transform="translate(7742.71875 0)"/>
     <use xlink:href="#DejaVuSans-Bold-3" transform="translate(7810.203125 0)"/>
     <use xlink:href="#DejaVuSans-Bold-47" transform="translate(7845.015625 0)"/>
     <use xlink:href="#DejaVuSans-Bold-4c" transform="translate(7916.59375 0)"/>
     <use xlink:href="#DejaVuSans-Bold-55" transform="translate(7950.875 0)"/>
     <use xlink:href="#DejaVuSans-Bold-48" transform="translate(8000.1875 0)"/>
     <use xlink:href="#DejaVuSans-Bold-46" transform="translate(8068.015625 0)"/>
     <use xlink:href="#DejaVuSans-Bold-57" transform="translate(8127.296875 0)"/>
     <use xlink:href="#DejaVuSans-Bold-4c" transform="translate(8175.09375 0)"/>
     <use xlink:href="#DejaVuSans-Bold-52" transform="translate(8209.375 0)"/>
     <use xlink:href="#DejaVuSans-Bold-51" transform="translate(8278.078125 0)"/>
     <use xlink:href="#DejaVuSans-Bold-3" transform="translate(8349.265625 0)"/>
     <use xlink:href="#DejaVuSans-Bold-46" transform="translate(8384.078125 0)"/>
     <use xlink:href="#DejaVuSans-Bold-44" transform="translate(8443.359375 0)"/>
     <use xlink:href="#DejaVuSans-Bold-51" transform="translate(8510.84375 0)"/>
     <use xlink:href="#DejaVuSans-Bold-51" transform="translate(8582.03125 0)"/>
     <use xlink:href="#DejaVuSans-Bold-52" transform="translate(8653.21875 0)"/>
     <use xlink:href="#DejaVuSans-Bold-57" transform="translate(8721.921875 0)"/>
     <use xlink:href="#DejaVuSans-Bold-11" transform="translate(8769.71875 0)"/>
    </g>
   </g>
  </g>
 </g>
 <defs>
  <clipPath id="p15132c06f3">
   <rect x="167.402414" y="5.76" width="613.8" height="354.816"/>
  </clipPath>
 </defs>
</svg>
