<?xml version="1.0" encoding="utf-8" standalone="no"?>
<!DOCTYPE svg PUBLIC "-//W3C//DTD SVG 1.1//EN"
  "http://www.w3.org/Graphics/SVG/1.1/DTD/svg11.dtd">
<svg xmlns:xlink="http://www.w3.org/1999/xlink" width="600.327469pt" height="399.6pt" viewBox="0 0 600.327469 399.6" xmlns="http://www.w3.org/2000/svg" version="1.1">
 <metadata>
  <rdf:RDF xmlns:dc="http://purl.org/dc/elements/1.1/" xmlns:cc="http://creativecommons.org/ns#" xmlns:rdf="http://www.w3.org/1999/02/22-rdf-syntax-ns#">
   <cc:Work>
    <dc:type rdf:resource="http://purl.org/dc/dcmitype/StillImage"/>
    <dc:date>2026-07-13T00:00:00Z</dc:date>
    <dc:format>image/svg+xml</dc:format>
    <dc:creator>
     <cc:Agent>
      <dc:title>AniBench v2 deterministic method-figure builder</dc:title>
     </cc:Agent>
    </dc:creator>
   </cc:Work>
  </rdf:RDF>
 </metadata>
 <defs>
  <style type="text/css">*{stroke-linejoin: round; stroke-linecap: butt}</style>
 </defs>
 <g id="figure_1">
  <g id="patch_1">
   <path d="M 0 399.6 
L 600.327469 399.6 
L 600.327469 0 
L 0 0 
z
" style="fill: #ffffff"/>
  </g>
  <g id="axes_1">
   <g id="patch_2">
    <path d="M 270.81 67.8528 
L 222.606593 88.227 
L 222.606593 128.9754 
L 270.81 149.3496 
L 319.013407 128.9754 
L 319.013407 88.227 
z
" clip-path="url(#p407aa955c6)" style="fill: #fff2de; stroke: #17232c; stroke-width: 1.25; stroke-linejoin: miter"/>
   </g>
   <g id="patch_3">
    <path d="M 383.284616 115.3926 
L 335.081209 135.7668 
L 335.081209 176.5152 
L 383.284616 196.8894 
L 431.488023 176.5152 
L 431.488023 135.7668 
z
" clip-path="url(#p407aa955c6)" style="fill: #eaf3f6; stroke: #17232c; stroke-width: 1.25; stroke-linejoin: miter"/>
   </g>
   <g id="patch_4">
    <path d="M 383.284616 210.4722 
L 335.081209 230.8464 
L 335.081209 271.5948 
L 383.284616 291.969 
L 431.488023 271.5948 
L 431.488023 230.8464 
z
" clip-path="url(#p407aa955c6)" style="fill: #fff2de; stroke: #17232c; stroke-width: 1.25; stroke-linejoin: miter"/>
   </g>
   <g id="patch_5">
    <path d="M 270.81 258.012 
L 222.606593 278.3862 
L 222.606593 319.1346 
L 270.81 339.5088 
L 319.013407 319.1346 
L 319.013407 278.3862 
z
" clip-path="url(#p407aa955c6)" style="fill: #eaf3f6; stroke: #17232c; stroke-width: 1.25; stroke-linejoin: miter"/>
   </g>
   <g id="patch_6">
    <path d="M 158.335384 210.4722 
L 110.131977 230.8464 
L 110.131977 271.5948 
L 158.335384 291.969 
L 206.538791 271.5948 
L 206.538791 230.8464 
z
" clip-path="url(#p407aa955c6)" style="fill: #fff2de; stroke: #17232c; stroke-width: 1.25; stroke-linejoin: miter"/>
   </g>
   <g id="patch_7">
    <path d="M 158.335384 115.3926 
L 110.131977 135.7668 
L 110.131977 176.5152 
L 158.335384 196.8894 
L 206.538791 176.5152 
L 206.538791 135.7668 
z
" clip-path="url(#p407aa955c6)" style="fill: #eaf3f6; stroke: #17232c; stroke-width: 1.25; stroke-linejoin: miter"/>
   </g>
   <g id="patch_8">
    <path d="M 215.6796 241.32456 
L 325.9404 241.32456 
Q 335.4822 241.32456 335.4822 234.33912 
L 335.4822 173.02248 
Q 335.4822 166.03704 325.9404 166.03704 
L 215.6796 166.03704 
Q 206.1378 166.03704 206.1378 173.02248 
L 206.1378 234.33912 
Q 206.1378 241.32456 215.6796 241.32456 
z
" clip-path="url(#p407aa955c6)" style="fill: #ffffff; stroke: #ff9500; stroke-width: 1.25; stroke-linejoin: miter"/>
   </g>
   <g id="text_1">
    <!-- Six non-interchangeable views of a human experiment -->
    <g style="fill: #17232c" transform="translate(16.362 34.960388) scale(0.18 -0.18)">
     <defs>
      <path id="DejaVuSans-Bold-36" d="M 3834 4519 
L 3834 3531 
Q 3450 3703 3084 3790 
Q 2719 3878 2394 3878 
Q 1963 3878 1756 3759 
Q 1550 3641 1550 3391 
Q 1550 3203 1689 3098 
Q 1828 2994 2194 2919 
L 2706 2816 
Q 3484 2659 3812 2340 
Q 4141 2022 4141 1434 
Q 4141 663 3683 286 
Q 3225 -91 2284 -91 
Q 1841 -91 1394 -6 
Q 947 78 500 244 
L 500 1259 
Q 947 1022 1364 901 
Q 1781 781 2169 781 
Q 2563 781 2772 912 
Q 2981 1044 2981 1288 
Q 2981 1506 2839 1625 
Q 2697 1744 2272 1838 
L 1806 1941 
Q 1106 2091 782 2419 
Q 459 2747 459 3303 
Q 459 4000 909 4375 
Q 1359 4750 2203 4750 
Q 2588 4750 2994 4692 
Q 3400 4634 3834 4519 
z
" transform="scale(0.015625)"/>
      <path id="DejaVuSans-Bold-4c" d="M 538 3500 
L 1656 3500 
L 1656 0 
L 538 0 
L 538 3500 
z
M 538 4863 
L 1656 4863 
L 1656 3950 
L 538 3950 
L 538 4863 
z
" transform="scale(0.015625)"/>
      <path id="DejaVuSans-Bold-5b" d="M 1422 1791 
L 159 3500 
L 1344 3500 
L 2059 2463 
L 2784 3500 
L 3969 3500 
L 2706 1797 
L 4031 0 
L 2847 0 
L 2059 1106 
L 1281 0 
L 97 0 
L 1422 1791 
z
" transform="scale(0.015625)"/>
      <path id="DejaVuSans-Bold-3" transform="scale(0.015625)"/>
      <path id="DejaVuSans-Bold-51" d="M 4056 2131 
L 4056 0 
L 2931 0 
L 2931 347 
L 2931 1631 
Q 2931 2084 2911 2256 
Q 2891 2428 2841 2509 
Q 2775 2619 2662 2680 
Q 2550 2741 2406 2741 
Q 2056 2741 1856 2470 
Q 1656 2200 1656 1722 
L 1656 0 
L 538 0 
L 538 3500 
L 1656 3500 
L 1656 2988 
Q 1909 3294 2193 3439 
Q 2478 3584 2822 3584 
Q 3428 3584 3742 3212 
Q 4056 2841 4056 2131 
z
" transform="scale(0.015625)"/>
      <path id="DejaVuSans-Bold-52" d="M 2203 2784 
Q 1831 2784 1636 2517 
Q 1441 2250 1441 1747 
Q 1441 1244 1636 976 
Q 1831 709 2203 709 
Q 2569 709 2762 976 
Q 2956 1244 2956 1747 
Q 2956 2250 2762 2517 
Q 2569 2784 2203 2784 
z
M 2203 3584 
Q 3106 3584 3614 3096 
Q 4122 2609 4122 1747 
Q 4122 884 3614 396 
Q 3106 -91 2203 -91 
Q 1297 -91 786 396 
Q 275 884 275 1747 
Q 275 2609 786 3096 
Q 1297 3584 2203 3584 
z
" transform="scale(0.015625)"/>
      <path id="DejaVuSans-Bold-10" d="M 347 2297 
L 2309 2297 
L 2309 1388 
L 347 1388 
L 347 2297 
z
" transform="scale(0.015625)"/>
      <path id="DejaVuSans-Bold-57" d="M 1759 4494 
L 1759 3500 
L 2913 3500 
L 2913 2700 
L 1759 2700 
L 1759 1216 
Q 1759 972 1856 886 
Q 1953 800 2241 800 
L 2816 800 
L 2816 0 
L 1856 0 
Q 1194 0 917 276 
Q 641 553 641 1216 
L 641 2700 
L 84 2700 
L 84 3500 
L 641 3500 
L 641 4494 
L 1759 4494 
z
" transform="scale(0.015625)"/>
      <path id="DejaVuSans-Bold-48" d="M 4031 1759 
L 4031 1441 
L 1416 1441 
Q 1456 1047 1700 850 
Q 1944 653 2381 653 
Q 2734 653 3104 758 
Q 3475 863 3866 1075 
L 3866 213 
Q 3469 63 3072 -14 
Q 2675 -91 2278 -91 
Q 1328 -91 801 392 
Q 275 875 275 1747 
Q 275 2603 792 3093 
Q 1309 3584 2216 3584 
Q 3041 3584 3536 3087 
Q 4031 2591 4031 1759 
z
M 2881 2131 
Q 2881 2450 2695 2645 
Q 2509 2841 2209 2841 
Q 1884 2841 1681 2658 
Q 1478 2475 1428 2131 
L 2881 2131 
z
" transform="scale(0.015625)"/>
      <path id="DejaVuSans-Bold-55" d="M 3138 2547 
Q 2991 2616 2845 2648 
Q 2700 2681 2553 2681 
Q 2122 2681 1889 2404 
Q 1656 2128 1656 1613 
L 1656 0 
L 538 0 
L 538 3500 
L 1656 3500 
L 1656 2925 
Q 1872 3269 2151 3426 
Q 2431 3584 2822 3584 
Q 2878 3584 2943 3579 
Q 3009 3575 3134 3559 
L 3138 2547 
z
" transform="scale(0.015625)"/>
      <path id="DejaVuSans-Bold-46" d="M 3366 3391 
L 3366 2478 
Q 3138 2634 2908 2709 
Q 2678 2784 2431 2784 
Q 1963 2784 1702 2511 
Q 1441 2238 1441 1747 
Q 1441 1256 1702 982 
Q 1963 709 2431 709 
Q 2694 709 2930 787 
Q 3166 866 3366 1019 
L 3366 103 
Q 3103 6 2833 -42 
Q 2563 -91 2291 -91 
Q 1344 -91 809 395 
Q 275 881 275 1747 
Q 275 2613 809 3098 
Q 1344 3584 2291 3584 
Q 2566 3584 2833 3536 
Q 3100 3488 3366 3391 
z
" transform="scale(0.015625)"/>
      <path id="DejaVuSans-Bold-4b" d="M 4056 2131 
L 4056 0 
L 2931 0 
L 2931 347 
L 2931 1625 
Q 2931 2084 2911 2256 
Q 2891 2428 2841 2509 
Q 2775 2619 2662 2680 
Q 2550 2741 2406 2741 
Q 2056 2741 1856 2470 
Q 1656 2200 1656 1722 
L 1656 0 
L 538 0 
L 538 4863 
L 1656 4863 
L 1656 2988 
Q 1909 3294 2193 3439 
Q 2478 3584 2822 3584 
Q 3428 3584 3742 3212 
Q 4056 2841 4056 2131 
z
" transform="scale(0.015625)"/>
      <path id="DejaVuSans-Bold-44" d="M 2106 1575 
Q 1756 1575 1579 1456 
Q 1403 1338 1403 1106 
Q 1403 894 1545 773 
Q 1688 653 1941 653 
Q 2256 653 2472 879 
Q 2688 1106 2688 1447 
L 2688 1575 
L 2106 1575 
z
M 3816 1997 
L 3816 0 
L 2688 0 
L 2688 519 
Q 2463 200 2181 54 
Q 1900 -91 1497 -91 
Q 953 -91 614 226 
Q 275 544 275 1050 
Q 275 1666 698 1953 
Q 1122 2241 2028 2241 
L 2688 2241 
L 2688 2328 
Q 2688 2594 2478 2717 
Q 2269 2841 1825 2841 
Q 1466 2841 1156 2769 
Q 847 2697 581 2553 
L 581 3406 
Q 941 3494 1303 3539 
Q 1666 3584 2028 3584 
Q 2975 3584 3395 3211 
Q 3816 2838 3816 1997 
z
" transform="scale(0.015625)"/>
      <path id="DejaVuSans-Bold-4a" d="M 2919 594 
Q 2688 288 2409 144 
Q 2131 0 1766 0 
Q 1125 0 706 504 
Q 288 1009 288 1791 
Q 288 2575 706 3076 
Q 1125 3578 1766 3578 
Q 2131 3578 2409 3434 
Q 2688 3291 2919 2981 
L 2919 3500 
L 4044 3500 
L 4044 353 
Q 4044 -491 3511 -936 
Q 2978 -1381 1966 -1381 
Q 1638 -1381 1331 -1331 
Q 1025 -1281 716 -1178 
L 716 -306 
Q 1009 -475 1290 -558 
Q 1572 -641 1856 -641 
Q 2406 -641 2662 -400 
Q 2919 -159 2919 353 
L 2919 594 
z
M 2181 2772 
Q 1834 2772 1640 2515 
Q 1447 2259 1447 1791 
Q 1447 1309 1634 1061 
Q 1822 813 2181 813 
Q 2531 813 2725 1069 
Q 2919 1325 2919 1791 
Q 2919 2259 2725 2515 
Q 2531 2772 2181 2772 
z
" transform="scale(0.015625)"/>
      <path id="DejaVuSans-Bold-45" d="M 2400 722 
Q 2759 722 2948 984 
Q 3138 1247 3138 1747 
Q 3138 2247 2948 2509 
Q 2759 2772 2400 2772 
Q 2041 2772 1848 2508 
Q 1656 2244 1656 1747 
Q 1656 1250 1848 986 
Q 2041 722 2400 722 
z
M 1656 2988 
Q 1888 3294 2169 3439 
Q 2450 3584 2816 3584 
Q 3463 3584 3878 3070 
Q 4294 2556 4294 1747 
Q 4294 938 3878 423 
Q 3463 -91 2816 -91 
Q 2450 -91 2169 54 
Q 1888 200 1656 506 
L 1656 0 
L 538 0 
L 538 4863 
L 1656 4863 
L 1656 2988 
z
" transform="scale(0.015625)"/>
      <path id="DejaVuSans-Bold-4f" d="M 538 4863 
L 1656 4863 
L 1656 0 
L 538 0 
L 538 4863 
z
" transform="scale(0.015625)"/>
      <path id="DejaVuSans-Bold-59" d="M 97 3500 
L 1216 3500 
L 2088 1081 
L 2956 3500 
L 4078 3500 
L 2700 0 
L 1472 0 
L 97 3500 
z
" transform="scale(0.015625)"/>
      <path id="DejaVuSans-Bold-5a" d="M 225 3500 
L 1313 3500 
L 1900 1088 
L 2491 3500 
L 3425 3500 
L 4013 1113 
L 4603 3500 
L 5691 3500 
L 4769 0 
L 3547 0 
L 2956 2406 
L 2369 0 
L 1147 0 
L 225 3500 
z
" transform="scale(0.015625)"/>
      <path id="DejaVuSans-Bold-56" d="M 3272 3391 
L 3272 2541 
Q 2913 2691 2578 2766 
Q 2244 2841 1947 2841 
Q 1628 2841 1473 2761 
Q 1319 2681 1319 2516 
Q 1319 2381 1436 2309 
Q 1553 2238 1856 2203 
L 2053 2175 
Q 2913 2066 3209 1816 
Q 3506 1566 3506 1031 
Q 3506 472 3093 190 
Q 2681 -91 1863 -91 
Q 1516 -91 1145 -36 
Q 775 19 384 128 
L 384 978 
Q 719 816 1070 734 
Q 1422 653 1784 653 
Q 2113 653 2278 743 
Q 2444 834 2444 1013 
Q 2444 1163 2330 1236 
Q 2216 1309 1875 1350 
L 1678 1375 
Q 931 1469 631 1722 
Q 331 1975 331 2491 
Q 331 3047 712 3315 
Q 1094 3584 1881 3584 
Q 2191 3584 2531 3537 
Q 2872 3491 3272 3391 
z
" transform="scale(0.015625)"/>
      <path id="DejaVuSans-Bold-49" d="M 2841 4863 
L 2841 4128 
L 2222 4128 
Q 1984 4128 1890 4042 
Q 1797 3956 1797 3744 
L 1797 3500 
L 2753 3500 
L 2753 2700 
L 1797 2700 
L 1797 0 
L 678 0 
L 678 2700 
L 122 2700 
L 122 3500 
L 678 3500 
L 678 3744 
Q 678 4316 997 4589 
Q 1316 4863 1984 4863 
L 2841 4863 
z
" transform="scale(0.015625)"/>
      <path id="DejaVuSans-Bold-58" d="M 500 1363 
L 500 3500 
L 1625 3500 
L 1625 3150 
Q 1625 2866 1622 2436 
Q 1619 2006 1619 1863 
Q 1619 1441 1641 1255 
Q 1663 1069 1716 984 
Q 1784 875 1895 815 
Q 2006 756 2150 756 
Q 2500 756 2700 1025 
Q 2900 1294 2900 1772 
L 2900 3500 
L 4019 3500 
L 4019 0 
L 2900 0 
L 2900 506 
Q 2647 200 2364 54 
Q 2081 -91 1741 -91 
Q 1134 -91 817 281 
Q 500 653 500 1363 
z
" transform="scale(0.015625)"/>
      <path id="DejaVuSans-Bold-50" d="M 3781 2919 
Q 3994 3244 4286 3414 
Q 4578 3584 4928 3584 
Q 5531 3584 5847 3212 
Q 6163 2841 6163 2131 
L 6163 0 
L 5038 0 
L 5038 1825 
Q 5041 1866 5042 1909 
Q 5044 1953 5044 2034 
Q 5044 2406 4934 2573 
Q 4825 2741 4581 2741 
Q 4263 2741 4089 2478 
Q 3916 2216 3909 1719 
L 3909 0 
L 2784 0 
L 2784 1825 
Q 2784 2406 2684 2573 
Q 2584 2741 2328 2741 
Q 2006 2741 1831 2477 
Q 1656 2213 1656 1722 
L 1656 0 
L 531 0 
L 531 3500 
L 1656 3500 
L 1656 2988 
Q 1863 3284 2130 3434 
Q 2397 3584 2719 3584 
Q 3081 3584 3359 3409 
Q 3638 3234 3781 2919 
z
" transform="scale(0.015625)"/>
      <path id="DejaVuSans-Bold-53" d="M 1656 506 
L 1656 -1331 
L 538 -1331 
L 538 3500 
L 1656 3500 
L 1656 2988 
Q 1888 3294 2169 3439 
Q 2450 3584 2816 3584 
Q 3463 3584 3878 3070 
Q 4294 2556 4294 1747 
Q 4294 938 3878 423 
Q 3463 -91 2816 -91 
Q 2450 -91 2169 54 
Q 1888 200 1656 506 
z
M 2400 2772 
Q 2041 2772 1848 2508 
Q 1656 2244 1656 1747 
Q 1656 1250 1848 986 
Q 2041 722 2400 722 
Q 2759 722 2948 984 
Q 3138 1247 3138 1747 
Q 3138 2247 2948 2509 
Q 2759 2772 2400 2772 
z
" transform="scale(0.015625)"/>
     </defs>
     <use xlink:href="#DejaVuSans-Bold-36"/>
     <use xlink:href="#DejaVuSans-Bold-4c" transform="translate(72.015625 0)"/>
     <use xlink:href="#DejaVuSans-Bold-5b" transform="translate(106.296875 0)"/>
     <use xlink:href="#DejaVuSans-Bold-3" transform="translate(170.796875 0)"/>
     <use xlink:href="#DejaVuSans-Bold-51" transform="translate(205.609375 0)"/>
     <use xlink:href="#DejaVuSans-Bold-52" transform="translate(276.796875 0)"/>
     <use xlink:href="#DejaVuSans-Bold-51" transform="translate(345.5 0)"/>
     <use xlink:href="#DejaVuSans-Bold-10" transform="translate(416.6875 0)"/>
     <use xlink:href="#DejaVuSans-Bold-4c" transform="translate(458.1875 0)"/>
     <use xlink:href="#DejaVuSans-Bold-51" transform="translate(492.46875 0)"/>
     <use xlink:href="#DejaVuSans-Bold-57" transform="translate(563.65625 0)"/>
     <use xlink:href="#DejaVuSans-Bold-48" transform="translate(611.453125 0)"/>
     <use xlink:href="#DejaVuSans-Bold-55" transform="translate(679.28125 0)"/>
     <use xlink:href="#DejaVuSans-Bold-46" transform="translate(728.59375 0)"/>
     <use xlink:href="#DejaVuSans-Bold-4b" transform="translate(787.875 0)"/>
     <use xlink:href="#DejaVuSans-Bold-44" transform="translate(859.0625 0)"/>
     <use xlink:href="#DejaVuSans-Bold-51" transform="translate(926.546875 0)"/>
     <use xlink:href="#DejaVuSans-Bold-4a" transform="translate(997.734375 0)"/>
     <use xlink:href="#DejaVuSans-Bold-48" transform="translate(1069.3125 0)"/>
     <use xlink:href="#DejaVuSans-Bold-44" transform="translate(1137.140625 0)"/>
     <use xlink:href="#DejaVuSans-Bold-45" transform="translate(1204.625 0)"/>
     <use xlink:href="#DejaVuSans-Bold-4f" transform="translate(1276.203125 0)"/>
     <use xlink:href="#DejaVuSans-Bold-48" transform="translate(1310.484375 0)"/>
     <use xlink:href="#DejaVuSans-Bold-3" transform="translate(1378.3125 0)"/>
     <use xlink:href="#DejaVuSans-Bold-59" transform="translate(1413.125 0)"/>
     <use xlink:href="#DejaVuSans-Bold-4c" transform="translate(1478.3125 0)"/>
     <use xlink:href="#DejaVuSans-Bold-48" transform="translate(1512.59375 0)"/>
     <use xlink:href="#DejaVuSans-Bold-5a" transform="translate(1580.421875 0)"/>
     <use xlink:href="#DejaVuSans-Bold-56" transform="translate(1672.8125 0)"/>
     <use xlink:href="#DejaVuSans-Bold-3" transform="translate(1732.328125 0)"/>
     <use xlink:href="#DejaVuSans-Bold-52" transform="translate(1767.140625 0)"/>
     <use xlink:href="#DejaVuSans-Bold-49" transform="translate(1835.84375 0)"/>
     <use xlink:href="#DejaVuSans-Bold-3" transform="translate(1879.34375 0)"/>
     <use xlink:href="#DejaVuSans-Bold-44" transform="translate(1914.15625 0)"/>
     <use xlink:href="#DejaVuSans-Bold-3" transform="translate(1981.640625 0)"/>
     <use xlink:href="#DejaVuSans-Bold-4b" transform="translate(2016.453125 0)"/>
     <use xlink:href="#DejaVuSans-Bold-58" transform="translate(2087.640625 0)"/>
     <use xlink:href="#DejaVuSans-Bold-50" transform="translate(2158.828125 0)"/>
     <use xlink:href="#DejaVuSans-Bold-44" transform="translate(2263.03125 0)"/>
     <use xlink:href="#DejaVuSans-Bold-51" transform="translate(2330.515625 0)"/>
     <use xlink:href="#DejaVuSans-Bold-3" transform="translate(2401.703125 0)"/>
     <use xlink:href="#DejaVuSans-Bold-48" transform="translate(2436.515625 0)"/>
     <use xlink:href="#DejaVuSans-Bold-5b" transform="translate(2504.34375 0)"/>
     <use xlink:href="#DejaVuSans-Bold-53" transform="translate(2568.84375 0)"/>
     <use xlink:href="#DejaVuSans-Bold-48" transform="translate(2640.421875 0)"/>
     <use xlink:href="#DejaVuSans-Bold-55" transform="translate(2708.25 0)"/>
     <use xlink:href="#DejaVuSans-Bold-4c" transform="translate(2757.5625 0)"/>
     <use xlink:href="#DejaVuSans-Bold-50" transform="translate(2791.84375 0)"/>
     <use xlink:href="#DejaVuSans-Bold-48" transform="translate(2896.046875 0)"/>
     <use xlink:href="#DejaVuSans-Bold-51" transform="translate(2963.875 0)"/>
     <use xlink:href="#DejaVuSans-Bold-57" transform="translate(3035.0625 0)"/>
    </g>
   </g>
   <g id="text_2">
    <!-- A design is a vector of biological and experimental capabilities; comparison is family-specific or Pareto-based. -->
    <g style="fill: #5e6a72" transform="translate(16.362 50.605959) scale(0.105 -0.105)">
     <defs>
      <path id="DejaVuSans-24" d="M 2188 4044 
L 1331 1722 
L 3047 1722 
L 2188 4044 
z
M 1831 4666 
L 2547 4666 
L 4325 0 
L 3669 0 
L 3244 1197 
L 1141 1197 
L 716 0 
L 50 0 
L 1831 4666 
z
" transform="scale(0.015625)"/>
      <path id="DejaVuSans-3" transform="scale(0.015625)"/>
      <path id="DejaVuSans-47" d="M 2906 2969 
L 2906 4863 
L 3481 4863 
L 3481 0 
L 2906 0 
L 2906 525 
Q 2725 213 2448 61 
Q 2172 -91 1784 -91 
Q 1150 -91 751 415 
Q 353 922 353 1747 
Q 353 2572 751 3078 
Q 1150 3584 1784 3584 
Q 2172 3584 2448 3432 
Q 2725 3281 2906 2969 
z
M 947 1747 
Q 947 1113 1208 752 
Q 1469 391 1925 391 
Q 2381 391 2643 752 
Q 2906 1113 2906 1747 
Q 2906 2381 2643 2742 
Q 2381 3103 1925 3103 
Q 1469 3103 1208 2742 
Q 947 2381 947 1747 
z
" transform="scale(0.015625)"/>
      <path id="DejaVuSans-48" d="M 3597 1894 
L 3597 1613 
L 953 1613 
Q 991 1019 1311 708 
Q 1631 397 2203 397 
Q 2534 397 2845 478 
Q 3156 559 3463 722 
L 3463 178 
Q 3153 47 2828 -22 
Q 2503 -91 2169 -91 
Q 1331 -91 842 396 
Q 353 884 353 1716 
Q 353 2575 817 3079 
Q 1281 3584 2069 3584 
Q 2775 3584 3186 3129 
Q 3597 2675 3597 1894 
z
M 3022 2063 
Q 3016 2534 2758 2815 
Q 2500 3097 2075 3097 
Q 1594 3097 1305 2825 
Q 1016 2553 972 2059 
L 3022 2063 
z
" transform="scale(0.015625)"/>
      <path id="DejaVuSans-56" d="M 2834 3397 
L 2834 2853 
Q 2591 2978 2328 3040 
Q 2066 3103 1784 3103 
Q 1356 3103 1142 2972 
Q 928 2841 928 2578 
Q 928 2378 1081 2264 
Q 1234 2150 1697 2047 
L 1894 2003 
Q 2506 1872 2764 1633 
Q 3022 1394 3022 966 
Q 3022 478 2636 193 
Q 2250 -91 1575 -91 
Q 1294 -91 989 -36 
Q 684 19 347 128 
L 347 722 
Q 666 556 975 473 
Q 1284 391 1588 391 
Q 1994 391 2212 530 
Q 2431 669 2431 922 
Q 2431 1156 2273 1281 
Q 2116 1406 1581 1522 
L 1381 1569 
Q 847 1681 609 1914 
Q 372 2147 372 2553 
Q 372 3047 722 3315 
Q 1072 3584 1716 3584 
Q 2034 3584 2315 3537 
Q 2597 3491 2834 3397 
z
" transform="scale(0.015625)"/>
      <path id="DejaVuSans-4c" d="M 603 3500 
L 1178 3500 
L 1178 0 
L 603 0 
L 603 3500 
z
M 603 4863 
L 1178 4863 
L 1178 4134 
L 603 4134 
L 603 4863 
z
" transform="scale(0.015625)"/>
      <path id="DejaVuSans-4a" d="M 2906 1791 
Q 2906 2416 2648 2759 
Q 2391 3103 1925 3103 
Q 1463 3103 1205 2759 
Q 947 2416 947 1791 
Q 947 1169 1205 825 
Q 1463 481 1925 481 
Q 2391 481 2648 825 
Q 2906 1169 2906 1791 
z
M 3481 434 
Q 3481 -459 3084 -895 
Q 2688 -1331 1869 -1331 
Q 1566 -1331 1297 -1286 
Q 1028 -1241 775 -1147 
L 775 -588 
Q 1028 -725 1275 -790 
Q 1522 -856 1778 -856 
Q 2344 -856 2625 -561 
Q 2906 -266 2906 331 
L 2906 616 
Q 2728 306 2450 153 
Q 2172 0 1784 0 
Q 1141 0 747 490 
Q 353 981 353 1791 
Q 353 2603 747 3093 
Q 1141 3584 1784 3584 
Q 2172 3584 2450 3431 
Q 2728 3278 2906 2969 
L 2906 3500 
L 3481 3500 
L 3481 434 
z
" transform="scale(0.015625)"/>
      <path id="DejaVuSans-51" d="M 3513 2113 
L 3513 0 
L 2938 0 
L 2938 2094 
Q 2938 2591 2744 2837 
Q 2550 3084 2163 3084 
Q 1697 3084 1428 2787 
Q 1159 2491 1159 1978 
L 1159 0 
L 581 0 
L 581 3500 
L 1159 3500 
L 1159 2956 
Q 1366 3272 1645 3428 
Q 1925 3584 2291 3584 
Q 2894 3584 3203 3211 
Q 3513 2838 3513 2113 
z
" transform="scale(0.015625)"/>
      <path id="DejaVuSans-44" d="M 2194 1759 
Q 1497 1759 1228 1600 
Q 959 1441 959 1056 
Q 959 750 1161 570 
Q 1363 391 1709 391 
Q 2188 391 2477 730 
Q 2766 1069 2766 1631 
L 2766 1759 
L 2194 1759 
z
M 3341 1997 
L 3341 0 
L 2766 0 
L 2766 531 
Q 2569 213 2275 61 
Q 1981 -91 1556 -91 
Q 1019 -91 701 211 
Q 384 513 384 1019 
Q 384 1609 779 1909 
Q 1175 2209 1959 2209 
L 2766 2209 
L 2766 2266 
Q 2766 2663 2505 2880 
Q 2244 3097 1772 3097 
Q 1472 3097 1187 3025 
Q 903 2953 641 2809 
L 641 3341 
Q 956 3463 1253 3523 
Q 1550 3584 1831 3584 
Q 2591 3584 2966 3190 
Q 3341 2797 3341 1997 
z
" transform="scale(0.015625)"/>
      <path id="DejaVuSans-59" d="M 191 3500 
L 800 3500 
L 1894 563 
L 2988 3500 
L 3597 3500 
L 2284 0 
L 1503 0 
L 191 3500 
z
" transform="scale(0.015625)"/>
      <path id="DejaVuSans-46" d="M 3122 3366 
L 3122 2828 
Q 2878 2963 2633 3030 
Q 2388 3097 2138 3097 
Q 1578 3097 1268 2742 
Q 959 2388 959 1747 
Q 959 1106 1268 751 
Q 1578 397 2138 397 
Q 2388 397 2633 464 
Q 2878 531 3122 666 
L 3122 134 
Q 2881 22 2623 -34 
Q 2366 -91 2075 -91 
Q 1284 -91 818 406 
Q 353 903 353 1747 
Q 353 2603 823 3093 
Q 1294 3584 2113 3584 
Q 2378 3584 2631 3529 
Q 2884 3475 3122 3366 
z
" transform="scale(0.015625)"/>
      <path id="DejaVuSans-57" d="M 1172 4494 
L 1172 3500 
L 2356 3500 
L 2356 3053 
L 1172 3053 
L 1172 1153 
Q 1172 725 1289 603 
Q 1406 481 1766 481 
L 2356 481 
L 2356 0 
L 1766 0 
Q 1100 0 847 248 
Q 594 497 594 1153 
L 594 3053 
L 172 3053 
L 172 3500 
L 594 3500 
L 594 4494 
L 1172 4494 
z
" transform="scale(0.015625)"/>
      <path id="DejaVuSans-52" d="M 1959 3097 
Q 1497 3097 1228 2736 
Q 959 2375 959 1747 
Q 959 1119 1226 758 
Q 1494 397 1959 397 
Q 2419 397 2687 759 
Q 2956 1122 2956 1747 
Q 2956 2369 2687 2733 
Q 2419 3097 1959 3097 
z
M 1959 3584 
Q 2709 3584 3137 3096 
Q 3566 2609 3566 1747 
Q 3566 888 3137 398 
Q 2709 -91 1959 -91 
Q 1206 -91 779 398 
Q 353 888 353 1747 
Q 353 2609 779 3096 
Q 1206 3584 1959 3584 
z
" transform="scale(0.015625)"/>
      <path id="DejaVuSans-55" d="M 2631 2963 
Q 2534 3019 2420 3045 
Q 2306 3072 2169 3072 
Q 1681 3072 1420 2755 
Q 1159 2438 1159 1844 
L 1159 0 
L 581 0 
L 581 3500 
L 1159 3500 
L 1159 2956 
Q 1341 3275 1631 3429 
Q 1922 3584 2338 3584 
Q 2397 3584 2469 3576 
Q 2541 3569 2628 3553 
L 2631 2963 
z
" transform="scale(0.015625)"/>
      <path id="DejaVuSans-49" d="M 2375 4863 
L 2375 4384 
L 1825 4384 
Q 1516 4384 1395 4259 
Q 1275 4134 1275 3809 
L 1275 3500 
L 2222 3500 
L 2222 3053 
L 1275 3053 
L 1275 0 
L 697 0 
L 697 3053 
L 147 3053 
L 147 3500 
L 697 3500 
L 697 3744 
Q 697 4328 969 4595 
Q 1241 4863 1831 4863 
L 2375 4863 
z
" transform="scale(0.015625)"/>
      <path id="DejaVuSans-45" d="M 3116 1747 
Q 3116 2381 2855 2742 
Q 2594 3103 2138 3103 
Q 1681 3103 1420 2742 
Q 1159 2381 1159 1747 
Q 1159 1113 1420 752 
Q 1681 391 2138 391 
Q 2594 391 2855 752 
Q 3116 1113 3116 1747 
z
M 1159 2969 
Q 1341 3281 1617 3432 
Q 1894 3584 2278 3584 
Q 2916 3584 3314 3078 
Q 3713 2572 3713 1747 
Q 3713 922 3314 415 
Q 2916 -91 2278 -91 
Q 1894 -91 1617 61 
Q 1341 213 1159 525 
L 1159 0 
L 581 0 
L 581 4863 
L 1159 4863 
L 1159 2969 
z
" transform="scale(0.015625)"/>
      <path id="DejaVuSans-4f" d="M 603 4863 
L 1178 4863 
L 1178 0 
L 603 0 
L 603 4863 
z
" transform="scale(0.015625)"/>
      <path id="DejaVuSans-5b" d="M 3513 3500 
L 2247 1797 
L 3578 0 
L 2900 0 
L 1881 1375 
L 863 0 
L 184 0 
L 1544 1831 
L 300 3500 
L 978 3500 
L 1906 2253 
L 2834 3500 
L 3513 3500 
z
" transform="scale(0.015625)"/>
      <path id="DejaVuSans-53" d="M 1159 525 
L 1159 -1331 
L 581 -1331 
L 581 3500 
L 1159 3500 
L 1159 2969 
Q 1341 3281 1617 3432 
Q 1894 3584 2278 3584 
Q 2916 3584 3314 3078 
Q 3713 2572 3713 1747 
Q 3713 922 3314 415 
Q 2916 -91 2278 -91 
Q 1894 -91 1617 61 
Q 1341 213 1159 525 
z
M 3116 1747 
Q 3116 2381 2855 2742 
Q 2594 3103 2138 3103 
Q 1681 3103 1420 2742 
Q 1159 2381 1159 1747 
Q 1159 1113 1420 752 
Q 1681 391 2138 391 
Q 2594 391 2855 752 
Q 3116 1113 3116 1747 
z
" transform="scale(0.015625)"/>
      <path id="DejaVuSans-50" d="M 3328 2828 
Q 3544 3216 3844 3400 
Q 4144 3584 4550 3584 
Q 5097 3584 5394 3201 
Q 5691 2819 5691 2113 
L 5691 0 
L 5113 0 
L 5113 2094 
Q 5113 2597 4934 2840 
Q 4756 3084 4391 3084 
Q 3944 3084 3684 2787 
Q 3425 2491 3425 1978 
L 3425 0 
L 2847 0 
L 2847 2094 
Q 2847 2600 2669 2842 
Q 2491 3084 2119 3084 
Q 1678 3084 1418 2786 
Q 1159 2488 1159 1978 
L 1159 0 
L 581 0 
L 581 3500 
L 1159 3500 
L 1159 2956 
Q 1356 3278 1631 3431 
Q 1906 3584 2284 3584 
Q 2666 3584 2933 3390 
Q 3200 3197 3328 2828 
z
" transform="scale(0.015625)"/>
      <path id="DejaVuSans-1e" d="M 750 3309 
L 1409 3309 
L 1409 2516 
L 750 2516 
L 750 3309 
z
M 750 794 
L 1409 794 
L 1409 256 
L 897 -744 
L 494 -744 
L 750 256 
L 750 794 
z
" transform="scale(0.015625)"/>
      <path id="DejaVuSans-5c" d="M 2059 -325 
Q 1816 -950 1584 -1140 
Q 1353 -1331 966 -1331 
L 506 -1331 
L 506 -850 
L 844 -850 
Q 1081 -850 1212 -737 
Q 1344 -625 1503 -206 
L 1606 56 
L 191 3500 
L 800 3500 
L 1894 763 
L 2988 3500 
L 3597 3500 
L 2059 -325 
z
" transform="scale(0.015625)"/>
      <path id="DejaVuSans-10" d="M 313 2009 
L 1997 2009 
L 1997 1497 
L 313 1497 
L 313 2009 
z
" transform="scale(0.015625)"/>
      <path id="DejaVuSans-13af" d="M 3431 3500 
L 3431 0 
L 2853 0 
L 2853 3053 
L 1275 3053 
L 1275 0 
L 697 0 
L 697 3053 
L 147 3053 
L 147 3500 
L 697 3500 
L 697 3744 
Q 697 4316 967 4589 
Q 1238 4863 1797 4863 
L 2375 4863 
L 2375 4384 
L 1825 4384 
Q 1516 4384 1395 4259 
Q 1275 4134 1275 3809 
L 1275 3500 
L 3431 3500 
z
M 2853 4856 
L 3431 4856 
L 3431 4128 
L 2853 4128 
L 2853 4856 
z
" transform="scale(0.015625)"/>
      <path id="DejaVuSans-33" d="M 1259 4147 
L 1259 2394 
L 2053 2394 
Q 2494 2394 2734 2622 
Q 2975 2850 2975 3272 
Q 2975 3691 2734 3919 
Q 2494 4147 2053 4147 
L 1259 4147 
z
M 628 4666 
L 2053 4666 
Q 2838 4666 3239 4311 
Q 3641 3956 3641 3272 
Q 3641 2581 3239 2228 
Q 2838 1875 2053 1875 
L 1259 1875 
L 1259 0 
L 628 0 
L 628 4666 
z
" transform="scale(0.015625)"/>
      <path id="DejaVuSans-11" d="M 684 794 
L 1344 794 
L 1344 0 
L 684 0 
L 684 794 
z
" transform="scale(0.015625)"/>
     </defs>
     <use xlink:href="#DejaVuSans-24"/>
     <use xlink:href="#DejaVuSans-3" transform="translate(68.40625 0)"/>
     <use xlink:href="#DejaVuSans-47" transform="translate(100.1875 0)"/>
     <use xlink:href="#DejaVuSans-48" transform="translate(163.671875 0)"/>
     <use xlink:href="#DejaVuSans-56" transform="translate(225.203125 0)"/>
     <use xlink:href="#DejaVuSans-4c" transform="translate(277.296875 0)"/>
     <use xlink:href="#DejaVuSans-4a" transform="translate(305.078125 0)"/>
     <use xlink:href="#DejaVuSans-51" transform="translate(368.5625 0)"/>
     <use xlink:href="#DejaVuSans-3" transform="translate(431.9375 0)"/>
     <use xlink:href="#DejaVuSans-4c" transform="translate(463.71875 0)"/>
     <use xlink:href="#DejaVuSans-56" transform="translate(491.5 0)"/>
     <use xlink:href="#DejaVuSans-3" transform="translate(543.59375 0)"/>
     <use xlink:href="#DejaVuSans-44" transform="translate(575.375 0)"/>
     <use xlink:href="#DejaVuSans-3" transform="translate(636.65625 0)"/>
     <use xlink:href="#DejaVuSans-59" transform="translate(668.4375 0)"/>
     <use xlink:href="#DejaVuSans-48" transform="translate(727.625 0)"/>
     <use xlink:href="#DejaVuSans-46" transform="translate(789.15625 0)"/>
     <use xlink:href="#DejaVuSans-57" transform="translate(844.140625 0)"/>
     <use xlink:href="#DejaVuSans-52" transform="translate(883.34375 0)"/>
     <use xlink:href="#DejaVuSans-55" transform="translate(944.53125 0)"/>
     <use xlink:href="#DejaVuSans-3" transform="translate(985.640625 0)"/>
     <use xlink:href="#DejaVuSans-52" transform="translate(1017.421875 0)"/>
     <use xlink:href="#DejaVuSans-49" transform="translate(1078.609375 0)"/>
     <use xlink:href="#DejaVuSans-3" transform="translate(1113.8125 0)"/>
     <use xlink:href="#DejaVuSans-45" transform="translate(1145.59375 0)"/>
     <use xlink:href="#DejaVuSans-4c" transform="translate(1209.078125 0)"/>
     <use xlink:href="#DejaVuSans-52" transform="translate(1236.859375 0)"/>
     <use xlink:href="#DejaVuSans-4f" transform="translate(1298.046875 0)"/>
     <use xlink:href="#DejaVuSans-52" transform="translate(1325.828125 0)"/>
     <use xlink:href="#DejaVuSans-4a" transform="translate(1387.015625 0)"/>
     <use xlink:href="#DejaVuSans-4c" transform="translate(1450.5 0)"/>
     <use xlink:href="#DejaVuSans-46" transform="translate(1478.28125 0)"/>
     <use xlink:href="#DejaVuSans-44" transform="translate(1533.265625 0)"/>
     <use xlink:href="#DejaVuSans-4f" transform="translate(1594.546875 0)"/>
     <use xlink:href="#DejaVuSans-3" transform="translate(1622.328125 0)"/>
     <use xlink:href="#DejaVuSans-44" transform="translate(1654.109375 0)"/>
     <use xlink:href="#DejaVuSans-51" transform="translate(1715.390625 0)"/>
     <use xlink:href="#DejaVuSans-47" transform="translate(1778.765625 0)"/>
     <use xlink:href="#DejaVuSans-3" transform="translate(1842.25 0)"/>
     <use xlink:href="#DejaVuSans-48" transform="translate(1874.03125 0)"/>
     <use xlink:href="#DejaVuSans-5b" transform="translate(1933.8125 0)"/>
     <use xlink:href="#DejaVuSans-53" transform="translate(1993 0)"/>
     <use xlink:href="#DejaVuSans-48" transform="translate(2056.484375 0)"/>
     <use xlink:href="#DejaVuSans-55" transform="translate(2118.015625 0)"/>
     <use xlink:href="#DejaVuSans-4c" transform="translate(2159.125 0)"/>
     <use xlink:href="#DejaVuSans-50" transform="translate(2186.90625 0)"/>
     <use xlink:href="#DejaVuSans-48" transform="translate(2284.3125 0)"/>
     <use xlink:href="#DejaVuSans-51" transform="translate(2345.84375 0)"/>
     <use xlink:href="#DejaVuSans-57" transform="translate(2409.21875 0)"/>
     <use xlink:href="#DejaVuSans-44" transform="translate(2448.421875 0)"/>
     <use xlink:href="#DejaVuSans-4f" transform="translate(2509.703125 0)"/>
     <use xlink:href="#DejaVuSans-3" transform="translate(2537.484375 0)"/>
     <use xlink:href="#DejaVuSans-46" transform="translate(2569.265625 0)"/>
     <use xlink:href="#DejaVuSans-44" transform="translate(2624.25 0)"/>
     <use xlink:href="#DejaVuSans-53" transform="translate(2685.53125 0)"/>
     <use xlink:href="#DejaVuSans-44" transform="translate(2749.015625 0)"/>
     <use xlink:href="#DejaVuSans-45" transform="translate(2810.296875 0)"/>
     <use xlink:href="#DejaVuSans-4c" transform="translate(2873.78125 0)"/>
     <use xlink:href="#DejaVuSans-4f" transform="translate(2901.5625 0)"/>
     <use xlink:href="#DejaVuSans-4c" transform="translate(2929.34375 0)"/>
     <use xlink:href="#DejaVuSans-57" transform="translate(2957.125 0)"/>
     <use xlink:href="#DejaVuSans-4c" transform="translate(2996.328125 0)"/>
     <use xlink:href="#DejaVuSans-48" transform="translate(3024.109375 0)"/>
     <use xlink:href="#DejaVuSans-56" transform="translate(3085.640625 0)"/>
     <use xlink:href="#DejaVuSans-1e" transform="translate(3137.734375 0)"/>
     <use xlink:href="#DejaVuSans-3" transform="translate(3171.421875 0)"/>
     <use xlink:href="#DejaVuSans-46" transform="translate(3203.203125 0)"/>
     <use xlink:href="#DejaVuSans-52" transform="translate(3258.1875 0)"/>
     <use xlink:href="#DejaVuSans-50" transform="translate(3319.375 0)"/>
     <use xlink:href="#DejaVuSans-53" transform="translate(3416.78125 0)"/>
     <use xlink:href="#DejaVuSans-44" transform="translate(3480.265625 0)"/>
     <use xlink:href="#DejaVuSans-55" transform="translate(3541.546875 0)"/>
     <use xlink:href="#DejaVuSans-4c" transform="translate(3582.65625 0)"/>
     <use xlink:href="#DejaVuSans-56" transform="translate(3610.4375 0)"/>
     <use xlink:href="#DejaVuSans-52" transform="translate(3662.53125 0)"/>
     <use xlink:href="#DejaVuSans-51" transform="translate(3723.71875 0)"/>
     <use xlink:href="#DejaVuSans-3" transform="translate(3787.09375 0)"/>
     <use xlink:href="#DejaVuSans-4c" transform="translate(3818.875 0)"/>
     <use xlink:href="#DejaVuSans-56" transform="translate(3846.65625 0)"/>
     <use xlink:href="#DejaVuSans-3" transform="translate(3898.75 0)"/>
     <use xlink:href="#DejaVuSans-49" transform="translate(3930.53125 0)"/>
     <use xlink:href="#DejaVuSans-44" transform="translate(3965.734375 0)"/>
     <use xlink:href="#DejaVuSans-50" transform="translate(4027.015625 0)"/>
     <use xlink:href="#DejaVuSans-4c" transform="translate(4124.421875 0)"/>
     <use xlink:href="#DejaVuSans-4f" transform="translate(4152.203125 0)"/>
     <use xlink:href="#DejaVuSans-5c" transform="translate(4179.984375 0)"/>
     <use xlink:href="#DejaVuSans-10" transform="translate(4237.421875 0)"/>
     <use xlink:href="#DejaVuSans-56" transform="translate(4273.5 0)"/>
     <use xlink:href="#DejaVuSans-53" transform="translate(4325.59375 0)"/>
     <use xlink:href="#DejaVuSans-48" transform="translate(4389.078125 0)"/>
     <use xlink:href="#DejaVuSans-46" transform="translate(4450.609375 0)"/>
     <use xlink:href="#DejaVuSans-4c" transform="translate(4505.59375 0)"/>
     <use xlink:href="#DejaVuSans-13af" transform="translate(4533.375 0)"/>
     <use xlink:href="#DejaVuSans-46" transform="translate(4596.359375 0)"/>
     <use xlink:href="#DejaVuSans-3" transform="translate(4651.34375 0)"/>
     <use xlink:href="#DejaVuSans-52" transform="translate(4683.125 0)"/>
     <use xlink:href="#DejaVuSans-55" transform="translate(4744.3125 0)"/>
     <use xlink:href="#DejaVuSans-3" transform="translate(4785.421875 0)"/>
     <use xlink:href="#DejaVuSans-33" transform="translate(4817.203125 0)"/>
     <use xlink:href="#DejaVuSans-44" transform="translate(4873.015625 0)"/>
     <use xlink:href="#DejaVuSans-55" transform="translate(4934.296875 0)"/>
     <use xlink:href="#DejaVuSans-48" transform="translate(4973.203125 0)"/>
     <use xlink:href="#DejaVuSans-57" transform="translate(5034.734375 0)"/>
     <use xlink:href="#DejaVuSans-52" transform="translate(5073.9375 0)"/>
     <use xlink:href="#DejaVuSans-10" transform="translate(5136.984375 0)"/>
     <use xlink:href="#DejaVuSans-45" transform="translate(5173.0625 0)"/>
     <use xlink:href="#DejaVuSans-44" transform="translate(5236.546875 0)"/>
     <use xlink:href="#DejaVuSans-56" transform="translate(5297.828125 0)"/>
     <use xlink:href="#DejaVuSans-48" transform="translate(5349.921875 0)"/>
     <use xlink:href="#DejaVuSans-47" transform="translate(5411.453125 0)"/>
     <use xlink:href="#DejaVuSans-11" transform="translate(5474.9375 0)"/>
    </g>
   </g>
   <g id="text_3">
    <!-- Intensive -->
    <g style="fill: #17232c" transform="translate(245.231234 104.549926) scale(0.098 -0.098)">
     <defs>
      <path id="DejaVuSans-Bold-2c" d="M 588 4666 
L 1791 4666 
L 1791 0 
L 588 0 
L 588 4666 
z
" transform="scale(0.015625)"/>
     </defs>
     <use xlink:href="#DejaVuSans-Bold-2c"/>
     <use xlink:href="#DejaVuSans-Bold-51" transform="translate(37.203125 0)"/>
     <use xlink:href="#DejaVuSans-Bold-57" transform="translate(108.390625 0)"/>
     <use xlink:href="#DejaVuSans-Bold-48" transform="translate(156.1875 0)"/>
     <use xlink:href="#DejaVuSans-Bold-51" transform="translate(224.015625 0)"/>
     <use xlink:href="#DejaVuSans-Bold-56" transform="translate(295.203125 0)"/>
     <use xlink:href="#DejaVuSans-Bold-4c" transform="translate(354.71875 0)"/>
     <use xlink:href="#DejaVuSans-Bold-59" transform="translate(389 0)"/>
     <use xlink:href="#DejaVuSans-Bold-48" transform="translate(454.1875 0)"/>
    </g>
   </g>
   <g id="text_4">
    <!-- one joint state event -->
    <g style="fill: #5e6a72" transform="translate(234.448281 122.951323) scale(0.07 -0.07)">
     <defs>
      <path id="DejaVuSans-4d" d="M 603 3500 
L 1178 3500 
L 1178 -63 
Q 1178 -731 923 -1031 
Q 669 -1331 103 -1331 
L -116 -1331 
L -116 -844 
L 38 -844 
Q 366 -844 484 -692 
Q 603 -541 603 -63 
L 603 3500 
z
M 603 4863 
L 1178 4863 
L 1178 4134 
L 603 4134 
L 603 4863 
z
" transform="scale(0.015625)"/>
     </defs>
     <use xlink:href="#DejaVuSans-52"/>
     <use xlink:href="#DejaVuSans-51" transform="translate(61.1875 0)"/>
     <use xlink:href="#DejaVuSans-48" transform="translate(124.5625 0)"/>
     <use xlink:href="#DejaVuSans-3" transform="translate(186.09375 0)"/>
     <use xlink:href="#DejaVuSans-4d" transform="translate(217.875 0)"/>
     <use xlink:href="#DejaVuSans-52" transform="translate(245.65625 0)"/>
     <use xlink:href="#DejaVuSans-4c" transform="translate(306.84375 0)"/>
     <use xlink:href="#DejaVuSans-51" transform="translate(334.625 0)"/>
     <use xlink:href="#DejaVuSans-57" transform="translate(398 0)"/>
     <use xlink:href="#DejaVuSans-3" transform="translate(437.203125 0)"/>
     <use xlink:href="#DejaVuSans-56" transform="translate(468.984375 0)"/>
     <use xlink:href="#DejaVuSans-57" transform="translate(521.078125 0)"/>
     <use xlink:href="#DejaVuSans-44" transform="translate(560.28125 0)"/>
     <use xlink:href="#DejaVuSans-57" transform="translate(621.5625 0)"/>
     <use xlink:href="#DejaVuSans-48" transform="translate(660.765625 0)"/>
     <use xlink:href="#DejaVuSans-3" transform="translate(722.296875 0)"/>
     <use xlink:href="#DejaVuSans-48" transform="translate(754.078125 0)"/>
     <use xlink:href="#DejaVuSans-59" transform="translate(815.609375 0)"/>
     <use xlink:href="#DejaVuSans-48" transform="translate(874.796875 0)"/>
     <use xlink:href="#DejaVuSans-51" transform="translate(936.328125 0)"/>
     <use xlink:href="#DejaVuSans-57" transform="translate(999.703125 0)"/>
    </g>
   </g>
   <g id="text_5">
    <!-- Extensive -->
    <g style="fill: #17232c" transform="translate(356.509179 152.089726) scale(0.098 -0.098)">
     <defs>
      <path id="DejaVuSans-Bold-28" d="M 588 4666 
L 3834 4666 
L 3834 3756 
L 1791 3756 
L 1791 2888 
L 3713 2888 
L 3713 1978 
L 1791 1978 
L 1791 909 
L 3903 909 
L 3903 0 
L 588 0 
L 588 4666 
z
" transform="scale(0.015625)"/>
     </defs>
     <use xlink:href="#DejaVuSans-Bold-28"/>
     <use xlink:href="#DejaVuSans-Bold-5b" transform="translate(68.3125 0)"/>
     <use xlink:href="#DejaVuSans-Bold-57" transform="translate(132.8125 0)"/>
     <use xlink:href="#DejaVuSans-Bold-48" transform="translate(180.609375 0)"/>
     <use xlink:href="#DejaVuSans-Bold-51" transform="translate(248.4375 0)"/>
     <use xlink:href="#DejaVuSans-Bold-56" transform="translate(319.625 0)"/>
     <use xlink:href="#DejaVuSans-Bold-4c" transform="translate(379.140625 0)"/>
     <use xlink:href="#DejaVuSans-Bold-59" transform="translate(413.421875 0)"/>
     <use xlink:href="#DejaVuSans-Bold-48" transform="translate(478.609375 0)"/>
    </g>
   </g>
   <g id="text_6">
    <!-- people × retained events -->
    <g style="fill: #5e6a72" transform="translate(338.759148 170.491123) scale(0.07 -0.07)">
     <defs>
      <path id="DejaVuSans-99" d="M 4488 3438 
L 3059 2003 
L 4488 575 
L 4116 197 
L 2681 1631 
L 1247 197 
L 878 575 
L 2303 2003 
L 878 3438 
L 1247 3816 
L 2681 2381 
L 4116 3816 
L 4488 3438 
z
" transform="scale(0.015625)"/>
     </defs>
     <use xlink:href="#DejaVuSans-53"/>
     <use xlink:href="#DejaVuSans-48" transform="translate(63.484375 0)"/>
     <use xlink:href="#DejaVuSans-52" transform="translate(125.015625 0)"/>
     <use xlink:href="#DejaVuSans-53" transform="translate(186.203125 0)"/>
     <use xlink:href="#DejaVuSans-4f" transform="translate(249.6875 0)"/>
     <use xlink:href="#DejaVuSans-48" transform="translate(277.46875 0)"/>
     <use xlink:href="#DejaVuSans-3" transform="translate(339 0)"/>
     <use xlink:href="#DejaVuSans-99" transform="translate(370.78125 0)"/>
     <use xlink:href="#DejaVuSans-3" transform="translate(454.578125 0)"/>
     <use xlink:href="#DejaVuSans-55" transform="translate(486.359375 0)"/>
     <use xlink:href="#DejaVuSans-48" transform="translate(525.265625 0)"/>
     <use xlink:href="#DejaVuSans-57" transform="translate(586.796875 0)"/>
     <use xlink:href="#DejaVuSans-44" transform="translate(626 0)"/>
     <use xlink:href="#DejaVuSans-4c" transform="translate(687.28125 0)"/>
     <use xlink:href="#DejaVuSans-51" transform="translate(715.0625 0)"/>
     <use xlink:href="#DejaVuSans-48" transform="translate(778.4375 0)"/>
     <use xlink:href="#DejaVuSans-47" transform="translate(839.96875 0)"/>
     <use xlink:href="#DejaVuSans-3" transform="translate(903.453125 0)"/>
     <use xlink:href="#DejaVuSans-48" transform="translate(935.234375 0)"/>
     <use xlink:href="#DejaVuSans-59" transform="translate(996.765625 0)"/>
     <use xlink:href="#DejaVuSans-48" transform="translate(1055.953125 0)"/>
     <use xlink:href="#DejaVuSans-51" transform="translate(1117.484375 0)"/>
     <use xlink:href="#DejaVuSans-57" transform="translate(1180.859375 0)"/>
     <use xlink:href="#DejaVuSans-56" transform="translate(1220.0625 0)"/>
    </g>
   </g>
   <g id="text_7">
    <!-- Longitudinal -->
    <g style="fill: #17232c" transform="translate(348.628601 247.169326) scale(0.098 -0.098)">
     <defs>
      <path id="DejaVuSans-Bold-2f" d="M 588 4666 
L 1791 4666 
L 1791 909 
L 3903 909 
L 3903 0 
L 588 0 
L 588 4666 
z
" transform="scale(0.015625)"/>
      <path id="DejaVuSans-Bold-47" d="M 2919 2988 
L 2919 4863 
L 4044 4863 
L 4044 0 
L 2919 0 
L 2919 506 
Q 2688 197 2409 53 
Q 2131 -91 1766 -91 
Q 1119 -91 703 423 
Q 288 938 288 1747 
Q 288 2556 703 3070 
Q 1119 3584 1766 3584 
Q 2128 3584 2408 3439 
Q 2688 3294 2919 2988 
z
M 2181 722 
Q 2541 722 2730 984 
Q 2919 1247 2919 1747 
Q 2919 2247 2730 2509 
Q 2541 2772 2181 2772 
Q 1825 2772 1636 2509 
Q 1447 2247 1447 1747 
Q 1447 1247 1636 984 
Q 1825 722 2181 722 
z
" transform="scale(0.015625)"/>
     </defs>
     <use xlink:href="#DejaVuSans-Bold-2f"/>
     <use xlink:href="#DejaVuSans-Bold-52" transform="translate(63.71875 0)"/>
     <use xlink:href="#DejaVuSans-Bold-51" transform="translate(132.421875 0)"/>
     <use xlink:href="#DejaVuSans-Bold-4a" transform="translate(203.609375 0)"/>
     <use xlink:href="#DejaVuSans-Bold-4c" transform="translate(275.1875 0)"/>
     <use xlink:href="#DejaVuSans-Bold-57" transform="translate(309.46875 0)"/>
     <use xlink:href="#DejaVuSans-Bold-58" transform="translate(357.265625 0)"/>
     <use xlink:href="#DejaVuSans-Bold-47" transform="translate(428.453125 0)"/>
     <use xlink:href="#DejaVuSans-Bold-4c" transform="translate(500.03125 0)"/>
     <use xlink:href="#DejaVuSans-Bold-51" transform="translate(534.3125 0)"/>
     <use xlink:href="#DejaVuSans-Bold-44" transform="translate(605.5 0)"/>
     <use xlink:href="#DejaVuSans-Bold-4f" transform="translate(672.984375 0)"/>
    </g>
   </g>
   <g id="text_8">
    <!-- within-person offsets -->
    <g style="fill: #5e6a72" transform="translate(346.571804 261.895722) scale(0.07 -0.07)">
     <defs>
      <path id="DejaVuSans-5a" d="M 269 3500 
L 844 3500 
L 1563 769 
L 2278 3500 
L 2956 3500 
L 3675 769 
L 4391 3500 
L 4966 3500 
L 4050 0 
L 3372 0 
L 2619 2869 
L 1863 0 
L 1184 0 
L 269 3500 
z
" transform="scale(0.015625)"/>
      <path id="DejaVuSans-4b" d="M 3513 2113 
L 3513 0 
L 2938 0 
L 2938 2094 
Q 2938 2591 2744 2837 
Q 2550 3084 2163 3084 
Q 1697 3084 1428 2787 
Q 1159 2491 1159 1978 
L 1159 0 
L 581 0 
L 581 4863 
L 1159 4863 
L 1159 2956 
Q 1366 3272 1645 3428 
Q 1925 3584 2291 3584 
Q 2894 3584 3203 3211 
Q 3513 2838 3513 2113 
z
" transform="scale(0.015625)"/>
      <path id="DejaVuSans-13ae" d="M 4531 4863 
L 4531 4384 
L 3981 4384 
Q 3672 4384 3551 4259 
Q 3431 4134 3431 3809 
L 3431 3500 
L 4378 3500 
L 4378 3053 
L 3431 3053 
L 3431 0 
L 2853 0 
L 2853 3053 
L 1275 3053 
L 1275 0 
L 697 0 
L 697 3053 
L 147 3053 
L 147 3500 
L 697 3500 
L 697 3744 
Q 697 4328 969 4595 
Q 1241 4863 1831 4863 
L 2375 4863 
L 2375 4384 
L 1825 4384 
Q 1516 4384 1394 4259 
Q 1275 4134 1275 3809 
L 1275 3500 
L 2853 3500 
L 2853 3744 
Q 2853 4328 3125 4595 
Q 3397 4863 3988 4863 
L 4531 4863 
z
" transform="scale(0.015625)"/>
     </defs>
     <use xlink:href="#DejaVuSans-5a"/>
     <use xlink:href="#DejaVuSans-4c" transform="translate(81.78125 0)"/>
     <use xlink:href="#DejaVuSans-57" transform="translate(109.5625 0)"/>
     <use xlink:href="#DejaVuSans-4b" transform="translate(148.765625 0)"/>
     <use xlink:href="#DejaVuSans-4c" transform="translate(212.140625 0)"/>
     <use xlink:href="#DejaVuSans-51" transform="translate(239.921875 0)"/>
     <use xlink:href="#DejaVuSans-10" transform="translate(303.296875 0)"/>
     <use xlink:href="#DejaVuSans-53" transform="translate(339.375 0)"/>
     <use xlink:href="#DejaVuSans-48" transform="translate(402.859375 0)"/>
     <use xlink:href="#DejaVuSans-55" transform="translate(464.390625 0)"/>
     <use xlink:href="#DejaVuSans-56" transform="translate(505.5 0)"/>
     <use xlink:href="#DejaVuSans-52" transform="translate(557.59375 0)"/>
     <use xlink:href="#DejaVuSans-51" transform="translate(618.78125 0)"/>
     <use xlink:href="#DejaVuSans-3" transform="translate(682.15625 0)"/>
     <use xlink:href="#DejaVuSans-52" transform="translate(713.9375 0)"/>
     <use xlink:href="#DejaVuSans-13ae" transform="translate(775.125 0)"/>
     <use xlink:href="#DejaVuSans-56" transform="translate(844.015625 0)"/>
     <use xlink:href="#DejaVuSans-48" transform="translate(896.109375 0)"/>
     <use xlink:href="#DejaVuSans-57" transform="translate(957.640625 0)"/>
     <use xlink:href="#DejaVuSans-56" transform="translate(996.84375 0)"/>
    </g>
    <!-- + span -->
    <g style="fill: #5e6a72" transform="translate(370.831179 268.780879) scale(0.07 -0.07)">
     <defs>
      <path id="DejaVuSans-e" d="M 2944 4013 
L 2944 2272 
L 4684 2272 
L 4684 1741 
L 2944 1741 
L 2944 0 
L 2419 0 
L 2419 1741 
L 678 1741 
L 678 2272 
L 2419 2272 
L 2419 4013 
L 2944 4013 
z
" transform="scale(0.015625)"/>
     </defs>
     <use xlink:href="#DejaVuSans-e"/>
     <use xlink:href="#DejaVuSans-3" transform="translate(83.796875 0)"/>
     <use xlink:href="#DejaVuSans-56" transform="translate(115.578125 0)"/>
     <use xlink:href="#DejaVuSans-53" transform="translate(167.671875 0)"/>
     <use xlink:href="#DejaVuSans-44" transform="translate(231.15625 0)"/>
     <use xlink:href="#DejaVuSans-51" transform="translate(292.4375 0)"/>
    </g>
   </g>
   <g id="text_9">
    <!-- Causal -->
    <g style="fill: #17232c" transform="translate(252.516156 294.709126) scale(0.098 -0.098)">
     <defs>
      <path id="DejaVuSans-Bold-26" d="M 4288 256 
Q 3956 84 3597 -3 
Q 3238 -91 2847 -91 
Q 1681 -91 1000 561 
Q 319 1213 319 2328 
Q 319 3447 1000 4098 
Q 1681 4750 2847 4750 
Q 3238 4750 3597 4662 
Q 3956 4575 4288 4403 
L 4288 3438 
Q 3953 3666 3628 3772 
Q 3303 3878 2944 3878 
Q 2300 3878 1931 3465 
Q 1563 3053 1563 2328 
Q 1563 1606 1931 1193 
Q 2300 781 2944 781 
Q 3303 781 3628 887 
Q 3953 994 4288 1222 
L 4288 256 
z
" transform="scale(0.015625)"/>
     </defs>
     <use xlink:href="#DejaVuSans-Bold-26"/>
     <use xlink:href="#DejaVuSans-Bold-44" transform="translate(73.390625 0)"/>
     <use xlink:href="#DejaVuSans-Bold-58" transform="translate(140.875 0)"/>
     <use xlink:href="#DejaVuSans-Bold-56" transform="translate(212.0625 0)"/>
     <use xlink:href="#DejaVuSans-Bold-44" transform="translate(271.578125 0)"/>
     <use xlink:href="#DejaVuSans-Bold-4f" transform="translate(339.0625 0)"/>
    </g>
   </g>
   <g id="text_10">
    <!-- policy + component -->
    <g style="fill: #5e6a72" transform="translate(235.5475 309.435522) scale(0.07 -0.07)">
     <use xlink:href="#DejaVuSans-53"/>
     <use xlink:href="#DejaVuSans-52" transform="translate(63.484375 0)"/>
     <use xlink:href="#DejaVuSans-4f" transform="translate(124.671875 0)"/>
     <use xlink:href="#DejaVuSans-4c" transform="translate(152.453125 0)"/>
     <use xlink:href="#DejaVuSans-46" transform="translate(180.234375 0)"/>
     <use xlink:href="#DejaVuSans-5c" transform="translate(235.21875 0)"/>
     <use xlink:href="#DejaVuSans-3" transform="translate(294.40625 0)"/>
     <use xlink:href="#DejaVuSans-e" transform="translate(326.1875 0)"/>
     <use xlink:href="#DejaVuSans-3" transform="translate(409.984375 0)"/>
     <use xlink:href="#DejaVuSans-46" transform="translate(441.765625 0)"/>
     <use xlink:href="#DejaVuSans-52" transform="translate(496.75 0)"/>
     <use xlink:href="#DejaVuSans-50" transform="translate(557.9375 0)"/>
     <use xlink:href="#DejaVuSans-53" transform="translate(655.34375 0)"/>
     <use xlink:href="#DejaVuSans-52" transform="translate(718.828125 0)"/>
     <use xlink:href="#DejaVuSans-51" transform="translate(780.015625 0)"/>
     <use xlink:href="#DejaVuSans-48" transform="translate(843.390625 0)"/>
     <use xlink:href="#DejaVuSans-51" transform="translate(904.921875 0)"/>
     <use xlink:href="#DejaVuSans-57" transform="translate(968.296875 0)"/>
    </g>
    <!-- contrasts -->
    <g style="fill: #5e6a72" transform="translate(254.551406 317.261851) scale(0.07 -0.07)">
     <use xlink:href="#DejaVuSans-46"/>
     <use xlink:href="#DejaVuSans-52" transform="translate(54.984375 0)"/>
     <use xlink:href="#DejaVuSans-51" transform="translate(116.171875 0)"/>
     <use xlink:href="#DejaVuSans-57" transform="translate(179.546875 0)"/>
     <use xlink:href="#DejaVuSans-55" transform="translate(218.75 0)"/>
     <use xlink:href="#DejaVuSans-44" transform="translate(259.859375 0)"/>
     <use xlink:href="#DejaVuSans-56" transform="translate(321.140625 0)"/>
     <use xlink:href="#DejaVuSans-57" transform="translate(373.234375 0)"/>
     <use xlink:href="#DejaVuSans-56" transform="translate(412.4375 0)"/>
    </g>
   </g>
   <g id="text_11">
    <!-- Personalized -->
    <g style="fill: #17232c" transform="translate(122.883884 247.169326) scale(0.098 -0.098)">
     <defs>
      <path id="DejaVuSans-Bold-33" d="M 588 4666 
L 2584 4666 
Q 3475 4666 3951 4270 
Q 4428 3875 4428 3144 
Q 4428 2409 3951 2014 
Q 3475 1619 2584 1619 
L 1791 1619 
L 1791 0 
L 588 0 
L 588 4666 
z
M 1791 3794 
L 1791 2491 
L 2456 2491 
Q 2806 2491 2997 2661 
Q 3188 2831 3188 3144 
Q 3188 3456 2997 3625 
Q 2806 3794 2456 3794 
L 1791 3794 
z
" transform="scale(0.015625)"/>
      <path id="DejaVuSans-Bold-5d" d="M 366 3500 
L 3419 3500 
L 3419 2719 
L 1575 800 
L 3419 800 
L 3419 0 
L 288 0 
L 288 781 
L 2131 2700 
L 366 2700 
L 366 3500 
z
" transform="scale(0.015625)"/>
     </defs>
     <use xlink:href="#DejaVuSans-Bold-33"/>
     <use xlink:href="#DejaVuSans-Bold-48" transform="translate(73.296875 0)"/>
     <use xlink:href="#DejaVuSans-Bold-55" transform="translate(141.125 0)"/>
     <use xlink:href="#DejaVuSans-Bold-56" transform="translate(190.4375 0)"/>
     <use xlink:href="#DejaVuSans-Bold-52" transform="translate(249.953125 0)"/>
     <use xlink:href="#DejaVuSans-Bold-51" transform="translate(318.65625 0)"/>
     <use xlink:href="#DejaVuSans-Bold-44" transform="translate(389.84375 0)"/>
     <use xlink:href="#DejaVuSans-Bold-4f" transform="translate(457.328125 0)"/>
     <use xlink:href="#DejaVuSans-Bold-4c" transform="translate(491.609375 0)"/>
     <use xlink:href="#DejaVuSans-Bold-5d" transform="translate(525.890625 0)"/>
     <use xlink:href="#DejaVuSans-Bold-48" transform="translate(584.09375 0)"/>
     <use xlink:href="#DejaVuSans-Bold-47" transform="translate(651.921875 0)"/>
    </g>
   </g>
   <g id="text_12">
    <!-- state-dependent decisions -->
    <g style="fill: #5e6a72" transform="translate(111.908431 265.570722) scale(0.07 -0.07)">
     <use xlink:href="#DejaVuSans-56"/>
     <use xlink:href="#DejaVuSans-57" transform="translate(52.09375 0)"/>
     <use xlink:href="#DejaVuSans-44" transform="translate(91.296875 0)"/>
     <use xlink:href="#DejaVuSans-57" transform="translate(152.578125 0)"/>
     <use xlink:href="#DejaVuSans-48" transform="translate(191.78125 0)"/>
     <use xlink:href="#DejaVuSans-10" transform="translate(253.3125 0)"/>
     <use xlink:href="#DejaVuSans-47" transform="translate(289.390625 0)"/>
     <use xlink:href="#DejaVuSans-48" transform="translate(352.875 0)"/>
     <use xlink:href="#DejaVuSans-53" transform="translate(414.40625 0)"/>
     <use xlink:href="#DejaVuSans-48" transform="translate(477.890625 0)"/>
     <use xlink:href="#DejaVuSans-51" transform="translate(539.421875 0)"/>
     <use xlink:href="#DejaVuSans-47" transform="translate(602.796875 0)"/>
     <use xlink:href="#DejaVuSans-48" transform="translate(666.28125 0)"/>
     <use xlink:href="#DejaVuSans-51" transform="translate(727.8125 0)"/>
     <use xlink:href="#DejaVuSans-57" transform="translate(791.1875 0)"/>
     <use xlink:href="#DejaVuSans-3" transform="translate(830.390625 0)"/>
     <use xlink:href="#DejaVuSans-47" transform="translate(862.171875 0)"/>
     <use xlink:href="#DejaVuSans-48" transform="translate(925.65625 0)"/>
     <use xlink:href="#DejaVuSans-46" transform="translate(987.1875 0)"/>
     <use xlink:href="#DejaVuSans-4c" transform="translate(1042.171875 0)"/>
     <use xlink:href="#DejaVuSans-56" transform="translate(1069.953125 0)"/>
     <use xlink:href="#DejaVuSans-4c" transform="translate(1122.046875 0)"/>
     <use xlink:href="#DejaVuSans-52" transform="translate(1149.828125 0)"/>
     <use xlink:href="#DejaVuSans-51" transform="translate(1211.015625 0)"/>
     <use xlink:href="#DejaVuSans-56" transform="translate(1274.390625 0)"/>
    </g>
   </g>
   <g id="text_13">
    <!-- Transport -->
    <g style="fill: #17232c" transform="translate(131.771259 152.089343) scale(0.098 -0.098)">
     <defs>
      <path id="DejaVuSans-Bold-37" d="M 31 4666 
L 4331 4666 
L 4331 3756 
L 2784 3756 
L 2784 0 
L 1581 0 
L 1581 3756 
L 31 3756 
L 31 4666 
z
" transform="scale(0.015625)"/>
     </defs>
     <use xlink:href="#DejaVuSans-Bold-37"/>
     <use xlink:href="#DejaVuSans-Bold-55" transform="translate(57.234375 0)"/>
     <use xlink:href="#DejaVuSans-Bold-44" transform="translate(106.546875 0)"/>
     <use xlink:href="#DejaVuSans-Bold-51" transform="translate(174.03125 0)"/>
     <use xlink:href="#DejaVuSans-Bold-56" transform="translate(245.21875 0)"/>
     <use xlink:href="#DejaVuSans-Bold-53" transform="translate(304.734375 0)"/>
     <use xlink:href="#DejaVuSans-Bold-52" transform="translate(376.3125 0)"/>
     <use xlink:href="#DejaVuSans-Bold-55" transform="translate(445.015625 0)"/>
     <use xlink:href="#DejaVuSans-Bold-57" transform="translate(494.328125 0)"/>
    </g>
   </g>
   <g id="text_14">
    <!-- measured context support -->
    <g style="fill: #5e6a72" transform="translate(111.99429 170.491123) scale(0.07 -0.07)">
     <defs>
      <path id="DejaVuSans-58" d="M 544 1381 
L 544 3500 
L 1119 3500 
L 1119 1403 
Q 1119 906 1312 657 
Q 1506 409 1894 409 
Q 2359 409 2629 706 
Q 2900 1003 2900 1516 
L 2900 3500 
L 3475 3500 
L 3475 0 
L 2900 0 
L 2900 538 
Q 2691 219 2414 64 
Q 2138 -91 1772 -91 
Q 1169 -91 856 284 
Q 544 659 544 1381 
z
M 1991 3584 
L 1991 3584 
z
" transform="scale(0.015625)"/>
     </defs>
     <use xlink:href="#DejaVuSans-50"/>
     <use xlink:href="#DejaVuSans-48" transform="translate(97.40625 0)"/>
     <use xlink:href="#DejaVuSans-44" transform="translate(158.9375 0)"/>
     <use xlink:href="#DejaVuSans-56" transform="translate(220.21875 0)"/>
     <use xlink:href="#DejaVuSans-58" transform="translate(272.3125 0)"/>
     <use xlink:href="#DejaVuSans-55" transform="translate(335.6875 0)"/>
     <use xlink:href="#DejaVuSans-48" transform="translate(374.59375 0)"/>
     <use xlink:href="#DejaVuSans-47" transform="translate(436.125 0)"/>
     <use xlink:href="#DejaVuSans-3" transform="translate(499.609375 0)"/>
     <use xlink:href="#DejaVuSans-46" transform="translate(531.390625 0)"/>
     <use xlink:href="#DejaVuSans-52" transform="translate(586.375 0)"/>
     <use xlink:href="#DejaVuSans-51" transform="translate(647.5625 0)"/>
     <use xlink:href="#DejaVuSans-57" transform="translate(710.9375 0)"/>
     <use xlink:href="#DejaVuSans-48" transform="translate(750.140625 0)"/>
     <use xlink:href="#DejaVuSans-5b" transform="translate(809.921875 0)"/>
     <use xlink:href="#DejaVuSans-57" transform="translate(869.109375 0)"/>
     <use xlink:href="#DejaVuSans-3" transform="translate(908.3125 0)"/>
     <use xlink:href="#DejaVuSans-56" transform="translate(940.09375 0)"/>
     <use xlink:href="#DejaVuSans-58" transform="translate(992.1875 0)"/>
     <use xlink:href="#DejaVuSans-53" transform="translate(1055.5625 0)"/>
     <use xlink:href="#DejaVuSans-53" transform="translate(1119.046875 0)"/>
     <use xlink:href="#DejaVuSans-52" transform="translate(1182.53125 0)"/>
     <use xlink:href="#DejaVuSans-55" transform="translate(1243.71875 0)"/>
     <use xlink:href="#DejaVuSans-57" transform="translate(1284.828125 0)"/>
    </g>
   </g>
   <g id="text_15">
    <!-- TRIAL -->
    <g style="fill: #17232c" transform="translate(253.986375 195.511925) scale(0.104 -0.104)">
     <defs>
      <path id="DejaVuSans-Bold-35" d="M 2297 2597 
Q 2675 2597 2839 2737 
Q 3003 2878 3003 3200 
Q 3003 3519 2839 3656 
Q 2675 3794 2297 3794 
L 1791 3794 
L 1791 2597 
L 2297 2597 
z
M 1791 1766 
L 1791 0 
L 588 0 
L 588 4666 
L 2425 4666 
Q 3347 4666 3776 4356 
Q 4206 4047 4206 3378 
Q 4206 2916 3982 2619 
Q 3759 2322 3309 2181 
Q 3556 2125 3751 1926 
Q 3947 1728 4147 1325 
L 4800 0 
L 3519 0 
L 2950 1159 
Q 2778 1509 2601 1637 
Q 2425 1766 2131 1766 
L 1791 1766 
z
" transform="scale(0.015625)"/>
      <path id="DejaVuSans-Bold-24" d="M 3419 850 
L 1538 850 
L 1241 0 
L 31 0 
L 1759 4666 
L 3194 4666 
L 4922 0 
L 3713 0 
L 3419 850 
z
M 1838 1716 
L 3116 1716 
L 2478 3572 
L 1838 1716 
z
" transform="scale(0.015625)"/>
     </defs>
     <use xlink:href="#DejaVuSans-Bold-37"/>
     <use xlink:href="#DejaVuSans-Bold-35" transform="translate(68.21875 0)"/>
     <use xlink:href="#DejaVuSans-Bold-2c" transform="translate(145.21875 0)"/>
     <use xlink:href="#DejaVuSans-Bold-24" transform="translate(182.421875 0)"/>
     <use xlink:href="#DejaVuSans-Bold-2f" transform="translate(259.8125 0)"/>
    </g>
    <!-- INFORMATION -->
    <g style="fill: #17232c" transform="translate(229.496813 207.466237) scale(0.104 -0.104)">
     <defs>
      <path id="DejaVuSans-Bold-31" d="M 588 4666 
L 1931 4666 
L 3628 1466 
L 3628 4666 
L 4769 4666 
L 4769 0 
L 3425 0 
L 1728 3200 
L 1728 0 
L 588 0 
L 588 4666 
z
" transform="scale(0.015625)"/>
      <path id="DejaVuSans-Bold-29" d="M 588 4666 
L 3834 4666 
L 3834 3756 
L 1791 3756 
L 1791 2888 
L 3713 2888 
L 3713 1978 
L 1791 1978 
L 1791 0 
L 588 0 
L 588 4666 
z
" transform="scale(0.015625)"/>
      <path id="DejaVuSans-Bold-32" d="M 2719 3878 
Q 2169 3878 1866 3472 
Q 1563 3066 1563 2328 
Q 1563 1594 1866 1187 
Q 2169 781 2719 781 
Q 3272 781 3575 1187 
Q 3878 1594 3878 2328 
Q 3878 3066 3575 3472 
Q 3272 3878 2719 3878 
z
M 2719 4750 
Q 3844 4750 4481 4106 
Q 5119 3463 5119 2328 
Q 5119 1197 4481 553 
Q 3844 -91 2719 -91 
Q 1597 -91 958 553 
Q 319 1197 319 2328 
Q 319 3463 958 4106 
Q 1597 4750 2719 4750 
z
" transform="scale(0.015625)"/>
      <path id="DejaVuSans-Bold-30" d="M 588 4666 
L 2119 4666 
L 3181 2169 
L 4250 4666 
L 5778 4666 
L 5778 0 
L 4641 0 
L 4641 3413 
L 3566 897 
L 2803 897 
L 1728 3413 
L 1728 0 
L 588 0 
L 588 4666 
z
" transform="scale(0.015625)"/>
     </defs>
     <use xlink:href="#DejaVuSans-Bold-2c"/>
     <use xlink:href="#DejaVuSans-Bold-31" transform="translate(37.203125 0)"/>
     <use xlink:href="#DejaVuSans-Bold-29" transform="translate(120.890625 0)"/>
     <use xlink:href="#DejaVuSans-Bold-32" transform="translate(189.203125 0)"/>
     <use xlink:href="#DejaVuSans-Bold-35" transform="translate(274.21875 0)"/>
     <use xlink:href="#DejaVuSans-Bold-30" transform="translate(351.21875 0)"/>
     <use xlink:href="#DejaVuSans-Bold-24" transform="translate(450.734375 0)"/>
     <use xlink:href="#DejaVuSans-Bold-37" transform="translate(520.359375 0)"/>
     <use xlink:href="#DejaVuSans-Bold-2c" transform="translate(588.578125 0)"/>
     <use xlink:href="#DejaVuSans-Bold-32" transform="translate(625.78125 0)"/>
     <use xlink:href="#DejaVuSans-Bold-31" transform="translate(710.796875 0)"/>
    </g>
    <!-- GEOMETRY -->
    <g style="fill: #17232c" transform="translate(238.809687 219.426237) scale(0.104 -0.104)">
     <defs>
      <path id="DejaVuSans-Bold-2a" d="M 4781 347 
Q 4331 128 3847 18 
Q 3363 -91 2847 -91 
Q 1681 -91 1000 561 
Q 319 1213 319 2328 
Q 319 3456 1012 4103 
Q 1706 4750 2913 4750 
Q 3378 4750 3804 4662 
Q 4231 4575 4609 4403 
L 4609 3438 
Q 4219 3659 3833 3768 
Q 3447 3878 3059 3878 
Q 2341 3878 1952 3476 
Q 1563 3075 1563 2328 
Q 1563 1588 1938 1184 
Q 2313 781 3003 781 
Q 3191 781 3352 804 
Q 3513 828 3641 878 
L 3641 1784 
L 2906 1784 
L 2906 2591 
L 4781 2591 
L 4781 347 
z
" transform="scale(0.015625)"/>
      <path id="DejaVuSans-Bold-3c" d="M -63 4666 
L 1253 4666 
L 2316 3003 
L 3378 4666 
L 4697 4666 
L 2919 1966 
L 2919 0 
L 1716 0 
L 1716 1966 
L -63 4666 
z
" transform="scale(0.015625)"/>
     </defs>
     <use xlink:href="#DejaVuSans-Bold-2a"/>
     <use xlink:href="#DejaVuSans-Bold-28" transform="translate(82.078125 0)"/>
     <use xlink:href="#DejaVuSans-Bold-32" transform="translate(150.390625 0)"/>
     <use xlink:href="#DejaVuSans-Bold-30" transform="translate(235.40625 0)"/>
     <use xlink:href="#DejaVuSans-Bold-28" transform="translate(334.921875 0)"/>
     <use xlink:href="#DejaVuSans-Bold-37" transform="translate(403.234375 0)"/>
     <use xlink:href="#DejaVuSans-Bold-35" transform="translate(471.453125 0)"/>
     <use xlink:href="#DejaVuSans-Bold-3c" transform="translate(542.984375 0)"/>
    </g>
   </g>
   <g id="text_16">
    <!-- Uncertainty, source binding, evidence lane, and reproducibility cut across every family. -->
    <g style="fill: #5e6a72" transform="translate(48.275484 380.2572) scale(0.102 -0.102)">
     <defs>
      <path id="DejaVuSans-38" d="M 556 4666 
L 1191 4666 
L 1191 1831 
Q 1191 1081 1462 751 
Q 1734 422 2344 422 
Q 2950 422 3222 751 
Q 3494 1081 3494 1831 
L 3494 4666 
L 4128 4666 
L 4128 1753 
Q 4128 841 3676 375 
Q 3225 -91 2344 -91 
Q 1459 -91 1007 375 
Q 556 841 556 1753 
L 556 4666 
z
" transform="scale(0.015625)"/>
      <path id="DejaVuSans-f" d="M 750 794 
L 1409 794 
L 1409 256 
L 897 -744 
L 494 -744 
L 750 256 
L 750 794 
z
" transform="scale(0.015625)"/>
     </defs>
     <use xlink:href="#DejaVuSans-38"/>
     <use xlink:href="#DejaVuSans-51" transform="translate(73.1875 0)"/>
     <use xlink:href="#DejaVuSans-46" transform="translate(136.5625 0)"/>
     <use xlink:href="#DejaVuSans-48" transform="translate(191.546875 0)"/>
     <use xlink:href="#DejaVuSans-55" transform="translate(253.078125 0)"/>
     <use xlink:href="#DejaVuSans-57" transform="translate(294.1875 0)"/>
     <use xlink:href="#DejaVuSans-44" transform="translate(333.390625 0)"/>
     <use xlink:href="#DejaVuSans-4c" transform="translate(394.671875 0)"/>
     <use xlink:href="#DejaVuSans-51" transform="translate(422.453125 0)"/>
     <use xlink:href="#DejaVuSans-57" transform="translate(485.828125 0)"/>
     <use xlink:href="#DejaVuSans-5c" transform="translate(525.03125 0)"/>
     <use xlink:href="#DejaVuSans-f" transform="translate(584.21875 0)"/>
     <use xlink:href="#DejaVuSans-3" transform="translate(616 0)"/>
     <use xlink:href="#DejaVuSans-56" transform="translate(647.78125 0)"/>
     <use xlink:href="#DejaVuSans-52" transform="translate(699.875 0)"/>
     <use xlink:href="#DejaVuSans-58" transform="translate(761.0625 0)"/>
     <use xlink:href="#DejaVuSans-55" transform="translate(824.4375 0)"/>
     <use xlink:href="#DejaVuSans-46" transform="translate(863.34375 0)"/>
     <use xlink:href="#DejaVuSans-48" transform="translate(918.328125 0)"/>
     <use xlink:href="#DejaVuSans-3" transform="translate(979.859375 0)"/>
     <use xlink:href="#DejaVuSans-45" transform="translate(1011.640625 0)"/>
     <use xlink:href="#DejaVuSans-4c" transform="translate(1075.125 0)"/>
     <use xlink:href="#DejaVuSans-51" transform="translate(1102.90625 0)"/>
     <use xlink:href="#DejaVuSans-47" transform="translate(1166.28125 0)"/>
     <use xlink:href="#DejaVuSans-4c" transform="translate(1229.765625 0)"/>
     <use xlink:href="#DejaVuSans-51" transform="translate(1257.546875 0)"/>
     <use xlink:href="#DejaVuSans-4a" transform="translate(1320.921875 0)"/>
     <use xlink:href="#DejaVuSans-f" transform="translate(1384.40625 0)"/>
     <use xlink:href="#DejaVuSans-3" transform="translate(1416.1875 0)"/>
     <use xlink:href="#DejaVuSans-48" transform="translate(1447.96875 0)"/>
     <use xlink:href="#DejaVuSans-59" transform="translate(1509.5 0)"/>
     <use xlink:href="#DejaVuSans-4c" transform="translate(1568.6875 0)"/>
     <use xlink:href="#DejaVuSans-47" transform="translate(1596.46875 0)"/>
     <use xlink:href="#DejaVuSans-48" transform="translate(1659.953125 0)"/>
     <use xlink:href="#DejaVuSans-51" transform="translate(1721.484375 0)"/>
     <use xlink:href="#DejaVuSans-46" transform="translate(1784.859375 0)"/>
     <use xlink:href="#DejaVuSans-48" transform="translate(1839.84375 0)"/>
     <use xlink:href="#DejaVuSans-3" transform="translate(1901.375 0)"/>
     <use xlink:href="#DejaVuSans-4f" transform="translate(1933.15625 0)"/>
     <use xlink:href="#DejaVuSans-44" transform="translate(1960.9375 0)"/>
     <use xlink:href="#DejaVuSans-51" transform="translate(2022.21875 0)"/>
     <use xlink:href="#DejaVuSans-48" transform="translate(2085.59375 0)"/>
     <use xlink:href="#DejaVuSans-f" transform="translate(2147.125 0)"/>
     <use xlink:href="#DejaVuSans-3" transform="translate(2178.90625 0)"/>
     <use xlink:href="#DejaVuSans-44" transform="translate(2210.6875 0)"/>
     <use xlink:href="#DejaVuSans-51" transform="translate(2271.96875 0)"/>
     <use xlink:href="#DejaVuSans-47" transform="translate(2335.34375 0)"/>
     <use xlink:href="#DejaVuSans-3" transform="translate(2398.828125 0)"/>
     <use xlink:href="#DejaVuSans-55" transform="translate(2430.609375 0)"/>
     <use xlink:href="#DejaVuSans-48" transform="translate(2469.515625 0)"/>
     <use xlink:href="#DejaVuSans-53" transform="translate(2531.046875 0)"/>
     <use xlink:href="#DejaVuSans-55" transform="translate(2594.53125 0)"/>
     <use xlink:href="#DejaVuSans-52" transform="translate(2633.4375 0)"/>
     <use xlink:href="#DejaVuSans-47" transform="translate(2694.625 0)"/>
     <use xlink:href="#DejaVuSans-58" transform="translate(2758.109375 0)"/>
     <use xlink:href="#DejaVuSans-46" transform="translate(2821.484375 0)"/>
     <use xlink:href="#DejaVuSans-4c" transform="translate(2876.46875 0)"/>
     <use xlink:href="#DejaVuSans-45" transform="translate(2904.25 0)"/>
     <use xlink:href="#DejaVuSans-4c" transform="translate(2967.734375 0)"/>
     <use xlink:href="#DejaVuSans-4f" transform="translate(2995.515625 0)"/>
     <use xlink:href="#DejaVuSans-4c" transform="translate(3023.296875 0)"/>
     <use xlink:href="#DejaVuSans-57" transform="translate(3051.078125 0)"/>
     <use xlink:href="#DejaVuSans-5c" transform="translate(3090.28125 0)"/>
     <use xlink:href="#DejaVuSans-3" transform="translate(3149.46875 0)"/>
     <use xlink:href="#DejaVuSans-46" transform="translate(3181.25 0)"/>
     <use xlink:href="#DejaVuSans-58" transform="translate(3236.234375 0)"/>
     <use xlink:href="#DejaVuSans-57" transform="translate(3299.609375 0)"/>
     <use xlink:href="#DejaVuSans-3" transform="translate(3338.8125 0)"/>
     <use xlink:href="#DejaVuSans-44" transform="translate(3370.59375 0)"/>
     <use xlink:href="#DejaVuSans-46" transform="translate(3431.875 0)"/>
     <use xlink:href="#DejaVuSans-55" transform="translate(3486.859375 0)"/>
     <use xlink:href="#DejaVuSans-52" transform="translate(3525.765625 0)"/>
     <use xlink:href="#DejaVuSans-56" transform="translate(3586.953125 0)"/>
     <use xlink:href="#DejaVuSans-56" transform="translate(3639.046875 0)"/>
     <use xlink:href="#DejaVuSans-3" transform="translate(3691.140625 0)"/>
     <use xlink:href="#DejaVuSans-48" transform="translate(3722.921875 0)"/>
     <use xlink:href="#DejaVuSans-59" transform="translate(3784.453125 0)"/>
     <use xlink:href="#DejaVuSans-48" transform="translate(3843.640625 0)"/>
     <use xlink:href="#DejaVuSans-55" transform="translate(3905.171875 0)"/>
     <use xlink:href="#DejaVuSans-5c" transform="translate(3946.28125 0)"/>
     <use xlink:href="#DejaVuSans-3" transform="translate(4005.46875 0)"/>
     <use xlink:href="#DejaVuSans-49" transform="translate(4037.25 0)"/>
     <use xlink:href="#DejaVuSans-44" transform="translate(4072.453125 0)"/>
     <use xlink:href="#DejaVuSans-50" transform="translate(4133.734375 0)"/>
     <use xlink:href="#DejaVuSans-4c" transform="translate(4231.140625 0)"/>
     <use xlink:href="#DejaVuSans-4f" transform="translate(4258.921875 0)"/>
     <use xlink:href="#DejaVuSans-5c" transform="translate(4286.703125 0)"/>
     <use xlink:href="#DejaVuSans-11" transform="translate(4331.640625 0)"/>
    </g>
   </g>
  </g>
 </g>
 <defs>
  <clipPath id="p407aa955c6">
   <rect x="5.76" y="5.76" width="530.1" height="388.08"/>
  </clipPath>
 </defs>
</svg>
