<?xml version="1.0" encoding="utf-8" standalone="no"?>
<!DOCTYPE svg PUBLIC "-//W3C//DTD SVG 1.1//EN"
  "http://www.w3.org/Graphics/SVG/1.1/DTD/svg11.dtd">
<svg xmlns:xlink="http://www.w3.org/1999/xlink" width="625.32pt" height="366.336pt" viewBox="0 0 625.32 366.336" xmlns="http://www.w3.org/2000/svg" version="1.1">
 <metadata>
  <rdf:RDF xmlns:dc="http://purl.org/dc/elements/1.1/" xmlns:cc="http://creativecommons.org/ns#" xmlns:rdf="http://www.w3.org/1999/02/22-rdf-syntax-ns#">
   <cc:Work>
    <dc:type rdf:resource="http://purl.org/dc/dcmitype/StillImage"/>
    <dc:date>2026-07-13T00:00:00Z</dc:date>
    <dc:format>image/svg+xml</dc:format>
    <dc:creator>
     <cc:Agent>
      <dc:title>AniBench v2 deterministic method-figure builder</dc:title>
     </cc:Agent>
    </dc:creator>
   </cc:Work>
  </rdf:RDF>
 </metadata>
 <defs>
  <style type="text/css">*{stroke-linejoin: round; stroke-linecap: butt}</style>
 </defs>
 <g id="figure_1">
  <g id="patch_1">
   <path d="M 0 366.336 
L 625.32 366.336 
L 625.32 -0 
L 0 -0 
z
" style="fill: #ffffff"/>
  </g>
  <g id="axes_1">
   <g id="patch_2">
    <path d="M 18.6498 194.522112 
L 94.1472 194.522112 
Q 105.1956 194.522112 105.1956 188.135424 
L 105.1956 121.430016 
Q 105.1956 115.043328 94.1472 115.043328 
L 18.6498 115.043328 
Q 7.6014 115.043328 7.6014 121.430016 
L 7.6014 188.135424 
Q 7.6014 194.522112 18.6498 194.522112 
z
" clip-path="url(#pab72b47506)" style="fill: #f3f5f6; stroke: #17232c; stroke-width: 1.25; stroke-linejoin: miter"/>
   </g>
   <g id="patch_3">
    <path d="M 99.831144 154.78272 
Q 104.581243 154.78272 107.766094 154.78272 
" clip-path="url(#pab72b47506)" style="fill: none; stroke: #3e748d; stroke-width: 1.4; stroke-linecap: round"/>
    <path d="M 102.966094 152.38272 
L 107.766094 154.78272 
L 102.966094 157.18272 
z
" clip-path="url(#pab72b47506)" style="fill: #3e748d; stroke: #3e748d; stroke-width: 1.4; stroke-linecap: round"/>
   </g>
   <g id="patch_4">
    <path d="M 119.9268 194.522112 
L 195.4242 194.522112 
Q 206.4726 194.522112 206.4726 188.135424 
L 206.4726 121.430016 
Q 206.4726 115.043328 195.4242 115.043328 
L 119.9268 115.043328 
Q 108.8784 115.043328 108.8784 121.430016 
L 108.8784 188.135424 
Q 108.8784 194.522112 119.9268 194.522112 
z
" clip-path="url(#pab72b47506)" style="fill: #eaf3f6; stroke: #17232c; stroke-width: 1.25; stroke-linejoin: miter"/>
   </g>
   <g id="patch_5">
    <path d="M 201.108144 154.78272 
Q 205.858243 154.78272 209.043094 154.78272 
" clip-path="url(#pab72b47506)" style="fill: none; stroke: #3e748d; stroke-width: 1.4; stroke-linecap: round"/>
    <path d="M 204.243094 152.38272 
L 209.043094 154.78272 
L 204.243094 157.18272 
z
" clip-path="url(#pab72b47506)" style="fill: #3e748d; stroke: #3e748d; stroke-width: 1.4; stroke-linecap: round"/>
   </g>
   <g id="patch_6">
    <path d="M 221.2038 194.522112 
L 296.7012 194.522112 
Q 307.7496 194.522112 307.7496 188.135424 
L 307.7496 121.430016 
Q 307.7496 115.043328 296.7012 115.043328 
L 221.2038 115.043328 
Q 210.1554 115.043328 210.1554 121.430016 
L 210.1554 188.135424 
Q 210.1554 194.522112 221.2038 194.522112 
z
" clip-path="url(#pab72b47506)" style="fill: #eaf3f6; stroke: #17232c; stroke-width: 1.25; stroke-linejoin: miter"/>
   </g>
   <g id="patch_7">
    <path d="M 302.385144 154.78272 
Q 307.135243 154.78272 310.320094 154.78272 
" clip-path="url(#pab72b47506)" style="fill: none; stroke: #3e748d; stroke-width: 1.4; stroke-linecap: round"/>
    <path d="M 305.520094 152.38272 
L 310.320094 154.78272 
L 305.520094 157.18272 
z
" clip-path="url(#pab72b47506)" style="fill: #3e748d; stroke: #3e748d; stroke-width: 1.4; stroke-linecap: round"/>
   </g>
   <g id="patch_8">
    <path d="M 322.4808 194.522112 
L 397.9782 194.522112 
Q 409.0266 194.522112 409.0266 188.135424 
L 409.0266 121.430016 
Q 409.0266 115.043328 397.9782 115.043328 
L 322.4808 115.043328 
Q 311.4324 115.043328 311.4324 121.430016 
L 311.4324 188.135424 
Q 311.4324 194.522112 322.4808 194.522112 
z
" clip-path="url(#pab72b47506)" style="fill: #fff2de; stroke: #17232c; stroke-width: 1.25; stroke-linejoin: miter"/>
   </g>
   <g id="patch_9">
    <path d="M 403.662144 154.78272 
Q 408.412243 154.78272 411.597094 154.78272 
" clip-path="url(#pab72b47506)" style="fill: none; stroke: #3e748d; stroke-width: 1.4; stroke-linecap: round"/>
    <path d="M 406.797094 152.38272 
L 411.597094 154.78272 
L 406.797094 157.18272 
z
" clip-path="url(#pab72b47506)" style="fill: #3e748d; stroke: #3e748d; stroke-width: 1.4; stroke-linecap: round"/>
   </g>
   <g id="patch_10">
    <path d="M 423.7578 194.522112 
L 499.2552 194.522112 
Q 510.3036 194.522112 510.3036 188.135424 
L 510.3036 121.430016 
Q 510.3036 115.043328 499.2552 115.043328 
L 423.7578 115.043328 
Q 412.7094 115.043328 412.7094 121.430016 
L 412.7094 188.135424 
Q 412.7094 194.522112 423.7578 194.522112 
z
" clip-path="url(#pab72b47506)" style="fill: #fff2de; stroke: #17232c; stroke-width: 1.25; stroke-linejoin: miter"/>
   </g>
   <g id="patch_11">
    <path d="M 504.939144 154.78272 
Q 509.689243 154.78272 512.874094 154.78272 
" clip-path="url(#pab72b47506)" style="fill: none; stroke: #3e748d; stroke-width: 1.4; stroke-linecap: round"/>
    <path d="M 508.074094 152.38272 
L 512.874094 154.78272 
L 508.074094 157.18272 
z
" clip-path="url(#pab72b47506)" style="fill: #3e748d; stroke: #3e748d; stroke-width: 1.4; stroke-linecap: round"/>
   </g>
   <g id="patch_12">
    <path d="M 525.0348 194.522112 
L 600.5322 194.522112 
Q 611.5806 194.522112 611.5806 188.135424 
L 611.5806 121.430016 
Q 611.5806 115.043328 600.5322 115.043328 
L 525.0348 115.043328 
Q 513.9864 115.043328 513.9864 121.430016 
L 513.9864 188.135424 
Q 513.9864 194.522112 525.0348 194.522112 
z
" clip-path="url(#pab72b47506)" style="fill: #f3f5f6; stroke: #17232c; stroke-width: 1.25; stroke-linejoin: miter"/>
   </g>
   <g id="text_1">
    <!-- Source-bound compilation, not a modality checklist -->
    <g style="fill: #17232c" transform="translate(18.036 33.629828) scale(0.18 -0.18)">
     <defs>
      <path id="DejaVuSans-Bold-36" d="M 3834 4519 
L 3834 3531 
Q 3450 3703 3084 3790 
Q 2719 3878 2394 3878 
Q 1963 3878 1756 3759 
Q 1550 3641 1550 3391 
Q 1550 3203 1689 3098 
Q 1828 2994 2194 2919 
L 2706 2816 
Q 3484 2659 3812 2340 
Q 4141 2022 4141 1434 
Q 4141 663 3683 286 
Q 3225 -91 2284 -91 
Q 1841 -91 1394 -6 
Q 947 78 500 244 
L 500 1259 
Q 947 1022 1364 901 
Q 1781 781 2169 781 
Q 2563 781 2772 912 
Q 2981 1044 2981 1288 
Q 2981 1506 2839 1625 
Q 2697 1744 2272 1838 
L 1806 1941 
Q 1106 2091 782 2419 
Q 459 2747 459 3303 
Q 459 4000 909 4375 
Q 1359 4750 2203 4750 
Q 2588 4750 2994 4692 
Q 3400 4634 3834 4519 
z
" transform="scale(0.015625)"/>
      <path id="DejaVuSans-Bold-52" d="M 2203 2784 
Q 1831 2784 1636 2517 
Q 1441 2250 1441 1747 
Q 1441 1244 1636 976 
Q 1831 709 2203 709 
Q 2569 709 2762 976 
Q 2956 1244 2956 1747 
Q 2956 2250 2762 2517 
Q 2569 2784 2203 2784 
z
M 2203 3584 
Q 3106 3584 3614 3096 
Q 4122 2609 4122 1747 
Q 4122 884 3614 396 
Q 3106 -91 2203 -91 
Q 1297 -91 786 396 
Q 275 884 275 1747 
Q 275 2609 786 3096 
Q 1297 3584 2203 3584 
z
" transform="scale(0.015625)"/>
      <path id="DejaVuSans-Bold-58" d="M 500 1363 
L 500 3500 
L 1625 3500 
L 1625 3150 
Q 1625 2866 1622 2436 
Q 1619 2006 1619 1863 
Q 1619 1441 1641 1255 
Q 1663 1069 1716 984 
Q 1784 875 1895 815 
Q 2006 756 2150 756 
Q 2500 756 2700 1025 
Q 2900 1294 2900 1772 
L 2900 3500 
L 4019 3500 
L 4019 0 
L 2900 0 
L 2900 506 
Q 2647 200 2364 54 
Q 2081 -91 1741 -91 
Q 1134 -91 817 281 
Q 500 653 500 1363 
z
" transform="scale(0.015625)"/>
      <path id="DejaVuSans-Bold-55" d="M 3138 2547 
Q 2991 2616 2845 2648 
Q 2700 2681 2553 2681 
Q 2122 2681 1889 2404 
Q 1656 2128 1656 1613 
L 1656 0 
L 538 0 
L 538 3500 
L 1656 3500 
L 1656 2925 
Q 1872 3269 2151 3426 
Q 2431 3584 2822 3584 
Q 2878 3584 2943 3579 
Q 3009 3575 3134 3559 
L 3138 2547 
z
" transform="scale(0.015625)"/>
      <path id="DejaVuSans-Bold-46" d="M 3366 3391 
L 3366 2478 
Q 3138 2634 2908 2709 
Q 2678 2784 2431 2784 
Q 1963 2784 1702 2511 
Q 1441 2238 1441 1747 
Q 1441 1256 1702 982 
Q 1963 709 2431 709 
Q 2694 709 2930 787 
Q 3166 866 3366 1019 
L 3366 103 
Q 3103 6 2833 -42 
Q 2563 -91 2291 -91 
Q 1344 -91 809 395 
Q 275 881 275 1747 
Q 275 2613 809 3098 
Q 1344 3584 2291 3584 
Q 2566 3584 2833 3536 
Q 3100 3488 3366 3391 
z
" transform="scale(0.015625)"/>
      <path id="DejaVuSans-Bold-48" d="M 4031 1759 
L 4031 1441 
L 1416 1441 
Q 1456 1047 1700 850 
Q 1944 653 2381 653 
Q 2734 653 3104 758 
Q 3475 863 3866 1075 
L 3866 213 
Q 3469 63 3072 -14 
Q 2675 -91 2278 -91 
Q 1328 -91 801 392 
Q 275 875 275 1747 
Q 275 2603 792 3093 
Q 1309 3584 2216 3584 
Q 3041 3584 3536 3087 
Q 4031 2591 4031 1759 
z
M 2881 2131 
Q 2881 2450 2695 2645 
Q 2509 2841 2209 2841 
Q 1884 2841 1681 2658 
Q 1478 2475 1428 2131 
L 2881 2131 
z
" transform="scale(0.015625)"/>
      <path id="DejaVuSans-Bold-10" d="M 347 2297 
L 2309 2297 
L 2309 1388 
L 347 1388 
L 347 2297 
z
" transform="scale(0.015625)"/>
      <path id="DejaVuSans-Bold-45" d="M 2400 722 
Q 2759 722 2948 984 
Q 3138 1247 3138 1747 
Q 3138 2247 2948 2509 
Q 2759 2772 2400 2772 
Q 2041 2772 1848 2508 
Q 1656 2244 1656 1747 
Q 1656 1250 1848 986 
Q 2041 722 2400 722 
z
M 1656 2988 
Q 1888 3294 2169 3439 
Q 2450 3584 2816 3584 
Q 3463 3584 3878 3070 
Q 4294 2556 4294 1747 
Q 4294 938 3878 423 
Q 3463 -91 2816 -91 
Q 2450 -91 2169 54 
Q 1888 200 1656 506 
L 1656 0 
L 538 0 
L 538 4863 
L 1656 4863 
L 1656 2988 
z
" transform="scale(0.015625)"/>
      <path id="DejaVuSans-Bold-51" d="M 4056 2131 
L 4056 0 
L 2931 0 
L 2931 347 
L 2931 1631 
Q 2931 2084 2911 2256 
Q 2891 2428 2841 2509 
Q 2775 2619 2662 2680 
Q 2550 2741 2406 2741 
Q 2056 2741 1856 2470 
Q 1656 2200 1656 1722 
L 1656 0 
L 538 0 
L 538 3500 
L 1656 3500 
L 1656 2988 
Q 1909 3294 2193 3439 
Q 2478 3584 2822 3584 
Q 3428 3584 3742 3212 
Q 4056 2841 4056 2131 
z
" transform="scale(0.015625)"/>
      <path id="DejaVuSans-Bold-47" d="M 2919 2988 
L 2919 4863 
L 4044 4863 
L 4044 0 
L 2919 0 
L 2919 506 
Q 2688 197 2409 53 
Q 2131 -91 1766 -91 
Q 1119 -91 703 423 
Q 288 938 288 1747 
Q 288 2556 703 3070 
Q 1119 3584 1766 3584 
Q 2128 3584 2408 3439 
Q 2688 3294 2919 2988 
z
M 2181 722 
Q 2541 722 2730 984 
Q 2919 1247 2919 1747 
Q 2919 2247 2730 2509 
Q 2541 2772 2181 2772 
Q 1825 2772 1636 2509 
Q 1447 2247 1447 1747 
Q 1447 1247 1636 984 
Q 1825 722 2181 722 
z
" transform="scale(0.015625)"/>
      <path id="DejaVuSans-Bold-3" transform="scale(0.015625)"/>
      <path id="DejaVuSans-Bold-50" d="M 3781 2919 
Q 3994 3244 4286 3414 
Q 4578 3584 4928 3584 
Q 5531 3584 5847 3212 
Q 6163 2841 6163 2131 
L 6163 0 
L 5038 0 
L 5038 1825 
Q 5041 1866 5042 1909 
Q 5044 1953 5044 2034 
Q 5044 2406 4934 2573 
Q 4825 2741 4581 2741 
Q 4263 2741 4089 2478 
Q 3916 2216 3909 1719 
L 3909 0 
L 2784 0 
L 2784 1825 
Q 2784 2406 2684 2573 
Q 2584 2741 2328 2741 
Q 2006 2741 1831 2477 
Q 1656 2213 1656 1722 
L 1656 0 
L 531 0 
L 531 3500 
L 1656 3500 
L 1656 2988 
Q 1863 3284 2130 3434 
Q 2397 3584 2719 3584 
Q 3081 3584 3359 3409 
Q 3638 3234 3781 2919 
z
" transform="scale(0.015625)"/>
      <path id="DejaVuSans-Bold-53" d="M 1656 506 
L 1656 -1331 
L 538 -1331 
L 538 3500 
L 1656 3500 
L 1656 2988 
Q 1888 3294 2169 3439 
Q 2450 3584 2816 3584 
Q 3463 3584 3878 3070 
Q 4294 2556 4294 1747 
Q 4294 938 3878 423 
Q 3463 -91 2816 -91 
Q 2450 -91 2169 54 
Q 1888 200 1656 506 
z
M 2400 2772 
Q 2041 2772 1848 2508 
Q 1656 2244 1656 1747 
Q 1656 1250 1848 986 
Q 2041 722 2400 722 
Q 2759 722 2948 984 
Q 3138 1247 3138 1747 
Q 3138 2247 2948 2509 
Q 2759 2772 2400 2772 
z
" transform="scale(0.015625)"/>
      <path id="DejaVuSans-Bold-4c" d="M 538 3500 
L 1656 3500 
L 1656 0 
L 538 0 
L 538 3500 
z
M 538 4863 
L 1656 4863 
L 1656 3950 
L 538 3950 
L 538 4863 
z
" transform="scale(0.015625)"/>
      <path id="DejaVuSans-Bold-4f" d="M 538 4863 
L 1656 4863 
L 1656 0 
L 538 0 
L 538 4863 
z
" transform="scale(0.015625)"/>
      <path id="DejaVuSans-Bold-44" d="M 2106 1575 
Q 1756 1575 1579 1456 
Q 1403 1338 1403 1106 
Q 1403 894 1545 773 
Q 1688 653 1941 653 
Q 2256 653 2472 879 
Q 2688 1106 2688 1447 
L 2688 1575 
L 2106 1575 
z
M 3816 1997 
L 3816 0 
L 2688 0 
L 2688 519 
Q 2463 200 2181 54 
Q 1900 -91 1497 -91 
Q 953 -91 614 226 
Q 275 544 275 1050 
Q 275 1666 698 1953 
Q 1122 2241 2028 2241 
L 2688 2241 
L 2688 2328 
Q 2688 2594 2478 2717 
Q 2269 2841 1825 2841 
Q 1466 2841 1156 2769 
Q 847 2697 581 2553 
L 581 3406 
Q 941 3494 1303 3539 
Q 1666 3584 2028 3584 
Q 2975 3584 3395 3211 
Q 3816 2838 3816 1997 
z
" transform="scale(0.015625)"/>
      <path id="DejaVuSans-Bold-57" d="M 1759 4494 
L 1759 3500 
L 2913 3500 
L 2913 2700 
L 1759 2700 
L 1759 1216 
Q 1759 972 1856 886 
Q 1953 800 2241 800 
L 2816 800 
L 2816 0 
L 1856 0 
Q 1194 0 917 276 
Q 641 553 641 1216 
L 641 2700 
L 84 2700 
L 84 3500 
L 641 3500 
L 641 4494 
L 1759 4494 
z
" transform="scale(0.015625)"/>
      <path id="DejaVuSans-Bold-f" d="M 653 1209 
L 1778 1209 
L 1778 256 
L 1006 -909 
L 341 -909 
L 653 256 
L 653 1209 
z
" transform="scale(0.015625)"/>
      <path id="DejaVuSans-Bold-5c" d="M 78 3500 
L 1197 3500 
L 2138 1125 
L 2938 3500 
L 4056 3500 
L 2584 -331 
Q 2363 -916 2067 -1148 
Q 1772 -1381 1288 -1381 
L 641 -1381 
L 641 -647 
L 991 -647 
Q 1275 -647 1404 -556 
Q 1534 -466 1606 -231 
L 1638 -134 
L 78 3500 
z
" transform="scale(0.015625)"/>
      <path id="DejaVuSans-Bold-4b" d="M 4056 2131 
L 4056 0 
L 2931 0 
L 2931 347 
L 2931 1625 
Q 2931 2084 2911 2256 
Q 2891 2428 2841 2509 
Q 2775 2619 2662 2680 
Q 2550 2741 2406 2741 
Q 2056 2741 1856 2470 
Q 1656 2200 1656 1722 
L 1656 0 
L 538 0 
L 538 4863 
L 1656 4863 
L 1656 2988 
Q 1909 3294 2193 3439 
Q 2478 3584 2822 3584 
Q 3428 3584 3742 3212 
Q 4056 2841 4056 2131 
z
" transform="scale(0.015625)"/>
      <path id="DejaVuSans-Bold-4e" d="M 538 4863 
L 1656 4863 
L 1656 2216 
L 2944 3500 
L 4244 3500 
L 2534 1894 
L 4378 0 
L 3022 0 
L 1656 1459 
L 1656 0 
L 538 0 
L 538 4863 
z
" transform="scale(0.015625)"/>
      <path id="DejaVuSans-Bold-56" d="M 3272 3391 
L 3272 2541 
Q 2913 2691 2578 2766 
Q 2244 2841 1947 2841 
Q 1628 2841 1473 2761 
Q 1319 2681 1319 2516 
Q 1319 2381 1436 2309 
Q 1553 2238 1856 2203 
L 2053 2175 
Q 2913 2066 3209 1816 
Q 3506 1566 3506 1031 
Q 3506 472 3093 190 
Q 2681 -91 1863 -91 
Q 1516 -91 1145 -36 
Q 775 19 384 128 
L 384 978 
Q 719 816 1070 734 
Q 1422 653 1784 653 
Q 2113 653 2278 743 
Q 2444 834 2444 1013 
Q 2444 1163 2330 1236 
Q 2216 1309 1875 1350 
L 1678 1375 
Q 931 1469 631 1722 
Q 331 1975 331 2491 
Q 331 3047 712 3315 
Q 1094 3584 1881 3584 
Q 2191 3584 2531 3537 
Q 2872 3491 3272 3391 
z
" transform="scale(0.015625)"/>
     </defs>
     <use xlink:href="#DejaVuSans-Bold-36"/>
     <use xlink:href="#DejaVuSans-Bold-52" transform="translate(72.015625 0)"/>
     <use xlink:href="#DejaVuSans-Bold-58" transform="translate(140.71875 0)"/>
     <use xlink:href="#DejaVuSans-Bold-55" transform="translate(211.90625 0)"/>
     <use xlink:href="#DejaVuSans-Bold-46" transform="translate(261.21875 0)"/>
     <use xlink:href="#DejaVuSans-Bold-48" transform="translate(320.5 0)"/>
     <use xlink:href="#DejaVuSans-Bold-10" transform="translate(388.328125 0)"/>
     <use xlink:href="#DejaVuSans-Bold-45" transform="translate(429.828125 0)"/>
     <use xlink:href="#DejaVuSans-Bold-52" transform="translate(501.40625 0)"/>
     <use xlink:href="#DejaVuSans-Bold-58" transform="translate(570.109375 0)"/>
     <use xlink:href="#DejaVuSans-Bold-51" transform="translate(641.296875 0)"/>
     <use xlink:href="#DejaVuSans-Bold-47" transform="translate(712.484375 0)"/>
     <use xlink:href="#DejaVuSans-Bold-3" transform="translate(784.0625 0)"/>
     <use xlink:href="#DejaVuSans-Bold-46" transform="translate(818.875 0)"/>
     <use xlink:href="#DejaVuSans-Bold-52" transform="translate(878.15625 0)"/>
     <use xlink:href="#DejaVuSans-Bold-50" transform="translate(946.859375 0)"/>
     <use xlink:href="#DejaVuSans-Bold-53" transform="translate(1051.0625 0)"/>
     <use xlink:href="#DejaVuSans-Bold-4c" transform="translate(1122.640625 0)"/>
     <use xlink:href="#DejaVuSans-Bold-4f" transform="translate(1156.921875 0)"/>
     <use xlink:href="#DejaVuSans-Bold-44" transform="translate(1191.203125 0)"/>
     <use xlink:href="#DejaVuSans-Bold-57" transform="translate(1258.6875 0)"/>
     <use xlink:href="#DejaVuSans-Bold-4c" transform="translate(1306.484375 0)"/>
     <use xlink:href="#DejaVuSans-Bold-52" transform="translate(1340.765625 0)"/>
     <use xlink:href="#DejaVuSans-Bold-51" transform="translate(1409.46875 0)"/>
     <use xlink:href="#DejaVuSans-Bold-f" transform="translate(1480.65625 0)"/>
     <use xlink:href="#DejaVuSans-Bold-3" transform="translate(1518.640625 0)"/>
     <use xlink:href="#DejaVuSans-Bold-51" transform="translate(1553.453125 0)"/>
     <use xlink:href="#DejaVuSans-Bold-52" transform="translate(1624.640625 0)"/>
     <use xlink:href="#DejaVuSans-Bold-57" transform="translate(1693.34375 0)"/>
     <use xlink:href="#DejaVuSans-Bold-3" transform="translate(1741.140625 0)"/>
     <use xlink:href="#DejaVuSans-Bold-44" transform="translate(1775.953125 0)"/>
     <use xlink:href="#DejaVuSans-Bold-3" transform="translate(1843.4375 0)"/>
     <use xlink:href="#DejaVuSans-Bold-50" transform="translate(1878.25 0)"/>
     <use xlink:href="#DejaVuSans-Bold-52" transform="translate(1982.453125 0)"/>
     <use xlink:href="#DejaVuSans-Bold-47" transform="translate(2051.15625 0)"/>
     <use xlink:href="#DejaVuSans-Bold-44" transform="translate(2122.734375 0)"/>
     <use xlink:href="#DejaVuSans-Bold-4f" transform="translate(2190.21875 0)"/>
     <use xlink:href="#DejaVuSans-Bold-4c" transform="translate(2224.5 0)"/>
     <use xlink:href="#DejaVuSans-Bold-57" transform="translate(2258.78125 0)"/>
     <use xlink:href="#DejaVuSans-Bold-5c" transform="translate(2306.578125 0)"/>
     <use xlink:href="#DejaVuSans-Bold-3" transform="translate(2371.765625 0)"/>
     <use xlink:href="#DejaVuSans-Bold-46" transform="translate(2406.578125 0)"/>
     <use xlink:href="#DejaVuSans-Bold-4b" transform="translate(2465.859375 0)"/>
     <use xlink:href="#DejaVuSans-Bold-48" transform="translate(2537.046875 0)"/>
     <use xlink:href="#DejaVuSans-Bold-46" transform="translate(2604.875 0)"/>
     <use xlink:href="#DejaVuSans-Bold-4e" transform="translate(2664.15625 0)"/>
     <use xlink:href="#DejaVuSans-Bold-4f" transform="translate(2730.65625 0)"/>
     <use xlink:href="#DejaVuSans-Bold-4c" transform="translate(2764.9375 0)"/>
     <use xlink:href="#DejaVuSans-Bold-56" transform="translate(2799.21875 0)"/>
     <use xlink:href="#DejaVuSans-Bold-57" transform="translate(2858.734375 0)"/>
    </g>
   </g>
   <g id="text_2">
    <!-- Every numeric family output is downstream of declared geometry and an auditable authority chain. -->
    <g style="fill: #5e6a72" transform="translate(18.036 47.445879) scale(0.105 -0.105)">
     <defs>
      <path id="DejaVuSans-28" d="M 628 4666 
L 3578 4666 
L 3578 4134 
L 1259 4134 
L 1259 2753 
L 3481 2753 
L 3481 2222 
L 1259 2222 
L 1259 531 
L 3634 531 
L 3634 0 
L 628 0 
L 628 4666 
z
" transform="scale(0.015625)"/>
      <path id="DejaVuSans-59" d="M 191 3500 
L 800 3500 
L 1894 563 
L 2988 3500 
L 3597 3500 
L 2284 0 
L 1503 0 
L 191 3500 
z
" transform="scale(0.015625)"/>
      <path id="DejaVuSans-48" d="M 3597 1894 
L 3597 1613 
L 953 1613 
Q 991 1019 1311 708 
Q 1631 397 2203 397 
Q 2534 397 2845 478 
Q 3156 559 3463 722 
L 3463 178 
Q 3153 47 2828 -22 
Q 2503 -91 2169 -91 
Q 1331 -91 842 396 
Q 353 884 353 1716 
Q 353 2575 817 3079 
Q 1281 3584 2069 3584 
Q 2775 3584 3186 3129 
Q 3597 2675 3597 1894 
z
M 3022 2063 
Q 3016 2534 2758 2815 
Q 2500 3097 2075 3097 
Q 1594 3097 1305 2825 
Q 1016 2553 972 2059 
L 3022 2063 
z
" transform="scale(0.015625)"/>
      <path id="DejaVuSans-55" d="M 2631 2963 
Q 2534 3019 2420 3045 
Q 2306 3072 2169 3072 
Q 1681 3072 1420 2755 
Q 1159 2438 1159 1844 
L 1159 0 
L 581 0 
L 581 3500 
L 1159 3500 
L 1159 2956 
Q 1341 3275 1631 3429 
Q 1922 3584 2338 3584 
Q 2397 3584 2469 3576 
Q 2541 3569 2628 3553 
L 2631 2963 
z
" transform="scale(0.015625)"/>
      <path id="DejaVuSans-5c" d="M 2059 -325 
Q 1816 -950 1584 -1140 
Q 1353 -1331 966 -1331 
L 506 -1331 
L 506 -850 
L 844 -850 
Q 1081 -850 1212 -737 
Q 1344 -625 1503 -206 
L 1606 56 
L 191 3500 
L 800 3500 
L 1894 763 
L 2988 3500 
L 3597 3500 
L 2059 -325 
z
" transform="scale(0.015625)"/>
      <path id="DejaVuSans-3" transform="scale(0.015625)"/>
      <path id="DejaVuSans-51" d="M 3513 2113 
L 3513 0 
L 2938 0 
L 2938 2094 
Q 2938 2591 2744 2837 
Q 2550 3084 2163 3084 
Q 1697 3084 1428 2787 
Q 1159 2491 1159 1978 
L 1159 0 
L 581 0 
L 581 3500 
L 1159 3500 
L 1159 2956 
Q 1366 3272 1645 3428 
Q 1925 3584 2291 3584 
Q 2894 3584 3203 3211 
Q 3513 2838 3513 2113 
z
" transform="scale(0.015625)"/>
      <path id="DejaVuSans-58" d="M 544 1381 
L 544 3500 
L 1119 3500 
L 1119 1403 
Q 1119 906 1312 657 
Q 1506 409 1894 409 
Q 2359 409 2629 706 
Q 2900 1003 2900 1516 
L 2900 3500 
L 3475 3500 
L 3475 0 
L 2900 0 
L 2900 538 
Q 2691 219 2414 64 
Q 2138 -91 1772 -91 
Q 1169 -91 856 284 
Q 544 659 544 1381 
z
M 1991 3584 
L 1991 3584 
z
" transform="scale(0.015625)"/>
      <path id="DejaVuSans-50" d="M 3328 2828 
Q 3544 3216 3844 3400 
Q 4144 3584 4550 3584 
Q 5097 3584 5394 3201 
Q 5691 2819 5691 2113 
L 5691 0 
L 5113 0 
L 5113 2094 
Q 5113 2597 4934 2840 
Q 4756 3084 4391 3084 
Q 3944 3084 3684 2787 
Q 3425 2491 3425 1978 
L 3425 0 
L 2847 0 
L 2847 2094 
Q 2847 2600 2669 2842 
Q 2491 3084 2119 3084 
Q 1678 3084 1418 2786 
Q 1159 2488 1159 1978 
L 1159 0 
L 581 0 
L 581 3500 
L 1159 3500 
L 1159 2956 
Q 1356 3278 1631 3431 
Q 1906 3584 2284 3584 
Q 2666 3584 2933 3390 
Q 3200 3197 3328 2828 
z
" transform="scale(0.015625)"/>
      <path id="DejaVuSans-4c" d="M 603 3500 
L 1178 3500 
L 1178 0 
L 603 0 
L 603 3500 
z
M 603 4863 
L 1178 4863 
L 1178 4134 
L 603 4134 
L 603 4863 
z
" transform="scale(0.015625)"/>
      <path id="DejaVuSans-46" d="M 3122 3366 
L 3122 2828 
Q 2878 2963 2633 3030 
Q 2388 3097 2138 3097 
Q 1578 3097 1268 2742 
Q 959 2388 959 1747 
Q 959 1106 1268 751 
Q 1578 397 2138 397 
Q 2388 397 2633 464 
Q 2878 531 3122 666 
L 3122 134 
Q 2881 22 2623 -34 
Q 2366 -91 2075 -91 
Q 1284 -91 818 406 
Q 353 903 353 1747 
Q 353 2603 823 3093 
Q 1294 3584 2113 3584 
Q 2378 3584 2631 3529 
Q 2884 3475 3122 3366 
z
" transform="scale(0.015625)"/>
      <path id="DejaVuSans-49" d="M 2375 4863 
L 2375 4384 
L 1825 4384 
Q 1516 4384 1395 4259 
Q 1275 4134 1275 3809 
L 1275 3500 
L 2222 3500 
L 2222 3053 
L 1275 3053 
L 1275 0 
L 697 0 
L 697 3053 
L 147 3053 
L 147 3500 
L 697 3500 
L 697 3744 
Q 697 4328 969 4595 
Q 1241 4863 1831 4863 
L 2375 4863 
z
" transform="scale(0.015625)"/>
      <path id="DejaVuSans-44" d="M 2194 1759 
Q 1497 1759 1228 1600 
Q 959 1441 959 1056 
Q 959 750 1161 570 
Q 1363 391 1709 391 
Q 2188 391 2477 730 
Q 2766 1069 2766 1631 
L 2766 1759 
L 2194 1759 
z
M 3341 1997 
L 3341 0 
L 2766 0 
L 2766 531 
Q 2569 213 2275 61 
Q 1981 -91 1556 -91 
Q 1019 -91 701 211 
Q 384 513 384 1019 
Q 384 1609 779 1909 
Q 1175 2209 1959 2209 
L 2766 2209 
L 2766 2266 
Q 2766 2663 2505 2880 
Q 2244 3097 1772 3097 
Q 1472 3097 1187 3025 
Q 903 2953 641 2809 
L 641 3341 
Q 956 3463 1253 3523 
Q 1550 3584 1831 3584 
Q 2591 3584 2966 3190 
Q 3341 2797 3341 1997 
z
" transform="scale(0.015625)"/>
      <path id="DejaVuSans-4f" d="M 603 4863 
L 1178 4863 
L 1178 0 
L 603 0 
L 603 4863 
z
" transform="scale(0.015625)"/>
      <path id="DejaVuSans-52" d="M 1959 3097 
Q 1497 3097 1228 2736 
Q 959 2375 959 1747 
Q 959 1119 1226 758 
Q 1494 397 1959 397 
Q 2419 397 2687 759 
Q 2956 1122 2956 1747 
Q 2956 2369 2687 2733 
Q 2419 3097 1959 3097 
z
M 1959 3584 
Q 2709 3584 3137 3096 
Q 3566 2609 3566 1747 
Q 3566 888 3137 398 
Q 2709 -91 1959 -91 
Q 1206 -91 779 398 
Q 353 888 353 1747 
Q 353 2609 779 3096 
Q 1206 3584 1959 3584 
z
" transform="scale(0.015625)"/>
      <path id="DejaVuSans-57" d="M 1172 4494 
L 1172 3500 
L 2356 3500 
L 2356 3053 
L 1172 3053 
L 1172 1153 
Q 1172 725 1289 603 
Q 1406 481 1766 481 
L 2356 481 
L 2356 0 
L 1766 0 
Q 1100 0 847 248 
Q 594 497 594 1153 
L 594 3053 
L 172 3053 
L 172 3500 
L 594 3500 
L 594 4494 
L 1172 4494 
z
" transform="scale(0.015625)"/>
      <path id="DejaVuSans-53" d="M 1159 525 
L 1159 -1331 
L 581 -1331 
L 581 3500 
L 1159 3500 
L 1159 2969 
Q 1341 3281 1617 3432 
Q 1894 3584 2278 3584 
Q 2916 3584 3314 3078 
Q 3713 2572 3713 1747 
Q 3713 922 3314 415 
Q 2916 -91 2278 -91 
Q 1894 -91 1617 61 
Q 1341 213 1159 525 
z
M 3116 1747 
Q 3116 2381 2855 2742 
Q 2594 3103 2138 3103 
Q 1681 3103 1420 2742 
Q 1159 2381 1159 1747 
Q 1159 1113 1420 752 
Q 1681 391 2138 391 
Q 2594 391 2855 752 
Q 3116 1113 3116 1747 
z
" transform="scale(0.015625)"/>
      <path id="DejaVuSans-56" d="M 2834 3397 
L 2834 2853 
Q 2591 2978 2328 3040 
Q 2066 3103 1784 3103 
Q 1356 3103 1142 2972 
Q 928 2841 928 2578 
Q 928 2378 1081 2264 
Q 1234 2150 1697 2047 
L 1894 2003 
Q 2506 1872 2764 1633 
Q 3022 1394 3022 966 
Q 3022 478 2636 193 
Q 2250 -91 1575 -91 
Q 1294 -91 989 -36 
Q 684 19 347 128 
L 347 722 
Q 666 556 975 473 
Q 1284 391 1588 391 
Q 1994 391 2212 530 
Q 2431 669 2431 922 
Q 2431 1156 2273 1281 
Q 2116 1406 1581 1522 
L 1381 1569 
Q 847 1681 609 1914 
Q 372 2147 372 2553 
Q 372 3047 722 3315 
Q 1072 3584 1716 3584 
Q 2034 3584 2315 3537 
Q 2597 3491 2834 3397 
z
" transform="scale(0.015625)"/>
      <path id="DejaVuSans-47" d="M 2906 2969 
L 2906 4863 
L 3481 4863 
L 3481 0 
L 2906 0 
L 2906 525 
Q 2725 213 2448 61 
Q 2172 -91 1784 -91 
Q 1150 -91 751 415 
Q 353 922 353 1747 
Q 353 2572 751 3078 
Q 1150 3584 1784 3584 
Q 2172 3584 2448 3432 
Q 2725 3281 2906 2969 
z
M 947 1747 
Q 947 1113 1208 752 
Q 1469 391 1925 391 
Q 2381 391 2643 752 
Q 2906 1113 2906 1747 
Q 2906 2381 2643 2742 
Q 2381 3103 1925 3103 
Q 1469 3103 1208 2742 
Q 947 2381 947 1747 
z
" transform="scale(0.015625)"/>
      <path id="DejaVuSans-5a" d="M 269 3500 
L 844 3500 
L 1563 769 
L 2278 3500 
L 2956 3500 
L 3675 769 
L 4391 3500 
L 4966 3500 
L 4050 0 
L 3372 0 
L 2619 2869 
L 1863 0 
L 1184 0 
L 269 3500 
z
" transform="scale(0.015625)"/>
      <path id="DejaVuSans-4a" d="M 2906 1791 
Q 2906 2416 2648 2759 
Q 2391 3103 1925 3103 
Q 1463 3103 1205 2759 
Q 947 2416 947 1791 
Q 947 1169 1205 825 
Q 1463 481 1925 481 
Q 2391 481 2648 825 
Q 2906 1169 2906 1791 
z
M 3481 434 
Q 3481 -459 3084 -895 
Q 2688 -1331 1869 -1331 
Q 1566 -1331 1297 -1286 
Q 1028 -1241 775 -1147 
L 775 -588 
Q 1028 -725 1275 -790 
Q 1522 -856 1778 -856 
Q 2344 -856 2625 -561 
Q 2906 -266 2906 331 
L 2906 616 
Q 2728 306 2450 153 
Q 2172 0 1784 0 
Q 1141 0 747 490 
Q 353 981 353 1791 
Q 353 2603 747 3093 
Q 1141 3584 1784 3584 
Q 2172 3584 2450 3431 
Q 2728 3278 2906 2969 
L 2906 3500 
L 3481 3500 
L 3481 434 
z
" transform="scale(0.015625)"/>
      <path id="DejaVuSans-45" d="M 3116 1747 
Q 3116 2381 2855 2742 
Q 2594 3103 2138 3103 
Q 1681 3103 1420 2742 
Q 1159 2381 1159 1747 
Q 1159 1113 1420 752 
Q 1681 391 2138 391 
Q 2594 391 2855 752 
Q 3116 1113 3116 1747 
z
M 1159 2969 
Q 1341 3281 1617 3432 
Q 1894 3584 2278 3584 
Q 2916 3584 3314 3078 
Q 3713 2572 3713 1747 
Q 3713 922 3314 415 
Q 2916 -91 2278 -91 
Q 1894 -91 1617 61 
Q 1341 213 1159 525 
L 1159 0 
L 581 0 
L 581 4863 
L 1159 4863 
L 1159 2969 
z
" transform="scale(0.015625)"/>
      <path id="DejaVuSans-4b" d="M 3513 2113 
L 3513 0 
L 2938 0 
L 2938 2094 
Q 2938 2591 2744 2837 
Q 2550 3084 2163 3084 
Q 1697 3084 1428 2787 
Q 1159 2491 1159 1978 
L 1159 0 
L 581 0 
L 581 4863 
L 1159 4863 
L 1159 2956 
Q 1366 3272 1645 3428 
Q 1925 3584 2291 3584 
Q 2894 3584 3203 3211 
Q 3513 2838 3513 2113 
z
" transform="scale(0.015625)"/>
      <path id="DejaVuSans-11" d="M 684 794 
L 1344 794 
L 1344 0 
L 684 0 
L 684 794 
z
" transform="scale(0.015625)"/>
     </defs>
     <use xlink:href="#DejaVuSans-28"/>
     <use xlink:href="#DejaVuSans-59" transform="translate(63.1875 0)"/>
     <use xlink:href="#DejaVuSans-48" transform="translate(122.375 0)"/>
     <use xlink:href="#DejaVuSans-55" transform="translate(183.90625 0)"/>
     <use xlink:href="#DejaVuSans-5c" transform="translate(225.015625 0)"/>
     <use xlink:href="#DejaVuSans-3" transform="translate(284.203125 0)"/>
     <use xlink:href="#DejaVuSans-51" transform="translate(315.984375 0)"/>
     <use xlink:href="#DejaVuSans-58" transform="translate(379.359375 0)"/>
     <use xlink:href="#DejaVuSans-50" transform="translate(442.734375 0)"/>
     <use xlink:href="#DejaVuSans-48" transform="translate(540.140625 0)"/>
     <use xlink:href="#DejaVuSans-55" transform="translate(601.671875 0)"/>
     <use xlink:href="#DejaVuSans-4c" transform="translate(642.78125 0)"/>
     <use xlink:href="#DejaVuSans-46" transform="translate(670.5625 0)"/>
     <use xlink:href="#DejaVuSans-3" transform="translate(725.546875 0)"/>
     <use xlink:href="#DejaVuSans-49" transform="translate(757.328125 0)"/>
     <use xlink:href="#DejaVuSans-44" transform="translate(792.53125 0)"/>
     <use xlink:href="#DejaVuSans-50" transform="translate(853.8125 0)"/>
     <use xlink:href="#DejaVuSans-4c" transform="translate(951.21875 0)"/>
     <use xlink:href="#DejaVuSans-4f" transform="translate(979 0)"/>
     <use xlink:href="#DejaVuSans-5c" transform="translate(1006.78125 0)"/>
     <use xlink:href="#DejaVuSans-3" transform="translate(1065.96875 0)"/>
     <use xlink:href="#DejaVuSans-52" transform="translate(1097.75 0)"/>
     <use xlink:href="#DejaVuSans-58" transform="translate(1158.9375 0)"/>
     <use xlink:href="#DejaVuSans-57" transform="translate(1222.3125 0)"/>
     <use xlink:href="#DejaVuSans-53" transform="translate(1261.515625 0)"/>
     <use xlink:href="#DejaVuSans-58" transform="translate(1325 0)"/>
     <use xlink:href="#DejaVuSans-57" transform="translate(1388.375 0)"/>
     <use xlink:href="#DejaVuSans-3" transform="translate(1427.578125 0)"/>
     <use xlink:href="#DejaVuSans-4c" transform="translate(1459.359375 0)"/>
     <use xlink:href="#DejaVuSans-56" transform="translate(1487.140625 0)"/>
     <use xlink:href="#DejaVuSans-3" transform="translate(1539.234375 0)"/>
     <use xlink:href="#DejaVuSans-47" transform="translate(1571.015625 0)"/>
     <use xlink:href="#DejaVuSans-52" transform="translate(1634.5 0)"/>
     <use xlink:href="#DejaVuSans-5a" transform="translate(1695.6875 0)"/>
     <use xlink:href="#DejaVuSans-51" transform="translate(1777.46875 0)"/>
     <use xlink:href="#DejaVuSans-56" transform="translate(1840.84375 0)"/>
     <use xlink:href="#DejaVuSans-57" transform="translate(1892.9375 0)"/>
     <use xlink:href="#DejaVuSans-55" transform="translate(1932.140625 0)"/>
     <use xlink:href="#DejaVuSans-48" transform="translate(1971.046875 0)"/>
     <use xlink:href="#DejaVuSans-44" transform="translate(2032.578125 0)"/>
     <use xlink:href="#DejaVuSans-50" transform="translate(2093.859375 0)"/>
     <use xlink:href="#DejaVuSans-3" transform="translate(2191.265625 0)"/>
     <use xlink:href="#DejaVuSans-52" transform="translate(2223.046875 0)"/>
     <use xlink:href="#DejaVuSans-49" transform="translate(2284.234375 0)"/>
     <use xlink:href="#DejaVuSans-3" transform="translate(2319.4375 0)"/>
     <use xlink:href="#DejaVuSans-47" transform="translate(2351.21875 0)"/>
     <use xlink:href="#DejaVuSans-48" transform="translate(2414.703125 0)"/>
     <use xlink:href="#DejaVuSans-46" transform="translate(2476.234375 0)"/>
     <use xlink:href="#DejaVuSans-4f" transform="translate(2531.21875 0)"/>
     <use xlink:href="#DejaVuSans-44" transform="translate(2559 0)"/>
     <use xlink:href="#DejaVuSans-55" transform="translate(2620.28125 0)"/>
     <use xlink:href="#DejaVuSans-48" transform="translate(2659.1875 0)"/>
     <use xlink:href="#DejaVuSans-47" transform="translate(2720.71875 0)"/>
     <use xlink:href="#DejaVuSans-3" transform="translate(2784.203125 0)"/>
     <use xlink:href="#DejaVuSans-4a" transform="translate(2815.984375 0)"/>
     <use xlink:href="#DejaVuSans-48" transform="translate(2879.46875 0)"/>
     <use xlink:href="#DejaVuSans-52" transform="translate(2941 0)"/>
     <use xlink:href="#DejaVuSans-50" transform="translate(3002.1875 0)"/>
     <use xlink:href="#DejaVuSans-48" transform="translate(3099.59375 0)"/>
     <use xlink:href="#DejaVuSans-57" transform="translate(3161.125 0)"/>
     <use xlink:href="#DejaVuSans-55" transform="translate(3200.328125 0)"/>
     <use xlink:href="#DejaVuSans-5c" transform="translate(3241.4375 0)"/>
     <use xlink:href="#DejaVuSans-3" transform="translate(3300.625 0)"/>
     <use xlink:href="#DejaVuSans-44" transform="translate(3332.40625 0)"/>
     <use xlink:href="#DejaVuSans-51" transform="translate(3393.6875 0)"/>
     <use xlink:href="#DejaVuSans-47" transform="translate(3457.0625 0)"/>
     <use xlink:href="#DejaVuSans-3" transform="translate(3520.546875 0)"/>
     <use xlink:href="#DejaVuSans-44" transform="translate(3552.328125 0)"/>
     <use xlink:href="#DejaVuSans-51" transform="translate(3613.609375 0)"/>
     <use xlink:href="#DejaVuSans-3" transform="translate(3676.984375 0)"/>
     <use xlink:href="#DejaVuSans-44" transform="translate(3708.765625 0)"/>
     <use xlink:href="#DejaVuSans-58" transform="translate(3770.046875 0)"/>
     <use xlink:href="#DejaVuSans-47" transform="translate(3833.421875 0)"/>
     <use xlink:href="#DejaVuSans-4c" transform="translate(3896.90625 0)"/>
     <use xlink:href="#DejaVuSans-57" transform="translate(3924.6875 0)"/>
     <use xlink:href="#DejaVuSans-44" transform="translate(3963.890625 0)"/>
     <use xlink:href="#DejaVuSans-45" transform="translate(4025.171875 0)"/>
     <use xlink:href="#DejaVuSans-4f" transform="translate(4088.65625 0)"/>
     <use xlink:href="#DejaVuSans-48" transform="translate(4116.4375 0)"/>
     <use xlink:href="#DejaVuSans-3" transform="translate(4177.96875 0)"/>
     <use xlink:href="#DejaVuSans-44" transform="translate(4209.75 0)"/>
     <use xlink:href="#DejaVuSans-58" transform="translate(4271.03125 0)"/>
     <use xlink:href="#DejaVuSans-57" transform="translate(4334.40625 0)"/>
     <use xlink:href="#DejaVuSans-4b" transform="translate(4373.609375 0)"/>
     <use xlink:href="#DejaVuSans-52" transform="translate(4436.984375 0)"/>
     <use xlink:href="#DejaVuSans-55" transform="translate(4498.171875 0)"/>
     <use xlink:href="#DejaVuSans-4c" transform="translate(4539.28125 0)"/>
     <use xlink:href="#DejaVuSans-57" transform="translate(4567.0625 0)"/>
     <use xlink:href="#DejaVuSans-5c" transform="translate(4606.265625 0)"/>
     <use xlink:href="#DejaVuSans-3" transform="translate(4665.453125 0)"/>
     <use xlink:href="#DejaVuSans-46" transform="translate(4697.234375 0)"/>
     <use xlink:href="#DejaVuSans-4b" transform="translate(4752.21875 0)"/>
     <use xlink:href="#DejaVuSans-44" transform="translate(4815.59375 0)"/>
     <use xlink:href="#DejaVuSans-4c" transform="translate(4876.875 0)"/>
     <use xlink:href="#DejaVuSans-51" transform="translate(4904.65625 0)"/>
     <use xlink:href="#DejaVuSans-11" transform="translate(4968.03125 0)"/>
    </g>
   </g>
   <g id="text_3">
    <!-- Source objects -->
    <g style="fill: #17232c" transform="translate(23.945625 152.419564) scale(0.078 -0.078)">
     <defs>
      <path id="DejaVuSans-Bold-4d" d="M 538 3500 
L 1656 3500 
L 1656 63 
Q 1656 -641 1318 -1011 
Q 981 -1381 341 -1381 
L -213 -1381 
L -213 -647 
L -19 -647 
Q 300 -647 419 -503 
Q 538 -359 538 63 
L 538 3500 
z
M 538 4863 
L 1656 4863 
L 1656 3950 
L 538 3950 
L 538 4863 
z
" transform="scale(0.015625)"/>
     </defs>
     <use xlink:href="#DejaVuSans-Bold-36"/>
     <use xlink:href="#DejaVuSans-Bold-52" transform="translate(72.015625 0)"/>
     <use xlink:href="#DejaVuSans-Bold-58" transform="translate(140.71875 0)"/>
     <use xlink:href="#DejaVuSans-Bold-55" transform="translate(211.90625 0)"/>
     <use xlink:href="#DejaVuSans-Bold-46" transform="translate(261.21875 0)"/>
     <use xlink:href="#DejaVuSans-Bold-48" transform="translate(320.5 0)"/>
     <use xlink:href="#DejaVuSans-Bold-3" transform="translate(388.328125 0)"/>
     <use xlink:href="#DejaVuSans-Bold-52" transform="translate(423.140625 0)"/>
     <use xlink:href="#DejaVuSans-Bold-45" transform="translate(491.84375 0)"/>
     <use xlink:href="#DejaVuSans-Bold-4d" transform="translate(563.421875 0)"/>
     <use xlink:href="#DejaVuSans-Bold-48" transform="translate(597.703125 0)"/>
     <use xlink:href="#DejaVuSans-Bold-46" transform="translate(665.53125 0)"/>
     <use xlink:href="#DejaVuSans-Bold-57" transform="translate(724.8125 0)"/>
     <use xlink:href="#DejaVuSans-Bold-56" transform="translate(772.609375 0)"/>
    </g>
    <!-- hashes + locators -->
    <g style="fill: #17232c" transform="translate(17.194969 162.175657) scale(0.078 -0.078)">
     <defs>
      <path id="DejaVuSans-Bold-e" d="M 3053 4013 
L 3053 2375 
L 4684 2375 
L 4684 1638 
L 3053 1638 
L 3053 0 
L 2309 0 
L 2309 1638 
L 678 1638 
L 678 2375 
L 2309 2375 
L 2309 4013 
L 3053 4013 
z
" transform="scale(0.015625)"/>
     </defs>
     <use xlink:href="#DejaVuSans-Bold-4b"/>
     <use xlink:href="#DejaVuSans-Bold-44" transform="translate(71.1875 0)"/>
     <use xlink:href="#DejaVuSans-Bold-56" transform="translate(138.671875 0)"/>
     <use xlink:href="#DejaVuSans-Bold-4b" transform="translate(198.1875 0)"/>
     <use xlink:href="#DejaVuSans-Bold-48" transform="translate(269.375 0)"/>
     <use xlink:href="#DejaVuSans-Bold-56" transform="translate(337.203125 0)"/>
     <use xlink:href="#DejaVuSans-Bold-3" transform="translate(396.71875 0)"/>
     <use xlink:href="#DejaVuSans-Bold-e" transform="translate(431.53125 0)"/>
     <use xlink:href="#DejaVuSans-Bold-3" transform="translate(515.328125 0)"/>
     <use xlink:href="#DejaVuSans-Bold-4f" transform="translate(550.140625 0)"/>
     <use xlink:href="#DejaVuSans-Bold-52" transform="translate(584.421875 0)"/>
     <use xlink:href="#DejaVuSans-Bold-46" transform="translate(653.125 0)"/>
     <use xlink:href="#DejaVuSans-Bold-44" transform="translate(712.40625 0)"/>
     <use xlink:href="#DejaVuSans-Bold-57" transform="translate(779.890625 0)"/>
     <use xlink:href="#DejaVuSans-Bold-52" transform="translate(827.6875 0)"/>
     <use xlink:href="#DejaVuSans-Bold-55" transform="translate(896.390625 0)"/>
     <use xlink:href="#DejaVuSans-Bold-56" transform="translate(945.703125 0)"/>
    </g>
   </g>
   <g id="text_4">
    <!-- Participant-event -->
    <g style="fill: #17232c" transform="translate(119.361047 152.450032) scale(0.078 -0.078)">
     <defs>
      <path id="DejaVuSans-Bold-33" d="M 588 4666 
L 2584 4666 
Q 3475 4666 3951 4270 
Q 4428 3875 4428 3144 
Q 4428 2409 3951 2014 
Q 3475 1619 2584 1619 
L 1791 1619 
L 1791 0 
L 588 0 
L 588 4666 
z
M 1791 3794 
L 1791 2491 
L 2456 2491 
Q 2806 2491 2997 2661 
Q 3188 2831 3188 3144 
Q 3188 3456 2997 3625 
Q 2806 3794 2456 3794 
L 1791 3794 
z
" transform="scale(0.015625)"/>
      <path id="DejaVuSans-Bold-59" d="M 97 3500 
L 1216 3500 
L 2088 1081 
L 2956 3500 
L 4078 3500 
L 2700 0 
L 1472 0 
L 97 3500 
z
" transform="scale(0.015625)"/>
     </defs>
     <use xlink:href="#DejaVuSans-Bold-33"/>
     <use xlink:href="#DejaVuSans-Bold-44" transform="translate(70.609375 0)"/>
     <use xlink:href="#DejaVuSans-Bold-55" transform="translate(138.09375 0)"/>
     <use xlink:href="#DejaVuSans-Bold-57" transform="translate(187.40625 0)"/>
     <use xlink:href="#DejaVuSans-Bold-4c" transform="translate(235.203125 0)"/>
     <use xlink:href="#DejaVuSans-Bold-46" transform="translate(269.484375 0)"/>
     <use xlink:href="#DejaVuSans-Bold-4c" transform="translate(328.765625 0)"/>
     <use xlink:href="#DejaVuSans-Bold-53" transform="translate(363.046875 0)"/>
     <use xlink:href="#DejaVuSans-Bold-44" transform="translate(434.625 0)"/>
     <use xlink:href="#DejaVuSans-Bold-51" transform="translate(502.109375 0)"/>
     <use xlink:href="#DejaVuSans-Bold-57" transform="translate(573.296875 0)"/>
     <use xlink:href="#DejaVuSans-Bold-10" transform="translate(621.09375 0)"/>
     <use xlink:href="#DejaVuSans-Bold-48" transform="translate(662.59375 0)"/>
     <use xlink:href="#DejaVuSans-Bold-59" transform="translate(730.421875 0)"/>
     <use xlink:href="#DejaVuSans-Bold-48" transform="translate(795.609375 0)"/>
     <use xlink:href="#DejaVuSans-Bold-51" transform="translate(863.4375 0)"/>
     <use xlink:href="#DejaVuSans-Bold-57" transform="translate(934.625 0)"/>
    </g>
    <!-- hyperedges -->
    <g style="fill: #17232c" transform="translate(131.802047 161.389564) scale(0.078 -0.078)">
     <defs>
      <path id="DejaVuSans-Bold-4a" d="M 2919 594 
Q 2688 288 2409 144 
Q 2131 0 1766 0 
Q 1125 0 706 504 
Q 288 1009 288 1791 
Q 288 2575 706 3076 
Q 1125 3578 1766 3578 
Q 2131 3578 2409 3434 
Q 2688 3291 2919 2981 
L 2919 3500 
L 4044 3500 
L 4044 353 
Q 4044 -491 3511 -936 
Q 2978 -1381 1966 -1381 
Q 1638 -1381 1331 -1331 
Q 1025 -1281 716 -1178 
L 716 -306 
Q 1009 -475 1290 -558 
Q 1572 -641 1856 -641 
Q 2406 -641 2662 -400 
Q 2919 -159 2919 353 
L 2919 594 
z
M 2181 2772 
Q 1834 2772 1640 2515 
Q 1447 2259 1447 1791 
Q 1447 1309 1634 1061 
Q 1822 813 2181 813 
Q 2531 813 2725 1069 
Q 2919 1325 2919 1791 
Q 2919 2259 2725 2515 
Q 2531 2772 2181 2772 
z
" transform="scale(0.015625)"/>
     </defs>
     <use xlink:href="#DejaVuSans-Bold-4b"/>
     <use xlink:href="#DejaVuSans-Bold-5c" transform="translate(71.1875 0)"/>
     <use xlink:href="#DejaVuSans-Bold-53" transform="translate(136.375 0)"/>
     <use xlink:href="#DejaVuSans-Bold-48" transform="translate(207.953125 0)"/>
     <use xlink:href="#DejaVuSans-Bold-55" transform="translate(275.78125 0)"/>
     <use xlink:href="#DejaVuSans-Bold-48" transform="translate(325.09375 0)"/>
     <use xlink:href="#DejaVuSans-Bold-47" transform="translate(392.921875 0)"/>
     <use xlink:href="#DejaVuSans-Bold-4a" transform="translate(464.5 0)"/>
     <use xlink:href="#DejaVuSans-Bold-48" transform="translate(536.078125 0)"/>
     <use xlink:href="#DejaVuSans-Bold-56" transform="translate(603.90625 0)"/>
    </g>
   </g>
   <g id="text_5">
    <!-- Observation + -->
    <g style="fill: #17232c" transform="translate(227.499 148.720657) scale(0.078 -0.078)">
     <defs>
      <path id="DejaVuSans-Bold-32" d="M 2719 3878 
Q 2169 3878 1866 3472 
Q 1563 3066 1563 2328 
Q 1563 1594 1866 1187 
Q 2169 781 2719 781 
Q 3272 781 3575 1187 
Q 3878 1594 3878 2328 
Q 3878 3066 3575 3472 
Q 3272 3878 2719 3878 
z
M 2719 4750 
Q 3844 4750 4481 4106 
Q 5119 3463 5119 2328 
Q 5119 1197 4481 553 
Q 3844 -91 2719 -91 
Q 1597 -91 958 553 
Q 319 1197 319 2328 
Q 319 3463 958 4106 
Q 1597 4750 2719 4750 
z
" transform="scale(0.015625)"/>
     </defs>
     <use xlink:href="#DejaVuSans-Bold-32"/>
     <use xlink:href="#DejaVuSans-Bold-45" transform="translate(85.015625 0)"/>
     <use xlink:href="#DejaVuSans-Bold-56" transform="translate(156.59375 0)"/>
     <use xlink:href="#DejaVuSans-Bold-48" transform="translate(216.109375 0)"/>
     <use xlink:href="#DejaVuSans-Bold-55" transform="translate(283.9375 0)"/>
     <use xlink:href="#DejaVuSans-Bold-59" transform="translate(333.25 0)"/>
     <use xlink:href="#DejaVuSans-Bold-44" transform="translate(398.4375 0)"/>
     <use xlink:href="#DejaVuSans-Bold-57" transform="translate(465.921875 0)"/>
     <use xlink:href="#DejaVuSans-Bold-4c" transform="translate(513.71875 0)"/>
     <use xlink:href="#DejaVuSans-Bold-52" transform="translate(548 0)"/>
     <use xlink:href="#DejaVuSans-Bold-51" transform="translate(616.703125 0)"/>
     <use xlink:href="#DejaVuSans-Bold-3" transform="translate(687.890625 0)"/>
     <use xlink:href="#DejaVuSans-Bold-e" transform="translate(722.703125 0)"/>
    </g>
    <!-- covariance -->
    <g style="fill: #17232c" transform="translate(235.161281 157.690657) scale(0.078 -0.078)">
     <use xlink:href="#DejaVuSans-Bold-46"/>
     <use xlink:href="#DejaVuSans-Bold-52" transform="translate(59.28125 0)"/>
     <use xlink:href="#DejaVuSans-Bold-59" transform="translate(127.984375 0)"/>
     <use xlink:href="#DejaVuSans-Bold-44" transform="translate(193.171875 0)"/>
     <use xlink:href="#DejaVuSans-Bold-55" transform="translate(260.65625 0)"/>
     <use xlink:href="#DejaVuSans-Bold-4c" transform="translate(309.96875 0)"/>
     <use xlink:href="#DejaVuSans-Bold-44" transform="translate(344.25 0)"/>
     <use xlink:href="#DejaVuSans-Bold-51" transform="translate(411.734375 0)"/>
     <use xlink:href="#DejaVuSans-Bold-46" transform="translate(482.921875 0)"/>
     <use xlink:href="#DejaVuSans-Bold-48" transform="translate(542.203125 0)"/>
    </g>
    <!-- operators -->
    <g style="fill: #17232c" transform="translate(237.493359 165.680173) scale(0.078 -0.078)">
     <use xlink:href="#DejaVuSans-Bold-52"/>
     <use xlink:href="#DejaVuSans-Bold-53" transform="translate(68.703125 0)"/>
     <use xlink:href="#DejaVuSans-Bold-48" transform="translate(140.28125 0)"/>
     <use xlink:href="#DejaVuSans-Bold-55" transform="translate(208.109375 0)"/>
     <use xlink:href="#DejaVuSans-Bold-44" transform="translate(257.421875 0)"/>
     <use xlink:href="#DejaVuSans-Bold-57" transform="translate(324.90625 0)"/>
     <use xlink:href="#DejaVuSans-Bold-52" transform="translate(372.703125 0)"/>
     <use xlink:href="#DejaVuSans-Bold-55" transform="translate(441.40625 0)"/>
     <use xlink:href="#DejaVuSans-Bold-56" transform="translate(490.71875 0)"/>
    </g>
   </g>
   <g id="text_6">
    <!-- Target / nuisance -->
    <g style="fill: #17232c" transform="translate(322.499437 152.419564) scale(0.078 -0.078)">
     <defs>
      <path id="DejaVuSans-Bold-37" d="M 31 4666 
L 4331 4666 
L 4331 3756 
L 2784 3756 
L 2784 0 
L 1581 0 
L 1581 3756 
L 31 3756 
L 31 4666 
z
" transform="scale(0.015625)"/>
      <path id="DejaVuSans-Bold-12" d="M 1644 4666 
L 2338 4666 
L 691 -594 
L 0 -594 
L 1644 4666 
z
" transform="scale(0.015625)"/>
     </defs>
     <use xlink:href="#DejaVuSans-Bold-37"/>
     <use xlink:href="#DejaVuSans-Bold-44" transform="translate(55.328125 0)"/>
     <use xlink:href="#DejaVuSans-Bold-55" transform="translate(122.8125 0)"/>
     <use xlink:href="#DejaVuSans-Bold-4a" transform="translate(172.125 0)"/>
     <use xlink:href="#DejaVuSans-Bold-48" transform="translate(243.703125 0)"/>
     <use xlink:href="#DejaVuSans-Bold-57" transform="translate(311.53125 0)"/>
     <use xlink:href="#DejaVuSans-Bold-3" transform="translate(359.328125 0)"/>
     <use xlink:href="#DejaVuSans-Bold-12" transform="translate(394.140625 0)"/>
     <use xlink:href="#DejaVuSans-Bold-3" transform="translate(430.671875 0)"/>
     <use xlink:href="#DejaVuSans-Bold-51" transform="translate(465.484375 0)"/>
     <use xlink:href="#DejaVuSans-Bold-58" transform="translate(536.671875 0)"/>
     <use xlink:href="#DejaVuSans-Bold-4c" transform="translate(607.859375 0)"/>
     <use xlink:href="#DejaVuSans-Bold-56" transform="translate(642.140625 0)"/>
     <use xlink:href="#DejaVuSans-Bold-44" transform="translate(701.65625 0)"/>
     <use xlink:href="#DejaVuSans-Bold-51" transform="translate(769.140625 0)"/>
     <use xlink:href="#DejaVuSans-Bold-46" transform="translate(840.328125 0)"/>
     <use xlink:href="#DejaVuSans-Bold-48" transform="translate(899.609375 0)"/>
    </g>
    <!-- information -->
    <g style="fill: #17232c" transform="translate(334.464516 162.175657) scale(0.078 -0.078)">
     <defs>
      <path id="DejaVuSans-Bold-49" d="M 2841 4863 
L 2841 4128 
L 2222 4128 
Q 1984 4128 1890 4042 
Q 1797 3956 1797 3744 
L 1797 3500 
L 2753 3500 
L 2753 2700 
L 1797 2700 
L 1797 0 
L 678 0 
L 678 2700 
L 122 2700 
L 122 3500 
L 678 3500 
L 678 3744 
Q 678 4316 997 4589 
Q 1316 4863 1984 4863 
L 2841 4863 
z
" transform="scale(0.015625)"/>
     </defs>
     <use xlink:href="#DejaVuSans-Bold-4c"/>
     <use xlink:href="#DejaVuSans-Bold-51" transform="translate(34.28125 0)"/>
     <use xlink:href="#DejaVuSans-Bold-49" transform="translate(105.46875 0)"/>
     <use xlink:href="#DejaVuSans-Bold-52" transform="translate(148.96875 0)"/>
     <use xlink:href="#DejaVuSans-Bold-55" transform="translate(217.671875 0)"/>
     <use xlink:href="#DejaVuSans-Bold-50" transform="translate(266.984375 0)"/>
     <use xlink:href="#DejaVuSans-Bold-44" transform="translate(371.1875 0)"/>
     <use xlink:href="#DejaVuSans-Bold-57" transform="translate(438.671875 0)"/>
     <use xlink:href="#DejaVuSans-Bold-4c" transform="translate(486.46875 0)"/>
     <use xlink:href="#DejaVuSans-Bold-52" transform="translate(520.75 0)"/>
     <use xlink:href="#DejaVuSans-Bold-51" transform="translate(589.453125 0)"/>
    </g>
   </g>
   <g id="text_7">
    <!-- Six family -->
    <g style="fill: #17232c" transform="translate(439.879172 152.419564) scale(0.078 -0.078)">
     <defs>
      <path id="DejaVuSans-Bold-5b" d="M 1422 1791 
L 159 3500 
L 1344 3500 
L 2059 2463 
L 2784 3500 
L 3969 3500 
L 2706 1797 
L 4031 0 
L 2847 0 
L 2059 1106 
L 1281 0 
L 97 0 
L 1422 1791 
z
" transform="scale(0.015625)"/>
     </defs>
     <use xlink:href="#DejaVuSans-Bold-36"/>
     <use xlink:href="#DejaVuSans-Bold-4c" transform="translate(72.015625 0)"/>
     <use xlink:href="#DejaVuSans-Bold-5b" transform="translate(106.296875 0)"/>
     <use xlink:href="#DejaVuSans-Bold-3" transform="translate(170.796875 0)"/>
     <use xlink:href="#DejaVuSans-Bold-49" transform="translate(205.609375 0)"/>
     <use xlink:href="#DejaVuSans-Bold-44" transform="translate(249.109375 0)"/>
     <use xlink:href="#DejaVuSans-Bold-50" transform="translate(316.59375 0)"/>
     <use xlink:href="#DejaVuSans-Bold-4c" transform="translate(420.796875 0)"/>
     <use xlink:href="#DejaVuSans-Bold-4f" transform="translate(455.078125 0)"/>
     <use xlink:href="#DejaVuSans-Bold-5c" transform="translate(489.359375 0)"/>
    </g>
    <!-- records -->
    <g style="fill: #17232c" transform="translate(444.910781 162.175657) scale(0.078 -0.078)">
     <use xlink:href="#DejaVuSans-Bold-55"/>
     <use xlink:href="#DejaVuSans-Bold-48" transform="translate(49.3125 0)"/>
     <use xlink:href="#DejaVuSans-Bold-46" transform="translate(117.140625 0)"/>
     <use xlink:href="#DejaVuSans-Bold-52" transform="translate(176.421875 0)"/>
     <use xlink:href="#DejaVuSans-Bold-55" transform="translate(245.125 0)"/>
     <use xlink:href="#DejaVuSans-Bold-47" transform="translate(294.4375 0)"/>
     <use xlink:href="#DejaVuSans-Bold-56" transform="translate(366.015625 0)"/>
    </g>
   </g>
   <g id="text_8">
    <!-- Pareto changes -->
    <g style="fill: #17232c" transform="translate(528.673734 152.419564) scale(0.078 -0.078)">
     <use xlink:href="#DejaVuSans-Bold-33"/>
     <use xlink:href="#DejaVuSans-Bold-44" transform="translate(70.609375 0)"/>
     <use xlink:href="#DejaVuSans-Bold-55" transform="translate(138.09375 0)"/>
     <use xlink:href="#DejaVuSans-Bold-48" transform="translate(187.40625 0)"/>
     <use xlink:href="#DejaVuSans-Bold-57" transform="translate(255.234375 0)"/>
     <use xlink:href="#DejaVuSans-Bold-52" transform="translate(303.03125 0)"/>
     <use xlink:href="#DejaVuSans-Bold-3" transform="translate(371.734375 0)"/>
     <use xlink:href="#DejaVuSans-Bold-46" transform="translate(406.546875 0)"/>
     <use xlink:href="#DejaVuSans-Bold-4b" transform="translate(465.828125 0)"/>
     <use xlink:href="#DejaVuSans-Bold-44" transform="translate(537.015625 0)"/>
     <use xlink:href="#DejaVuSans-Bold-51" transform="translate(604.5 0)"/>
     <use xlink:href="#DejaVuSans-Bold-4a" transform="translate(675.6875 0)"/>
     <use xlink:href="#DejaVuSans-Bold-48" transform="translate(747.265625 0)"/>
     <use xlink:href="#DejaVuSans-Bold-56" transform="translate(815.09375 0)"/>
    </g>
    <!-- + receipt -->
    <g style="fill: #17232c" transform="translate(542.639391 161.420032) scale(0.078 -0.078)">
     <use xlink:href="#DejaVuSans-Bold-e"/>
     <use xlink:href="#DejaVuSans-Bold-3" transform="translate(83.796875 0)"/>
     <use xlink:href="#DejaVuSans-Bold-55" transform="translate(118.609375 0)"/>
     <use xlink:href="#DejaVuSans-Bold-48" transform="translate(167.921875 0)"/>
     <use xlink:href="#DejaVuSans-Bold-46" transform="translate(235.75 0)"/>
     <use xlink:href="#DejaVuSans-Bold-48" transform="translate(295.03125 0)"/>
     <use xlink:href="#DejaVuSans-Bold-4c" transform="translate(362.859375 0)"/>
     <use xlink:href="#DejaVuSans-Bold-53" transform="translate(397.140625 0)"/>
     <use xlink:href="#DejaVuSans-Bold-57" transform="translate(468.71875 0)"/>
    </g>
   </g>
   <g id="text_9">
    <!-- Fail-closed gates -->
    <g style="fill: #17232c" transform="translate(18.036 229.29408) scale(0.11 -0.11)">
     <defs>
      <path id="DejaVuSans-Bold-29" d="M 588 4666 
L 3834 4666 
L 3834 3756 
L 1791 3756 
L 1791 2888 
L 3713 2888 
L 3713 1978 
L 1791 1978 
L 1791 0 
L 588 0 
L 588 4666 
z
" transform="scale(0.015625)"/>
     </defs>
     <use xlink:href="#DejaVuSans-Bold-29"/>
     <use xlink:href="#DejaVuSans-Bold-44" transform="translate(62.453125 0)"/>
     <use xlink:href="#DejaVuSans-Bold-4c" transform="translate(129.9375 0)"/>
     <use xlink:href="#DejaVuSans-Bold-4f" transform="translate(164.21875 0)"/>
     <use xlink:href="#DejaVuSans-Bold-10" transform="translate(198.5 0)"/>
     <use xlink:href="#DejaVuSans-Bold-46" transform="translate(240 0)"/>
     <use xlink:href="#DejaVuSans-Bold-4f" transform="translate(299.28125 0)"/>
     <use xlink:href="#DejaVuSans-Bold-52" transform="translate(333.5625 0)"/>
     <use xlink:href="#DejaVuSans-Bold-56" transform="translate(402.265625 0)"/>
     <use xlink:href="#DejaVuSans-Bold-48" transform="translate(461.78125 0)"/>
     <use xlink:href="#DejaVuSans-Bold-47" transform="translate(529.609375 0)"/>
     <use xlink:href="#DejaVuSans-Bold-3" transform="translate(601.1875 0)"/>
     <use xlink:href="#DejaVuSans-Bold-4a" transform="translate(636 0)"/>
     <use xlink:href="#DejaVuSans-Bold-44" transform="translate(707.578125 0)"/>
     <use xlink:href="#DejaVuSans-Bold-57" transform="translate(775.0625 0)"/>
     <use xlink:href="#DejaVuSans-Bold-48" transform="translate(822.859375 0)"/>
     <use xlink:href="#DejaVuSans-Bold-56" transform="translate(890.6875 0)"/>
    </g>
   </g>
   <g id="text_10">
    <!-- 01 -->
    <g style="fill: #ff9500" transform="translate(18.036 254.1312) scale(0.09 -0.09)">
     <defs>
      <path id="DejaVuSans-Bold-13" d="M 2944 2338 
Q 2944 3213 2780 3570 
Q 2616 3928 2228 3928 
Q 1841 3928 1675 3570 
Q 1509 3213 1509 2338 
Q 1509 1453 1675 1090 
Q 1841 728 2228 728 
Q 2613 728 2778 1090 
Q 2944 1453 2944 2338 
z
M 4147 2328 
Q 4147 1169 3647 539 
Q 3147 -91 2228 -91 
Q 1306 -91 806 539 
Q 306 1169 306 2328 
Q 306 3491 806 4120 
Q 1306 4750 2228 4750 
Q 3147 4750 3647 4120 
Q 4147 3491 4147 2328 
z
" transform="scale(0.015625)"/>
      <path id="DejaVuSans-Bold-14" d="M 750 831 
L 1813 831 
L 1813 3847 
L 722 3622 
L 722 4441 
L 1806 4666 
L 2950 4666 
L 2950 831 
L 4013 831 
L 4013 0 
L 750 0 
L 750 831 
z
" transform="scale(0.015625)"/>
     </defs>
     <use xlink:href="#DejaVuSans-Bold-13"/>
     <use xlink:href="#DejaVuSans-Bold-14" transform="translate(69.578125 0)"/>
    </g>
   </g>
   <g id="text_11">
    <!-- same event -->
    <g style="fill: #5e6a72" transform="translate(28.827047 276.024092) scale(0.078 -0.078)">
     <use xlink:href="#DejaVuSans-56"/>
     <use xlink:href="#DejaVuSans-44" transform="translate(52.09375 0)"/>
     <use xlink:href="#DejaVuSans-50" transform="translate(113.375 0)"/>
     <use xlink:href="#DejaVuSans-48" transform="translate(210.78125 0)"/>
     <use xlink:href="#DejaVuSans-3" transform="translate(272.3125 0)"/>
     <use xlink:href="#DejaVuSans-48" transform="translate(304.09375 0)"/>
     <use xlink:href="#DejaVuSans-59" transform="translate(365.625 0)"/>
     <use xlink:href="#DejaVuSans-48" transform="translate(424.8125 0)"/>
     <use xlink:href="#DejaVuSans-51" transform="translate(486.34375 0)"/>
     <use xlink:href="#DejaVuSans-57" transform="translate(549.71875 0)"/>
    </g>
   </g>
   <g id="text_12">
    <!-- 02 -->
    <g style="fill: #ff9500" transform="translate(118.0854 254.1312) scale(0.09 -0.09)">
     <defs>
      <path id="DejaVuSans-Bold-15" d="M 1844 884 
L 3897 884 
L 3897 0 
L 506 0 
L 506 884 
L 2209 2388 
Q 2438 2594 2547 2791 
Q 2656 2988 2656 3200 
Q 2656 3528 2436 3728 
Q 2216 3928 1850 3928 
Q 1569 3928 1234 3808 
Q 900 3688 519 3450 
L 519 4475 
Q 925 4609 1322 4679 
Q 1719 4750 2100 4750 
Q 2938 4750 3402 4381 
Q 3866 4013 3866 3353 
Q 3866 2972 3669 2642 
Q 3472 2313 2841 1759 
L 1844 884 
z
" transform="scale(0.015625)"/>
     </defs>
     <use xlink:href="#DejaVuSans-Bold-13"/>
     <use xlink:href="#DejaVuSans-Bold-15" transform="translate(69.578125 0)"/>
    </g>
   </g>
   <g id="text_13">
    <!-- lineage unique -->
    <g style="fill: #5e6a72" transform="translate(122.927119 276.024701) scale(0.078 -0.078)">
     <defs>
      <path id="DejaVuSans-54" d="M 947 1747 
Q 947 1113 1208 752 
Q 1469 391 1925 391 
Q 2381 391 2643 752 
Q 2906 1113 2906 1747 
Q 2906 2381 2643 2742 
Q 2381 3103 1925 3103 
Q 1469 3103 1208 2742 
Q 947 2381 947 1747 
z
M 2906 525 
Q 2725 213 2448 61 
Q 2172 -91 1784 -91 
Q 1150 -91 751 415 
Q 353 922 353 1747 
Q 353 2572 751 3078 
Q 1150 3584 1784 3584 
Q 2172 3584 2448 3432 
Q 2725 3281 2906 2969 
L 2906 3500 
L 3481 3500 
L 3481 -1331 
L 2906 -1331 
L 2906 525 
z
" transform="scale(0.015625)"/>
     </defs>
     <use xlink:href="#DejaVuSans-4f"/>
     <use xlink:href="#DejaVuSans-4c" transform="translate(27.78125 0)"/>
     <use xlink:href="#DejaVuSans-51" transform="translate(55.5625 0)"/>
     <use xlink:href="#DejaVuSans-48" transform="translate(118.9375 0)"/>
     <use xlink:href="#DejaVuSans-44" transform="translate(180.46875 0)"/>
     <use xlink:href="#DejaVuSans-4a" transform="translate(241.75 0)"/>
     <use xlink:href="#DejaVuSans-48" transform="translate(305.234375 0)"/>
     <use xlink:href="#DejaVuSans-3" transform="translate(366.765625 0)"/>
     <use xlink:href="#DejaVuSans-58" transform="translate(398.546875 0)"/>
     <use xlink:href="#DejaVuSans-51" transform="translate(461.921875 0)"/>
     <use xlink:href="#DejaVuSans-4c" transform="translate(525.296875 0)"/>
     <use xlink:href="#DejaVuSans-54" transform="translate(553.078125 0)"/>
     <use xlink:href="#DejaVuSans-58" transform="translate(616.5625 0)"/>
     <use xlink:href="#DejaVuSans-48" transform="translate(679.9375 0)"/>
    </g>
   </g>
   <g id="text_14">
    <!-- 03 -->
    <g style="fill: #ff9500" transform="translate(218.1348 254.1312) scale(0.09 -0.09)">
     <defs>
      <path id="DejaVuSans-Bold-16" d="M 2981 2516 
Q 3453 2394 3698 2092 
Q 3944 1791 3944 1325 
Q 3944 631 3412 270 
Q 2881 -91 1863 -91 
Q 1503 -91 1142 -33 
Q 781 25 428 141 
L 428 1069 
Q 766 900 1098 814 
Q 1431 728 1753 728 
Q 2231 728 2486 893 
Q 2741 1059 2741 1369 
Q 2741 1688 2480 1852 
Q 2219 2016 1709 2016 
L 1228 2016 
L 1228 2791 
L 1734 2791 
Q 2188 2791 2409 2933 
Q 2631 3075 2631 3366 
Q 2631 3634 2415 3781 
Q 2200 3928 1806 3928 
Q 1516 3928 1219 3862 
Q 922 3797 628 3669 
L 628 4550 
Q 984 4650 1334 4700 
Q 1684 4750 2022 4750 
Q 2931 4750 3382 4451 
Q 3834 4153 3834 3553 
Q 3834 3144 3618 2883 
Q 3403 2622 2981 2516 
z
" transform="scale(0.015625)"/>
     </defs>
     <use xlink:href="#DejaVuSans-Bold-13"/>
     <use xlink:href="#DejaVuSans-Bold-16" transform="translate(69.578125 0)"/>
    </g>
   </g>
   <g id="text_15">
    <!-- typed missingness -->
    <g style="fill: #5e6a72" transform="translate(215.554331 276.024701) scale(0.078 -0.078)">
     <use xlink:href="#DejaVuSans-57"/>
     <use xlink:href="#DejaVuSans-5c" transform="translate(39.203125 0)"/>
     <use xlink:href="#DejaVuSans-53" transform="translate(98.390625 0)"/>
     <use xlink:href="#DejaVuSans-48" transform="translate(161.875 0)"/>
     <use xlink:href="#DejaVuSans-47" transform="translate(223.40625 0)"/>
     <use xlink:href="#DejaVuSans-3" transform="translate(286.890625 0)"/>
     <use xlink:href="#DejaVuSans-50" transform="translate(318.671875 0)"/>
     <use xlink:href="#DejaVuSans-4c" transform="translate(416.078125 0)"/>
     <use xlink:href="#DejaVuSans-56" transform="translate(443.859375 0)"/>
     <use xlink:href="#DejaVuSans-56" transform="translate(495.953125 0)"/>
     <use xlink:href="#DejaVuSans-4c" transform="translate(548.046875 0)"/>
     <use xlink:href="#DejaVuSans-51" transform="translate(575.828125 0)"/>
     <use xlink:href="#DejaVuSans-4a" transform="translate(639.203125 0)"/>
     <use xlink:href="#DejaVuSans-51" transform="translate(702.6875 0)"/>
     <use xlink:href="#DejaVuSans-48" transform="translate(766.0625 0)"/>
     <use xlink:href="#DejaVuSans-56" transform="translate(827.59375 0)"/>
     <use xlink:href="#DejaVuSans-56" transform="translate(879.6875 0)"/>
    </g>
   </g>
   <g id="text_16">
    <!-- 04 -->
    <g style="fill: #ff9500" transform="translate(318.1842 254.1312) scale(0.09 -0.09)">
     <defs>
      <path id="DejaVuSans-Bold-17" d="M 2356 3675 
L 1038 1722 
L 2356 1722 
L 2356 3675 
z
M 2156 4666 
L 3494 4666 
L 3494 1722 
L 4159 1722 
L 4159 850 
L 3494 850 
L 3494 0 
L 2356 0 
L 2356 850 
L 288 850 
L 288 1881 
L 2156 4666 
z
" transform="scale(0.015625)"/>
     </defs>
     <use xlink:href="#DejaVuSans-Bold-13"/>
     <use xlink:href="#DejaVuSans-Bold-17" transform="translate(69.578125 0)"/>
    </g>
   </g>
   <g id="text_17">
    <!-- linked outcomes -->
    <g style="fill: #5e6a72" transform="translate(319.922372 276.024701) scale(0.078 -0.078)">
     <defs>
      <path id="DejaVuSans-4e" d="M 581 4863 
L 1159 4863 
L 1159 1991 
L 2875 3500 
L 3609 3500 
L 1753 1863 
L 3688 0 
L 2938 0 
L 1159 1709 
L 1159 0 
L 581 0 
L 581 4863 
z
" transform="scale(0.015625)"/>
     </defs>
     <use xlink:href="#DejaVuSans-4f"/>
     <use xlink:href="#DejaVuSans-4c" transform="translate(27.78125 0)"/>
     <use xlink:href="#DejaVuSans-51" transform="translate(55.5625 0)"/>
     <use xlink:href="#DejaVuSans-4e" transform="translate(118.9375 0)"/>
     <use xlink:href="#DejaVuSans-48" transform="translate(173.28125 0)"/>
     <use xlink:href="#DejaVuSans-47" transform="translate(234.8125 0)"/>
     <use xlink:href="#DejaVuSans-3" transform="translate(298.296875 0)"/>
     <use xlink:href="#DejaVuSans-52" transform="translate(330.078125 0)"/>
     <use xlink:href="#DejaVuSans-58" transform="translate(391.265625 0)"/>
     <use xlink:href="#DejaVuSans-57" transform="translate(454.640625 0)"/>
     <use xlink:href="#DejaVuSans-46" transform="translate(493.84375 0)"/>
     <use xlink:href="#DejaVuSans-52" transform="translate(548.828125 0)"/>
     <use xlink:href="#DejaVuSans-50" transform="translate(610.015625 0)"/>
     <use xlink:href="#DejaVuSans-48" transform="translate(707.421875 0)"/>
     <use xlink:href="#DejaVuSans-56" transform="translate(768.953125 0)"/>
    </g>
   </g>
   <g id="text_18">
    <!-- 05 -->
    <g style="fill: #ff9500" transform="translate(418.2336 254.1312) scale(0.09 -0.09)">
     <defs>
      <path id="DejaVuSans-Bold-18" d="M 678 4666 
L 3669 4666 
L 3669 3781 
L 1638 3781 
L 1638 3059 
Q 1775 3097 1914 3117 
Q 2053 3138 2203 3138 
Q 3056 3138 3531 2711 
Q 4006 2284 4006 1522 
Q 4006 766 3489 337 
Q 2972 -91 2053 -91 
Q 1656 -91 1267 -14 
Q 878 63 494 219 
L 494 1166 
Q 875 947 1217 837 
Q 1559 728 1863 728 
Q 2300 728 2551 942 
Q 2803 1156 2803 1522 
Q 2803 1891 2551 2103 
Q 2300 2316 1863 2316 
Q 1603 2316 1309 2248 
Q 1016 2181 678 2041 
L 678 4666 
z
" transform="scale(0.015625)"/>
     </defs>
     <use xlink:href="#DejaVuSans-Bold-13"/>
     <use xlink:href="#DejaVuSans-Bold-18" transform="translate(69.578125 0)"/>
    </g>
   </g>
   <g id="text_19">
    <!-- coherent stages -->
    <g style="fill: #5e6a72" transform="translate(420.575663 276.024701) scale(0.078 -0.078)">
     <use xlink:href="#DejaVuSans-46"/>
     <use xlink:href="#DejaVuSans-52" transform="translate(54.984375 0)"/>
     <use xlink:href="#DejaVuSans-4b" transform="translate(116.171875 0)"/>
     <use xlink:href="#DejaVuSans-48" transform="translate(179.546875 0)"/>
     <use xlink:href="#DejaVuSans-55" transform="translate(241.078125 0)"/>
     <use xlink:href="#DejaVuSans-48" transform="translate(279.984375 0)"/>
     <use xlink:href="#DejaVuSans-51" transform="translate(341.515625 0)"/>
     <use xlink:href="#DejaVuSans-57" transform="translate(404.890625 0)"/>
     <use xlink:href="#DejaVuSans-3" transform="translate(444.09375 0)"/>
     <use xlink:href="#DejaVuSans-56" transform="translate(475.875 0)"/>
     <use xlink:href="#DejaVuSans-57" transform="translate(527.96875 0)"/>
     <use xlink:href="#DejaVuSans-44" transform="translate(567.171875 0)"/>
     <use xlink:href="#DejaVuSans-4a" transform="translate(628.453125 0)"/>
     <use xlink:href="#DejaVuSans-48" transform="translate(691.9375 0)"/>
     <use xlink:href="#DejaVuSans-56" transform="translate(753.46875 0)"/>
    </g>
   </g>
   <g id="text_20">
    <!-- 06 -->
    <g style="fill: #ff9500" transform="translate(518.283 254.1312) scale(0.09 -0.09)">
     <defs>
      <path id="DejaVuSans-Bold-19" d="M 2316 2303 
Q 2000 2303 1842 2098 
Q 1684 1894 1684 1484 
Q 1684 1075 1842 870 
Q 2000 666 2316 666 
Q 2634 666 2792 870 
Q 2950 1075 2950 1484 
Q 2950 1894 2792 2098 
Q 2634 2303 2316 2303 
z
M 3803 4544 
L 3803 3681 
Q 3506 3822 3243 3889 
Q 2981 3956 2731 3956 
Q 2194 3956 1894 3657 
Q 1594 3359 1544 2772 
Q 1750 2925 1990 3001 
Q 2231 3078 2516 3078 
Q 3231 3078 3670 2659 
Q 4109 2241 4109 1563 
Q 4109 813 3618 361 
Q 3128 -91 2303 -91 
Q 1394 -91 895 523 
Q 397 1138 397 2266 
Q 397 3422 980 4083 
Q 1563 4744 2578 4744 
Q 2900 4744 3203 4694 
Q 3506 4644 3803 4544 
z
" transform="scale(0.015625)"/>
     </defs>
     <use xlink:href="#DejaVuSans-Bold-13"/>
     <use xlink:href="#DejaVuSans-Bold-19" transform="translate(69.578125 0)"/>
    </g>
   </g>
   <g id="text_21">
    <!-- canonical hashes -->
    <g style="fill: #5e6a72" transform="translate(518.441063 276.024701) scale(0.078 -0.078)">
     <use xlink:href="#DejaVuSans-46"/>
     <use xlink:href="#DejaVuSans-44" transform="translate(54.984375 0)"/>
     <use xlink:href="#DejaVuSans-51" transform="translate(116.265625 0)"/>
     <use xlink:href="#DejaVuSans-52" transform="translate(179.640625 0)"/>
     <use xlink:href="#DejaVuSans-51" transform="translate(240.828125 0)"/>
     <use xlink:href="#DejaVuSans-4c" transform="translate(304.203125 0)"/>
     <use xlink:href="#DejaVuSans-46" transform="translate(331.984375 0)"/>
     <use xlink:href="#DejaVuSans-44" transform="translate(386.96875 0)"/>
     <use xlink:href="#DejaVuSans-4f" transform="translate(448.25 0)"/>
     <use xlink:href="#DejaVuSans-3" transform="translate(476.03125 0)"/>
     <use xlink:href="#DejaVuSans-4b" transform="translate(507.8125 0)"/>
     <use xlink:href="#DejaVuSans-44" transform="translate(571.1875 0)"/>
     <use xlink:href="#DejaVuSans-56" transform="translate(632.46875 0)"/>
     <use xlink:href="#DejaVuSans-4b" transform="translate(684.5625 0)"/>
     <use xlink:href="#DejaVuSans-48" transform="translate(747.9375 0)"/>
     <use xlink:href="#DejaVuSans-56" transform="translate(809.46875 0)"/>
    </g>
   </g>
   <g id="text_22">
    <g id="patch_13">
     <path d="M 55.129375 335.54483 
L 570.190625 335.54483 
Q 575.140625 335.54483 575.140625 330.59483 
L 575.140625 319.59397 
Q 575.140625 314.64397 570.190625 314.64397 
L 55.129375 314.64397 
Q 50.179375 314.64397 50.179375 319.59397 
L 50.179375 330.59483 
Q 50.179375 335.54483 55.129375 335.54483 
z
" style="fill: #ffffff; stroke: #ff9500; stroke-width: 1.4; stroke-linejoin: miter"/>
    </g>
    <!-- No overall scalar  •  no caller-provided matrices  •  no rank from missing geometry -->
    <g style="fill: #17232c" transform="translate(55.129375 327.952252) scale(0.11 -0.11)">
     <defs>
      <path id="DejaVuSans-Bold-31" d="M 588 4666 
L 1931 4666 
L 3628 1466 
L 3628 4666 
L 4769 4666 
L 4769 0 
L 3425 0 
L 1728 3200 
L 1728 0 
L 588 0 
L 588 4666 
z
" transform="scale(0.015625)"/>
      <path id="DejaVuSans-Bold-b04" d="M 922 2381 
Q 922 2613 1005 2816 
Q 1088 3019 1247 3175 
Q 1413 3334 1616 3417 
Q 1819 3500 2047 3500 
Q 2275 3500 2479 3415 
Q 2684 3331 2841 3175 
Q 3003 3013 3086 2811 
Q 3169 2609 3169 2381 
Q 3169 2150 3084 1945 
Q 3000 1741 2841 1581 
Q 2681 1422 2476 1337 
Q 2272 1253 2041 1253 
Q 1813 1253 1609 1337 
Q 1406 1422 1247 1581 
Q 1091 1741 1006 1945 
Q 922 2150 922 2381 
z
" transform="scale(0.015625)"/>
     </defs>
     <use xlink:href="#DejaVuSans-Bold-31"/>
     <use xlink:href="#DejaVuSans-Bold-52" transform="translate(83.6875 0)"/>
     <use xlink:href="#DejaVuSans-Bold-3" transform="translate(152.390625 0)"/>
     <use xlink:href="#DejaVuSans-Bold-52" transform="translate(187.203125 0)"/>
     <use xlink:href="#DejaVuSans-Bold-59" transform="translate(255.90625 0)"/>
     <use xlink:href="#DejaVuSans-Bold-48" transform="translate(321.09375 0)"/>
     <use xlink:href="#DejaVuSans-Bold-55" transform="translate(388.921875 0)"/>
     <use xlink:href="#DejaVuSans-Bold-44" transform="translate(438.234375 0)"/>
     <use xlink:href="#DejaVuSans-Bold-4f" transform="translate(505.71875 0)"/>
     <use xlink:href="#DejaVuSans-Bold-4f" transform="translate(540 0)"/>
     <use xlink:href="#DejaVuSans-Bold-3" transform="translate(574.28125 0)"/>
     <use xlink:href="#DejaVuSans-Bold-56" transform="translate(609.09375 0)"/>
     <use xlink:href="#DejaVuSans-Bold-46" transform="translate(668.609375 0)"/>
     <use xlink:href="#DejaVuSans-Bold-44" transform="translate(727.890625 0)"/>
     <use xlink:href="#DejaVuSans-Bold-4f" transform="translate(795.375 0)"/>
     <use xlink:href="#DejaVuSans-Bold-44" transform="translate(829.65625 0)"/>
     <use xlink:href="#DejaVuSans-Bold-55" transform="translate(897.140625 0)"/>
     <use xlink:href="#DejaVuSans-Bold-3" transform="translate(946.453125 0)"/>
     <use xlink:href="#DejaVuSans-Bold-3" transform="translate(981.265625 0)"/>
     <use xlink:href="#DejaVuSans-Bold-b04" transform="translate(1016.078125 0)"/>
     <use xlink:href="#DejaVuSans-Bold-3" transform="translate(1080 0)"/>
     <use xlink:href="#DejaVuSans-Bold-3" transform="translate(1114.8125 0)"/>
     <use xlink:href="#DejaVuSans-Bold-51" transform="translate(1149.625 0)"/>
     <use xlink:href="#DejaVuSans-Bold-52" transform="translate(1220.8125 0)"/>
     <use xlink:href="#DejaVuSans-Bold-3" transform="translate(1289.515625 0)"/>
     <use xlink:href="#DejaVuSans-Bold-46" transform="translate(1324.328125 0)"/>
     <use xlink:href="#DejaVuSans-Bold-44" transform="translate(1383.609375 0)"/>
     <use xlink:href="#DejaVuSans-Bold-4f" transform="translate(1451.09375 0)"/>
     <use xlink:href="#DejaVuSans-Bold-4f" transform="translate(1485.375 0)"/>
     <use xlink:href="#DejaVuSans-Bold-48" transform="translate(1519.65625 0)"/>
     <use xlink:href="#DejaVuSans-Bold-55" transform="translate(1587.484375 0)"/>
     <use xlink:href="#DejaVuSans-Bold-10" transform="translate(1636.796875 0)"/>
     <use xlink:href="#DejaVuSans-Bold-53" transform="translate(1678.296875 0)"/>
     <use xlink:href="#DejaVuSans-Bold-55" transform="translate(1749.875 0)"/>
     <use xlink:href="#DejaVuSans-Bold-52" transform="translate(1799.1875 0)"/>
     <use xlink:href="#DejaVuSans-Bold-59" transform="translate(1867.890625 0)"/>
     <use xlink:href="#DejaVuSans-Bold-4c" transform="translate(1933.078125 0)"/>
     <use xlink:href="#DejaVuSans-Bold-47" transform="translate(1967.359375 0)"/>
     <use xlink:href="#DejaVuSans-Bold-48" transform="translate(2038.9375 0)"/>
     <use xlink:href="#DejaVuSans-Bold-47" transform="translate(2106.765625 0)"/>
     <use xlink:href="#DejaVuSans-Bold-3" transform="translate(2178.34375 0)"/>
     <use xlink:href="#DejaVuSans-Bold-50" transform="translate(2213.15625 0)"/>
     <use xlink:href="#DejaVuSans-Bold-44" transform="translate(2317.359375 0)"/>
     <use xlink:href="#DejaVuSans-Bold-57" transform="translate(2384.84375 0)"/>
     <use xlink:href="#DejaVuSans-Bold-55" transform="translate(2432.640625 0)"/>
     <use xlink:href="#DejaVuSans-Bold-4c" transform="translate(2481.953125 0)"/>
     <use xlink:href="#DejaVuSans-Bold-46" transform="translate(2516.234375 0)"/>
     <use xlink:href="#DejaVuSans-Bold-48" transform="translate(2575.515625 0)"/>
     <use xlink:href="#DejaVuSans-Bold-56" transform="translate(2643.34375 0)"/>
     <use xlink:href="#DejaVuSans-Bold-3" transform="translate(2702.859375 0)"/>
     <use xlink:href="#DejaVuSans-Bold-3" transform="translate(2737.671875 0)"/>
     <use xlink:href="#DejaVuSans-Bold-b04" transform="translate(2772.484375 0)"/>
     <use xlink:href="#DejaVuSans-Bold-3" transform="translate(2836.40625 0)"/>
     <use xlink:href="#DejaVuSans-Bold-3" transform="translate(2871.21875 0)"/>
     <use xlink:href="#DejaVuSans-Bold-51" transform="translate(2906.03125 0)"/>
     <use xlink:href="#DejaVuSans-Bold-52" transform="translate(2977.21875 0)"/>
     <use xlink:href="#DejaVuSans-Bold-3" transform="translate(3045.921875 0)"/>
     <use xlink:href="#DejaVuSans-Bold-55" transform="translate(3080.734375 0)"/>
     <use xlink:href="#DejaVuSans-Bold-44" transform="translate(3130.046875 0)"/>
     <use xlink:href="#DejaVuSans-Bold-51" transform="translate(3197.53125 0)"/>
     <use xlink:href="#DejaVuSans-Bold-4e" transform="translate(3268.71875 0)"/>
     <use xlink:href="#DejaVuSans-Bold-3" transform="translate(3335.21875 0)"/>
     <use xlink:href="#DejaVuSans-Bold-49" transform="translate(3370.03125 0)"/>
     <use xlink:href="#DejaVuSans-Bold-55" transform="translate(3413.53125 0)"/>
     <use xlink:href="#DejaVuSans-Bold-52" transform="translate(3462.84375 0)"/>
     <use xlink:href="#DejaVuSans-Bold-50" transform="translate(3531.546875 0)"/>
     <use xlink:href="#DejaVuSans-Bold-3" transform="translate(3635.75 0)"/>
     <use xlink:href="#DejaVuSans-Bold-50" transform="translate(3670.5625 0)"/>
     <use xlink:href="#DejaVuSans-Bold-4c" transform="translate(3774.765625 0)"/>
     <use xlink:href="#DejaVuSans-Bold-56" transform="translate(3809.046875 0)"/>
     <use xlink:href="#DejaVuSans-Bold-56" transform="translate(3868.5625 0)"/>
     <use xlink:href="#DejaVuSans-Bold-4c" transform="translate(3928.078125 0)"/>
     <use xlink:href="#DejaVuSans-Bold-51" transform="translate(3962.359375 0)"/>
     <use xlink:href="#DejaVuSans-Bold-4a" transform="translate(4033.546875 0)"/>
     <use xlink:href="#DejaVuSans-Bold-3" transform="translate(4105.125 0)"/>
     <use xlink:href="#DejaVuSans-Bold-4a" transform="translate(4139.9375 0)"/>
     <use xlink:href="#DejaVuSans-Bold-48" transform="translate(4211.515625 0)"/>
     <use xlink:href="#DejaVuSans-Bold-52" transform="translate(4279.34375 0)"/>
     <use xlink:href="#DejaVuSans-Bold-50" transform="translate(4348.046875 0)"/>
     <use xlink:href="#DejaVuSans-Bold-48" transform="translate(4452.25 0)"/>
     <use xlink:href="#DejaVuSans-Bold-57" transform="translate(4520.078125 0)"/>
     <use xlink:href="#DejaVuSans-Bold-55" transform="translate(4567.875 0)"/>
     <use xlink:href="#DejaVuSans-Bold-5c" transform="translate(4617.1875 0)"/>
    </g>
   </g>
  </g>
 </g>
 <defs>
  <clipPath id="pab72b47506">
   <rect x="5.76" y="5.76" width="613.8" height="354.816"/>
  </clipPath>
 </defs>
</svg>
