<?xml version="1.0" encoding="utf-8" standalone="no"?>
<!DOCTYPE svg PUBLIC "-//W3C//DTD SVG 1.1//EN"
  "http://www.w3.org/Graphics/SVG/1.1/DTD/svg11.dtd">
<svg xmlns:xlink="http://www.w3.org/1999/xlink" width="719.833602pt" height="366.336pt" viewBox="0 0 719.833602 366.336" xmlns="http://www.w3.org/2000/svg" version="1.1">
 <metadata>
  <rdf:RDF xmlns:dc="http://purl.org/dc/elements/1.1/" xmlns:cc="http://creativecommons.org/ns#" xmlns:rdf="http://www.w3.org/1999/02/22-rdf-syntax-ns#">
   <cc:Work>
    <dc:type rdf:resource="http://purl.org/dc/dcmitype/StillImage"/>
    <dc:date>2026-07-13T00:00:00Z</dc:date>
    <dc:format>image/svg+xml</dc:format>
    <dc:creator>
     <cc:Agent>
      <dc:title>AniBench v2 deterministic method-figure builder</dc:title>
     </cc:Agent>
    </dc:creator>
   </cc:Work>
  </rdf:RDF>
 </metadata>
 <defs>
  <style type="text/css">*{stroke-linejoin: round; stroke-linecap: butt}</style>
 </defs>
 <g id="figure_1">
  <g id="patch_1">
   <path d="M 0 366.336 
L 719.833602 366.336 
L 719.833602 -0 
L 0 -0 
z
" style="fill: #ffffff"/>
  </g>
  <g id="axes_1">
   <g id="patch_2">
    <path d="M 70.800402 123.558912 
L 167.780802 123.558912 
Q 178.829202 123.558912 178.829202 117.172224 
L 178.829202 68.207616 
Q 178.829202 61.820928 167.780802 61.820928 
L 70.800402 61.820928 
Q 59.752002 61.820928 59.752002 68.207616 
L 59.752002 117.172224 
Q 59.752002 123.558912 70.800402 123.558912 
z
" clip-path="url(#pd9cf6c4e3f)" style="fill: #eaf3f6; stroke: #17232c; stroke-width: 1.25; stroke-linejoin: miter"/>
   </g>
   <g id="patch_3">
    <path d="M 173.465195 92.68992 
Q 177.297833 92.68992 179.565224 92.68992 
" clip-path="url(#pd9cf6c4e3f)" style="fill: none; stroke: #5e6a72; stroke-width: 1.4; stroke-linecap: round"/>
    <path d="M 174.765224 90.28992 
L 179.565224 92.68992 
L 174.765224 95.08992 
z
" clip-path="url(#pd9cf6c4e3f)" style="fill: #5e6a72; stroke: #5e6a72; stroke-width: 1.4; stroke-linecap: round"/>
   </g>
   <g id="patch_4">
    <path d="M 190.491402 123.558912 
L 287.471802 123.558912 
Q 298.520202 123.558912 298.520202 117.172224 
L 298.520202 68.207616 
Q 298.520202 61.820928 287.471802 61.820928 
L 190.491402 61.820928 
Q 179.443002 61.820928 179.443002 68.207616 
L 179.443002 117.172224 
Q 179.443002 123.558912 190.491402 123.558912 
z
" clip-path="url(#pd9cf6c4e3f)" style="fill: #eaf3f6; stroke: #17232c; stroke-width: 1.25; stroke-linejoin: miter"/>
   </g>
   <g id="patch_5">
    <path d="M 293.156195 92.68992 
Q 296.988833 92.68992 299.256224 92.68992 
" clip-path="url(#pd9cf6c4e3f)" style="fill: none; stroke: #5e6a72; stroke-width: 1.4; stroke-linecap: round"/>
    <path d="M 294.456224 90.28992 
L 299.256224 92.68992 
L 294.456224 95.08992 
z
" clip-path="url(#pd9cf6c4e3f)" style="fill: #5e6a72; stroke: #5e6a72; stroke-width: 1.4; stroke-linecap: round"/>
   </g>
   <g id="patch_6">
    <path d="M 310.182402 123.558912 
L 407.162802 123.558912 
Q 418.211202 123.558912 418.211202 117.172224 
L 418.211202 68.207616 
Q 418.211202 61.820928 407.162802 61.820928 
L 310.182402 61.820928 
Q 299.134002 61.820928 299.134002 68.207616 
L 299.134002 117.172224 
Q 299.134002 123.558912 310.182402 123.558912 
z
" clip-path="url(#pd9cf6c4e3f)" style="fill: #fff2de; stroke: #17232c; stroke-width: 1.25; stroke-linejoin: miter"/>
   </g>
   <g id="patch_7">
    <path d="M 412.847195 92.68992 
Q 416.679833 92.68992 418.947224 92.68992 
" clip-path="url(#pd9cf6c4e3f)" style="fill: none; stroke: #5e6a72; stroke-width: 1.4; stroke-linecap: round"/>
    <path d="M 414.147224 90.28992 
L 418.947224 92.68992 
L 414.147224 95.08992 
z
" clip-path="url(#pd9cf6c4e3f)" style="fill: #5e6a72; stroke: #5e6a72; stroke-width: 1.4; stroke-linecap: round"/>
   </g>
   <g id="patch_8">
    <path d="M 429.873402 123.558912 
L 526.853802 123.558912 
Q 537.902202 123.558912 537.902202 117.172224 
L 537.902202 68.207616 
Q 537.902202 61.820928 526.853802 61.820928 
L 429.873402 61.820928 
Q 418.825002 61.820928 418.825002 68.207616 
L 418.825002 117.172224 
Q 418.825002 123.558912 429.873402 123.558912 
z
" clip-path="url(#pd9cf6c4e3f)" style="fill: #fff2de; stroke: #17232c; stroke-width: 1.25; stroke-linejoin: miter"/>
   </g>
   <g id="patch_9">
    <path d="M 532.538195 92.68992 
Q 536.370833 92.68992 538.638224 92.68992 
" clip-path="url(#pd9cf6c4e3f)" style="fill: none; stroke: #5e6a72; stroke-width: 1.4; stroke-linecap: round"/>
    <path d="M 533.838224 90.28992 
L 538.638224 92.68992 
L 533.838224 95.08992 
z
" clip-path="url(#pd9cf6c4e3f)" style="fill: #5e6a72; stroke: #5e6a72; stroke-width: 1.4; stroke-linecap: round"/>
   </g>
   <g id="patch_10">
    <path d="M 549.564402 123.558912 
L 646.544802 123.558912 
Q 657.593202 123.558912 657.593202 117.172224 
L 657.593202 68.207616 
Q 657.593202 61.820928 646.544802 61.820928 
L 549.564402 61.820928 
Q 538.516002 61.820928 538.516002 68.207616 
L 538.516002 117.172224 
Q 538.516002 123.558912 549.564402 123.558912 
z
" clip-path="url(#pd9cf6c4e3f)" style="fill: #f3f5f6; stroke: #17232c; stroke-width: 1.25; stroke-linejoin: miter"/>
   </g>
   <g id="patch_11">
    <path d="M 104.559402 265.485312 
L 305.885802 265.485312 
Q 316.934202 265.485312 316.934202 259.098624 
L 316.934202 199.489536 
Q 316.934202 193.102848 305.885802 193.102848 
L 104.559402 193.102848 
Q 93.511002 193.102848 93.511002 199.489536 
L 93.511002 259.098624 
Q 93.511002 265.485312 104.559402 265.485312 
z
" clip-path="url(#pd9cf6c4e3f)" style="fill: #ffffff; stroke: #3e748d; stroke-width: 1.25; stroke-linejoin: miter"/>
   </g>
   <g id="patch_12">
    <path d="M 411.459402 265.485312 
L 612.785802 265.485312 
Q 623.834202 265.485312 623.834202 259.098624 
L 623.834202 199.489536 
Q 623.834202 193.102848 612.785802 193.102848 
L 411.459402 193.102848 
Q 400.411002 193.102848 400.411002 199.489536 
L 400.411002 259.098624 
Q 400.411002 265.485312 411.459402 265.485312 
z
" clip-path="url(#pd9cf6c4e3f)" style="fill: #ffffff; stroke: #ff9500; stroke-width: 1.25; stroke-linejoin: miter"/>
   </g>
   <g id="patch_13">
    <path d="M 313.132895 229.29408 
Q 358.672395 229.29408 404.211894 229.29408 
" clip-path="url(#pd9cf6c4e3f)" style="fill: none; stroke: #17232c; stroke-width: 1.4; stroke-linecap: round"/>
    <path d="M 317.932895 231.69408 
L 313.132895 229.29408 
L 317.932895 226.89408 
" clip-path="url(#pd9cf6c4e3f)" style="fill: none; stroke: #17232c; stroke-width: 1.4; stroke-linecap: round"/>
    <path d="M 399.411894 226.89408 
L 404.211894 229.29408 
L 399.411894 231.69408 
" clip-path="url(#pd9cf6c4e3f)" style="fill: none; stroke: #17232c; stroke-width: 1.4; stroke-linecap: round"/>
   </g>
   <g id="text_1">
    <!-- Evidence lane changes the claim, not identical design geometry -->
    <g style="fill: #17232c" transform="translate(64.048602 33.629828) scale(0.18 -0.18)">
     <defs>
      <path id="DejaVuSans-Bold-28" d="M 588 4666 
L 3834 4666 
L 3834 3756 
L 1791 3756 
L 1791 2888 
L 3713 2888 
L 3713 1978 
L 1791 1978 
L 1791 909 
L 3903 909 
L 3903 0 
L 588 0 
L 588 4666 
z
" transform="scale(0.015625)"/>
      <path id="DejaVuSans-Bold-59" d="M 97 3500 
L 1216 3500 
L 2088 1081 
L 2956 3500 
L 4078 3500 
L 2700 0 
L 1472 0 
L 97 3500 
z
" transform="scale(0.015625)"/>
      <path id="DejaVuSans-Bold-4c" d="M 538 3500 
L 1656 3500 
L 1656 0 
L 538 0 
L 538 3500 
z
M 538 4863 
L 1656 4863 
L 1656 3950 
L 538 3950 
L 538 4863 
z
" transform="scale(0.015625)"/>
      <path id="DejaVuSans-Bold-47" d="M 2919 2988 
L 2919 4863 
L 4044 4863 
L 4044 0 
L 2919 0 
L 2919 506 
Q 2688 197 2409 53 
Q 2131 -91 1766 -91 
Q 1119 -91 703 423 
Q 288 938 288 1747 
Q 288 2556 703 3070 
Q 1119 3584 1766 3584 
Q 2128 3584 2408 3439 
Q 2688 3294 2919 2988 
z
M 2181 722 
Q 2541 722 2730 984 
Q 2919 1247 2919 1747 
Q 2919 2247 2730 2509 
Q 2541 2772 2181 2772 
Q 1825 2772 1636 2509 
Q 1447 2247 1447 1747 
Q 1447 1247 1636 984 
Q 1825 722 2181 722 
z
" transform="scale(0.015625)"/>
      <path id="DejaVuSans-Bold-48" d="M 4031 1759 
L 4031 1441 
L 1416 1441 
Q 1456 1047 1700 850 
Q 1944 653 2381 653 
Q 2734 653 3104 758 
Q 3475 863 3866 1075 
L 3866 213 
Q 3469 63 3072 -14 
Q 2675 -91 2278 -91 
Q 1328 -91 801 392 
Q 275 875 275 1747 
Q 275 2603 792 3093 
Q 1309 3584 2216 3584 
Q 3041 3584 3536 3087 
Q 4031 2591 4031 1759 
z
M 2881 2131 
Q 2881 2450 2695 2645 
Q 2509 2841 2209 2841 
Q 1884 2841 1681 2658 
Q 1478 2475 1428 2131 
L 2881 2131 
z
" transform="scale(0.015625)"/>
      <path id="DejaVuSans-Bold-51" d="M 4056 2131 
L 4056 0 
L 2931 0 
L 2931 347 
L 2931 1631 
Q 2931 2084 2911 2256 
Q 2891 2428 2841 2509 
Q 2775 2619 2662 2680 
Q 2550 2741 2406 2741 
Q 2056 2741 1856 2470 
Q 1656 2200 1656 1722 
L 1656 0 
L 538 0 
L 538 3500 
L 1656 3500 
L 1656 2988 
Q 1909 3294 2193 3439 
Q 2478 3584 2822 3584 
Q 3428 3584 3742 3212 
Q 4056 2841 4056 2131 
z
" transform="scale(0.015625)"/>
      <path id="DejaVuSans-Bold-46" d="M 3366 3391 
L 3366 2478 
Q 3138 2634 2908 2709 
Q 2678 2784 2431 2784 
Q 1963 2784 1702 2511 
Q 1441 2238 1441 1747 
Q 1441 1256 1702 982 
Q 1963 709 2431 709 
Q 2694 709 2930 787 
Q 3166 866 3366 1019 
L 3366 103 
Q 3103 6 2833 -42 
Q 2563 -91 2291 -91 
Q 1344 -91 809 395 
Q 275 881 275 1747 
Q 275 2613 809 3098 
Q 1344 3584 2291 3584 
Q 2566 3584 2833 3536 
Q 3100 3488 3366 3391 
z
" transform="scale(0.015625)"/>
      <path id="DejaVuSans-Bold-3" transform="scale(0.015625)"/>
      <path id="DejaVuSans-Bold-4f" d="M 538 4863 
L 1656 4863 
L 1656 0 
L 538 0 
L 538 4863 
z
" transform="scale(0.015625)"/>
      <path id="DejaVuSans-Bold-44" d="M 2106 1575 
Q 1756 1575 1579 1456 
Q 1403 1338 1403 1106 
Q 1403 894 1545 773 
Q 1688 653 1941 653 
Q 2256 653 2472 879 
Q 2688 1106 2688 1447 
L 2688 1575 
L 2106 1575 
z
M 3816 1997 
L 3816 0 
L 2688 0 
L 2688 519 
Q 2463 200 2181 54 
Q 1900 -91 1497 -91 
Q 953 -91 614 226 
Q 275 544 275 1050 
Q 275 1666 698 1953 
Q 1122 2241 2028 2241 
L 2688 2241 
L 2688 2328 
Q 2688 2594 2478 2717 
Q 2269 2841 1825 2841 
Q 1466 2841 1156 2769 
Q 847 2697 581 2553 
L 581 3406 
Q 941 3494 1303 3539 
Q 1666 3584 2028 3584 
Q 2975 3584 3395 3211 
Q 3816 2838 3816 1997 
z
" transform="scale(0.015625)"/>
      <path id="DejaVuSans-Bold-4b" d="M 4056 2131 
L 4056 0 
L 2931 0 
L 2931 347 
L 2931 1625 
Q 2931 2084 2911 2256 
Q 2891 2428 2841 2509 
Q 2775 2619 2662 2680 
Q 2550 2741 2406 2741 
Q 2056 2741 1856 2470 
Q 1656 2200 1656 1722 
L 1656 0 
L 538 0 
L 538 4863 
L 1656 4863 
L 1656 2988 
Q 1909 3294 2193 3439 
Q 2478 3584 2822 3584 
Q 3428 3584 3742 3212 
Q 4056 2841 4056 2131 
z
" transform="scale(0.015625)"/>
      <path id="DejaVuSans-Bold-4a" d="M 2919 594 
Q 2688 288 2409 144 
Q 2131 0 1766 0 
Q 1125 0 706 504 
Q 288 1009 288 1791 
Q 288 2575 706 3076 
Q 1125 3578 1766 3578 
Q 2131 3578 2409 3434 
Q 2688 3291 2919 2981 
L 2919 3500 
L 4044 3500 
L 4044 353 
Q 4044 -491 3511 -936 
Q 2978 -1381 1966 -1381 
Q 1638 -1381 1331 -1331 
Q 1025 -1281 716 -1178 
L 716 -306 
Q 1009 -475 1290 -558 
Q 1572 -641 1856 -641 
Q 2406 -641 2662 -400 
Q 2919 -159 2919 353 
L 2919 594 
z
M 2181 2772 
Q 1834 2772 1640 2515 
Q 1447 2259 1447 1791 
Q 1447 1309 1634 1061 
Q 1822 813 2181 813 
Q 2531 813 2725 1069 
Q 2919 1325 2919 1791 
Q 2919 2259 2725 2515 
Q 2531 2772 2181 2772 
z
" transform="scale(0.015625)"/>
      <path id="DejaVuSans-Bold-56" d="M 3272 3391 
L 3272 2541 
Q 2913 2691 2578 2766 
Q 2244 2841 1947 2841 
Q 1628 2841 1473 2761 
Q 1319 2681 1319 2516 
Q 1319 2381 1436 2309 
Q 1553 2238 1856 2203 
L 2053 2175 
Q 2913 2066 3209 1816 
Q 3506 1566 3506 1031 
Q 3506 472 3093 190 
Q 2681 -91 1863 -91 
Q 1516 -91 1145 -36 
Q 775 19 384 128 
L 384 978 
Q 719 816 1070 734 
Q 1422 653 1784 653 
Q 2113 653 2278 743 
Q 2444 834 2444 1013 
Q 2444 1163 2330 1236 
Q 2216 1309 1875 1350 
L 1678 1375 
Q 931 1469 631 1722 
Q 331 1975 331 2491 
Q 331 3047 712 3315 
Q 1094 3584 1881 3584 
Q 2191 3584 2531 3537 
Q 2872 3491 3272 3391 
z
" transform="scale(0.015625)"/>
      <path id="DejaVuSans-Bold-57" d="M 1759 4494 
L 1759 3500 
L 2913 3500 
L 2913 2700 
L 1759 2700 
L 1759 1216 
Q 1759 972 1856 886 
Q 1953 800 2241 800 
L 2816 800 
L 2816 0 
L 1856 0 
Q 1194 0 917 276 
Q 641 553 641 1216 
L 641 2700 
L 84 2700 
L 84 3500 
L 641 3500 
L 641 4494 
L 1759 4494 
z
" transform="scale(0.015625)"/>
      <path id="DejaVuSans-Bold-50" d="M 3781 2919 
Q 3994 3244 4286 3414 
Q 4578 3584 4928 3584 
Q 5531 3584 5847 3212 
Q 6163 2841 6163 2131 
L 6163 0 
L 5038 0 
L 5038 1825 
Q 5041 1866 5042 1909 
Q 5044 1953 5044 2034 
Q 5044 2406 4934 2573 
Q 4825 2741 4581 2741 
Q 4263 2741 4089 2478 
Q 3916 2216 3909 1719 
L 3909 0 
L 2784 0 
L 2784 1825 
Q 2784 2406 2684 2573 
Q 2584 2741 2328 2741 
Q 2006 2741 1831 2477 
Q 1656 2213 1656 1722 
L 1656 0 
L 531 0 
L 531 3500 
L 1656 3500 
L 1656 2988 
Q 1863 3284 2130 3434 
Q 2397 3584 2719 3584 
Q 3081 3584 3359 3409 
Q 3638 3234 3781 2919 
z
" transform="scale(0.015625)"/>
      <path id="DejaVuSans-Bold-f" d="M 653 1209 
L 1778 1209 
L 1778 256 
L 1006 -909 
L 341 -909 
L 653 256 
L 653 1209 
z
" transform="scale(0.015625)"/>
      <path id="DejaVuSans-Bold-52" d="M 2203 2784 
Q 1831 2784 1636 2517 
Q 1441 2250 1441 1747 
Q 1441 1244 1636 976 
Q 1831 709 2203 709 
Q 2569 709 2762 976 
Q 2956 1244 2956 1747 
Q 2956 2250 2762 2517 
Q 2569 2784 2203 2784 
z
M 2203 3584 
Q 3106 3584 3614 3096 
Q 4122 2609 4122 1747 
Q 4122 884 3614 396 
Q 3106 -91 2203 -91 
Q 1297 -91 786 396 
Q 275 884 275 1747 
Q 275 2609 786 3096 
Q 1297 3584 2203 3584 
z
" transform="scale(0.015625)"/>
      <path id="DejaVuSans-Bold-55" d="M 3138 2547 
Q 2991 2616 2845 2648 
Q 2700 2681 2553 2681 
Q 2122 2681 1889 2404 
Q 1656 2128 1656 1613 
L 1656 0 
L 538 0 
L 538 3500 
L 1656 3500 
L 1656 2925 
Q 1872 3269 2151 3426 
Q 2431 3584 2822 3584 
Q 2878 3584 2943 3579 
Q 3009 3575 3134 3559 
L 3138 2547 
z
" transform="scale(0.015625)"/>
      <path id="DejaVuSans-Bold-5c" d="M 78 3500 
L 1197 3500 
L 2138 1125 
L 2938 3500 
L 4056 3500 
L 2584 -331 
Q 2363 -916 2067 -1148 
Q 1772 -1381 1288 -1381 
L 641 -1381 
L 641 -647 
L 991 -647 
Q 1275 -647 1404 -556 
Q 1534 -466 1606 -231 
L 1638 -134 
L 78 3500 
z
" transform="scale(0.015625)"/>
     </defs>
     <use xlink:href="#DejaVuSans-Bold-28"/>
     <use xlink:href="#DejaVuSans-Bold-59" transform="translate(68.3125 0)"/>
     <use xlink:href="#DejaVuSans-Bold-4c" transform="translate(133.5 0)"/>
     <use xlink:href="#DejaVuSans-Bold-47" transform="translate(167.78125 0)"/>
     <use xlink:href="#DejaVuSans-Bold-48" transform="translate(239.359375 0)"/>
     <use xlink:href="#DejaVuSans-Bold-51" transform="translate(307.1875 0)"/>
     <use xlink:href="#DejaVuSans-Bold-46" transform="translate(378.375 0)"/>
     <use xlink:href="#DejaVuSans-Bold-48" transform="translate(437.65625 0)"/>
     <use xlink:href="#DejaVuSans-Bold-3" transform="translate(505.484375 0)"/>
     <use xlink:href="#DejaVuSans-Bold-4f" transform="translate(540.296875 0)"/>
     <use xlink:href="#DejaVuSans-Bold-44" transform="translate(574.578125 0)"/>
     <use xlink:href="#DejaVuSans-Bold-51" transform="translate(642.0625 0)"/>
     <use xlink:href="#DejaVuSans-Bold-48" transform="translate(713.25 0)"/>
     <use xlink:href="#DejaVuSans-Bold-3" transform="translate(781.078125 0)"/>
     <use xlink:href="#DejaVuSans-Bold-46" transform="translate(815.890625 0)"/>
     <use xlink:href="#DejaVuSans-Bold-4b" transform="translate(875.171875 0)"/>
     <use xlink:href="#DejaVuSans-Bold-44" transform="translate(946.359375 0)"/>
     <use xlink:href="#DejaVuSans-Bold-51" transform="translate(1013.84375 0)"/>
     <use xlink:href="#DejaVuSans-Bold-4a" transform="translate(1085.03125 0)"/>
     <use xlink:href="#DejaVuSans-Bold-48" transform="translate(1156.609375 0)"/>
     <use xlink:href="#DejaVuSans-Bold-56" transform="translate(1224.4375 0)"/>
     <use xlink:href="#DejaVuSans-Bold-3" transform="translate(1283.953125 0)"/>
     <use xlink:href="#DejaVuSans-Bold-57" transform="translate(1318.765625 0)"/>
     <use xlink:href="#DejaVuSans-Bold-4b" transform="translate(1366.5625 0)"/>
     <use xlink:href="#DejaVuSans-Bold-48" transform="translate(1437.75 0)"/>
     <use xlink:href="#DejaVuSans-Bold-3" transform="translate(1505.578125 0)"/>
     <use xlink:href="#DejaVuSans-Bold-46" transform="translate(1540.390625 0)"/>
     <use xlink:href="#DejaVuSans-Bold-4f" transform="translate(1599.671875 0)"/>
     <use xlink:href="#DejaVuSans-Bold-44" transform="translate(1633.953125 0)"/>
     <use xlink:href="#DejaVuSans-Bold-4c" transform="translate(1701.4375 0)"/>
     <use xlink:href="#DejaVuSans-Bold-50" transform="translate(1735.71875 0)"/>
     <use xlink:href="#DejaVuSans-Bold-f" transform="translate(1839.921875 0)"/>
     <use xlink:href="#DejaVuSans-Bold-3" transform="translate(1877.90625 0)"/>
     <use xlink:href="#DejaVuSans-Bold-51" transform="translate(1912.71875 0)"/>
     <use xlink:href="#DejaVuSans-Bold-52" transform="translate(1983.90625 0)"/>
     <use xlink:href="#DejaVuSans-Bold-57" transform="translate(2052.609375 0)"/>
     <use xlink:href="#DejaVuSans-Bold-3" transform="translate(2100.40625 0)"/>
     <use xlink:href="#DejaVuSans-Bold-4c" transform="translate(2135.21875 0)"/>
     <use xlink:href="#DejaVuSans-Bold-47" transform="translate(2169.5 0)"/>
     <use xlink:href="#DejaVuSans-Bold-48" transform="translate(2241.078125 0)"/>
     <use xlink:href="#DejaVuSans-Bold-51" transform="translate(2308.90625 0)"/>
     <use xlink:href="#DejaVuSans-Bold-57" transform="translate(2380.09375 0)"/>
     <use xlink:href="#DejaVuSans-Bold-4c" transform="translate(2427.890625 0)"/>
     <use xlink:href="#DejaVuSans-Bold-46" transform="translate(2462.171875 0)"/>
     <use xlink:href="#DejaVuSans-Bold-44" transform="translate(2521.453125 0)"/>
     <use xlink:href="#DejaVuSans-Bold-4f" transform="translate(2588.9375 0)"/>
     <use xlink:href="#DejaVuSans-Bold-3" transform="translate(2623.21875 0)"/>
     <use xlink:href="#DejaVuSans-Bold-47" transform="translate(2658.03125 0)"/>
     <use xlink:href="#DejaVuSans-Bold-48" transform="translate(2729.609375 0)"/>
     <use xlink:href="#DejaVuSans-Bold-56" transform="translate(2797.4375 0)"/>
     <use xlink:href="#DejaVuSans-Bold-4c" transform="translate(2856.953125 0)"/>
     <use xlink:href="#DejaVuSans-Bold-4a" transform="translate(2891.234375 0)"/>
     <use xlink:href="#DejaVuSans-Bold-51" transform="translate(2962.8125 0)"/>
     <use xlink:href="#DejaVuSans-Bold-3" transform="translate(3034 0)"/>
     <use xlink:href="#DejaVuSans-Bold-4a" transform="translate(3068.8125 0)"/>
     <use xlink:href="#DejaVuSans-Bold-48" transform="translate(3140.390625 0)"/>
     <use xlink:href="#DejaVuSans-Bold-52" transform="translate(3208.21875 0)"/>
     <use xlink:href="#DejaVuSans-Bold-50" transform="translate(3276.921875 0)"/>
     <use xlink:href="#DejaVuSans-Bold-48" transform="translate(3381.125 0)"/>
     <use xlink:href="#DejaVuSans-Bold-57" transform="translate(3448.953125 0)"/>
     <use xlink:href="#DejaVuSans-Bold-55" transform="translate(3496.75 0)"/>
     <use xlink:href="#DejaVuSans-Bold-5c" transform="translate(3546.0625 0)"/>
    </g>
   </g>
   <g id="text_2">
    <!-- Capacity, realized acquisition, lawful access, and demonstrated model utility are different objects. -->
    <g style="fill: #5e6a72" transform="translate(64.048602 47.445879) scale(0.105 -0.105)">
     <defs>
      <path id="DejaVuSans-26" d="M 4122 4306 
L 4122 3641 
Q 3803 3938 3442 4084 
Q 3081 4231 2675 4231 
Q 1875 4231 1450 3742 
Q 1025 3253 1025 2328 
Q 1025 1406 1450 917 
Q 1875 428 2675 428 
Q 3081 428 3442 575 
Q 3803 722 4122 1019 
L 4122 359 
Q 3791 134 3420 21 
Q 3050 -91 2638 -91 
Q 1578 -91 968 557 
Q 359 1206 359 2328 
Q 359 3453 968 4101 
Q 1578 4750 2638 4750 
Q 3056 4750 3426 4639 
Q 3797 4528 4122 4306 
z
" transform="scale(0.015625)"/>
      <path id="DejaVuSans-44" d="M 2194 1759 
Q 1497 1759 1228 1600 
Q 959 1441 959 1056 
Q 959 750 1161 570 
Q 1363 391 1709 391 
Q 2188 391 2477 730 
Q 2766 1069 2766 1631 
L 2766 1759 
L 2194 1759 
z
M 3341 1997 
L 3341 0 
L 2766 0 
L 2766 531 
Q 2569 213 2275 61 
Q 1981 -91 1556 -91 
Q 1019 -91 701 211 
Q 384 513 384 1019 
Q 384 1609 779 1909 
Q 1175 2209 1959 2209 
L 2766 2209 
L 2766 2266 
Q 2766 2663 2505 2880 
Q 2244 3097 1772 3097 
Q 1472 3097 1187 3025 
Q 903 2953 641 2809 
L 641 3341 
Q 956 3463 1253 3523 
Q 1550 3584 1831 3584 
Q 2591 3584 2966 3190 
Q 3341 2797 3341 1997 
z
" transform="scale(0.015625)"/>
      <path id="DejaVuSans-53" d="M 1159 525 
L 1159 -1331 
L 581 -1331 
L 581 3500 
L 1159 3500 
L 1159 2969 
Q 1341 3281 1617 3432 
Q 1894 3584 2278 3584 
Q 2916 3584 3314 3078 
Q 3713 2572 3713 1747 
Q 3713 922 3314 415 
Q 2916 -91 2278 -91 
Q 1894 -91 1617 61 
Q 1341 213 1159 525 
z
M 3116 1747 
Q 3116 2381 2855 2742 
Q 2594 3103 2138 3103 
Q 1681 3103 1420 2742 
Q 1159 2381 1159 1747 
Q 1159 1113 1420 752 
Q 1681 391 2138 391 
Q 2594 391 2855 752 
Q 3116 1113 3116 1747 
z
" transform="scale(0.015625)"/>
      <path id="DejaVuSans-46" d="M 3122 3366 
L 3122 2828 
Q 2878 2963 2633 3030 
Q 2388 3097 2138 3097 
Q 1578 3097 1268 2742 
Q 959 2388 959 1747 
Q 959 1106 1268 751 
Q 1578 397 2138 397 
Q 2388 397 2633 464 
Q 2878 531 3122 666 
L 3122 134 
Q 2881 22 2623 -34 
Q 2366 -91 2075 -91 
Q 1284 -91 818 406 
Q 353 903 353 1747 
Q 353 2603 823 3093 
Q 1294 3584 2113 3584 
Q 2378 3584 2631 3529 
Q 2884 3475 3122 3366 
z
" transform="scale(0.015625)"/>
      <path id="DejaVuSans-4c" d="M 603 3500 
L 1178 3500 
L 1178 0 
L 603 0 
L 603 3500 
z
M 603 4863 
L 1178 4863 
L 1178 4134 
L 603 4134 
L 603 4863 
z
" transform="scale(0.015625)"/>
      <path id="DejaVuSans-57" d="M 1172 4494 
L 1172 3500 
L 2356 3500 
L 2356 3053 
L 1172 3053 
L 1172 1153 
Q 1172 725 1289 603 
Q 1406 481 1766 481 
L 2356 481 
L 2356 0 
L 1766 0 
Q 1100 0 847 248 
Q 594 497 594 1153 
L 594 3053 
L 172 3053 
L 172 3500 
L 594 3500 
L 594 4494 
L 1172 4494 
z
" transform="scale(0.015625)"/>
      <path id="DejaVuSans-5c" d="M 2059 -325 
Q 1816 -950 1584 -1140 
Q 1353 -1331 966 -1331 
L 506 -1331 
L 506 -850 
L 844 -850 
Q 1081 -850 1212 -737 
Q 1344 -625 1503 -206 
L 1606 56 
L 191 3500 
L 800 3500 
L 1894 763 
L 2988 3500 
L 3597 3500 
L 2059 -325 
z
" transform="scale(0.015625)"/>
      <path id="DejaVuSans-f" d="M 750 794 
L 1409 794 
L 1409 256 
L 897 -744 
L 494 -744 
L 750 256 
L 750 794 
z
" transform="scale(0.015625)"/>
      <path id="DejaVuSans-3" transform="scale(0.015625)"/>
      <path id="DejaVuSans-55" d="M 2631 2963 
Q 2534 3019 2420 3045 
Q 2306 3072 2169 3072 
Q 1681 3072 1420 2755 
Q 1159 2438 1159 1844 
L 1159 0 
L 581 0 
L 581 3500 
L 1159 3500 
L 1159 2956 
Q 1341 3275 1631 3429 
Q 1922 3584 2338 3584 
Q 2397 3584 2469 3576 
Q 2541 3569 2628 3553 
L 2631 2963 
z
" transform="scale(0.015625)"/>
      <path id="DejaVuSans-48" d="M 3597 1894 
L 3597 1613 
L 953 1613 
Q 991 1019 1311 708 
Q 1631 397 2203 397 
Q 2534 397 2845 478 
Q 3156 559 3463 722 
L 3463 178 
Q 3153 47 2828 -22 
Q 2503 -91 2169 -91 
Q 1331 -91 842 396 
Q 353 884 353 1716 
Q 353 2575 817 3079 
Q 1281 3584 2069 3584 
Q 2775 3584 3186 3129 
Q 3597 2675 3597 1894 
z
M 3022 2063 
Q 3016 2534 2758 2815 
Q 2500 3097 2075 3097 
Q 1594 3097 1305 2825 
Q 1016 2553 972 2059 
L 3022 2063 
z
" transform="scale(0.015625)"/>
      <path id="DejaVuSans-4f" d="M 603 4863 
L 1178 4863 
L 1178 0 
L 603 0 
L 603 4863 
z
" transform="scale(0.015625)"/>
      <path id="DejaVuSans-5d" d="M 353 3500 
L 3084 3500 
L 3084 2975 
L 922 459 
L 3084 459 
L 3084 0 
L 275 0 
L 275 525 
L 2438 3041 
L 353 3041 
L 353 3500 
z
" transform="scale(0.015625)"/>
      <path id="DejaVuSans-47" d="M 2906 2969 
L 2906 4863 
L 3481 4863 
L 3481 0 
L 2906 0 
L 2906 525 
Q 2725 213 2448 61 
Q 2172 -91 1784 -91 
Q 1150 -91 751 415 
Q 353 922 353 1747 
Q 353 2572 751 3078 
Q 1150 3584 1784 3584 
Q 2172 3584 2448 3432 
Q 2725 3281 2906 2969 
z
M 947 1747 
Q 947 1113 1208 752 
Q 1469 391 1925 391 
Q 2381 391 2643 752 
Q 2906 1113 2906 1747 
Q 2906 2381 2643 2742 
Q 2381 3103 1925 3103 
Q 1469 3103 1208 2742 
Q 947 2381 947 1747 
z
" transform="scale(0.015625)"/>
      <path id="DejaVuSans-54" d="M 947 1747 
Q 947 1113 1208 752 
Q 1469 391 1925 391 
Q 2381 391 2643 752 
Q 2906 1113 2906 1747 
Q 2906 2381 2643 2742 
Q 2381 3103 1925 3103 
Q 1469 3103 1208 2742 
Q 947 2381 947 1747 
z
M 2906 525 
Q 2725 213 2448 61 
Q 2172 -91 1784 -91 
Q 1150 -91 751 415 
Q 353 922 353 1747 
Q 353 2572 751 3078 
Q 1150 3584 1784 3584 
Q 2172 3584 2448 3432 
Q 2725 3281 2906 2969 
L 2906 3500 
L 3481 3500 
L 3481 -1331 
L 2906 -1331 
L 2906 525 
z
" transform="scale(0.015625)"/>
      <path id="DejaVuSans-58" d="M 544 1381 
L 544 3500 
L 1119 3500 
L 1119 1403 
Q 1119 906 1312 657 
Q 1506 409 1894 409 
Q 2359 409 2629 706 
Q 2900 1003 2900 1516 
L 2900 3500 
L 3475 3500 
L 3475 0 
L 2900 0 
L 2900 538 
Q 2691 219 2414 64 
Q 2138 -91 1772 -91 
Q 1169 -91 856 284 
Q 544 659 544 1381 
z
M 1991 3584 
L 1991 3584 
z
" transform="scale(0.015625)"/>
      <path id="DejaVuSans-56" d="M 2834 3397 
L 2834 2853 
Q 2591 2978 2328 3040 
Q 2066 3103 1784 3103 
Q 1356 3103 1142 2972 
Q 928 2841 928 2578 
Q 928 2378 1081 2264 
Q 1234 2150 1697 2047 
L 1894 2003 
Q 2506 1872 2764 1633 
Q 3022 1394 3022 966 
Q 3022 478 2636 193 
Q 2250 -91 1575 -91 
Q 1294 -91 989 -36 
Q 684 19 347 128 
L 347 722 
Q 666 556 975 473 
Q 1284 391 1588 391 
Q 1994 391 2212 530 
Q 2431 669 2431 922 
Q 2431 1156 2273 1281 
Q 2116 1406 1581 1522 
L 1381 1569 
Q 847 1681 609 1914 
Q 372 2147 372 2553 
Q 372 3047 722 3315 
Q 1072 3584 1716 3584 
Q 2034 3584 2315 3537 
Q 2597 3491 2834 3397 
z
" transform="scale(0.015625)"/>
      <path id="DejaVuSans-52" d="M 1959 3097 
Q 1497 3097 1228 2736 
Q 959 2375 959 1747 
Q 959 1119 1226 758 
Q 1494 397 1959 397 
Q 2419 397 2687 759 
Q 2956 1122 2956 1747 
Q 2956 2369 2687 2733 
Q 2419 3097 1959 3097 
z
M 1959 3584 
Q 2709 3584 3137 3096 
Q 3566 2609 3566 1747 
Q 3566 888 3137 398 
Q 2709 -91 1959 -91 
Q 1206 -91 779 398 
Q 353 888 353 1747 
Q 353 2609 779 3096 
Q 1206 3584 1959 3584 
z
" transform="scale(0.015625)"/>
      <path id="DejaVuSans-51" d="M 3513 2113 
L 3513 0 
L 2938 0 
L 2938 2094 
Q 2938 2591 2744 2837 
Q 2550 3084 2163 3084 
Q 1697 3084 1428 2787 
Q 1159 2491 1159 1978 
L 1159 0 
L 581 0 
L 581 3500 
L 1159 3500 
L 1159 2956 
Q 1366 3272 1645 3428 
Q 1925 3584 2291 3584 
Q 2894 3584 3203 3211 
Q 3513 2838 3513 2113 
z
" transform="scale(0.015625)"/>
      <path id="DejaVuSans-5a" d="M 269 3500 
L 844 3500 
L 1563 769 
L 2278 3500 
L 2956 3500 
L 3675 769 
L 4391 3500 
L 4966 3500 
L 4050 0 
L 3372 0 
L 2619 2869 
L 1863 0 
L 1184 0 
L 269 3500 
z
" transform="scale(0.015625)"/>
      <path id="DejaVuSans-49" d="M 2375 4863 
L 2375 4384 
L 1825 4384 
Q 1516 4384 1395 4259 
Q 1275 4134 1275 3809 
L 1275 3500 
L 2222 3500 
L 2222 3053 
L 1275 3053 
L 1275 0 
L 697 0 
L 697 3053 
L 147 3053 
L 147 3500 
L 697 3500 
L 697 3744 
Q 697 4328 969 4595 
Q 1241 4863 1831 4863 
L 2375 4863 
z
" transform="scale(0.015625)"/>
      <path id="DejaVuSans-50" d="M 3328 2828 
Q 3544 3216 3844 3400 
Q 4144 3584 4550 3584 
Q 5097 3584 5394 3201 
Q 5691 2819 5691 2113 
L 5691 0 
L 5113 0 
L 5113 2094 
Q 5113 2597 4934 2840 
Q 4756 3084 4391 3084 
Q 3944 3084 3684 2787 
Q 3425 2491 3425 1978 
L 3425 0 
L 2847 0 
L 2847 2094 
Q 2847 2600 2669 2842 
Q 2491 3084 2119 3084 
Q 1678 3084 1418 2786 
Q 1159 2488 1159 1978 
L 1159 0 
L 581 0 
L 581 3500 
L 1159 3500 
L 1159 2956 
Q 1356 3278 1631 3431 
Q 1906 3584 2284 3584 
Q 2666 3584 2933 3390 
Q 3200 3197 3328 2828 
z
" transform="scale(0.015625)"/>
      <path id="DejaVuSans-13ae" d="M 4531 4863 
L 4531 4384 
L 3981 4384 
Q 3672 4384 3551 4259 
Q 3431 4134 3431 3809 
L 3431 3500 
L 4378 3500 
L 4378 3053 
L 3431 3053 
L 3431 0 
L 2853 0 
L 2853 3053 
L 1275 3053 
L 1275 0 
L 697 0 
L 697 3053 
L 147 3053 
L 147 3500 
L 697 3500 
L 697 3744 
Q 697 4328 969 4595 
Q 1241 4863 1831 4863 
L 2375 4863 
L 2375 4384 
L 1825 4384 
Q 1516 4384 1394 4259 
Q 1275 4134 1275 3809 
L 1275 3500 
L 2853 3500 
L 2853 3744 
Q 2853 4328 3125 4595 
Q 3397 4863 3988 4863 
L 4531 4863 
z
" transform="scale(0.015625)"/>
      <path id="DejaVuSans-45" d="M 3116 1747 
Q 3116 2381 2855 2742 
Q 2594 3103 2138 3103 
Q 1681 3103 1420 2742 
Q 1159 2381 1159 1747 
Q 1159 1113 1420 752 
Q 1681 391 2138 391 
Q 2594 391 2855 752 
Q 3116 1113 3116 1747 
z
M 1159 2969 
Q 1341 3281 1617 3432 
Q 1894 3584 2278 3584 
Q 2916 3584 3314 3078 
Q 3713 2572 3713 1747 
Q 3713 922 3314 415 
Q 2916 -91 2278 -91 
Q 1894 -91 1617 61 
Q 1341 213 1159 525 
L 1159 0 
L 581 0 
L 581 4863 
L 1159 4863 
L 1159 2969 
z
" transform="scale(0.015625)"/>
      <path id="DejaVuSans-4d" d="M 603 3500 
L 1178 3500 
L 1178 -63 
Q 1178 -731 923 -1031 
Q 669 -1331 103 -1331 
L -116 -1331 
L -116 -844 
L 38 -844 
Q 366 -844 484 -692 
Q 603 -541 603 -63 
L 603 3500 
z
M 603 4863 
L 1178 4863 
L 1178 4134 
L 603 4134 
L 603 4863 
z
" transform="scale(0.015625)"/>
      <path id="DejaVuSans-11" d="M 684 794 
L 1344 794 
L 1344 0 
L 684 0 
L 684 794 
z
" transform="scale(0.015625)"/>
     </defs>
     <use xlink:href="#DejaVuSans-26"/>
     <use xlink:href="#DejaVuSans-44" transform="translate(69.828125 0)"/>
     <use xlink:href="#DejaVuSans-53" transform="translate(131.109375 0)"/>
     <use xlink:href="#DejaVuSans-44" transform="translate(194.59375 0)"/>
     <use xlink:href="#DejaVuSans-46" transform="translate(255.875 0)"/>
     <use xlink:href="#DejaVuSans-4c" transform="translate(310.859375 0)"/>
     <use xlink:href="#DejaVuSans-57" transform="translate(338.640625 0)"/>
     <use xlink:href="#DejaVuSans-5c" transform="translate(377.84375 0)"/>
     <use xlink:href="#DejaVuSans-f" transform="translate(437.03125 0)"/>
     <use xlink:href="#DejaVuSans-3" transform="translate(468.8125 0)"/>
     <use xlink:href="#DejaVuSans-55" transform="translate(500.59375 0)"/>
     <use xlink:href="#DejaVuSans-48" transform="translate(539.5 0)"/>
     <use xlink:href="#DejaVuSans-44" transform="translate(601.03125 0)"/>
     <use xlink:href="#DejaVuSans-4f" transform="translate(662.3125 0)"/>
     <use xlink:href="#DejaVuSans-4c" transform="translate(690.09375 0)"/>
     <use xlink:href="#DejaVuSans-5d" transform="translate(717.875 0)"/>
     <use xlink:href="#DejaVuSans-48" transform="translate(770.359375 0)"/>
     <use xlink:href="#DejaVuSans-47" transform="translate(831.890625 0)"/>
     <use xlink:href="#DejaVuSans-3" transform="translate(895.375 0)"/>
     <use xlink:href="#DejaVuSans-44" transform="translate(927.15625 0)"/>
     <use xlink:href="#DejaVuSans-46" transform="translate(988.4375 0)"/>
     <use xlink:href="#DejaVuSans-54" transform="translate(1043.421875 0)"/>
     <use xlink:href="#DejaVuSans-58" transform="translate(1106.90625 0)"/>
     <use xlink:href="#DejaVuSans-4c" transform="translate(1170.28125 0)"/>
     <use xlink:href="#DejaVuSans-56" transform="translate(1198.0625 0)"/>
     <use xlink:href="#DejaVuSans-4c" transform="translate(1250.15625 0)"/>
     <use xlink:href="#DejaVuSans-57" transform="translate(1277.9375 0)"/>
     <use xlink:href="#DejaVuSans-4c" transform="translate(1317.140625 0)"/>
     <use xlink:href="#DejaVuSans-52" transform="translate(1344.921875 0)"/>
     <use xlink:href="#DejaVuSans-51" transform="translate(1406.109375 0)"/>
     <use xlink:href="#DejaVuSans-f" transform="translate(1469.484375 0)"/>
     <use xlink:href="#DejaVuSans-3" transform="translate(1501.265625 0)"/>
     <use xlink:href="#DejaVuSans-4f" transform="translate(1533.046875 0)"/>
     <use xlink:href="#DejaVuSans-44" transform="translate(1560.828125 0)"/>
     <use xlink:href="#DejaVuSans-5a" transform="translate(1622.109375 0)"/>
     <use xlink:href="#DejaVuSans-49" transform="translate(1703.890625 0)"/>
     <use xlink:href="#DejaVuSans-58" transform="translate(1739.09375 0)"/>
     <use xlink:href="#DejaVuSans-4f" transform="translate(1802.46875 0)"/>
     <use xlink:href="#DejaVuSans-3" transform="translate(1830.25 0)"/>
     <use xlink:href="#DejaVuSans-44" transform="translate(1862.03125 0)"/>
     <use xlink:href="#DejaVuSans-46" transform="translate(1923.3125 0)"/>
     <use xlink:href="#DejaVuSans-46" transform="translate(1978.296875 0)"/>
     <use xlink:href="#DejaVuSans-48" transform="translate(2033.28125 0)"/>
     <use xlink:href="#DejaVuSans-56" transform="translate(2094.8125 0)"/>
     <use xlink:href="#DejaVuSans-56" transform="translate(2146.90625 0)"/>
     <use xlink:href="#DejaVuSans-f" transform="translate(2199 0)"/>
     <use xlink:href="#DejaVuSans-3" transform="translate(2230.78125 0)"/>
     <use xlink:href="#DejaVuSans-44" transform="translate(2262.5625 0)"/>
     <use xlink:href="#DejaVuSans-51" transform="translate(2323.84375 0)"/>
     <use xlink:href="#DejaVuSans-47" transform="translate(2387.21875 0)"/>
     <use xlink:href="#DejaVuSans-3" transform="translate(2450.703125 0)"/>
     <use xlink:href="#DejaVuSans-47" transform="translate(2482.484375 0)"/>
     <use xlink:href="#DejaVuSans-48" transform="translate(2545.96875 0)"/>
     <use xlink:href="#DejaVuSans-50" transform="translate(2607.5 0)"/>
     <use xlink:href="#DejaVuSans-52" transform="translate(2704.90625 0)"/>
     <use xlink:href="#DejaVuSans-51" transform="translate(2766.09375 0)"/>
     <use xlink:href="#DejaVuSans-56" transform="translate(2829.46875 0)"/>
     <use xlink:href="#DejaVuSans-57" transform="translate(2881.5625 0)"/>
     <use xlink:href="#DejaVuSans-55" transform="translate(2920.765625 0)"/>
     <use xlink:href="#DejaVuSans-44" transform="translate(2961.875 0)"/>
     <use xlink:href="#DejaVuSans-57" transform="translate(3023.15625 0)"/>
     <use xlink:href="#DejaVuSans-48" transform="translate(3062.359375 0)"/>
     <use xlink:href="#DejaVuSans-47" transform="translate(3123.890625 0)"/>
     <use xlink:href="#DejaVuSans-3" transform="translate(3187.375 0)"/>
     <use xlink:href="#DejaVuSans-50" transform="translate(3219.15625 0)"/>
     <use xlink:href="#DejaVuSans-52" transform="translate(3316.5625 0)"/>
     <use xlink:href="#DejaVuSans-47" transform="translate(3377.75 0)"/>
     <use xlink:href="#DejaVuSans-48" transform="translate(3441.234375 0)"/>
     <use xlink:href="#DejaVuSans-4f" transform="translate(3502.765625 0)"/>
     <use xlink:href="#DejaVuSans-3" transform="translate(3530.546875 0)"/>
     <use xlink:href="#DejaVuSans-58" transform="translate(3562.328125 0)"/>
     <use xlink:href="#DejaVuSans-57" transform="translate(3625.703125 0)"/>
     <use xlink:href="#DejaVuSans-4c" transform="translate(3664.90625 0)"/>
     <use xlink:href="#DejaVuSans-4f" transform="translate(3692.6875 0)"/>
     <use xlink:href="#DejaVuSans-4c" transform="translate(3720.46875 0)"/>
     <use xlink:href="#DejaVuSans-57" transform="translate(3748.25 0)"/>
     <use xlink:href="#DejaVuSans-5c" transform="translate(3787.453125 0)"/>
     <use xlink:href="#DejaVuSans-3" transform="translate(3846.640625 0)"/>
     <use xlink:href="#DejaVuSans-44" transform="translate(3878.421875 0)"/>
     <use xlink:href="#DejaVuSans-55" transform="translate(3939.703125 0)"/>
     <use xlink:href="#DejaVuSans-48" transform="translate(3978.609375 0)"/>
     <use xlink:href="#DejaVuSans-3" transform="translate(4040.140625 0)"/>
     <use xlink:href="#DejaVuSans-47" transform="translate(4071.921875 0)"/>
     <use xlink:href="#DejaVuSans-4c" transform="translate(4135.40625 0)"/>
     <use xlink:href="#DejaVuSans-13ae" transform="translate(4163.1875 0)"/>
     <use xlink:href="#DejaVuSans-48" transform="translate(4232.078125 0)"/>
     <use xlink:href="#DejaVuSans-55" transform="translate(4293.609375 0)"/>
     <use xlink:href="#DejaVuSans-48" transform="translate(4332.515625 0)"/>
     <use xlink:href="#DejaVuSans-51" transform="translate(4394.046875 0)"/>
     <use xlink:href="#DejaVuSans-57" transform="translate(4457.421875 0)"/>
     <use xlink:href="#DejaVuSans-3" transform="translate(4496.625 0)"/>
     <use xlink:href="#DejaVuSans-52" transform="translate(4528.40625 0)"/>
     <use xlink:href="#DejaVuSans-45" transform="translate(4589.59375 0)"/>
     <use xlink:href="#DejaVuSans-4d" transform="translate(4653.078125 0)"/>
     <use xlink:href="#DejaVuSans-48" transform="translate(4680.859375 0)"/>
     <use xlink:href="#DejaVuSans-46" transform="translate(4742.390625 0)"/>
     <use xlink:href="#DejaVuSans-57" transform="translate(4797.375 0)"/>
     <use xlink:href="#DejaVuSans-56" transform="translate(4836.578125 0)"/>
     <use xlink:href="#DejaVuSans-11" transform="translate(4888.671875 0)"/>
    </g>
   </g>
   <g id="text_3">
    <!-- Design -->
    <g style="fill: #17232c" transform="translate(104.95657 86.192951) scale(0.074 -0.074)">
     <defs>
      <path id="DejaVuSans-Bold-27" d="M 1791 3756 
L 1791 909 
L 2222 909 
Q 2959 909 3348 1275 
Q 3738 1641 3738 2338 
Q 3738 3031 3350 3393 
Q 2963 3756 2222 3756 
L 1791 3756 
z
M 588 4666 
L 1856 4666 
Q 2919 4666 3439 4514 
Q 3959 4363 4331 4000 
Q 4659 3684 4818 3271 
Q 4978 2859 4978 2338 
Q 4978 1809 4818 1395 
Q 4659 981 4331 666 
Q 3956 303 3431 151 
Q 2906 0 1856 0 
L 588 0 
L 588 4666 
z
" transform="scale(0.015625)"/>
     </defs>
     <use xlink:href="#DejaVuSans-Bold-27"/>
     <use xlink:href="#DejaVuSans-Bold-48" transform="translate(83.015625 0)"/>
     <use xlink:href="#DejaVuSans-Bold-56" transform="translate(150.84375 0)"/>
     <use xlink:href="#DejaVuSans-Bold-4c" transform="translate(210.359375 0)"/>
     <use xlink:href="#DejaVuSans-Bold-4a" transform="translate(244.640625 0)"/>
     <use xlink:href="#DejaVuSans-Bold-51" transform="translate(316.21875 0)"/>
    </g>
    <!-- Preview -->
    <g style="fill: #17232c" transform="translate(102.635977 95.448732) scale(0.074 -0.074)">
     <defs>
      <path id="DejaVuSans-Bold-33" d="M 588 4666 
L 2584 4666 
Q 3475 4666 3951 4270 
Q 4428 3875 4428 3144 
Q 4428 2409 3951 2014 
Q 3475 1619 2584 1619 
L 1791 1619 
L 1791 0 
L 588 0 
L 588 4666 
z
M 1791 3794 
L 1791 2491 
L 2456 2491 
Q 2806 2491 2997 2661 
Q 3188 2831 3188 3144 
Q 3188 3456 2997 3625 
Q 2806 3794 2456 3794 
L 1791 3794 
z
" transform="scale(0.015625)"/>
      <path id="DejaVuSans-Bold-5a" d="M 225 3500 
L 1313 3500 
L 1900 1088 
L 2491 3500 
L 3425 3500 
L 4013 1113 
L 4603 3500 
L 5691 3500 
L 4769 0 
L 3547 0 
L 2956 2406 
L 2369 0 
L 1147 0 
L 225 3500 
z
" transform="scale(0.015625)"/>
     </defs>
     <use xlink:href="#DejaVuSans-Bold-33"/>
     <use xlink:href="#DejaVuSans-Bold-55" transform="translate(73.296875 0)"/>
     <use xlink:href="#DejaVuSans-Bold-48" transform="translate(122.609375 0)"/>
     <use xlink:href="#DejaVuSans-Bold-59" transform="translate(190.4375 0)"/>
     <use xlink:href="#DejaVuSans-Bold-4c" transform="translate(255.625 0)"/>
     <use xlink:href="#DejaVuSans-Bold-48" transform="translate(289.90625 0)"/>
     <use xlink:href="#DejaVuSans-Bold-5a" transform="translate(357.734375 0)"/>
    </g>
    <!-- declared geometry -->
    <g style="fill: #17232c" transform="translate(79.832992 103.212951) scale(0.074 -0.074)">
     <use xlink:href="#DejaVuSans-Bold-47"/>
     <use xlink:href="#DejaVuSans-Bold-48" transform="translate(71.578125 0)"/>
     <use xlink:href="#DejaVuSans-Bold-46" transform="translate(139.40625 0)"/>
     <use xlink:href="#DejaVuSans-Bold-4f" transform="translate(198.6875 0)"/>
     <use xlink:href="#DejaVuSans-Bold-44" transform="translate(232.96875 0)"/>
     <use xlink:href="#DejaVuSans-Bold-55" transform="translate(300.453125 0)"/>
     <use xlink:href="#DejaVuSans-Bold-48" transform="translate(349.765625 0)"/>
     <use xlink:href="#DejaVuSans-Bold-47" transform="translate(417.59375 0)"/>
     <use xlink:href="#DejaVuSans-Bold-3" transform="translate(489.171875 0)"/>
     <use xlink:href="#DejaVuSans-Bold-4a" transform="translate(523.984375 0)"/>
     <use xlink:href="#DejaVuSans-Bold-48" transform="translate(595.5625 0)"/>
     <use xlink:href="#DejaVuSans-Bold-52" transform="translate(663.390625 0)"/>
     <use xlink:href="#DejaVuSans-Bold-50" transform="translate(732.09375 0)"/>
     <use xlink:href="#DejaVuSans-Bold-48" transform="translate(836.296875 0)"/>
     <use xlink:href="#DejaVuSans-Bold-57" transform="translate(904.125 0)"/>
     <use xlink:href="#DejaVuSans-Bold-55" transform="translate(951.921875 0)"/>
     <use xlink:href="#DejaVuSans-Bold-5c" transform="translate(1001.234375 0)"/>
    </g>
   </g>
   <g id="text_4">
    <!-- Registered -->
    <g style="fill: #17232c" transform="translate(216.243367 86.192951) scale(0.074 -0.074)">
     <defs>
      <path id="DejaVuSans-Bold-35" d="M 2297 2597 
Q 2675 2597 2839 2737 
Q 3003 2878 3003 3200 
Q 3003 3519 2839 3656 
Q 2675 3794 2297 3794 
L 1791 3794 
L 1791 2597 
L 2297 2597 
z
M 1791 1766 
L 1791 0 
L 588 0 
L 588 4666 
L 2425 4666 
Q 3347 4666 3776 4356 
Q 4206 4047 4206 3378 
Q 4206 2916 3982 2619 
Q 3759 2322 3309 2181 
Q 3556 2125 3751 1926 
Q 3947 1728 4147 1325 
L 4800 0 
L 3519 0 
L 2950 1159 
Q 2778 1509 2601 1637 
Q 2425 1766 2131 1766 
L 1791 1766 
z
" transform="scale(0.015625)"/>
     </defs>
     <use xlink:href="#DejaVuSans-Bold-35"/>
     <use xlink:href="#DejaVuSans-Bold-48" transform="translate(77 0)"/>
     <use xlink:href="#DejaVuSans-Bold-4a" transform="translate(144.828125 0)"/>
     <use xlink:href="#DejaVuSans-Bold-4c" transform="translate(216.40625 0)"/>
     <use xlink:href="#DejaVuSans-Bold-56" transform="translate(250.6875 0)"/>
     <use xlink:href="#DejaVuSans-Bold-57" transform="translate(310.203125 0)"/>
     <use xlink:href="#DejaVuSans-Bold-48" transform="translate(358 0)"/>
     <use xlink:href="#DejaVuSans-Bold-55" transform="translate(425.828125 0)"/>
     <use xlink:href="#DejaVuSans-Bold-48" transform="translate(475.140625 0)"/>
     <use xlink:href="#DejaVuSans-Bold-47" transform="translate(542.96875 0)"/>
    </g>
    <!-- Protocol -->
    <g style="fill: #17232c" transform="translate(221.588711 95.448732) scale(0.074 -0.074)">
     <use xlink:href="#DejaVuSans-Bold-33"/>
     <use xlink:href="#DejaVuSans-Bold-55" transform="translate(73.296875 0)"/>
     <use xlink:href="#DejaVuSans-Bold-52" transform="translate(122.609375 0)"/>
     <use xlink:href="#DejaVuSans-Bold-57" transform="translate(191.3125 0)"/>
     <use xlink:href="#DejaVuSans-Bold-52" transform="translate(239.109375 0)"/>
     <use xlink:href="#DejaVuSans-Bold-46" transform="translate(307.8125 0)"/>
     <use xlink:href="#DejaVuSans-Bold-52" transform="translate(367.09375 0)"/>
     <use xlink:href="#DejaVuSans-Bold-4f" transform="translate(435.796875 0)"/>
    </g>
    <!-- frozen promise -->
    <g style="fill: #17232c" transform="translate(207.569758 103.241857) scale(0.074 -0.074)">
     <defs>
      <path id="DejaVuSans-Bold-49" d="M 2841 4863 
L 2841 4128 
L 2222 4128 
Q 1984 4128 1890 4042 
Q 1797 3956 1797 3744 
L 1797 3500 
L 2753 3500 
L 2753 2700 
L 1797 2700 
L 1797 0 
L 678 0 
L 678 2700 
L 122 2700 
L 122 3500 
L 678 3500 
L 678 3744 
Q 678 4316 997 4589 
Q 1316 4863 1984 4863 
L 2841 4863 
z
" transform="scale(0.015625)"/>
      <path id="DejaVuSans-Bold-5d" d="M 366 3500 
L 3419 3500 
L 3419 2719 
L 1575 800 
L 3419 800 
L 3419 0 
L 288 0 
L 288 781 
L 2131 2700 
L 366 2700 
L 366 3500 
z
" transform="scale(0.015625)"/>
      <path id="DejaVuSans-Bold-53" d="M 1656 506 
L 1656 -1331 
L 538 -1331 
L 538 3500 
L 1656 3500 
L 1656 2988 
Q 1888 3294 2169 3439 
Q 2450 3584 2816 3584 
Q 3463 3584 3878 3070 
Q 4294 2556 4294 1747 
Q 4294 938 3878 423 
Q 3463 -91 2816 -91 
Q 2450 -91 2169 54 
Q 1888 200 1656 506 
z
M 2400 2772 
Q 2041 2772 1848 2508 
Q 1656 2244 1656 1747 
Q 1656 1250 1848 986 
Q 2041 722 2400 722 
Q 2759 722 2948 984 
Q 3138 1247 3138 1747 
Q 3138 2247 2948 2509 
Q 2759 2772 2400 2772 
z
" transform="scale(0.015625)"/>
     </defs>
     <use xlink:href="#DejaVuSans-Bold-49"/>
     <use xlink:href="#DejaVuSans-Bold-55" transform="translate(43.5 0)"/>
     <use xlink:href="#DejaVuSans-Bold-52" transform="translate(92.8125 0)"/>
     <use xlink:href="#DejaVuSans-Bold-5d" transform="translate(161.515625 0)"/>
     <use xlink:href="#DejaVuSans-Bold-48" transform="translate(219.71875 0)"/>
     <use xlink:href="#DejaVuSans-Bold-51" transform="translate(287.546875 0)"/>
     <use xlink:href="#DejaVuSans-Bold-3" transform="translate(358.734375 0)"/>
     <use xlink:href="#DejaVuSans-Bold-53" transform="translate(393.546875 0)"/>
     <use xlink:href="#DejaVuSans-Bold-55" transform="translate(465.125 0)"/>
     <use xlink:href="#DejaVuSans-Bold-52" transform="translate(514.4375 0)"/>
     <use xlink:href="#DejaVuSans-Bold-50" transform="translate(583.140625 0)"/>
     <use xlink:href="#DejaVuSans-Bold-4c" transform="translate(687.34375 0)"/>
     <use xlink:href="#DejaVuSans-Bold-56" transform="translate(721.625 0)"/>
     <use xlink:href="#DejaVuSans-Bold-48" transform="translate(781.140625 0)"/>
    </g>
   </g>
   <g id="text_5">
    <!-- Realized -->
    <g style="fill: #17232c" transform="translate(340.96868 91.193732) scale(0.074 -0.074)">
     <use xlink:href="#DejaVuSans-Bold-35"/>
     <use xlink:href="#DejaVuSans-Bold-48" transform="translate(77 0)"/>
     <use xlink:href="#DejaVuSans-Bold-44" transform="translate(144.828125 0)"/>
     <use xlink:href="#DejaVuSans-Bold-4f" transform="translate(212.3125 0)"/>
     <use xlink:href="#DejaVuSans-Bold-4c" transform="translate(246.59375 0)"/>
     <use xlink:href="#DejaVuSans-Bold-5d" transform="translate(280.875 0)"/>
     <use xlink:href="#DejaVuSans-Bold-48" transform="translate(339.078125 0)"/>
     <use xlink:href="#DejaVuSans-Bold-47" transform="translate(406.90625 0)"/>
    </g>
    <!-- retained events + QC -->
    <g style="fill: #17232c" transform="translate(314.151195 99.216373) scale(0.074 -0.074)">
     <defs>
      <path id="DejaVuSans-Bold-e" d="M 3053 4013 
L 3053 2375 
L 4684 2375 
L 4684 1638 
L 3053 1638 
L 3053 0 
L 2309 0 
L 2309 1638 
L 678 1638 
L 678 2375 
L 2309 2375 
L 2309 4013 
L 3053 4013 
z
" transform="scale(0.015625)"/>
      <path id="DejaVuSans-Bold-34" d="M 2847 -84 
L 2753 -84 
Q 1600 -84 959 553 
Q 319 1191 319 2328 
Q 319 3463 958 4106 
Q 1597 4750 2719 4750 
Q 3853 4750 4486 4112 
Q 5119 3475 5119 2328 
Q 5119 1541 4783 972 
Q 4447 403 3816 116 
L 4756 -934 
L 3609 -934 
L 2847 -84 
z
M 2719 3878 
Q 2169 3878 1866 3472 
Q 1563 3066 1563 2328 
Q 1563 1578 1859 1179 
Q 2156 781 2719 781 
Q 3272 781 3575 1187 
Q 3878 1594 3878 2328 
Q 3878 3066 3575 3472 
Q 3272 3878 2719 3878 
z
" transform="scale(0.015625)"/>
      <path id="DejaVuSans-Bold-26" d="M 4288 256 
Q 3956 84 3597 -3 
Q 3238 -91 2847 -91 
Q 1681 -91 1000 561 
Q 319 1213 319 2328 
Q 319 3447 1000 4098 
Q 1681 4750 2847 4750 
Q 3238 4750 3597 4662 
Q 3956 4575 4288 4403 
L 4288 3438 
Q 3953 3666 3628 3772 
Q 3303 3878 2944 3878 
Q 2300 3878 1931 3465 
Q 1563 3053 1563 2328 
Q 1563 1606 1931 1193 
Q 2300 781 2944 781 
Q 3303 781 3628 887 
Q 3953 994 4288 1222 
L 4288 256 
z
" transform="scale(0.015625)"/>
     </defs>
     <use xlink:href="#DejaVuSans-Bold-55"/>
     <use xlink:href="#DejaVuSans-Bold-48" transform="translate(49.3125 0)"/>
     <use xlink:href="#DejaVuSans-Bold-57" transform="translate(117.140625 0)"/>
     <use xlink:href="#DejaVuSans-Bold-44" transform="translate(164.9375 0)"/>
     <use xlink:href="#DejaVuSans-Bold-4c" transform="translate(232.421875 0)"/>
     <use xlink:href="#DejaVuSans-Bold-51" transform="translate(266.703125 0)"/>
     <use xlink:href="#DejaVuSans-Bold-48" transform="translate(337.890625 0)"/>
     <use xlink:href="#DejaVuSans-Bold-47" transform="translate(405.71875 0)"/>
     <use xlink:href="#DejaVuSans-Bold-3" transform="translate(477.296875 0)"/>
     <use xlink:href="#DejaVuSans-Bold-48" transform="translate(512.109375 0)"/>
     <use xlink:href="#DejaVuSans-Bold-59" transform="translate(579.9375 0)"/>
     <use xlink:href="#DejaVuSans-Bold-48" transform="translate(645.125 0)"/>
     <use xlink:href="#DejaVuSans-Bold-51" transform="translate(712.953125 0)"/>
     <use xlink:href="#DejaVuSans-Bold-57" transform="translate(784.140625 0)"/>
     <use xlink:href="#DejaVuSans-Bold-56" transform="translate(831.9375 0)"/>
     <use xlink:href="#DejaVuSans-Bold-3" transform="translate(891.453125 0)"/>
     <use xlink:href="#DejaVuSans-Bold-e" transform="translate(926.265625 0)"/>
     <use xlink:href="#DejaVuSans-Bold-3" transform="translate(1010.0625 0)"/>
     <use xlink:href="#DejaVuSans-Bold-34" transform="translate(1044.875 0)"/>
     <use xlink:href="#DejaVuSans-Bold-26" transform="translate(1129.890625 0)"/>
    </g>
   </g>
   <g id="text_6">
    <!-- Accessible -->
    <g style="fill: #17232c" transform="translate(456.504695 91.193732) scale(0.074 -0.074)">
     <defs>
      <path id="DejaVuSans-Bold-24" d="M 3419 850 
L 1538 850 
L 1241 0 
L 31 0 
L 1759 4666 
L 3194 4666 
L 4922 0 
L 3713 0 
L 3419 850 
z
M 1838 1716 
L 3116 1716 
L 2478 3572 
L 1838 1716 
z
" transform="scale(0.015625)"/>
      <path id="DejaVuSans-Bold-45" d="M 2400 722 
Q 2759 722 2948 984 
Q 3138 1247 3138 1747 
Q 3138 2247 2948 2509 
Q 2759 2772 2400 2772 
Q 2041 2772 1848 2508 
Q 1656 2244 1656 1747 
Q 1656 1250 1848 986 
Q 2041 722 2400 722 
z
M 1656 2988 
Q 1888 3294 2169 3439 
Q 2450 3584 2816 3584 
Q 3463 3584 3878 3070 
Q 4294 2556 4294 1747 
Q 4294 938 3878 423 
Q 3463 -91 2816 -91 
Q 2450 -91 2169 54 
Q 1888 200 1656 506 
L 1656 0 
L 538 0 
L 538 4863 
L 1656 4863 
L 1656 2988 
z
" transform="scale(0.015625)"/>
     </defs>
     <use xlink:href="#DejaVuSans-Bold-24"/>
     <use xlink:href="#DejaVuSans-Bold-46" transform="translate(77.390625 0)"/>
     <use xlink:href="#DejaVuSans-Bold-46" transform="translate(136.671875 0)"/>
     <use xlink:href="#DejaVuSans-Bold-48" transform="translate(195.953125 0)"/>
     <use xlink:href="#DejaVuSans-Bold-56" transform="translate(263.78125 0)"/>
     <use xlink:href="#DejaVuSans-Bold-56" transform="translate(323.296875 0)"/>
     <use xlink:href="#DejaVuSans-Bold-4c" transform="translate(382.8125 0)"/>
     <use xlink:href="#DejaVuSans-Bold-45" transform="translate(417.09375 0)"/>
     <use xlink:href="#DejaVuSans-Bold-4f" transform="translate(488.671875 0)"/>
     <use xlink:href="#DejaVuSans-Bold-48" transform="translate(522.953125 0)"/>
    </g>
    <!-- verified execution -->
    <g style="fill: #17232c" transform="translate(440.714367 99.703733) scale(0.074 -0.074)">
     <defs>
      <path id="DejaVuSans-Bold-13ab" d="M 3078 4863 
L 4206 4863 
L 4206 3950 
L 3078 3950 
L 3078 4863 
z
M 2847 4863 
L 2847 4128 
L 2228 4128 
Q 1994 4128 1903 4042 
Q 1813 3956 1813 3744 
L 1813 3500 
L 4206 3500 
L 4206 0 
L 3078 0 
L 3078 2700 
L 1813 2700 
L 1813 0 
L 684 0 
L 684 2700 
L 134 2700 
L 134 3500 
L 684 3500 
L 684 3744 
Q 684 4316 1003 4589 
Q 1322 4863 1991 4863 
L 2847 4863 
z
" transform="scale(0.015625)"/>
      <path id="DejaVuSans-Bold-5b" d="M 1422 1791 
L 159 3500 
L 1344 3500 
L 2059 2463 
L 2784 3500 
L 3969 3500 
L 2706 1797 
L 4031 0 
L 2847 0 
L 2059 1106 
L 1281 0 
L 97 0 
L 1422 1791 
z
" transform="scale(0.015625)"/>
      <path id="DejaVuSans-Bold-58" d="M 500 1363 
L 500 3500 
L 1625 3500 
L 1625 3150 
Q 1625 2866 1622 2436 
Q 1619 2006 1619 1863 
Q 1619 1441 1641 1255 
Q 1663 1069 1716 984 
Q 1784 875 1895 815 
Q 2006 756 2150 756 
Q 2500 756 2700 1025 
Q 2900 1294 2900 1772 
L 2900 3500 
L 4019 3500 
L 4019 0 
L 2900 0 
L 2900 506 
Q 2647 200 2364 54 
Q 2081 -91 1741 -91 
Q 1134 -91 817 281 
Q 500 653 500 1363 
z
" transform="scale(0.015625)"/>
     </defs>
     <use xlink:href="#DejaVuSans-Bold-59"/>
     <use xlink:href="#DejaVuSans-Bold-48" transform="translate(65.1875 0)"/>
     <use xlink:href="#DejaVuSans-Bold-55" transform="translate(133.015625 0)"/>
     <use xlink:href="#DejaVuSans-Bold-4c" transform="translate(182.328125 0)"/>
     <use xlink:href="#DejaVuSans-Bold-13ab" transform="translate(216.609375 0)"/>
     <use xlink:href="#DejaVuSans-Bold-48" transform="translate(290.734375 0)"/>
     <use xlink:href="#DejaVuSans-Bold-47" transform="translate(358.5625 0)"/>
     <use xlink:href="#DejaVuSans-Bold-3" transform="translate(430.140625 0)"/>
     <use xlink:href="#DejaVuSans-Bold-48" transform="translate(464.953125 0)"/>
     <use xlink:href="#DejaVuSans-Bold-5b" transform="translate(532.78125 0)"/>
     <use xlink:href="#DejaVuSans-Bold-48" transform="translate(597.28125 0)"/>
     <use xlink:href="#DejaVuSans-Bold-46" transform="translate(665.109375 0)"/>
     <use xlink:href="#DejaVuSans-Bold-58" transform="translate(724.390625 0)"/>
     <use xlink:href="#DejaVuSans-Bold-57" transform="translate(795.578125 0)"/>
     <use xlink:href="#DejaVuSans-Bold-4c" transform="translate(843.375 0)"/>
     <use xlink:href="#DejaVuSans-Bold-52" transform="translate(877.65625 0)"/>
     <use xlink:href="#DejaVuSans-Bold-51" transform="translate(946.359375 0)"/>
    </g>
   </g>
   <g id="text_7">
    <!-- Demonstrated -->
    <g style="fill: #17232c" transform="translate(568.223352 91.193732) scale(0.074 -0.074)">
     <use xlink:href="#DejaVuSans-Bold-27"/>
     <use xlink:href="#DejaVuSans-Bold-48" transform="translate(83.015625 0)"/>
     <use xlink:href="#DejaVuSans-Bold-50" transform="translate(150.84375 0)"/>
     <use xlink:href="#DejaVuSans-Bold-52" transform="translate(255.046875 0)"/>
     <use xlink:href="#DejaVuSans-Bold-51" transform="translate(323.75 0)"/>
     <use xlink:href="#DejaVuSans-Bold-56" transform="translate(394.9375 0)"/>
     <use xlink:href="#DejaVuSans-Bold-57" transform="translate(454.453125 0)"/>
     <use xlink:href="#DejaVuSans-Bold-55" transform="translate(502.25 0)"/>
     <use xlink:href="#DejaVuSans-Bold-44" transform="translate(551.5625 0)"/>
     <use xlink:href="#DejaVuSans-Bold-57" transform="translate(619.046875 0)"/>
     <use xlink:href="#DejaVuSans-Bold-48" transform="translate(666.84375 0)"/>
     <use xlink:href="#DejaVuSans-Bold-47" transform="translate(734.671875 0)"/>
    </g>
    <!-- held-out utility + nulls -->
    <g style="fill: #17232c" transform="translate(551.154789 98.957951) scale(0.074 -0.074)">
     <defs>
      <path id="DejaVuSans-Bold-10" d="M 347 2297 
L 2309 2297 
L 2309 1388 
L 347 1388 
L 347 2297 
z
" transform="scale(0.015625)"/>
     </defs>
     <use xlink:href="#DejaVuSans-Bold-4b"/>
     <use xlink:href="#DejaVuSans-Bold-48" transform="translate(71.1875 0)"/>
     <use xlink:href="#DejaVuSans-Bold-4f" transform="translate(139.015625 0)"/>
     <use xlink:href="#DejaVuSans-Bold-47" transform="translate(173.296875 0)"/>
     <use xlink:href="#DejaVuSans-Bold-10" transform="translate(244.875 0)"/>
     <use xlink:href="#DejaVuSans-Bold-52" transform="translate(286.375 0)"/>
     <use xlink:href="#DejaVuSans-Bold-58" transform="translate(355.078125 0)"/>
     <use xlink:href="#DejaVuSans-Bold-57" transform="translate(426.265625 0)"/>
     <use xlink:href="#DejaVuSans-Bold-3" transform="translate(474.0625 0)"/>
     <use xlink:href="#DejaVuSans-Bold-58" transform="translate(508.875 0)"/>
     <use xlink:href="#DejaVuSans-Bold-57" transform="translate(580.0625 0)"/>
     <use xlink:href="#DejaVuSans-Bold-4c" transform="translate(627.859375 0)"/>
     <use xlink:href="#DejaVuSans-Bold-4f" transform="translate(662.140625 0)"/>
     <use xlink:href="#DejaVuSans-Bold-4c" transform="translate(696.421875 0)"/>
     <use xlink:href="#DejaVuSans-Bold-57" transform="translate(730.703125 0)"/>
     <use xlink:href="#DejaVuSans-Bold-5c" transform="translate(778.5 0)"/>
     <use xlink:href="#DejaVuSans-Bold-3" transform="translate(843.6875 0)"/>
     <use xlink:href="#DejaVuSans-Bold-e" transform="translate(878.5 0)"/>
     <use xlink:href="#DejaVuSans-Bold-3" transform="translate(962.296875 0)"/>
     <use xlink:href="#DejaVuSans-Bold-51" transform="translate(997.109375 0)"/>
     <use xlink:href="#DejaVuSans-Bold-58" transform="translate(1068.296875 0)"/>
     <use xlink:href="#DejaVuSans-Bold-4f" transform="translate(1139.484375 0)"/>
     <use xlink:href="#DejaVuSans-Bold-4f" transform="translate(1173.765625 0)"/>
     <use xlink:href="#DejaVuSans-Bold-56" transform="translate(1208.046875 0)"/>
    </g>
   </g>
   <g id="text_8">
    <!-- Each transition requires its own source-bound receipt -->
    <g style="fill: #5e6a72" transform="translate(231.685063 151.23456) scale(0.095 -0.095)">
     <defs>
      <path id="DejaVuSans-28" d="M 628 4666 
L 3578 4666 
L 3578 4134 
L 1259 4134 
L 1259 2753 
L 3481 2753 
L 3481 2222 
L 1259 2222 
L 1259 531 
L 3634 531 
L 3634 0 
L 628 0 
L 628 4666 
z
" transform="scale(0.015625)"/>
      <path id="DejaVuSans-4b" d="M 3513 2113 
L 3513 0 
L 2938 0 
L 2938 2094 
Q 2938 2591 2744 2837 
Q 2550 3084 2163 3084 
Q 1697 3084 1428 2787 
Q 1159 2491 1159 1978 
L 1159 0 
L 581 0 
L 581 4863 
L 1159 4863 
L 1159 2956 
Q 1366 3272 1645 3428 
Q 1925 3584 2291 3584 
Q 2894 3584 3203 3211 
Q 3513 2838 3513 2113 
z
" transform="scale(0.015625)"/>
      <path id="DejaVuSans-10" d="M 313 2009 
L 1997 2009 
L 1997 1497 
L 313 1497 
L 313 2009 
z
" transform="scale(0.015625)"/>
     </defs>
     <use xlink:href="#DejaVuSans-28"/>
     <use xlink:href="#DejaVuSans-44" transform="translate(63.1875 0)"/>
     <use xlink:href="#DejaVuSans-46" transform="translate(124.46875 0)"/>
     <use xlink:href="#DejaVuSans-4b" transform="translate(179.453125 0)"/>
     <use xlink:href="#DejaVuSans-3" transform="translate(242.828125 0)"/>
     <use xlink:href="#DejaVuSans-57" transform="translate(274.609375 0)"/>
     <use xlink:href="#DejaVuSans-55" transform="translate(313.8125 0)"/>
     <use xlink:href="#DejaVuSans-44" transform="translate(354.921875 0)"/>
     <use xlink:href="#DejaVuSans-51" transform="translate(416.203125 0)"/>
     <use xlink:href="#DejaVuSans-56" transform="translate(479.578125 0)"/>
     <use xlink:href="#DejaVuSans-4c" transform="translate(531.671875 0)"/>
     <use xlink:href="#DejaVuSans-57" transform="translate(559.453125 0)"/>
     <use xlink:href="#DejaVuSans-4c" transform="translate(598.65625 0)"/>
     <use xlink:href="#DejaVuSans-52" transform="translate(626.4375 0)"/>
     <use xlink:href="#DejaVuSans-51" transform="translate(687.625 0)"/>
     <use xlink:href="#DejaVuSans-3" transform="translate(751 0)"/>
     <use xlink:href="#DejaVuSans-55" transform="translate(782.78125 0)"/>
     <use xlink:href="#DejaVuSans-48" transform="translate(821.6875 0)"/>
     <use xlink:href="#DejaVuSans-54" transform="translate(883.21875 0)"/>
     <use xlink:href="#DejaVuSans-58" transform="translate(946.703125 0)"/>
     <use xlink:href="#DejaVuSans-4c" transform="translate(1010.078125 0)"/>
     <use xlink:href="#DejaVuSans-55" transform="translate(1037.859375 0)"/>
     <use xlink:href="#DejaVuSans-48" transform="translate(1076.765625 0)"/>
     <use xlink:href="#DejaVuSans-56" transform="translate(1138.296875 0)"/>
     <use xlink:href="#DejaVuSans-3" transform="translate(1190.390625 0)"/>
     <use xlink:href="#DejaVuSans-4c" transform="translate(1222.171875 0)"/>
     <use xlink:href="#DejaVuSans-57" transform="translate(1249.953125 0)"/>
     <use xlink:href="#DejaVuSans-56" transform="translate(1289.15625 0)"/>
     <use xlink:href="#DejaVuSans-3" transform="translate(1341.25 0)"/>
     <use xlink:href="#DejaVuSans-52" transform="translate(1373.03125 0)"/>
     <use xlink:href="#DejaVuSans-5a" transform="translate(1434.21875 0)"/>
     <use xlink:href="#DejaVuSans-51" transform="translate(1516 0)"/>
     <use xlink:href="#DejaVuSans-3" transform="translate(1579.375 0)"/>
     <use xlink:href="#DejaVuSans-56" transform="translate(1611.15625 0)"/>
     <use xlink:href="#DejaVuSans-52" transform="translate(1663.25 0)"/>
     <use xlink:href="#DejaVuSans-58" transform="translate(1724.4375 0)"/>
     <use xlink:href="#DejaVuSans-55" transform="translate(1787.8125 0)"/>
     <use xlink:href="#DejaVuSans-46" transform="translate(1826.71875 0)"/>
     <use xlink:href="#DejaVuSans-48" transform="translate(1881.703125 0)"/>
     <use xlink:href="#DejaVuSans-10" transform="translate(1943.234375 0)"/>
     <use xlink:href="#DejaVuSans-45" transform="translate(1979.3125 0)"/>
     <use xlink:href="#DejaVuSans-52" transform="translate(2042.796875 0)"/>
     <use xlink:href="#DejaVuSans-58" transform="translate(2103.984375 0)"/>
     <use xlink:href="#DejaVuSans-51" transform="translate(2167.359375 0)"/>
     <use xlink:href="#DejaVuSans-47" transform="translate(2230.734375 0)"/>
     <use xlink:href="#DejaVuSans-3" transform="translate(2294.21875 0)"/>
     <use xlink:href="#DejaVuSans-55" transform="translate(2326 0)"/>
     <use xlink:href="#DejaVuSans-48" transform="translate(2364.90625 0)"/>
     <use xlink:href="#DejaVuSans-46" transform="translate(2426.4375 0)"/>
     <use xlink:href="#DejaVuSans-48" transform="translate(2481.421875 0)"/>
     <use xlink:href="#DejaVuSans-4c" transform="translate(2542.953125 0)"/>
     <use xlink:href="#DejaVuSans-53" transform="translate(2570.734375 0)"/>
     <use xlink:href="#DejaVuSans-57" transform="translate(2634.21875 0)"/>
    </g>
   </g>
   <g id="text_9">
    <!-- Same protocol geometry -->
    <g style="fill: #17232c" transform="translate(135.624945 226.264393) scale(0.1 -0.1)">
     <defs>
      <path id="DejaVuSans-Bold-36" d="M 3834 4519 
L 3834 3531 
Q 3450 3703 3084 3790 
Q 2719 3878 2394 3878 
Q 1963 3878 1756 3759 
Q 1550 3641 1550 3391 
Q 1550 3203 1689 3098 
Q 1828 2994 2194 2919 
L 2706 2816 
Q 3484 2659 3812 2340 
Q 4141 2022 4141 1434 
Q 4141 663 3683 286 
Q 3225 -91 2284 -91 
Q 1841 -91 1394 -6 
Q 947 78 500 244 
L 500 1259 
Q 947 1022 1364 901 
Q 1781 781 2169 781 
Q 2563 781 2772 912 
Q 2981 1044 2981 1288 
Q 2981 1506 2839 1625 
Q 2697 1744 2272 1838 
L 1806 1941 
Q 1106 2091 782 2419 
Q 459 2747 459 3303 
Q 459 4000 909 4375 
Q 1359 4750 2203 4750 
Q 2588 4750 2994 4692 
Q 3400 4634 3834 4519 
z
" transform="scale(0.015625)"/>
     </defs>
     <use xlink:href="#DejaVuSans-Bold-36"/>
     <use xlink:href="#DejaVuSans-Bold-44" transform="translate(72.015625 0)"/>
     <use xlink:href="#DejaVuSans-Bold-50" transform="translate(139.5 0)"/>
     <use xlink:href="#DejaVuSans-Bold-48" transform="translate(243.703125 0)"/>
     <use xlink:href="#DejaVuSans-Bold-3" transform="translate(311.53125 0)"/>
     <use xlink:href="#DejaVuSans-Bold-53" transform="translate(346.34375 0)"/>
     <use xlink:href="#DejaVuSans-Bold-55" transform="translate(417.921875 0)"/>
     <use xlink:href="#DejaVuSans-Bold-52" transform="translate(467.234375 0)"/>
     <use xlink:href="#DejaVuSans-Bold-57" transform="translate(535.9375 0)"/>
     <use xlink:href="#DejaVuSans-Bold-52" transform="translate(583.734375 0)"/>
     <use xlink:href="#DejaVuSans-Bold-46" transform="translate(652.4375 0)"/>
     <use xlink:href="#DejaVuSans-Bold-52" transform="translate(711.71875 0)"/>
     <use xlink:href="#DejaVuSans-Bold-4f" transform="translate(780.421875 0)"/>
     <use xlink:href="#DejaVuSans-Bold-3" transform="translate(814.703125 0)"/>
     <use xlink:href="#DejaVuSans-Bold-4a" transform="translate(849.515625 0)"/>
     <use xlink:href="#DejaVuSans-Bold-48" transform="translate(921.09375 0)"/>
     <use xlink:href="#DejaVuSans-Bold-52" transform="translate(988.921875 0)"/>
     <use xlink:href="#DejaVuSans-Bold-50" transform="translate(1057.625 0)"/>
     <use xlink:href="#DejaVuSans-Bold-48" transform="translate(1161.828125 0)"/>
     <use xlink:href="#DejaVuSans-Bold-57" transform="translate(1229.65625 0)"/>
     <use xlink:href="#DejaVuSans-Bold-55" transform="translate(1277.453125 0)"/>
     <use xlink:href="#DejaVuSans-Bold-5c" transform="translate(1326.765625 0)"/>
    </g>
    <!-- = same design-capacity computation -->
    <g style="fill: #17232c" transform="translate(100.756977 237.764393) scale(0.1 -0.1)">
     <defs>
      <path id="DejaVuSans-Bold-20" d="M 678 3084 
L 4684 3084 
L 4684 2350 
L 678 2350 
L 678 3084 
z
M 678 1663 
L 4684 1663 
L 4684 922 
L 678 922 
L 678 1663 
z
" transform="scale(0.015625)"/>
     </defs>
     <use xlink:href="#DejaVuSans-Bold-20"/>
     <use xlink:href="#DejaVuSans-Bold-3" transform="translate(83.796875 0)"/>
     <use xlink:href="#DejaVuSans-Bold-56" transform="translate(118.609375 0)"/>
     <use xlink:href="#DejaVuSans-Bold-44" transform="translate(178.125 0)"/>
     <use xlink:href="#DejaVuSans-Bold-50" transform="translate(245.609375 0)"/>
     <use xlink:href="#DejaVuSans-Bold-48" transform="translate(349.8125 0)"/>
     <use xlink:href="#DejaVuSans-Bold-3" transform="translate(417.640625 0)"/>
     <use xlink:href="#DejaVuSans-Bold-47" transform="translate(452.453125 0)"/>
     <use xlink:href="#DejaVuSans-Bold-48" transform="translate(524.03125 0)"/>
     <use xlink:href="#DejaVuSans-Bold-56" transform="translate(591.859375 0)"/>
     <use xlink:href="#DejaVuSans-Bold-4c" transform="translate(651.375 0)"/>
     <use xlink:href="#DejaVuSans-Bold-4a" transform="translate(685.65625 0)"/>
     <use xlink:href="#DejaVuSans-Bold-51" transform="translate(757.234375 0)"/>
     <use xlink:href="#DejaVuSans-Bold-10" transform="translate(828.421875 0)"/>
     <use xlink:href="#DejaVuSans-Bold-46" transform="translate(869.921875 0)"/>
     <use xlink:href="#DejaVuSans-Bold-44" transform="translate(929.203125 0)"/>
     <use xlink:href="#DejaVuSans-Bold-53" transform="translate(996.6875 0)"/>
     <use xlink:href="#DejaVuSans-Bold-44" transform="translate(1068.265625 0)"/>
     <use xlink:href="#DejaVuSans-Bold-46" transform="translate(1135.75 0)"/>
     <use xlink:href="#DejaVuSans-Bold-4c" transform="translate(1195.03125 0)"/>
     <use xlink:href="#DejaVuSans-Bold-57" transform="translate(1229.3125 0)"/>
     <use xlink:href="#DejaVuSans-Bold-5c" transform="translate(1277.109375 0)"/>
     <use xlink:href="#DejaVuSans-Bold-3" transform="translate(1342.296875 0)"/>
     <use xlink:href="#DejaVuSans-Bold-46" transform="translate(1377.109375 0)"/>
     <use xlink:href="#DejaVuSans-Bold-52" transform="translate(1436.390625 0)"/>
     <use xlink:href="#DejaVuSans-Bold-50" transform="translate(1505.09375 0)"/>
     <use xlink:href="#DejaVuSans-Bold-53" transform="translate(1609.296875 0)"/>
     <use xlink:href="#DejaVuSans-Bold-58" transform="translate(1680.875 0)"/>
     <use xlink:href="#DejaVuSans-Bold-57" transform="translate(1752.0625 0)"/>
     <use xlink:href="#DejaVuSans-Bold-44" transform="translate(1799.859375 0)"/>
     <use xlink:href="#DejaVuSans-Bold-57" transform="translate(1867.34375 0)"/>
     <use xlink:href="#DejaVuSans-Bold-4c" transform="translate(1915.140625 0)"/>
     <use xlink:href="#DejaVuSans-Bold-52" transform="translate(1949.421875 0)"/>
     <use xlink:href="#DejaVuSans-Bold-51" transform="translate(2018.125 0)"/>
    </g>
   </g>
   <g id="text_10">
    <!-- Different lane -->
    <g style="fill: #17232c" transform="translate(473.230414 227.272205) scale(0.1 -0.1)">
     <defs>
      <path id="DejaVuSans-Bold-13aa" d="M 2841 4863 
L 2841 4128 
L 2222 4128 
Q 1984 4128 1891 4044 
Q 1797 3956 1797 3744 
L 1797 3500 
L 3078 3500 
L 3078 3744 
Q 3078 4316 3397 4588 
Q 3716 4863 4384 4863 
L 5241 4863 
L 5241 4128 
L 4622 4128 
Q 4384 4128 4291 4044 
Q 4197 3956 4197 3744 
L 4197 3500 
L 5153 3500 
L 5153 2700 
L 4197 2700 
L 4197 0 
L 3078 0 
L 3078 2700 
L 1797 2700 
L 1797 0 
L 678 0 
L 678 2700 
L 122 2700 
L 122 3500 
L 678 3500 
L 678 3744 
Q 678 4316 997 4588 
Q 1316 4863 1984 4863 
L 2841 4863 
z
" transform="scale(0.015625)"/>
     </defs>
     <use xlink:href="#DejaVuSans-Bold-27"/>
     <use xlink:href="#DejaVuSans-Bold-4c" transform="translate(83.015625 0)"/>
     <use xlink:href="#DejaVuSans-Bold-13aa" transform="translate(117.296875 0)"/>
     <use xlink:href="#DejaVuSans-Bold-48" transform="translate(198.296875 0)"/>
     <use xlink:href="#DejaVuSans-Bold-55" transform="translate(266.125 0)"/>
     <use xlink:href="#DejaVuSans-Bold-48" transform="translate(315.4375 0)"/>
     <use xlink:href="#DejaVuSans-Bold-51" transform="translate(383.265625 0)"/>
     <use xlink:href="#DejaVuSans-Bold-57" transform="translate(454.453125 0)"/>
     <use xlink:href="#DejaVuSans-Bold-3" transform="translate(502.25 0)"/>
     <use xlink:href="#DejaVuSans-Bold-4f" transform="translate(537.0625 0)"/>
     <use xlink:href="#DejaVuSans-Bold-44" transform="translate(571.34375 0)"/>
     <use xlink:href="#DejaVuSans-Bold-51" transform="translate(638.828125 0)"/>
     <use xlink:href="#DejaVuSans-Bold-48" transform="translate(710.015625 0)"/>
    </g>
    <!-- = different authorized claim -->
    <g style="fill: #17232c" transform="translate(432.81557 238.772205) scale(0.1 -0.1)">
     <use xlink:href="#DejaVuSans-Bold-20"/>
     <use xlink:href="#DejaVuSans-Bold-3" transform="translate(83.796875 0)"/>
     <use xlink:href="#DejaVuSans-Bold-47" transform="translate(118.609375 0)"/>
     <use xlink:href="#DejaVuSans-Bold-4c" transform="translate(190.1875 0)"/>
     <use xlink:href="#DejaVuSans-Bold-13aa" transform="translate(224.46875 0)"/>
     <use xlink:href="#DejaVuSans-Bold-48" transform="translate(305.46875 0)"/>
     <use xlink:href="#DejaVuSans-Bold-55" transform="translate(373.296875 0)"/>
     <use xlink:href="#DejaVuSans-Bold-48" transform="translate(422.609375 0)"/>
     <use xlink:href="#DejaVuSans-Bold-51" transform="translate(490.4375 0)"/>
     <use xlink:href="#DejaVuSans-Bold-57" transform="translate(561.625 0)"/>
     <use xlink:href="#DejaVuSans-Bold-3" transform="translate(609.421875 0)"/>
     <use xlink:href="#DejaVuSans-Bold-44" transform="translate(644.234375 0)"/>
     <use xlink:href="#DejaVuSans-Bold-58" transform="translate(711.71875 0)"/>
     <use xlink:href="#DejaVuSans-Bold-57" transform="translate(782.90625 0)"/>
     <use xlink:href="#DejaVuSans-Bold-4b" transform="translate(830.703125 0)"/>
     <use xlink:href="#DejaVuSans-Bold-52" transform="translate(901.890625 0)"/>
     <use xlink:href="#DejaVuSans-Bold-55" transform="translate(970.59375 0)"/>
     <use xlink:href="#DejaVuSans-Bold-4c" transform="translate(1019.90625 0)"/>
     <use xlink:href="#DejaVuSans-Bold-5d" transform="translate(1054.1875 0)"/>
     <use xlink:href="#DejaVuSans-Bold-48" transform="translate(1112.390625 0)"/>
     <use xlink:href="#DejaVuSans-Bold-47" transform="translate(1180.21875 0)"/>
     <use xlink:href="#DejaVuSans-Bold-3" transform="translate(1251.796875 0)"/>
     <use xlink:href="#DejaVuSans-Bold-46" transform="translate(1286.609375 0)"/>
     <use xlink:href="#DejaVuSans-Bold-4f" transform="translate(1345.890625 0)"/>
     <use xlink:href="#DejaVuSans-Bold-44" transform="translate(1380.171875 0)"/>
     <use xlink:href="#DejaVuSans-Bold-4c" transform="translate(1447.65625 0)"/>
     <use xlink:href="#DejaVuSans-Bold-50" transform="translate(1481.9375 0)"/>
    </g>
   </g>
   <g id="text_11">
    <!-- Planned trials are not penalized for being planned; they also do not borrow realized, accessible, or demonstrated status. -->
    <g style="fill: #17232c" transform="translate(5.76 317.99808) scale(0.103 -0.103)">
     <defs>
      <path id="DejaVuSans-Bold-1e" d="M 716 1209 
L 1844 1209 
L 1844 256 
L 1069 -909 
L 403 -909 
L 716 256 
L 716 1209 
z
M 716 3500 
L 1844 3500 
L 1844 2291 
L 716 2291 
L 716 3500 
z
" transform="scale(0.015625)"/>
      <path id="DejaVuSans-Bold-11" d="M 653 1209 
L 1778 1209 
L 1778 0 
L 653 0 
L 653 1209 
z
" transform="scale(0.015625)"/>
     </defs>
     <use xlink:href="#DejaVuSans-Bold-33"/>
     <use xlink:href="#DejaVuSans-Bold-4f" transform="translate(73.296875 0)"/>
     <use xlink:href="#DejaVuSans-Bold-44" transform="translate(107.578125 0)"/>
     <use xlink:href="#DejaVuSans-Bold-51" transform="translate(175.0625 0)"/>
     <use xlink:href="#DejaVuSans-Bold-51" transform="translate(246.25 0)"/>
     <use xlink:href="#DejaVuSans-Bold-48" transform="translate(317.4375 0)"/>
     <use xlink:href="#DejaVuSans-Bold-47" transform="translate(385.265625 0)"/>
     <use xlink:href="#DejaVuSans-Bold-3" transform="translate(456.84375 0)"/>
     <use xlink:href="#DejaVuSans-Bold-57" transform="translate(491.65625 0)"/>
     <use xlink:href="#DejaVuSans-Bold-55" transform="translate(539.453125 0)"/>
     <use xlink:href="#DejaVuSans-Bold-4c" transform="translate(588.765625 0)"/>
     <use xlink:href="#DejaVuSans-Bold-44" transform="translate(623.046875 0)"/>
     <use xlink:href="#DejaVuSans-Bold-4f" transform="translate(690.53125 0)"/>
     <use xlink:href="#DejaVuSans-Bold-56" transform="translate(724.8125 0)"/>
     <use xlink:href="#DejaVuSans-Bold-3" transform="translate(784.328125 0)"/>
     <use xlink:href="#DejaVuSans-Bold-44" transform="translate(819.140625 0)"/>
     <use xlink:href="#DejaVuSans-Bold-55" transform="translate(886.625 0)"/>
     <use xlink:href="#DejaVuSans-Bold-48" transform="translate(935.9375 0)"/>
     <use xlink:href="#DejaVuSans-Bold-3" transform="translate(1003.765625 0)"/>
     <use xlink:href="#DejaVuSans-Bold-51" transform="translate(1038.578125 0)"/>
     <use xlink:href="#DejaVuSans-Bold-52" transform="translate(1109.765625 0)"/>
     <use xlink:href="#DejaVuSans-Bold-57" transform="translate(1178.46875 0)"/>
     <use xlink:href="#DejaVuSans-Bold-3" transform="translate(1226.265625 0)"/>
     <use xlink:href="#DejaVuSans-Bold-53" transform="translate(1261.078125 0)"/>
     <use xlink:href="#DejaVuSans-Bold-48" transform="translate(1332.65625 0)"/>
     <use xlink:href="#DejaVuSans-Bold-51" transform="translate(1400.484375 0)"/>
     <use xlink:href="#DejaVuSans-Bold-44" transform="translate(1471.671875 0)"/>
     <use xlink:href="#DejaVuSans-Bold-4f" transform="translate(1539.15625 0)"/>
     <use xlink:href="#DejaVuSans-Bold-4c" transform="translate(1573.4375 0)"/>
     <use xlink:href="#DejaVuSans-Bold-5d" transform="translate(1607.71875 0)"/>
     <use xlink:href="#DejaVuSans-Bold-48" transform="translate(1665.921875 0)"/>
     <use xlink:href="#DejaVuSans-Bold-47" transform="translate(1733.75 0)"/>
     <use xlink:href="#DejaVuSans-Bold-3" transform="translate(1805.328125 0)"/>
     <use xlink:href="#DejaVuSans-Bold-49" transform="translate(1840.140625 0)"/>
     <use xlink:href="#DejaVuSans-Bold-52" transform="translate(1883.640625 0)"/>
     <use xlink:href="#DejaVuSans-Bold-55" transform="translate(1952.34375 0)"/>
     <use xlink:href="#DejaVuSans-Bold-3" transform="translate(2001.65625 0)"/>
     <use xlink:href="#DejaVuSans-Bold-45" transform="translate(2036.46875 0)"/>
     <use xlink:href="#DejaVuSans-Bold-48" transform="translate(2108.046875 0)"/>
     <use xlink:href="#DejaVuSans-Bold-4c" transform="translate(2175.875 0)"/>
     <use xlink:href="#DejaVuSans-Bold-51" transform="translate(2210.15625 0)"/>
     <use xlink:href="#DejaVuSans-Bold-4a" transform="translate(2281.34375 0)"/>
     <use xlink:href="#DejaVuSans-Bold-3" transform="translate(2352.921875 0)"/>
     <use xlink:href="#DejaVuSans-Bold-53" transform="translate(2387.734375 0)"/>
     <use xlink:href="#DejaVuSans-Bold-4f" transform="translate(2459.3125 0)"/>
     <use xlink:href="#DejaVuSans-Bold-44" transform="translate(2493.59375 0)"/>
     <use xlink:href="#DejaVuSans-Bold-51" transform="translate(2561.078125 0)"/>
     <use xlink:href="#DejaVuSans-Bold-51" transform="translate(2632.265625 0)"/>
     <use xlink:href="#DejaVuSans-Bold-48" transform="translate(2703.453125 0)"/>
     <use xlink:href="#DejaVuSans-Bold-47" transform="translate(2771.28125 0)"/>
     <use xlink:href="#DejaVuSans-Bold-1e" transform="translate(2842.859375 0)"/>
     <use xlink:href="#DejaVuSans-Bold-3" transform="translate(2882.84375 0)"/>
     <use xlink:href="#DejaVuSans-Bold-57" transform="translate(2917.65625 0)"/>
     <use xlink:href="#DejaVuSans-Bold-4b" transform="translate(2965.453125 0)"/>
     <use xlink:href="#DejaVuSans-Bold-48" transform="translate(3036.640625 0)"/>
     <use xlink:href="#DejaVuSans-Bold-5c" transform="translate(3104.46875 0)"/>
     <use xlink:href="#DejaVuSans-Bold-3" transform="translate(3169.65625 0)"/>
     <use xlink:href="#DejaVuSans-Bold-44" transform="translate(3204.46875 0)"/>
     <use xlink:href="#DejaVuSans-Bold-4f" transform="translate(3271.953125 0)"/>
     <use xlink:href="#DejaVuSans-Bold-56" transform="translate(3306.234375 0)"/>
     <use xlink:href="#DejaVuSans-Bold-52" transform="translate(3365.75 0)"/>
     <use xlink:href="#DejaVuSans-Bold-3" transform="translate(3434.453125 0)"/>
     <use xlink:href="#DejaVuSans-Bold-47" transform="translate(3469.265625 0)"/>
     <use xlink:href="#DejaVuSans-Bold-52" transform="translate(3540.84375 0)"/>
     <use xlink:href="#DejaVuSans-Bold-3" transform="translate(3609.546875 0)"/>
     <use xlink:href="#DejaVuSans-Bold-51" transform="translate(3644.359375 0)"/>
     <use xlink:href="#DejaVuSans-Bold-52" transform="translate(3715.546875 0)"/>
     <use xlink:href="#DejaVuSans-Bold-57" transform="translate(3784.25 0)"/>
     <use xlink:href="#DejaVuSans-Bold-3" transform="translate(3832.046875 0)"/>
     <use xlink:href="#DejaVuSans-Bold-45" transform="translate(3866.859375 0)"/>
     <use xlink:href="#DejaVuSans-Bold-52" transform="translate(3938.4375 0)"/>
     <use xlink:href="#DejaVuSans-Bold-55" transform="translate(4007.140625 0)"/>
     <use xlink:href="#DejaVuSans-Bold-55" transform="translate(4056.453125 0)"/>
     <use xlink:href="#DejaVuSans-Bold-52" transform="translate(4105.765625 0)"/>
     <use xlink:href="#DejaVuSans-Bold-5a" transform="translate(4174.46875 0)"/>
     <use xlink:href="#DejaVuSans-Bold-3" transform="translate(4266.859375 0)"/>
     <use xlink:href="#DejaVuSans-Bold-55" transform="translate(4301.671875 0)"/>
     <use xlink:href="#DejaVuSans-Bold-48" transform="translate(4350.984375 0)"/>
     <use xlink:href="#DejaVuSans-Bold-44" transform="translate(4418.8125 0)"/>
     <use xlink:href="#DejaVuSans-Bold-4f" transform="translate(4486.296875 0)"/>
     <use xlink:href="#DejaVuSans-Bold-4c" transform="translate(4520.578125 0)"/>
     <use xlink:href="#DejaVuSans-Bold-5d" transform="translate(4554.859375 0)"/>
     <use xlink:href="#DejaVuSans-Bold-48" transform="translate(4613.0625 0)"/>
     <use xlink:href="#DejaVuSans-Bold-47" transform="translate(4680.890625 0)"/>
     <use xlink:href="#DejaVuSans-Bold-f" transform="translate(4752.46875 0)"/>
     <use xlink:href="#DejaVuSans-Bold-3" transform="translate(4790.453125 0)"/>
     <use xlink:href="#DejaVuSans-Bold-44" transform="translate(4825.265625 0)"/>
     <use xlink:href="#DejaVuSans-Bold-46" transform="translate(4892.75 0)"/>
     <use xlink:href="#DejaVuSans-Bold-46" transform="translate(4952.03125 0)"/>
     <use xlink:href="#DejaVuSans-Bold-48" transform="translate(5011.3125 0)"/>
     <use xlink:href="#DejaVuSans-Bold-56" transform="translate(5079.140625 0)"/>
     <use xlink:href="#DejaVuSans-Bold-56" transform="translate(5138.65625 0)"/>
     <use xlink:href="#DejaVuSans-Bold-4c" transform="translate(5198.171875 0)"/>
     <use xlink:href="#DejaVuSans-Bold-45" transform="translate(5232.453125 0)"/>
     <use xlink:href="#DejaVuSans-Bold-4f" transform="translate(5304.03125 0)"/>
     <use xlink:href="#DejaVuSans-Bold-48" transform="translate(5338.3125 0)"/>
     <use xlink:href="#DejaVuSans-Bold-f" transform="translate(5406.140625 0)"/>
     <use xlink:href="#DejaVuSans-Bold-3" transform="translate(5444.125 0)"/>
     <use xlink:href="#DejaVuSans-Bold-52" transform="translate(5478.9375 0)"/>
     <use xlink:href="#DejaVuSans-Bold-55" transform="translate(5547.640625 0)"/>
     <use xlink:href="#DejaVuSans-Bold-3" transform="translate(5596.953125 0)"/>
     <use xlink:href="#DejaVuSans-Bold-47" transform="translate(5631.765625 0)"/>
     <use xlink:href="#DejaVuSans-Bold-48" transform="translate(5703.34375 0)"/>
     <use xlink:href="#DejaVuSans-Bold-50" transform="translate(5771.171875 0)"/>
     <use xlink:href="#DejaVuSans-Bold-52" transform="translate(5875.375 0)"/>
     <use xlink:href="#DejaVuSans-Bold-51" transform="translate(5944.078125 0)"/>
     <use xlink:href="#DejaVuSans-Bold-56" transform="translate(6015.265625 0)"/>
     <use xlink:href="#DejaVuSans-Bold-57" transform="translate(6074.78125 0)"/>
     <use xlink:href="#DejaVuSans-Bold-55" transform="translate(6122.578125 0)"/>
     <use xlink:href="#DejaVuSans-Bold-44" transform="translate(6171.890625 0)"/>
     <use xlink:href="#DejaVuSans-Bold-57" transform="translate(6239.375 0)"/>
     <use xlink:href="#DejaVuSans-Bold-48" transform="translate(6287.171875 0)"/>
     <use xlink:href="#DejaVuSans-Bold-47" transform="translate(6355 0)"/>
     <use xlink:href="#DejaVuSans-Bold-3" transform="translate(6426.578125 0)"/>
     <use xlink:href="#DejaVuSans-Bold-56" transform="translate(6461.390625 0)"/>
     <use xlink:href="#DejaVuSans-Bold-57" transform="translate(6520.90625 0)"/>
     <use xlink:href="#DejaVuSans-Bold-44" transform="translate(6568.703125 0)"/>
     <use xlink:href="#DejaVuSans-Bold-57" transform="translate(6636.1875 0)"/>
     <use xlink:href="#DejaVuSans-Bold-58" transform="translate(6683.984375 0)"/>
     <use xlink:href="#DejaVuSans-Bold-56" transform="translate(6755.171875 0)"/>
     <use xlink:href="#DejaVuSans-Bold-11" transform="translate(6814.6875 0)"/>
    </g>
   </g>
  </g>
 </g>
 <defs>
  <clipPath id="pd9cf6c4e3f">
   <rect x="51.772602" y="5.76" width="613.8" height="354.816"/>
  </clipPath>
 </defs>
</svg>
